<?xml version="1.0" standalone="no"?>
<!DOCTYPE svg PUBLIC "-//W3C//DTD SVG 20010904//EN"
 "http://www.w3.org/TR/2001/REC-SVG-20010904/DTD/svg10.dtd">
<svg version="1.0" xmlns="http://www.w3.org/2000/svg"
 width="3000.000000pt" height="1500.000000pt" viewBox="0 0 3000.000000 1500.000000"
 preserveAspectRatio="xMidYMid meet">

<g transform="translate(0.000000,1500.000000) scale(0.100000,-0.100000)"
fill="#000000" stroke="none">
<path d="M0 14585 l0 -416 23 -23 c12 -13 29 -33 37 -45 8 -11 20 -21 27 -21
6 0 15 -9 18 -20 3 -11 11 -20 16 -20 5 0 9 -11 9 -25 0 -23 3 -25 27 -19 16
4 55 9 88 11 55 4 65 1 125 -34 64 -38 64 -39 88 -113 38 -120 18 -219 -63
-314 -14 -16 -39 -51 -56 -78 -18 -27 -44 -62 -58 -77 -14 -16 -39 -45 -56
-66 -68 -85 -159 -155 -202 -155 l-23 0 0 -351 0 -350 22 3 c15 2 24 13 30 36
5 17 12 32 17 32 22 0 28 47 14 119 -14 66 -14 78 1 123 9 28 16 55 16 60 0 5
6 15 13 22 6 8 19 23 27 35 9 13 25 21 42 21 15 0 28 4 28 8 0 24 39 52 74 52
20 0 36 5 36 10 0 6 10 10 21 10 21 0 59 34 59 52 0 4 27 8 60 8 33 0 60 4 60
10 0 6 13 10 29 10 21 0 32 6 36 20 4 13 15 20 31 20 13 0 24 5 24 10 0 14 59
12 74 -3 22 -22 36 -55 36 -86 0 -42 9 -61 31 -61 10 0 19 -4 19 -10 0 -6 27
-10 60 -10 33 0 60 4 60 10 0 6 40 10 100 10 60 0 100 4 100 10 0 6 33 10 80
10 l80 0 0 -35 c0 -33 2 -35 33 -35 17 0 70 9 117 21 132 32 256 49 365 49
132 0 266 22 338 54 32 14 72 26 91 26 50 0 181 -76 225 -130 46 -57 63 -73
131 -117 85 -56 95 -79 63 -143 -14 -28 -14 -40 -5 -77 17 -61 15 -77 -11
-101 -34 -32 -89 -51 -192 -67 -111 -16 -157 -36 -189 -79 -35 -46 -39 -70
-19 -107 23 -42 97 -81 206 -109 62 -15 119 -20 271 -23 162 -2 197 -5 219
-20 61 -40 40 -113 -47 -166 -106 -64 -234 -95 -621 -152 -82 -12 -286 -64
-332 -85 -17 -8 -34 -14 -37 -14 -4 0 -48 -20 -99 -44 -50 -23 -110 -49 -132
-56 -62 -20 -218 -94 -314 -149 -148 -85 -221 -109 -350 -114 -92 -4 -114 -2
-118 10 -9 24 16 38 127 73 58 18 118 39 133 47 47 24 103 85 131 145 17 36
57 88 104 137 143 149 152 164 152 268 0 66 -3 75 -30 106 -37 43 -139 89
-207 95 -29 2 -105 -2 -170 -9 -143 -17 -288 -14 -366 8 -82 23 -170 13 -297
-31 -58 -21 -114 -40 -125 -42 -38 -9 -133 -6 -153 5 -22 12 -130 15 -156 5
-15 -6 -16 -219 -16 -2315 0 -2097 1 -2309 16 -2309 8 0 33 18 54 40 21 22 45
40 52 40 7 0 20 9 28 20 8 12 26 20 42 20 21 0 28 5 28 20 0 11 5 20 11 20 14
0 39 26 39 40 0 23 30 40 69 40 23 0 41 5 41 10 0 6 14 10 30 10 17 0 30 5 30
10 0 6 13 10 29 10 23 0 30 5 34 29 3 16 13 35 21 44 14 13 35 63 53 122 13
39 28 45 127 45 57 0 96 4 96 10 0 6 14 10 30 10 17 0 30 5 30 10 0 6 14 10
30 10 17 0 30 5 30 10 0 6 9 10 20 10 11 0 20 5 20 10 0 6 8 10 19 10 14 0 21
10 26 36 3 20 13 44 21 52 8 8 18 27 21 43 3 16 11 29 18 29 14 0 25 106 25
252 0 96 -7 127 -37 156 -7 7 -13 27 -13 43 0 20 -5 29 -16 29 -9 0 -26 10
-37 23 -13 15 -21 18 -24 10 -5 -15 -43 -17 -43 -3 0 6 -18 10 -40 10 -22 0
-40 5 -40 10 0 6 -9 10 -20 10 -13 0 -20 7 -20 20 0 11 -5 20 -11 20 -13 0
-49 38 -49 52 0 4 -15 8 -33 8 -26 0 -36 6 -45 25 -17 37 -15 69 7 93 19 23
51 30 51 12 0 -19 39 -10 45 10 7 22 30 27 39 8 5 -10 7 -10 12 0 3 7 25 12
55 12 27 0 49 5 49 10 0 6 9 10 20 10 11 0 20 5 20 10 0 6 70 10 190 10 120 0
190 4 190 10 0 6 23 10 50 10 28 0 50 5 50 10 0 6 23 10 50 10 28 0 50 5 50
10 0 6 23 10 50 10 28 0 50 5 50 10 0 6 27 10 60 10 33 0 60 4 60 10 0 6 73
10 200 10 127 0 200 4 200 10 0 6 33 10 78 10 66 0 80 3 92 20 13 17 26 20
102 20 52 0 88 4 88 10 0 6 40 10 100 10 60 0 100 4 100 10 0 6 30 10 70 10
40 0 70 4 70 10 0 6 9 10 20 10 11 0 20 5 20 10 0 6 30 10 70 10 40 0 70 4 70
10 0 6 16 10 35 10 19 0 35 5 35 10 0 6 6 10 14 10 8 0 18 9 21 20 4 13 15 20
31 20 13 0 24 5 24 10 0 6 11 10 25 10 14 0 25 5 25 10 0 6 7 10 15 10 8 0 15
5 15 10 0 6 7 10 15 10 8 0 15 5 15 10 0 6 11 10 25 10 14 0 25 5 25 10 0 6 9
10 20 10 11 0 20 5 20 10 0 6 27 10 60 10 33 0 60 4 60 10 0 6 47 10 120 10
73 0 120 4 120 10 0 6 27 10 60 10 33 0 60 4 60 10 0 6 30 10 71 10 69 0 71
-1 66 -22 -24 -95 -29 -164 -17 -215 18 -81 65 -167 125 -231 30 -31 62 -71
72 -89 16 -30 16 -34 1 -67 -28 -58 -137 -109 -272 -126 -101 -12 -150 0 -206
54 -55 53 -112 83 -165 88 -49 4 -196 -11 -210 -22 -5 -4 -23 -10 -40 -14 -53
-13 -109 -44 -161 -88 -42 -36 -62 -46 -120 -57 -86 -16 -123 -29 -152 -55
-39 -36 -94 -118 -129 -193 -74 -161 -150 -196 -318 -145 -59 18 -88 21 -175
17 -58 -2 -127 -11 -154 -20 -64 -20 -95 -19 -186 5 -147 40 -263 22 -295 -45
-19 -41 -12 -75 22 -110 29 -28 33 -29 157 -30 l89 0 40 -58 c48 -71 68 -84
156 -107 93 -25 144 -53 199 -109 78 -78 146 -122 190 -123 72 -1 93 21 111
114 14 78 42 113 110 139 31 11 70 33 86 49 30 29 179 110 202 110 7 0 26 20
43 45 17 24 39 50 50 58 11 8 56 49 100 91 68 64 86 76 115 76 36 0 60 -17 70
-50 8 -24 -23 -62 -150 -185 -72 -70 -89 -93 -133 -185 -28 -58 -65 -121 -83
-140 -60 -66 -89 -148 -100 -283 -5 -66 -15 -129 -21 -141 -6 -11 -39 -51 -74
-88 -35 -36 -64 -70 -64 -75 0 -24 -104 -112 -174 -148 -116 -60 -140 -89
-186 -230 -35 -107 -53 -136 -121 -195 -90 -78 -117 -110 -131 -153 -11 -36
-10 -39 22 -72 19 -19 48 -37 65 -41 37 -7 251 34 373 71 56 16 106 25 150 24
68 -1 158 15 177 31 30 25 239 20 345 -7 20 -6 59 -6 90 -2 102 15 180 33 180
41 0 4 14 8 30 8 17 0 30 5 30 10 0 6 22 10 48 10 36 0 51 5 62 20 8 11 19 20
26 20 11 0 34 41 34 61 0 13 26 39 39 39 5 0 13 9 16 20 4 13 15 20 31 20 13
0 24 5 24 10 0 6 8 10 19 10 11 0 23 12 31 30 7 17 19 30 27 30 8 0 28 14 43
30 15 17 34 30 42 30 8 0 20 11 26 25 15 32 16 75 2 75 -15 0 -12 29 4 46 23
22 36 17 36 -16 0 -24 4 -30 21 -30 19 0 21 4 14 38 -4 20 -11 39 -16 40 -5 2
-9 21 -9 43 0 28 4 39 15 39 8 0 15 9 15 20 0 11 4 20 9 20 5 0 13 9 16 20 3
11 14 20 24 20 11 0 23 12 30 30 6 16 16 44 22 60 7 17 25 45 40 63 16 18 33
37 39 44 5 6 9 27 8 45 -1 18 -1 61 0 96 2 59 3 62 27 62 25 0 25 1 25 80 0
79 0 80 -25 80 -18 0 -25 5 -25 19 0 11 -6 26 -13 33 -8 7 -17 26 -21 41 -3
15 -13 27 -21 27 -8 0 -15 5 -15 10 0 6 -7 10 -15 10 -15 0 -29 42 -41 124 -6
46 -6 48 13 38 11 -6 26 -18 33 -27 22 -26 69 -47 91 -40 27 9 50 -13 79 -75
20 -42 30 -52 62 -62 34 -10 42 -9 66 8 15 11 40 47 56 79 38 76 47 197 22
271 -20 60 -20 64 4 64 11 0 20 5 20 10 0 6 27 10 60 10 33 0 60 -4 60 -10 0
-5 9 -10 20 -10 11 0 20 -4 20 -10 0 -6 31 -10 72 -10 39 0 87 -5 105 -12 33
-12 35 -11 59 20 31 39 60 55 140 75 34 9 88 29 120 46 97 49 318 103 489 121
172 17 337 39 420 55 44 9 116 22 160 30 199 35 332 70 630 170 335 112 410
144 471 197 73 64 144 207 144 290 0 36 -6 47 -46 85 -55 53 -77 63 -169 73
-95 11 -370 -5 -416 -24 -20 -8 -94 -20 -165 -26 -157 -13 -157 -13 -218 -61
-27 -22 -52 -39 -56 -39 -3 0 -12 -33 -18 -74 -6 -40 -17 -85 -23 -100 l-12
-26 -129 0 c-79 0 -128 -4 -128 -10 0 -6 -32 -10 -75 -10 -68 0 -75 -2 -75
-20 0 -19 -7 -20 -240 -20 -153 0 -240 -4 -240 -10 0 -5 -11 -10 -25 -10 -14
0 -25 -4 -25 -10 0 -5 -13 -10 -30 -10 -16 0 -30 -4 -30 -10 0 -5 -11 -10 -25
-10 -14 0 -25 -4 -25 -10 0 -6 -93 -10 -260 -10 -167 0 -260 -4 -260 -10 0 -5
-13 -10 -30 -10 -16 0 -30 -4 -30 -10 0 -6 -45 -10 -116 -10 l-117 0 7 49 c4
27 17 69 30 93 36 64 47 135 36 220 -5 40 -9 102 -9 137 0 67 -3 60 86 209 12
20 21 22 93 22 43 0 109 -7 147 -16 100 -24 419 -25 533 -3 25 5 162 11 305
13 179 3 288 9 350 20 50 9 124 21 167 25 146 18 255 59 292 113 29 41 20 81
-28 135 -67 75 -86 118 -89 204 -2 64 2 81 27 131 16 32 50 81 76 110 77 86
90 89 467 92 303 3 323 4 413 28 52 14 128 31 168 38 91 17 116 7 133 -49 11
-36 9 -44 -14 -88 -113 -212 -143 -301 -133 -391 8 -67 25 -100 71 -141 81
-70 190 -106 361 -117 153 -10 282 11 528 88 96 29 107 31 292 32 l191 1 71
37 c39 20 99 42 134 48 35 6 87 15 117 21 30 5 58 14 62 21 6 9 27 8 86 -5 43
-9 128 -18 190 -20 123 -4 146 -13 141 -56 -3 -28 -18 -32 -193 -46 -83 -7
-140 -22 -177 -47 -41 -28 -79 -31 -146 -13 -38 11 -77 15 -99 12 -43 -7 -105
-63 -135 -122 -11 -22 -32 -55 -45 -73 -24 -32 -28 -33 -67 -28 -38 6 -44 4
-76 -29 -31 -32 -39 -35 -93 -35 -45 0 -71 -6 -111 -27 -28 -16 -54 -32 -58
-38 -4 -5 -54 -10 -110 -11 -125 -1 -299 -29 -353 -56 -21 -11 -60 -35 -86
-53 -26 -18 -65 -36 -86 -40 -67 -12 -176 -69 -214 -112 -20 -22 -53 -71 -73
-109 -20 -38 -54 -88 -76 -111 -65 -68 -110 -143 -110 -183 0 -57 15 -69 95
-72 65 -3 70 -5 73 -26 4 -27 -20 -57 -60 -78 -33 -17 -51 -48 -43 -73 6 -21
46 -41 81 -41 13 0 27 -7 30 -15 9 -23 -5 -65 -21 -65 -8 0 -15 -4 -15 -9 0
-5 -48 -32 -108 -61 -59 -28 -128 -61 -153 -73 -78 -37 -122 -122 -84 -161 22
-22 20 -31 -39 -119 -80 -122 -101 -141 -251 -215 -59 -30 -102 -67 -260 -226
-210 -211 -295 -263 -503 -307 -85 -18 -208 -59 -237 -80 -16 -12 -116 -37
-175 -45 -54 -6 -177 -59 -211 -90 -9 -8 -51 -28 -92 -43 -41 -16 -88 -37
-104 -49 -33 -24 -94 -41 -150 -44 -80 -3 -84 28 -12 97 28 28 58 65 66 84 13
30 12 35 -2 51 -19 21 -69 18 -117 -6 -15 -8 -45 -14 -68 -14 -45 0 -99 -24
-145 -65 -16 -14 -57 -40 -90 -57 -57 -29 -86 -53 -117 -96 -7 -10 -31 -31
-54 -46 -80 -53 -108 -103 -161 -291 -30 -107 -63 -158 -100 -153 -27 3 -29 5
-64 81 -25 56 -53 71 -117 63 -43 -6 -85 -27 -113 -58 -19 -21 -55 -24 -63 -5
-5 10 -7 10 -12 0 -4 -10 -40 -13 -130 -13 -76 0 -124 -4 -124 -10 0 -5 -7
-10 -16 -10 -9 0 -29 -13 -44 -30 -15 -16 -35 -30 -44 -30 -9 0 -16 -4 -16
-10 0 -6 -47 -10 -120 -10 -73 0 -120 -4 -120 -10 0 -5 -16 -10 -35 -10 -31 0
-71 -14 -85 -31 -6 -7 -96 -21 -165 -25 -74 -4 -128 -27 -205 -88 -88 -68
-134 -83 -290 -90 -69 -3 -150 -12 -180 -20 -151 -38 -217 -59 -254 -81 -66
-38 -190 -75 -339 -101 -76 -13 -142 -26 -145 -28 -15 -9 -242 -56 -317 -65
-432 -56 -478 -68 -725 -189 -148 -73 -222 -158 -275 -317 -15 -43 -41 -108
-58 -144 -27 -56 -32 -77 -32 -141 0 -95 36 -176 99 -222 41 -30 41 -30 141
-24 161 9 255 -34 255 -118 0 -72 -68 -110 -223 -126 -220 -23 -290 -33 -385
-57 -57 -14 -106 -22 -109 -19 -3 3 2 21 11 40 9 19 16 48 16 64 0 54 -88 122
-175 135 -22 4 -45 13 -51 21 -10 15 -55 36 -75 36 -5 0 -9 -177 -9 -448 l0
-448 67 -29 c36 -15 85 -43 109 -61 24 -19 83 -53 131 -78 48 -24 125 -66 171
-94 45 -28 104 -56 130 -62 66 -16 828 -39 1018 -31 61 3 113 -17 164 -63 23
-21 53 -36 77 -40 29 -5 39 -12 40 -26 1 -11 -3 -23 -9 -26 -19 -12 -73 -5
-124 14 -106 42 -230 55 -447 49 -293 -9 -576 -10 -702 -2 -94 6 -120 4 -180
-13 -182 -53 -260 -96 -340 -188 -27 -31 -62 -70 -77 -87 l-28 -29 0 -194 0
-194 25 0 c14 0 25 5 25 10 0 6 6 10 13 10 7 0 19 9 27 21 30 42 66 83 94 108
16 14 39 36 52 49 13 12 28 22 34 22 5 0 10 3 10 8 0 8 92 32 123 32 9 0 17 5
17 10 0 17 107 12 114 -5 7 -18 33 -20 39 -2 2 7 10 0 17 -15 7 -16 17 -28 22
-28 11 0 10 -74 -2 -125 -26 -116 -33 -135 -52 -135 -16 0 -18 -9 -18 -80 0
-78 1 -80 24 -80 15 0 27 -7 30 -18 3 -9 20 -23 38 -31 17 -8 45 -27 61 -43
17 -15 36 -28 43 -28 7 0 16 -9 19 -20 5 -15 15 -20 43 -20 26 0 42 -6 52 -20
8 -11 22 -20 32 -20 10 0 18 -4 18 -10 0 -14 60 -70 76 -70 7 0 16 -9 19 -20
3 -11 11 -20 16 -20 5 0 19 -9 31 -20 12 -11 34 -20 50 -20 21 0 28 -5 28 -20
0 -16 7 -20 36 -20 22 0 43 -7 53 -18 9 -9 28 -23 44 -31 15 -8 27 -18 27 -23
0 -4 14 -8 31 -8 19 0 39 -8 49 -20 10 -11 30 -21 44 -22 21 -2 29 -9 33 -30
4 -21 11 -28 28 -28 23 0 55 -28 55 -48 0 -7 8 -12 18 -12 17 0 42 -36 42 -61
0 -28 -51 -51 -65 -29 -8 14 -45 13 -45 -1 0 -7 -9 -9 -22 -5 -13 4 -52 11
-88 16 -38 5 -69 15 -76 24 -6 9 -23 16 -37 16 -14 0 -29 5 -32 10 -3 6 -17
10 -30 10 -13 0 -27 5 -30 10 -3 6 -17 10 -30 10 -13 0 -27 5 -30 10 -3 6 -17
10 -30 10 -13 0 -27 5 -30 10 -3 6 -22 10 -41 10 -19 0 -34 4 -34 8 0 11 -83
32 -125 32 -19 0 -35 4 -35 10 0 5 -19 15 -42 22 -24 6 -50 20 -59 30 -9 10
-28 18 -42 18 -15 0 -42 9 -62 20 -20 11 -53 20 -75 20 -22 0 -40 5 -40 10 0
6 -9 10 -19 10 -11 0 -22 4 -25 9 -3 4 -27 11 -53 14 -26 3 -52 12 -58 21 -7
9 -24 16 -39 16 -15 0 -29 7 -33 15 -3 9 -21 22 -40 30 -40 17 -143 20 -143 5
0 -5 -16 -10 -35 -10 l-35 0 0 -129 0 -129 47 1 c41 0 50 -4 82 -39 105 -116
104 -112 112 -354 5 -137 12 -217 21 -240 86 -217 232 -303 513 -304 225 0
372 42 683 197 l165 82 161 1 c101 0 171 5 189 12 88 37 140 65 207 109 142
94 255 156 365 199 39 16 84 39 102 52 34 25 105 136 124 192 6 19 19 53 29
75 9 22 23 57 29 77 7 20 29 63 50 95 104 161 92 303 -32 370 -26 15 -58 18
-180 18 -146 1 -149 1 -167 25 -46 60 -28 111 49 140 31 12 66 26 79 31 24 9
45 49 62 116 13 51 41 73 92 73 67 0 103 64 58 105 -24 22 -114 25 -275 11
-166 -14 -215 2 -295 100 -41 50 -52 132 -25 184 20 38 88 84 145 98 55 13
103 5 252 -43 60 -20 132 -40 161 -46 66 -14 147 -52 174 -81 36 -39 44 -99
22 -171 -39 -127 -41 -168 -12 -275 14 -53 29 -116 34 -139 4 -23 24 -71 43
-105 19 -35 39 -79 44 -98 6 -19 24 -71 41 -114 56 -148 52 -202 -31 -371 -53
-110 -107 -173 -178 -210 -56 -28 -78 -53 -120 -130 -45 -83 -52 -90 -139
-126 -42 -17 -78 -34 -81 -38 -11 -14 -157 -81 -176 -81 -33 0 -115 -31 -121
-47 -7 -19 -93 -73 -171 -108 -77 -35 -127 -89 -148 -163 -20 -67 -13 -119 27
-213 23 -55 27 -73 19 -89 -14 -26 -34 -25 -100 6 -51 24 -62 26 -150 21 -52
-3 -115 -3 -140 1 -28 5 -66 3 -100 -5 -30 -7 -76 -11 -101 -7 -89 11 -189
-41 -189 -99 0 -30 30 -87 46 -87 6 0 23 -9 38 -21 55 -43 19 -110 -68 -130
-53 -11 -57 -11 -123 21 -51 25 -86 35 -143 39 -44 4 -86 13 -100 22 -43 28
-133 48 -210 48 -41 0 -97 5 -125 11 -27 6 -88 11 -135 12 -107 1 -151 -19
-230 -104 -30 -33 -88 -93 -127 -133 l-73 -74 0 -200 0 -201 679 0 679 0 12
30 c7 17 16 30 21 30 5 0 9 17 9 39 0 23 8 48 20 64 11 14 20 32 20 39 0 8 12
21 28 29 15 8 29 17 32 20 14 18 62 13 86 -9 28 -26 109 -62 139 -62 20 0 29
7 36 30 6 17 17 30 23 30 16 0 36 43 36 74 0 43 57 86 114 86 19 0 38 4 41 10
3 5 17 10 30 10 13 0 27 5 30 10 3 5 17 10 30 10 13 0 27 4 30 10 3 5 16 10
29 10 12 0 26 4 32 10 5 5 43 10 84 12 71 3 75 4 74 26 0 12 3 22 8 22 4 0 8
-4 8 -9 0 -5 15 -12 33 -15 17 -3 66 -33 107 -66 41 -33 79 -60 83 -60 5 0 6
-4 3 -8 -2 -4 3 -8 12 -9 54 -5 222 -61 222 -74 0 -5 3 -8 7 -7 5 1 37 -12 73
-30 72 -35 158 -52 268 -52 57 0 95 8 177 35 191 65 237 70 639 67 l359 -2 76
-34 c42 -19 95 -39 118 -45 66 -18 97 -62 53 -76 -23 -7 -67 6 -159 47 -116
52 -264 57 -303 11 -15 -18 -11 -91 5 -107 15 -14 94 -66 126 -83 18 -10 155
-13 611 -13 l587 0 7 46 c3 26 6 70 6 99 0 49 -3 55 -45 94 -24 22 -49 41 -54
41 -5 0 -34 16 -65 37 -47 30 -62 47 -88 102 -17 36 -38 72 -45 80 -24 23 -33
59 -33 122 0 50 4 64 25 84 13 14 30 25 37 25 26 0 88 69 118 132 18 34 39 75
47 89 30 48 -7 85 -56 56 -14 -8 -43 -18 -64 -22 -20 -4 -40 -11 -43 -16 -3
-5 -36 -9 -75 -9 l-69 0 0 45 c0 25 10 74 22 108 18 53 22 86 23 222 2 134 6
172 24 230 19 61 21 83 15 173 l-7 102 61 0 c34 0 62 -5 64 -11 6 -18 214 -38
341 -32 85 4 124 3 141 -6 15 -8 44 -11 82 -7 193 18 206 18 217 7 6 -6 37
-11 69 -11 88 0 179 -46 242 -123 27 -33 71 -72 96 -88 26 -16 74 -59 107 -96
68 -76 117 -101 251 -129 74 -15 141 -40 152 -56 3 -4 58 -6 121 -5 91 2 122
-2 150 -15 19 -9 42 -19 52 -22 13 -4 17 -17 17 -58 1 -56 16 -88 44 -88 18 0
19 1 78 50 49 41 84 50 195 50 50 0 127 7 170 15 99 19 209 19 245 1 16 -8 49
-18 75 -21 27 -4 70 -13 96 -22 41 -13 51 -21 69 -60 12 -26 32 -50 47 -56 30
-14 53 -38 82 -88 11 -20 34 -44 50 -53 17 -10 49 -36 72 -59 47 -47 105 -86
157 -107 19 -7 54 -21 77 -31 38 -17 44 -18 79 -3 26 11 65 15 128 14 155 -2
235 14 353 70 94 45 116 51 193 57 56 4 89 2 93 -5 4 -6 38 -8 91 -5 96 6 123
2 156 -27 13 -12 39 -30 57 -41 18 -11 33 -24 33 -27 0 -4 18 -13 41 -20 22
-7 52 -26 66 -42 14 -17 48 -42 76 -56 46 -23 67 -26 187 -30 81 -3 158 -11
192 -21 58 -16 58 -16 123 12 36 15 65 31 65 36 0 18 -47 39 -90 39 -33 0 -56
7 -85 27 -25 17 -57 28 -89 31 -38 3 -62 13 -95 38 -38 29 -52 34 -97 34 -42
0 -67 7 -119 36 -36 20 -70 44 -75 54 -6 10 -10 41 -10 68 l0 50 73 3 c56 3
79 9 101 27 22 17 42 22 87 22 52 0 64 -4 121 -44 82 -55 122 -69 168 -56 60
17 151 12 185 -10 34 -22 56 -25 72 -9 8 8 2 25 -20 61 -46 73 -83 98 -164
108 -115 15 -123 21 -123 92 0 64 16 72 134 66 74 -4 103 -11 156 -36 36 -16
92 -33 125 -37 131 -16 224 -69 319 -182 80 -94 148 -138 279 -181 111 -36
271 -52 322 -32 17 7 62 16 101 20 90 11 217 53 283 93 27 18 125 85 216 150
91 66 182 123 202 129 30 8 57 29 148 113 6 6 14 17 17 25 3 9 30 22 59 29 30
8 79 31 109 51 30 21 74 47 96 58 23 12 85 67 139 124 115 122 159 200 170
305 4 38 13 95 21 128 18 80 18 85 -11 85 -14 0 -25 -4 -25 -10 0 -5 -18 -10
-40 -10 -22 0 -40 -4 -40 -10 0 -5 -6 -10 -14 -10 -7 0 -19 -13 -26 -30 -11
-26 -18 -30 -51 -30 -22 0 -39 -4 -39 -10 0 -6 -70 -10 -190 -10 l-190 0 0
-24 c0 -42 -11 -56 -41 -56 -26 0 -29 -4 -29 -30 0 -20 -5 -30 -15 -30 -8 0
-15 -9 -15 -20 0 -13 -7 -20 -18 -20 -13 0 -28 -19 -47 -60 -16 -33 -35 -60
-43 -60 -20 0 -42 -26 -42 -49 0 -18 -6 -21 -40 -21 -60 0 -147 -33 -249 -95
-147 -89 -211 -125 -220 -125 -6 0 -45 -18 -87 -40 -42 -22 -82 -40 -90 -40
-7 0 -26 -11 -42 -25 -17 -14 -33 -25 -38 -25 -4 0 -15 -7 -25 -16 -10 -9 -44
-18 -78 -21 l-61 -6 0 47 c0 42 29 115 65 165 37 52 232 230 289 265 49 30
137 112 153 143 8 15 23 55 34 88 22 68 44 110 74 143 12 12 36 48 55 80 18
31 38 62 44 67 6 6 22 30 35 54 13 25 38 60 55 78 17 19 33 41 36 48 7 18 88
82 130 102 59 29 435 46 505 23 46 -15 79 -7 93 24 15 33 -4 47 -82 63 -48 10
-67 19 -88 45 -16 18 -28 36 -28 40 0 5 -12 21 -26 37 -21 24 -38 31 -107 42
-103 16 -270 17 -409 2 -84 -9 -118 -17 -158 -39 -53 -29 -130 -106 -130 -130
0 -18 -68 -83 -98 -95 -13 -5 -46 -9 -73 -9 -45 0 -55 4 -85 35 -19 20 -34 39
-34 43 -1 15 -79 92 -94 92 -8 0 -17 4 -20 9 -17 27 -98 52 -173 54 -67 2 -84
-1 -116 -22 -33 -20 -47 -23 -100 -18 -34 3 -69 8 -78 11 -24 10 -83 -35 -87
-67 -3 -26 -2 -27 50 -27 56 0 78 -12 78 -41 0 -9 9 -28 20 -42 20 -25 24 -26
91 -20 62 5 72 4 89 -15 11 -11 22 -33 25 -49 10 -45 37 -91 59 -101 13 -5 34
-3 60 6 44 15 141 11 159 -7 5 -5 12 -32 15 -60 4 -41 0 -58 -21 -93 -14 -24
-34 -52 -46 -62 -12 -11 -21 -27 -21 -37 0 -10 -4 -20 -9 -23 -5 -3 -23 -30
-39 -59 -53 -93 -94 -125 -227 -176 -64 -25 -117 -96 -130 -171 -9 -56 -58
-130 -84 -130 -6 0 -11 -4 -11 -8 0 -5 -17 -14 -37 -20 -21 -6 -54 -25 -73
-42 -29 -25 -43 -30 -88 -30 -69 0 -119 21 -133 57 -19 49 -5 152 30 228 67
144 128 257 143 263 4 2 8 11 8 20 0 10 9 28 20 42 11 14 20 30 20 36 0 6 9
22 19 35 32 41 71 117 71 138 0 11 -13 35 -29 53 l-29 32 -37 -19 c-20 -11
-50 -39 -67 -62 -27 -41 -32 -43 -77 -43 l-49 0 -4 69 c-3 60 -7 73 -29 93
-15 13 -34 35 -44 51 -22 34 -45 34 -78 2 -39 -40 -54 -81 -72 -200 -9 -60
-21 -128 -26 -150 -6 -22 -14 -60 -20 -85 -5 -25 -13 -54 -18 -65 -6 -11 -21
-45 -34 -75 -13 -30 -33 -75 -45 -100 -11 -25 -32 -74 -46 -110 -42 -103 -63
-128 -124 -145 -83 -25 -153 -61 -204 -108 -25 -24 -61 -54 -79 -67 -18 -14
-42 -34 -53 -45 -12 -11 -33 -26 -48 -34 -16 -8 -28 -19 -28 -24 0 -11 -111
-127 -121 -127 -4 0 -20 -13 -37 -28 -56 -52 -174 -70 -212 -32 -18 18 -20 33
-20 186 l0 166 55 62 c32 37 63 86 76 119 12 30 29 64 39 74 38 41 44 69 52
223 4 85 9 170 10 189 5 56 -19 60 -89 17 -104 -64 -133 -108 -133 -197 0 -86
-24 -210 -47 -246 -33 -50 -81 -90 -145 -122 -35 -17 -79 -41 -98 -52 -29 -18
-44 -20 -90 -14 -83 10 -201 5 -230 -10 -24 -12 -41 -36 -54 -78 -3 -9 -19
-20 -36 -23 -16 -4 -44 -22 -62 -42 -122 -132 -129 -135 -276 -126 -128 7
-151 15 -200 68 -19 20 -37 36 -41 36 -4 0 -15 14 -25 31 -15 26 -18 44 -12
101 5 61 12 79 49 132 23 33 51 68 62 77 11 10 34 29 50 43 17 14 39 29 49 32
60 19 166 175 166 242 -1 28 -20 62 -36 62 -13 0 -47 -36 -86 -89 -18 -25 -55
-58 -83 -74 -27 -16 -51 -33 -53 -38 -2 -5 -28 -9 -58 -9 -47 0 -54 3 -54 20
0 11 -9 34 -20 52 -11 18 -20 43 -20 56 0 16 -6 22 -21 22 -35 0 -49 24 -49
84 0 31 5 56 10 56 6 0 10 12 10 26 0 35 22 54 64 54 29 0 36 4 36 20 0 18 7
20 68 20 56 0 70 3 82 20 8 12 26 20 42 20 15 0 28 5 28 10 0 6 33 10 80 10
47 0 80 4 80 10 0 6 23 10 50 10 28 0 50 5 50 10 0 6 23 10 50 10 28 0 50 5
50 10 0 6 23 10 50 10 28 0 50 5 50 10 0 6 5 10 11 10 16 0 39 26 39 44 0 10
9 16 23 16 12 0 29 9 37 20 10 14 26 20 52 20 28 0 38 5 43 20 4 12 15 20 28
20 13 0 29 9 37 20 12 17 26 20 80 20 54 0 68 3 80 20 11 15 26 20 62 20 26 0
48 5 48 10 0 6 8 10 18 10 10 0 24 9 32 20 8 12 26 20 42 20 15 0 28 5 28 10
0 6 7 10 16 10 21 0 39 20 48 53 6 24 11 27 46 27 40 0 40 0 40 40 0 29 4 40
15 40 8 0 15 5 15 10 0 6 7 10 15 10 8 0 15 5 15 10 0 6 9 10 19 10 11 0 23 9
26 20 5 16 15 20 56 20 27 0 49 5 49 10 0 6 43 10 110 10 103 0 110 1 110 20
0 17 7 20 50 20 28 0 50 5 50 10 0 6 13 10 28 10 16 0 34 8 42 20 11 15 26 20
62 20 26 0 48 5 48 10 0 6 9 10 20 10 13 0 20 7 20 20 0 12 7 20 16 20 19 0
50 33 59 61 4 11 15 19 26 19 21 0 26 33 9 72 -5 13 -14 41 -20 64 -10 43 -39
84 -59 84 -6 0 -11 5 -11 10 0 6 -22 10 -50 10 -27 0 -50 5 -50 10 0 6 -21 10
-46 10 -35 0 -51 -5 -65 -22 -11 -11 -19 -25 -19 -30 0 -4 -74 -8 -165 -8
l-165 0 0 40 c0 33 -3 40 -20 40 -11 0 -20 -4 -20 -10 0 -6 -26 -10 -58 -10
-46 0 -60 4 -72 20 -8 11 -22 20 -32 20 -10 0 -18 5 -18 10 0 6 -22 10 -50 10
-43 0 -50 3 -50 20 0 29 -68 28 -93 -1 -17 -19 -25 -20 -125 -14 -59 4 -171 2
-249 -4 -79 -6 -207 -16 -285 -21 -79 -6 -178 -17 -222 -25 -43 -8 -105 -15
-137 -15 l-59 0 0 35 c0 47 -19 84 -51 101 -41 21 -53 18 -127 -30 -57 -38
-77 -46 -137 -51 -38 -4 -108 -18 -155 -31 -68 -20 -105 -24 -185 -23 -99 2
-101 1 -226 -50 -138 -56 -202 -65 -264 -35 -43 20 -57 55 -53 134 4 92 16 98
203 110 224 15 237 17 410 96 204 93 286 136 395 203 242 151 301 204 330 295
8 25 33 59 66 91 30 28 54 58 54 66 0 8 9 25 20 39 11 14 20 31 20 38 0 15 37
90 55 112 6 8 24 48 39 89 40 112 99 180 208 244 26 15 50 36 53 47 3 11 10
20 15 20 4 0 10 8 14 17 3 10 14 32 25 49 10 16 22 41 26 54 7 21 30 49 106
129 22 24 67 107 112 211 20 46 36 156 44 294 5 96 9 119 35 170 41 83 30 121
-56 194 -32 26 -69 8 -116 -57 -23 -33 -24 -42 -22 -148 2 -107 1 -115 -23
-150 -14 -21 -25 -43 -25 -49 0 -7 -5 -14 -11 -16 -7 -2 -10 -42 -10 -114 l1
-111 -67 -113 c-74 -123 -131 -190 -163 -190 -12 0 -44 -16 -73 -35 -88 -60
-169 -45 -195 35 -28 85 -34 100 -43 100 -5 0 -9 6 -9 14 0 7 -9 16 -19 19
-13 3 -25 23 -37 61 -16 50 -16 66 -6 127 7 38 12 96 12 129 0 33 7 81 16 107
18 55 73 176 84 183 20 14 17 67 -6 108 -14 23 -29 42 -34 42 -11 0 -13 62 -4
97 4 13 13 23 20 23 10 0 14 16 14 60 0 58 15 110 32 110 4 0 8 7 8 15 0 19
57 133 76 152 8 8 14 19 14 24 0 5 8 9 18 9 22 0 58 32 67 60 3 11 11 20 16
20 18 0 40 29 50 65 6 20 16 35 24 35 11 0 15 13 15 50 0 28 5 50 11 50 7 0 8
76 3 248 -6 223 -5 248 10 261 9 7 16 19 16 27 0 24 23 64 37 64 7 0 13 4 13
9 0 5 8 17 18 27 14 14 18 40 21 141 1 68 7 123 11 123 4 0 11 16 14 35 7 34
9 35 50 35 33 0 48 -6 66 -25 13 -14 44 -37 68 -51 39 -23 47 -25 68 -13 52
27 40 93 -38 207 -49 72 -88 161 -88 202 0 12 -13 40 -29 63 -38 56 -61 112
-61 151 0 51 -31 114 -65 130 -18 9 -71 17 -134 20 l-103 4 -69 72 c-38 40
-69 81 -69 91 0 11 -6 19 -13 19 -8 0 -24 22 -37 49 -20 43 -22 59 -16 117 4
36 13 73 21 81 8 8 15 19 15 24 0 5 7 9 15 9 8 0 15 5 15 10 0 6 9 10 19 10
11 0 22 8 25 18 6 17 49 42 72 42 7 0 16 9 19 20 3 11 13 20 20 20 8 0 20 9
28 20 27 39 317 50 572 21 86 -9 114 -9 198 6 53 10 97 21 97 25 0 5 20 8 44
8 25 0 48 5 51 10 3 6 28 10 56 10 l49 0 0 -99 c0 -54 -4 -111 -9 -127 -19
-62 -33 -166 -27 -197 7 -40 39 -77 66 -77 43 0 87 65 99 145 l6 40 62 5 c47
4 68 11 89 30 77 70 95 106 114 228 l12 72 54 0 c30 0 54 -4 54 -9 0 -5 21
-11 48 -14 26 -2 101 -16 167 -30 158 -35 286 -36 353 -5 42 19 63 22 192 21
125 -1 151 -4 190 -22 25 -11 61 -21 81 -21 19 0 40 -5 46 -11 17 -17 245 -31
448 -27 145 2 186 6 213 20 20 10 71 20 127 24 91 6 95 8 95 30 0 13 4 24 9
24 5 0 11 14 15 30 4 24 11 30 31 30 16 0 25 6 25 16 0 20 24 44 44 44 9 0 16
5 16 10 0 6 14 10 30 10 17 0 30 5 30 10 0 6 28 10 65 10 37 0 65 -4 65 -10 0
-5 22 -10 49 -10 41 0 51 -4 56 -20 5 -16 15 -20 51 -20 24 0 44 -4 44 -10 0
-5 16 -10 35 -10 19 0 35 -4 35 -10 0 -5 16 -10 35 -10 19 0 35 -4 35 -10 0
-5 16 -10 35 -10 19 0 35 -4 35 -10 0 -5 24 -10 53 -10 41 0 56 -4 67 -20 8
-11 26 -20 40 -20 14 0 32 -9 40 -20 11 -16 26 -20 67 -20 42 0 53 -4 58 -19
3 -11 19 -34 35 -53 49 -56 72 -148 78 -318 3 -91 7 -117 19 -125 9 -5 37 -22
62 -36 77 -43 88 -77 110 -329 10 -111 52 -243 95 -297 17 -20 52 -45 83 -59
l54 -24 -3 -58 -3 -57 -74 -3 c-67 -3 -79 -7 -122 -38 -70 -51 -111 -64 -224
-74 -91 -7 -108 -11 -147 -38 -24 -17 -62 -34 -84 -38 -52 -9 -71 -19 -124
-68 -25 -23 -61 -53 -80 -68 -24 -17 -32 -30 -25 -36 6 -6 60 -27 120 -47 99
-34 116 -36 170 -29 33 4 87 8 120 8 l60 1 5 -35 c4 -30 9 -35 35 -38 17 -1
46 -6 65 -11 158 -42 170 -44 203 -30 17 7 43 21 57 31 14 10 54 23 90 29 56
10 100 33 100 53 0 6 26 39 53 68 20 21 79 24 138 7 47 -14 100 -62 122 -109
10 -19 33 -52 52 -73 19 -21 46 -57 60 -81 14 -24 35 -52 46 -62 20 -18 21
-18 50 16 34 42 35 59 9 134 -10 31 -23 101 -28 154 -15 162 -69 248 -180 282
-68 21 -97 39 -139 82 -23 24 -55 56 -73 72 -45 41 -52 65 -60 196 -9 145 -28
192 -113 275 -65 64 -140 178 -152 230 -4 17 -25 63 -46 103 -31 59 -39 84
-39 127 0 80 4 85 66 85 30 0 54 -4 54 -10 0 -6 30 -10 70 -10 40 0 70 4 70
10 0 15 99 12 114 -3 19 -19 43 -67 50 -102 5 -22 19 -38 53 -59 44 -26 55
-28 173 -31 302 -7 338 -10 367 -31 16 -12 49 -59 75 -105 42 -74 48 -91 48
-143 0 -48 -6 -70 -30 -113 -17 -29 -25 -53 -19 -53 13 0 49 -38 49 -52 0 -4
25 -8 55 -8 30 0 55 -4 55 -10 0 -6 40 -10 100 -10 60 0 100 -4 100 -10 0 -5
20 -10 45 -10 25 0 45 -4 45 -10 0 -5 8 -10 18 -10 10 0 24 -9 32 -20 8 -11
22 -20 32 -20 10 0 18 -4 18 -10 0 -5 6 -10 14 -10 8 0 18 -9 21 -20 3 -11 13
-20 21 -20 8 0 14 -4 14 -10 0 -5 14 -10 30 -10 17 0 30 -4 30 -10 0 -5 7 -10
15 -10 8 0 15 -4 15 -10 0 -5 9 -10 20 -10 11 0 20 -4 20 -10 0 -5 23 -10 50
-10 28 0 50 -4 50 -10 0 -5 16 -10 35 -10 19 0 35 -4 35 -10 0 -6 37 -10 90
-10 83 0 90 -1 90 -20 0 -17 7 -20 40 -20 22 0 40 -4 40 -10 0 -5 15 -10 34
-10 28 0 36 -5 46 -30 11 -26 18 -30 51 -30 29 0 39 -5 44 -20 5 -17 15 -20
58 -20 41 0 56 -4 67 -20 8 -12 26 -20 42 -20 15 0 28 -4 28 -10 0 -6 42 -10
105 -10 63 0 105 4 105 10 0 6 57 10 150 10 93 0 150 -4 150 -10 0 -6 27 -10
60 -10 33 0 60 4 60 10 0 6 15 10 34 10 26 0 36 5 41 20 5 17 15 20 66 20 33
0 59 4 59 10 0 6 23 10 50 10 28 0 50 5 50 10 0 6 43 10 110 10 67 0 110 -4
110 -10 0 -5 20 -10 45 -10 25 0 45 -4 45 -10 0 -6 27 -10 60 -10 33 0 60 4
60 10 0 6 9 10 20 10 15 0 22 9 27 30 5 27 9 30 44 30 22 0 39 5 39 10 0 6 9
10 20 10 11 0 20 5 20 10 0 6 20 10 44 10 40 0 44 2 50 30 5 29 8 30 56 30 47
0 50 2 50 26 0 23 3 25 41 22 39 -3 41 -5 59 -55 10 -29 32 -73 49 -98 22 -32
31 -58 31 -86 0 -39 0 -39 -38 -39 -25 0 -50 -9 -72 -25 -23 -17 -47 -25 -73
-25 -50 0 -90 -29 -111 -80 -22 -56 -20 -105 9 -194 14 -42 25 -97 25 -121 l0
-45 -100 0 c-60 0 -100 -4 -100 -10 0 -6 -28 -10 -65 -10 -37 0 -65 -4 -65
-10 0 -5 -13 -10 -29 -10 -21 0 -32 -6 -36 -20 -3 -11 -11 -20 -17 -20 -14 0
-46 -37 -53 -61 -4 -11 -12 -19 -20 -19 -16 0 -22 -32 -17 -92 l4 -48 37 0
c34 0 40 -4 54 -37 9 -21 20 -55 26 -75 15 -61 28 -68 130 -68 54 0 91 4 91
10 0 6 39 10 98 10 96 0 99 -1 110 -25 16 -35 16 -183 0 -199 -7 -8 -20 -23
-28 -35 -8 -11 -20 -21 -27 -21 -7 0 -13 -4 -13 -10 0 -5 -20 -10 -45 -10 -25
0 -45 -4 -45 -10 0 -5 -16 -10 -35 -10 -19 0 -35 -4 -35 -10 0 -5 -16 -10 -35
-10 -19 0 -35 -4 -35 -10 0 -6 -62 -10 -165 -10 -103 0 -165 -4 -165 -10 0 -5
-18 -10 -40 -10 -33 0 -40 -3 -40 -20 0 -17 -7 -20 -44 -20 -39 0 -49 5 -83
41 -21 23 -61 52 -90 65 -35 16 -64 39 -90 72 -47 60 -95 96 -152 113 -43 13
-44 13 -73 -20 -21 -24 -27 -38 -22 -54 11 -35 41 -73 87 -109 77 -60 87 -77
87 -142 l0 -46 -103 0 c-91 0 -104 2 -117 20 -11 15 -26 20 -57 20 -36 0 -43
3 -43 20 0 17 -7 20 -50 20 -27 0 -50 5 -50 10 0 6 -38 10 -95 10 -94 0 -95 0
-95 -24 0 -14 11 -46 25 -72 19 -36 25 -62 25 -109 0 -56 4 -67 36 -109 44
-58 52 -86 60 -201 8 -103 8 -103 -72 -129 -32 -10 -65 -31 -90 -57 -21 -22
-53 -49 -71 -60 -20 -13 -49 -51 -80 -105 -62 -111 -165 -212 -249 -244 -82
-31 -185 -37 -277 -15 -47 11 -89 15 -113 11 -22 -4 -70 -11 -109 -16 -116
-14 -167 -29 -196 -56 -44 -42 -68 -111 -78 -226 -7 -78 -15 -117 -34 -154
-29 -59 -39 -97 -31 -118 5 -13 22 -16 85 -16 70 0 79 -2 79 -18 0 -22 32 -62
50 -62 6 0 25 -13 40 -30 19 -20 38 -30 58 -30 18 0 32 -6 36 -16 12 -32 6
-134 -11 -169 -14 -30 -22 -35 -50 -35 -18 0 -33 -4 -33 -10 0 -5 -16 -10 -35
-10 -19 0 -35 -4 -35 -10 0 -5 -18 -10 -40 -10 -22 0 -40 -4 -40 -10 0 -6 -33
-10 -80 -10 -73 0 -80 -2 -80 -20 0 -16 -7 -20 -30 -20 -16 0 -30 -4 -30 -10
0 -6 -35 -10 -84 -10 -84 0 -84 0 -94 -29 -6 -16 -21 -35 -34 -42 -13 -7 -41
-26 -63 -43 -22 -18 -57 -39 -77 -49 -22 -10 -44 -29 -54 -49 -20 -39 -69
-100 -144 -177 -30 -31 -71 -79 -90 -108 -39 -59 -63 -73 -124 -73 -35 0 -46
5 -64 30 -20 27 -22 41 -22 165 0 113 -2 135 -15 135 -8 0 -15 5 -15 10 0 6
-13 10 -30 10 -16 0 -30 5 -30 10 0 6 -58 10 -155 10 -97 0 -155 -4 -155 -10
0 -6 -55 -10 -145 -10 -90 0 -145 -4 -145 -10 0 -6 -37 -10 -90 -10 -53 0 -90
-4 -90 -10 0 -5 -7 -10 -15 -10 -8 0 -15 -4 -15 -10 0 -5 -18 -10 -40 -10 -22
0 -40 -4 -40 -10 0 -5 -7 -10 -15 -10 -8 0 -15 -4 -15 -10 0 -5 -7 -10 -15
-10 -8 0 -15 -9 -15 -20 0 -13 -7 -20 -20 -20 -13 0 -20 -7 -20 -20 0 -11 -7
-20 -15 -20 -12 0 -15 -13 -15 -60 0 -53 -2 -60 -19 -60 -17 0 -21 -10 -27
-67 -4 -40 -2 -101 4 -148 7 -49 9 -135 5 -222 -6 -142 -6 -143 15 -143 18 0
22 -6 22 -29 0 -16 7 -36 15 -45 8 -8 15 -19 15 -25 0 -20 24 -61 35 -61 7 0
18 -14 25 -30 7 -17 19 -30 26 -30 8 0 14 -4 14 -10 0 -5 18 -10 40 -10 22 0
40 -4 40 -10 0 -5 14 -10 30 -10 23 0 30 -4 30 -20 0 -18 7 -20 75 -20 43 0
75 -4 75 -10 0 -6 33 -10 80 -10 47 0 80 4 80 10 0 6 20 10 45 10 25 0 45 -4
45 -10 0 -5 15 -10 34 -10 22 0 36 -6 40 -16 10 -26 7 -174 -4 -195 -10 -17
-7 -19 31 -19 23 0 67 -8 98 -17 46 -14 68 -30 124 -88 37 -38 76 -88 87 -111
25 -51 27 -161 3 -249 -15 -55 -15 -71 -3 -133 15 -83 7 -207 -15 -232 -18
-20 -20 -39 -3 -22 8 8 65 12 191 12 169 0 179 -1 184 -20 4 -17 15 -20 82
-22 l76 -3 3 -41 3 -40 -128 -18 c-70 -10 -150 -20 -178 -23 -27 -3 -58 -12
-67 -20 -14 -13 -33 -15 -98 -9 -44 3 -90 10 -102 15 -13 4 -39 11 -59 15 -34
6 -37 5 -59 -39 -13 -25 -27 -45 -31 -45 -4 0 -10 -9 -14 -19 -3 -10 -15 -21
-25 -24 -11 -3 -20 -11 -20 -19 0 -8 -16 -20 -35 -28 -19 -8 -35 -17 -35 -22
0 -4 -6 -8 -13 -8 -8 0 -22 -9 -32 -20 -10 -11 -24 -20 -32 -20 -7 0 -13 -9
-13 -20 0 -12 -7 -20 -17 -20 -10 -1 -34 -14 -53 -30 -31 -27 -32 -30 -12 -30
12 0 22 5 22 10 0 6 25 10 55 10 32 0 55 -4 55 -11 0 -6 12 -9 28 -7 23 3 28
8 32 43 7 48 62 115 95 115 12 0 30 8 41 18 10 10 41 33 67 52 42 30 58 35
117 38 63 4 71 2 94 -21 24 -25 26 -32 26 -127 l0 -100 70 0 c51 0 72 4 76 14
5 14 82 68 150 107 40 22 139 26 166 5 10 -7 20 -31 24 -54 l7 -42 73 0 c43 0
74 4 74 10 0 6 27 10 60 10 33 0 60 4 60 10 0 6 9 10 20 10 16 0 20 7 20 30
l0 30 160 0 c135 0 160 -2 160 -15 0 -11 14 -5 49 20 26 19 75 47 107 61 261
118 291 139 281 197 -3 18 -21 67 -41 108 -43 90 -52 142 -36 208 9 40 21 59
53 86 41 36 48 38 120 50 47 8 104 57 159 138 22 32 61 73 86 90 26 18 67 53
93 79 42 44 50 48 93 48 26 0 60 -7 77 -15 30 -16 89 -88 89 -110 0 -7 6 -18
14 -24 11 -9 15 -6 20 14 5 18 13 25 31 25 14 0 25 4 25 8 0 5 13 22 30 38 16
16 30 34 30 40 0 6 6 17 13 23 8 6 19 30 26 53 17 56 56 98 93 98 15 0 28 5
28 10 0 6 14 10 30 10 17 0 50 9 72 20 23 11 45 20 48 20 4 0 26 19 50 41 l43
41 72 -4 c113 -7 140 -36 147 -154 6 -97 63 -150 188 -176 66 -13 126 -1 156
34 14 15 32 18 98 18 l82 0 82 60 c45 33 87 70 93 82 13 24 4 34 -71 81 -29
19 -36 31 -47 82 -7 33 -12 63 -13 66 0 3 11 19 25 35 23 26 25 35 19 86 -8
69 4 88 52 88 25 0 45 -10 73 -36 l40 -35 15 25 c9 14 23 37 31 51 14 22 22
25 73 25 52 0 62 4 98 35 21 19 49 35 61 35 35 0 53 11 70 43 23 45 42 133 43
194 0 29 10 82 21 117 l21 65 -21 35 c-19 29 -22 51 -24 158 -2 116 0 126 25
178 16 30 28 62 28 71 0 9 -20 47 -45 85 -41 62 -45 73 -45 131 0 78 12 105
59 131 56 31 73 56 79 110 3 36 -1 60 -17 92 -32 67 -28 122 12 167 51 57 58
87 40 179 -18 97 -14 197 11 244 74 137 77 151 47 187 -10 12 -41 31 -70 42
-28 10 -82 46 -121 80 -60 51 -161 111 -188 111 -4 0 -26 17 -48 38 -47 44
-114 177 -114 227 0 59 6 65 71 65 33 0 59 4 59 10 0 6 50 10 130 10 80 0 130
-4 130 -10 0 -5 20 -10 45 -10 25 0 45 -4 45 -10 0 -5 9 -10 20 -10 11 0 20
-4 20 -10 0 -5 7 -10 15 -10 8 0 15 -4 15 -10 0 -5 18 -10 39 -10 31 0 41 -4
46 -20 6 -18 15 -20 116 -20 66 0 109 -4 109 -10 0 -5 18 -10 40 -10 22 0 40
-4 40 -10 0 -5 16 -10 35 -10 19 0 35 -4 35 -10 0 -6 26 -10 58 -10 46 0 60 4
72 20 9 13 26 20 47 20 18 0 33 5 33 10 0 6 14 10 31 10 22 0 40 9 59 30 15
17 37 30 48 30 12 0 23 9 27 20 3 11 13 20 21 20 8 0 14 5 14 10 0 6 6 10 13
10 7 0 19 9 27 20 8 11 20 20 27 20 7 0 13 5 13 10 0 6 11 10 24 10 16 0 27 7
31 20 4 11 17 32 31 45 13 13 24 31 24 40 0 8 4 15 9 15 5 0 14 14 21 31 13
31 14 29 -22 167 -6 23 -15 42 -19 42 -4 0 -10 18 -14 39 -4 22 -15 50 -26 63
-68 83 -58 77 -136 78 -66 0 -73 -2 -73 -20 0 -20 -7 -20 -300 -20 -193 0
-300 4 -300 10 0 6 -9 10 -20 10 -14 0 -22 11 -31 43 -19 72 4 197 38 197 7 0
13 5 13 10 0 6 62 10 165 10 103 0 165 -4 165 -10 0 -5 25 -10 55 -10 30 0 55
-4 55 -10 0 -6 30 -10 70 -10 40 0 70 4 70 10 0 6 9 10 20 10 11 0 20 5 20 10
0 6 9 10 20 10 11 0 20 5 20 10 0 6 6 10 14 10 8 0 18 9 21 20 3 11 15 20 26
20 10 0 19 4 19 8 0 14 36 52 49 52 6 0 11 5 11 10 0 6 14 10 30 10 23 0 30 4
30 20 0 19 7 20 110 20 103 0 110 -1 110 -20 0 -16 7 -20 38 -20 26 0 42 -6
52 -20 8 -11 24 -20 37 -20 13 0 24 -8 28 -20 6 -18 15 -20 105 -20 90 0 99 2
105 20 4 13 15 20 31 20 13 0 24 5 24 10 0 6 11 10 25 10 14 0 25 5 25 10 0 6
7 10 15 10 8 0 15 5 15 10 0 6 7 10 15 10 8 0 15 5 15 10 0 6 11 10 25 10 14
0 25 5 25 10 0 6 20 10 45 10 25 0 45 5 45 10 0 6 15 10 34 10 29 0 34 4 40
30 3 18 12 30 22 30 16 0 94 75 94 91 0 5 9 9 20 9 13 0 20 7 20 20 0 17 7 20
50 20 28 0 50 5 50 10 0 6 14 10 30 10 23 0 30 4 30 20 0 17 7 20 40 20 22 0
40 5 40 10 0 6 7 10 15 10 8 0 15 5 15 10 0 6 5 10 11 10 15 0 39 26 39 42 0
8 9 20 20 28 11 8 20 20 20 28 0 7 5 18 10 25 39 46 49 61 60 87 8 18 20 30
31 30 14 0 19 7 19 30 0 19 5 30 14 30 8 0 18 9 21 20 4 14 15 20 35 20 20 0
31 6 35 20 4 13 15 20 31 20 13 0 24 5 24 10 0 6 5 10 11 10 6 0 17 7 25 15
20 20 107 20 124 0 12 -14 30 -25 111 -66 19 -10 56 -40 80 -67 84 -92 183
-139 312 -149 l77 -6 0 -43 c0 -32 -4 -44 -14 -44 -8 0 -18 -9 -21 -20 -6 -17
-15 -20 -72 -20 l-66 0 6 -107 c4 -58 7 -126 7 -150 0 -41 1 -43 30 -43 28 0
30 -3 30 -35 0 -43 19 -85 38 -85 23 0 52 -40 52 -72 0 -23 4 -28 26 -28 29 0
54 -21 54 -44 0 -11 9 -16 30 -16 17 0 30 -4 30 -10 0 -5 14 -10 30 -10 17 0
30 -4 30 -10 0 -5 19 -10 43 -10 31 0 46 -5 57 -20 12 -17 26 -20 82 -20 39 0
68 -4 68 -10 0 -5 14 -10 30 -10 17 0 30 -4 30 -10 0 -6 35 -10 85 -10 50 0
85 -4 85 -10 0 -5 9 -10 20 -10 11 0 20 -4 20 -10 0 -5 23 -10 51 -10 40 0 56
-5 70 -22 11 -11 19 -25 19 -30 0 -4 5 -8 11 -8 11 0 99 60 167 115 40 32 49
35 113 35 62 0 70 -2 85 -25 12 -18 15 -41 12 -83 -5 -70 -29 -108 -96 -150
-99 -63 -138 -96 -167 -136 -33 -45 -67 -77 -135 -128 -50 -37 -110 -119 -110
-150 0 -22 -2 -22 85 1 22 6 63 11 91 11 38 0 58 6 85 26 19 14 70 43 115 64
64 30 90 49 130 95 40 48 65 66 133 97 68 32 98 54 155 112 98 100 140 130
255 182 90 40 107 45 163 42 l63 -3 3 -47 c3 -43 0 -49 -22 -60 -15 -6 -26
-14 -26 -17 -1 -21 -66 -73 -119 -95 -129 -52 -201 -131 -217 -238 -4 -24 -13
-55 -21 -71 -15 -30 -74 -76 -138 -109 -69 -36 -111 -101 -88 -137 5 -9 39
-23 74 -32 l64 -16 3 -47 3 -46 -63 -30 c-35 -17 -71 -30 -80 -30 -10 0 -43
-12 -75 -26 -32 -14 -86 -34 -119 -45 -64 -20 -105 -46 -139 -89 -11 -14 -40
-47 -65 -74 -42 -44 -51 -49 -103 -55 l-58 -6 31 -42 c22 -30 39 -43 56 -43
19 0 24 -5 24 -27 1 -16 7 -39 15 -53 8 -14 14 -48 15 -77 0 -28 3 -58 6 -67
7 -19 30 -21 41 -3 4 8 22 20 38 29 56 28 130 71 184 107 30 20 64 43 77 51
13 8 24 21 24 28 0 7 13 12 29 12 16 0 42 5 56 10 15 6 70 15 123 21 53 6 122
18 152 26 30 9 70 18 88 20 17 3 32 9 32 13 0 4 12 10 28 13 15 3 41 17 57 31
17 14 40 26 53 26 12 0 22 4 22 8 0 13 119 68 175 81 28 7 67 25 87 42 20 16
42 29 47 29 6 0 11 4 11 9 0 12 85 41 119 41 14 0 37 6 51 14 151 81 166 87
235 93 67 6 144 34 176 66 8 7 24 19 35 27 34 24 96 111 116 163 10 27 23 54
29 60 35 42 89 123 89 134 0 8 7 16 15 19 8 4 15 18 15 34 0 30 30 70 52 70 9
0 18 12 21 29 3 16 13 36 22 44 8 9 15 23 15 31 0 9 7 16 16 16 19 0 50 33 59
61 5 14 16 19 40 19 31 0 34 -3 38 -32 3 -29 4 -27 5 10 l2 42 50 0 c28 0 50
5 50 10 0 6 13 10 28 10 16 0 34 8 42 20 8 12 26 20 42 20 15 0 28 5 28 10 0
6 9 10 20 10 11 0 20 5 20 10 0 6 9 10 20 10 13 0 20 7 20 20 0 16 7 20 38 20
26 0 42 6 52 20 8 12 26 20 42 20 15 0 28 5 28 10 0 6 9 10 20 10 11 0 20 5
20 10 0 6 14 10 30 10 17 0 30 5 30 10 0 6 14 10 30 10 17 0 30 5 30 10 0 6
37 10 90 10 53 0 90 -4 90 -10 0 -5 5 -10 11 -10 6 0 32 -22 59 -50 29 -30 58
-50 70 -50 12 0 35 -13 50 -30 15 -16 33 -30 39 -30 6 0 11 -4 11 -10 0 -5 18
-10 40 -10 33 0 40 -3 40 -20 0 -15 7 -20 25 -20 14 0 25 -4 25 -10 0 -5 7
-10 15 -10 8 0 15 -4 15 -10 0 -5 6 -10 14 -10 8 0 16 -16 19 -42 11 -72 27
-118 42 -118 12 0 15 -15 15 -69 0 -94 -11 -191 -22 -191 -19 0 -54 -47 -66
-90 -7 -25 -18 -58 -24 -75 -5 -16 -12 -40 -15 -52 -3 -13 -9 -23 -14 -23 -5
0 -9 -70 -9 -155 0 -157 6 -189 44 -232 30 -34 36 -43 36 -58 0 -10 10 -15 30
-15 23 0 30 -4 30 -20 0 -14 7 -20 23 -20 12 0 29 -9 37 -20 8 -11 25 -20 37
-20 13 0 23 -4 23 -10 0 -5 23 -10 50 -10 28 0 50 5 50 10 0 6 23 10 50 10 28
0 50 5 50 10 0 6 5 10 11 10 14 0 46 36 54 61 4 11 11 19 17 19 12 0 48 39 48
52 0 4 7 8 15 8 8 0 15 5 15 10 0 6 5 10 11 10 16 0 39 26 39 44 0 12 10 16
40 16 l40 0 2 -42 1 -43 4 39 c5 42 22 66 47 66 9 0 16 5 16 10 0 6 9 10 20
10 11 0 20 5 20 10 0 6 9 10 20 10 11 0 20 5 20 10 0 6 16 10 36 10 l36 0 -8
-68 c-3 -37 -11 -68 -15 -70 -5 -2 -9 -29 -9 -60 l1 -57 44 84 c24 47 41 89
38 95 -4 5 -10 46 -15 90 -4 45 -11 99 -14 121 -5 39 17 115 34 115 15 0 40
56 47 108 4 28 11 52 16 52 5 0 9 10 9 23 1 30 33 98 57 120 17 14 34 17 89
15 65 -3 69 -4 87 -36 30 -51 33 -166 9 -302 -12 -63 -23 -134 -26 -158 -4
-41 -3 -43 30 -57 59 -24 64 -16 64 106 l0 109 25 0 c33 0 66 33 99 97 26 53
26 60 -8 215 -3 14 1 17 20 12 21 -6 24 -3 24 25 0 17 5 31 10 31 6 0 10 22
10 50 0 48 1 49 34 55 53 10 71 3 74 -29 2 -16 0 -32 -5 -35 -9 -7 -33 -71
-33 -89 0 -7 15 -12 35 -12 34 0 35 -1 35 -40 0 -33 3 -40 20 -40 11 0 20 -4
20 -10 0 -5 18 -10 40 -10 22 0 40 5 40 10 0 6 9 10 20 10 17 0 20 7 20 40 0
36 3 40 25 40 15 0 25 6 25 15 0 18 41 29 80 21 22 -4 30 -2 30 9 0 8 9 15 20
15 11 0 20 -4 20 -10 0 -5 13 -10 28 -10 16 0 34 -8 42 -20 17 -24 40 -26 40
-5 0 8 9 15 20 15 11 0 20 -7 20 -15 0 -12 16 -15 85 -15 47 0 85 2 85 4 0 3
-25 16 -55 30 -81 37 -104 63 -111 121 -8 68 14 116 68 153 68 45 117 55 239
47 72 -5 131 -3 178 6 71 12 95 29 43 29 -26 0 -30 4 -40 51 -7 28 -12 86 -12
130 0 64 3 79 15 79 8 0 15 9 15 20 0 11 4 20 8 20 13 0 52 89 52 119 0 16 8
52 17 81 13 42 14 53 3 60 -9 5 -10 18 -6 41 4 19 10 56 13 84 3 31 12 56 24
66 11 9 19 21 19 27 0 22 24 62 37 62 11 0 13 59 13 319 l0 318 -62 -14 c-108
-26 -155 -15 -340 78 -48 24 -97 -4 -133 -77 -27 -55 -27 -59 -21 -183 7 -147
-2 -197 -40 -228 -35 -28 -105 -38 -141 -21 -18 8 -55 54 -98 120 -57 87 -77
110 -108 123 -97 39 -155 15 -389 -166 -16 -12 -28 -30 -28 -40 0 -11 -5 -19
-10 -19 -6 0 -27 -16 -46 -36 -48 -48 -70 -54 -161 -48 -88 6 -139 28 -228 95
-49 37 -60 41 -83 33 -38 -13 -61 -61 -75 -155 -17 -117 -27 -128 -124 -140
-43 -5 -93 -14 -111 -20 -61 -20 -122 17 -122 73 0 36 -34 103 -55 112 -43 16
-99 -16 -108 -62 -9 -45 -69 -100 -117 -108 -40 -6 -67 -26 -105 -75 -46 -59
-110 -82 -192 -69 -82 14 -123 63 -123 151 0 56 21 97 82 163 25 27 24 76 -2
83 -11 3 -20 12 -20 19 0 8 -2 14 -4 14 -2 0 -28 5 -57 11 -64 12 -208 12
-264 -1 -54 -12 -155 -2 -155 16 0 8 -4 14 -10 14 -5 0 -19 18 -30 40 -12 23
-27 43 -35 47 -8 3 -15 10 -15 17 0 33 -127 101 -209 112 -54 7 -90 -2 -191
-48 -35 -16 -110 -38 -165 -48 -55 -10 -136 -30 -180 -45 -85 -28 -240 -102
-284 -136 -62 -47 -161 -143 -161 -155 0 -8 -9 -14 -19 -14 -11 0 -23 -5 -26
-10 -16 -26 -106 -60 -159 -60 -49 0 -57 3 -85 35 -38 44 -40 81 -7 150 24 51
70 96 179 176 62 46 70 72 25 77 -27 3 -90 -24 -138 -60 -14 -10 -70 -31 -125
-47 -55 -16 -131 -41 -170 -55 -38 -14 -80 -26 -92 -26 -13 0 -23 -4 -23 -10
0 -5 -15 -10 -33 -10 -34 0 -150 -32 -276 -75 -83 -28 -165 -32 -196 -9 -30
23 -27 114 5 174 33 59 96 117 141 130 39 11 68 31 136 91 76 70 209 127 368
159 99 20 247 69 295 98 90 53 163 83 328 137 45 14 102 37 125 50 23 13 64
36 91 50 27 15 60 38 75 51 14 13 34 27 44 30 9 3 17 9 17 14 0 18 193 130
225 130 20 0 95 59 95 75 0 8 5 15 10 15 6 0 23 15 39 33 28 30 33 32 93 31
55 -1 76 -7 168 -53 58 -29 112 -57 120 -61 8 -5 58 -25 110 -43 107 -38 120
-39 293 -5 123 23 223 21 277 -5 19 -9 67 -49 105 -88 206 -210 231 -233 284
-257 47 -22 62 -24 128 -18 85 7 101 14 157 68 23 22 82 59 131 84 50 24 118
68 153 98 42 36 84 61 125 75 34 12 87 33 117 48 104 49 309 41 422 -18 51
-26 333 -120 393 -131 28 -5 89 -13 138 -18 84 -8 89 -8 145 19 31 16 67 32
80 35 12 4 27 16 32 27 6 10 18 19 28 19 22 0 123 41 140 57 7 7 25 16 40 19
15 4 64 26 110 51 l82 44 0 584 c0 547 -1 584 -17 590 -27 9 -73 52 -73 69 0
8 -7 16 -16 18 -20 4 -67 135 -94 258 -7 30 -8 26 -9 -27 -1 -36 3 -63 9 -63
6 0 10 -9 10 -20 0 -13 -7 -20 -19 -20 -11 0 -23 -9 -26 -20 -3 -11 -15 -20
-26 -20 -10 0 -19 -4 -19 -10 0 -5 -7 -10 -15 -10 -10 0 -15 -10 -15 -30 0
-16 -4 -30 -9 -30 -5 0 -11 -13 -14 -28 -3 -16 -20 -43 -36 -61 -17 -18 -31
-42 -31 -52 0 -12 -7 -19 -20 -19 -15 0 -22 -9 -26 -30 -4 -16 -10 -30 -15
-30 -5 0 -9 -9 -9 -20 0 -11 -4 -20 -10 -20 -5 0 -10 -13 -10 -30 0 -19 -5
-30 -14 -30 -15 0 -36 -81 -40 -155 -2 -22 -3 -50 -4 -62 -1 -14 -10 -23 -24
-26 -18 -3 -16 -5 7 -6 51 -2 139 -39 168 -71 51 -57 26 -150 -68 -246 -42
-43 -65 -56 -142 -84 -80 -28 -101 -32 -153 -26 -33 3 -87 9 -119 12 -33 4
-88 1 -123 -4 -74 -13 -145 0 -222 41 -45 24 -56 25 -132 20 -80 -6 -85 -5
-160 31 -68 32 -86 36 -163 38 -75 1 -92 -2 -136 -24 -86 -45 -124 -99 -165
-238 -31 -103 -62 -140 -150 -174 -77 -30 -109 -29 -146 5 -20 19 -20 19 -33
-16 -11 -32 -16 -35 -52 -35 -21 0 -39 5 -39 10 0 6 -18 10 -40 10 -22 0 -40
5 -40 10 0 6 -11 10 -25 10 -14 0 -25 5 -25 10 0 6 -11 10 -25 10 -21 0 -25 5
-25 30 0 29 -1 30 -48 30 -36 0 -51 5 -62 20 -8 12 -26 20 -42 20 -15 0 -28 5
-28 10 0 6 -13 10 -30 10 -16 0 -30 5 -30 10 0 6 -13 10 -30 10 -16 0 -30 5
-30 10 0 6 -18 10 -40 10 -22 0 -40 -4 -40 -10 0 -5 -9 -10 -20 -10 -11 0 -20
5 -20 10 0 6 -27 10 -60 10 l-60 0 0 30 c0 29 -1 30 -50 30 -27 0 -50 5 -50
10 0 6 -13 10 -29 10 -21 0 -32 6 -36 20 -3 11 -13 20 -21 20 -8 0 -14 5 -14
10 0 6 -9 10 -20 10 -17 0 -20 7 -20 40 l0 40 -40 0 c-22 0 -40 -4 -40 -10 0
-5 -9 -10 -20 -10 -11 0 -20 5 -20 10 0 6 -27 10 -61 10 -73 0 -89 13 -89 69
0 40 -1 41 -27 35 -16 -4 -36 -11 -45 -15 -21 -11 -99 14 -139 44 -16 11 -60
59 -98 106 -125 154 -239 259 -332 307 -26 13 -82 33 -124 44 -127 34 -299
129 -400 222 -68 63 -84 90 -65 113 11 13 -1 15 -82 15 -82 0 -95 2 -108 20
-11 16 -26 20 -67 20 -29 0 -53 -4 -53 -10 0 -6 -52 -10 -135 -10 l-135 0 -6
-30 -6 -30 -114 0 c-99 0 -114 2 -114 16 0 9 -10 25 -21 35 -18 16 -20 25 -15
64 5 29 12 45 22 45 8 0 14 5 14 10 0 16 317 13 323 -2 3 -9 11 -6 24 10 11
12 31 22 44 22 14 0 31 9 39 20 8 11 20 20 27 20 6 0 15 9 18 20 5 16 15 20
56 20 27 0 49 5 49 10 0 6 14 10 30 10 17 0 30 5 30 10 0 6 33 10 80 10 l80 0
0 -50 c0 -27 3 -50 6 -50 11 0 34 29 34 44 0 9 7 16 16 16 9 0 29 14 44 30 15
17 35 30 44 30 9 0 16 5 16 10 0 6 11 10 25 10 14 0 25 4 25 8 0 13 36 52 47
52 13 0 29 41 38 95 4 22 12 43 17 46 7 4 1 17 -16 33 -14 15 -26 31 -26 36 0
6 -6 10 -14 10 -8 0 -17 8 -21 19 -9 28 -40 61 -59 61 -9 0 -16 5 -16 10 0 6
-18 10 -40 10 -22 0 -40 5 -40 10 0 6 -18 10 -40 10 -22 0 -40 5 -40 10 0 6
-30 10 -69 10 -46 0 -71 4 -75 13 -5 9 -7 9 -12 0 -7 -15 -64 -18 -64 -3 0 6
-26 10 -59 10 l-59 0 -6 34 c-7 35 0 66 15 66 5 0 9 14 9 30 0 25 4 30 23 30
12 0 29 9 37 20 8 11 25 20 37 20 13 0 23 5 23 10 0 6 9 10 20 10 11 0 20 -4
20 -10 0 -6 33 -10 80 -10 47 0 80 4 80 10 0 6 -13 10 -30 10 -23 0 -30 4 -30
20 0 18 7 20 66 20 67 0 94 13 94 44 0 13 13 16 70 16 40 0 70 4 70 10 0 6 9
10 20 10 11 0 20 5 20 10 0 6 9 10 20 10 11 0 20 5 20 10 0 6 23 10 50 10 50
0 50 0 50 32 0 17 9 50 19 72 63 134 63 134 36 222 -6 20 -120 84 -149 84 -8
0 -16 3 -18 8 -2 4 -20 19 -40 34 -46 35 -63 99 -55 209 5 74 11 105 40 209
15 50 14 58 -1 89 -9 19 -26 39 -36 45 -40 22 -64 53 -95 126 -27 63 -39 80
-79 106 -69 46 -103 54 -224 54 -78 0 -130 6 -185 21 -42 11 -80 22 -85 25
-19 12 -122 34 -158 34 -29 0 -40 4 -40 15 0 8 -11 17 -24 21 -35 8 -62 41
-86 106 -11 31 -27 62 -35 68 -8 7 -15 21 -15 31 0 11 -5 19 -11 19 -13 0 -49
38 -49 52 0 4 -6 8 -12 8 -14 0 -75 60 -92 90 -6 10 -25 43 -42 72 -17 29 -41
82 -54 118 -12 36 -28 77 -36 92 -8 14 -14 47 -14 73 0 57 17 74 72 75 34 0
41 -5 72 -52 l35 -51 11 27 c18 48 23 102 11 125 -28 51 -20 251 9 251 4 0 10
56 11 124 4 121 5 125 32 150 36 34 85 35 115 3 12 -13 22 -29 22 -36 0 -6 11
-1 25 13 14 14 25 32 25 41 0 8 9 15 20 15 11 0 20 5 20 10 0 6 33 10 80 10
47 0 80 -4 80 -10 0 -5 14 -10 30 -10 17 0 30 5 30 10 0 6 14 10 30 10 17 0
30 5 30 10 0 6 9 10 20 10 11 0 20 5 20 10 0 6 9 10 20 10 11 0 20 5 20 10 0
6 14 10 30 10 17 0 30 5 30 10 0 6 14 10 30 10 27 0 30 3 30 30 l0 30 60 0
c33 0 60 4 60 10 0 6 9 10 20 10 16 0 20 7 20 30 0 26 4 30 28 30 24 0 32 7
47 40 14 30 24 40 42 40 21 0 23 -4 23 -50 0 -27 5 -50 10 -50 6 0 10 23 10
50 l0 50 55 0 c30 0 55 5 55 10 0 6 50 10 130 10 80 0 130 -4 130 -10 0 -6 80
-10 220 -10 140 0 220 -4 220 -10 0 -5 9 -10 20 -10 11 0 20 -4 20 -10 0 -6
32 -10 75 -10 l75 0 0 -30 c0 -23 -4 -30 -20 -30 -13 0 -20 -7 -20 -20 0 -13
7 -20 20 -20 11 0 20 5 20 10 0 6 9 10 20 10 11 0 20 5 20 10 0 6 18 10 40 10
33 0 40 -3 40 -20 0 -11 7 -20 15 -20 8 0 15 -4 15 -10 0 -5 7 -10 16 -10 17
0 54 -36 54 -52 0 -4 7 -8 15 -8 8 0 15 -4 15 -10 0 -5 9 -10 19 -10 11 0 23
-9 26 -20 6 -19 10 -17 42 19 39 45 120 81 181 81 36 0 116 -20 157 -39 229
-107 341 -119 615 -66 378 73 340 69 582 49 98 -8 202 3 228 24 16 13 19 24
14 50 -6 27 -11 32 -35 32 -16 0 -29 5 -29 10 0 6 -18 10 -40 10 -22 0 -40 5
-40 10 0 6 -9 10 -20 10 -11 0 -20 5 -20 10 0 6 -9 10 -20 10 -11 0 -20 -4
-20 -10 0 -5 -22 -10 -50 -10 -27 0 -50 5 -50 10 0 6 -18 10 -40 10 -22 0 -40
5 -40 10 0 6 -13 10 -30 10 -16 0 -30 5 -30 10 0 6 -22 10 -50 10 -43 0 -50 3
-50 20 0 17 -7 20 -50 20 -27 0 -50 5 -50 10 0 6 -13 10 -30 10 -16 0 -30 5
-30 10 0 6 -13 10 -28 10 -16 0 -34 8 -42 20 -8 11 -22 20 -32 20 -10 0 -18 5
-18 10 0 6 -13 10 -30 10 -16 0 -30 5 -30 10 0 6 -9 10 -20 10 -12 0 -20 7
-20 16 0 28 -27 44 -75 44 -39 0 -52 5 -75 30 -15 17 -32 30 -37 30 -5 0 -15
9 -23 20 -13 18 -26 20 -112 20 l-98 0 -1 43 c0 23 -3 36 -6 30 -8 -21 -64
-15 -84 9 -11 11 -19 25 -19 30 0 4 -10 8 -23 8 -12 0 -29 9 -37 20 -8 11 -22
20 -32 20 -10 0 -18 7 -18 16 0 40 -21 44 -219 44 -121 0 -191 -4 -191 -10 0
-6 -67 -10 -180 -10 -113 0 -180 4 -180 10 0 6 -7 10 -15 10 -8 0 -15 5 -15
10 0 6 -22 10 -50 10 -43 0 -50 3 -50 20 0 16 -7 20 -30 20 -16 0 -30 5 -30
10 0 6 -27 10 -60 10 -33 0 -60 4 -60 10 0 6 -45 10 -115 10 -70 0 -115 -4
-115 -10 0 -6 -72 -10 -195 -10 -123 0 -195 4 -195 10 0 6 -7 10 -15 10 -8 0
-15 -4 -15 -10 0 -5 -16 -10 -35 -10 -19 0 -35 -4 -35 -10 0 -6 -42 -10 -105
-10 -63 0 -105 -4 -105 -10 0 -5 -20 -10 -45 -10 -25 0 -45 -4 -45 -10 0 -5
-13 -10 -30 -10 -16 0 -30 -4 -30 -10 0 -5 -13 -10 -30 -10 -16 0 -30 -4 -30
-10 0 -5 -22 -10 -50 -10 -43 0 -50 -3 -50 -20 0 -16 -7 -20 -35 -20 -25 0
-35 -4 -35 -15 0 -20 -45 -65 -65 -65 -8 0 -15 -4 -15 -10 0 -6 -48 -10 -125
-10 -77 0 -125 -4 -125 -10 0 -5 -7 -10 -15 -10 -8 0 -15 -9 -15 -20 0 -11 -5
-20 -11 -20 -16 0 -39 -26 -39 -44 0 -12 -11 -16 -49 -16 -46 0 -49 -2 -55
-30 l-6 -30 -155 0 c-97 0 -155 4 -155 10 0 6 -33 10 -80 10 -47 0 -80 4 -80
10 0 6 -9 10 -20 10 -11 0 -20 5 -20 10 0 6 -67 10 -180 10 -113 0 -180 4
-180 10 0 6 -4 10 -10 10 -5 0 -10 -13 -10 -30 0 -25 -4 -30 -25 -30 -14 0
-25 -4 -25 -10 0 -6 -48 -10 -125 -10 -77 0 -125 4 -125 10 0 6 -33 10 -80 10
-47 0 -80 -4 -80 -10 0 -5 -20 -10 -45 -10 -39 0 -45 3 -45 21 0 19 -3 18 -22
-11 -17 -23 -40 -39 -83 -55 -33 -12 -103 -42 -155 -67 -52 -25 -113 -53 -135
-62 -72 -30 -177 -109 -206 -154 -37 -59 -53 -130 -45 -207 14 -141 61 -219
162 -270 56 -28 63 -29 169 -26 211 6 216 6 282 -28 81 -40 143 -46 278 -28
154 22 223 5 239 -58 10 -40 -11 -75 -97 -160 -98 -98 -141 -127 -241 -164
-95 -36 -145 -66 -221 -131 -65 -56 -63 -55 -175 -96 -41 -15 -78 -32 -83 -38
-5 -8 -10 -6 -16 4 -5 8 -23 30 -40 49 -17 19 -31 38 -31 42 0 5 -13 23 -29
41 -15 18 -36 50 -46 71 -20 43 -47 61 -79 53 -28 -7 -95 -112 -103 -161 -7
-44 -44 -75 -90 -75 -46 0 -69 13 -129 73 -28 29 -65 62 -81 74 -30 22 -65 99
-78 175 -10 51 -63 110 -139 152 -70 39 -124 94 -146 146 -7 19 -24 51 -36 70
-12 20 -30 63 -40 95 -22 73 -52 115 -113 159 -58 41 -75 46 -142 34 -38 -6
-66 -19 -94 -43 -39 -32 -40 -35 -38 -89 l2 -56 -54 0 c-45 0 -55 3 -60 20 -4
13 -15 20 -31 20 -13 0 -24 5 -24 10 0 6 -22 10 -50 10 -27 0 -50 5 -50 10 0
6 -43 10 -110 10 -67 0 -110 -4 -110 -10 0 -5 -13 -10 -30 -10 -16 0 -30 5
-30 10 0 6 -13 10 -30 10 -16 0 -30 5 -30 10 0 6 -13 10 -30 10 -16 0 -30 5
-30 10 0 6 -19 10 -43 10 -31 0 -46 5 -57 20 -11 15 -26 20 -62 20 -38 0 -48
4 -53 20 -3 11 -15 20 -26 20 -10 0 -19 5 -19 10 0 6 -13 10 -30 10 -16 0 -30
5 -30 10 0 6 -9 10 -20 10 -11 0 -20 5 -20 10 0 6 -13 10 -30 10 -16 0 -30 5
-30 10 0 6 -28 10 -65 10 -37 0 -65 -4 -65 -10 0 -5 -16 -10 -35 -10 -19 0
-35 -4 -35 -10 0 -5 -16 -10 -35 -10 -19 0 -35 -4 -35 -10 0 -5 -7 -10 -15
-10 -8 0 -15 -4 -15 -10 0 -5 -13 -10 -29 -10 -21 0 -32 -6 -36 -20 -4 -12
-15 -20 -28 -20 -13 0 -29 -9 -37 -20 -10 -14 -26 -20 -52 -20 -31 0 -38 -4
-38 -20 0 -17 -7 -20 -45 -20 -25 0 -45 -4 -45 -10 0 -6 -32 -10 -75 -10 -43
0 -75 -4 -75 -10 0 -5 -18 -10 -39 -10 -31 0 -41 -4 -46 -20 -4 -14 -15 -20
-36 -20 -16 0 -29 -4 -29 -10 0 -5 -17 -10 -39 -10 -33 0 -40 -4 -51 -30 -7
-16 -18 -30 -26 -30 -7 0 -16 -9 -19 -20 -5 -17 -15 -20 -61 -20 -30 0 -54 -4
-54 -10 0 -5 -9 -10 -20 -10 -11 0 -20 -4 -20 -10 0 -6 -27 -10 -60 -10 -53 0
-60 -2 -60 -20 0 -16 -7 -20 -35 -20 -19 0 -35 -4 -35 -10 0 -5 -18 -10 -40
-10 -22 0 -40 -4 -40 -10 0 -5 -16 -10 -35 -10 -19 0 -51 -8 -72 -19 -46 -23
-346 -146 -463 -191 -93 -35 -196 -60 -248 -60 -19 0 -47 -9 -62 -20 -16 -11
-42 -23 -59 -26 -27 -6 -31 -4 -31 15 0 34 89 151 115 151 7 0 20 9 30 20 10
11 23 20 30 20 6 0 34 24 61 53 40 42 68 60 140 89 49 20 107 41 129 47 22 6
58 20 80 31 21 11 47 20 57 20 10 0 51 25 90 55 40 30 86 57 102 61 44 9 139
55 153 73 21 28 15 87 -12 119 -14 17 -25 37 -25 47 0 28 -19 54 -53 72 -28
15 -61 17 -240 16 -221 -2 -271 -10 -283 -46 -11 -34 -30 -47 -68 -47 -26 0
-36 -5 -41 -20 -3 -11 -13 -20 -21 -20 -8 0 -14 -4 -14 -8 0 -14 -36 -52 -49
-52 -6 0 -14 -13 -17 -30 -4 -16 -12 -30 -19 -30 -13 0 -35 -41 -35 -65 0 -8
-5 -15 -11 -15 -17 0 -49 -40 -49 -62 0 -11 -7 -18 -19 -18 -11 0 -23 -9 -26
-20 -3 -11 -15 -20 -26 -20 -11 0 -19 -7 -19 -16 0 -18 -23 -44 -39 -44 -6 0
-11 -4 -11 -10 0 -5 -17 -10 -38 -10 -26 0 -42 -6 -52 -20 -8 -11 -26 -20 -40
-20 -14 0 -32 -9 -40 -20 -8 -11 -25 -20 -37 -20 -13 0 -23 -4 -23 -10 0 -5
-9 -10 -20 -10 -11 0 -20 -4 -20 -10 0 -6 -127 -10 -360 -10 -233 0 -360 4
-360 10 0 6 -13 10 -30 10 -16 0 -30 5 -30 10 0 6 -18 10 -40 10 -22 0 -40 5
-40 10 0 6 -22 10 -50 10 -27 0 -50 5 -50 10 0 6 -18 10 -40 10 -22 0 -40 5
-40 10 0 6 -120 10 -340 10 -220 0 -340 -4 -340 -10 0 -6 -37 -10 -90 -10 -53
0 -90 -4 -90 -10 0 -5 -16 -10 -35 -10 -19 0 -35 -4 -35 -10 0 -5 -16 -10 -35
-10 -19 0 -35 -4 -35 -10 0 -5 -11 -10 -25 -10 -14 0 -25 -4 -25 -10 0 -5 -25
-10 -55 -10 -48 0 -55 -2 -55 -20 0 -17 -7 -20 -45 -20 -25 0 -45 -4 -45 -10
0 -5 -15 -10 -34 -10 -26 0 -36 -5 -41 -20 -6 -18 -15 -20 -116 -20 -66 0
-109 -4 -109 -10 0 -5 -20 -10 -45 -10 -25 0 -45 -4 -45 -10 0 -5 -11 -10 -25
-10 -14 0 -25 -4 -25 -10 0 -5 -13 -10 -30 -10 -16 0 -30 -4 -30 -10 0 -5 -11
-10 -25 -10 -14 0 -25 -4 -25 -10 0 -5 -20 -10 -45 -10 -25 0 -45 -4 -45 -10
0 -5 -13 -10 -30 -10 -16 0 -30 -4 -30 -10 0 -5 -13 -10 -30 -10 -16 0 -30 -4
-30 -10 0 -5 -13 -10 -30 -10 -16 0 -30 -4 -30 -10 0 -5 -22 -10 -50 -10 -27
0 -50 -4 -50 -10 0 -5 -9 -10 -20 -10 -11 0 -20 -4 -20 -10 0 -6 -70 -10 -190
-10 -120 0 -190 -4 -190 -10 0 -6 -35 -10 -85 -10 -50 0 -85 -4 -85 -10 0 -5
-25 -10 -55 -10 -30 0 -55 -4 -55 -10 0 -5 -11 -10 -25 -10 -14 0 -25 -4 -25
-10 0 -5 -20 -10 -45 -10 -25 0 -45 -4 -45 -10 0 -6 -30 -10 -70 -10 -40 0
-70 -4 -70 -10 0 -6 -30 -10 -70 -10 -40 0 -70 -4 -70 -10 0 -5 -9 -10 -20
-10 -11 0 -20 -4 -20 -10 0 -5 -20 -10 -45 -10 -25 0 -45 5 -45 10 0 6 -33 10
-80 10 -47 0 -80 -4 -80 -10 0 -5 -11 -10 -25 -10 -14 0 -25 -4 -25 -10 0 -5
-5 -10 -11 -10 -12 0 -25 -13 -56 -57 -28 -40 -33 -123 -7 -123 20 0 44 -24
44 -44 0 -10 9 -16 25 -16 14 0 25 -4 25 -10 0 -6 27 -10 60 -10 33 0 60 -4
60 -10 0 -6 42 -10 105 -10 63 0 105 4 105 10 0 6 37 10 90 10 53 0 90 4 90
10 0 6 37 10 90 10 53 0 90 4 90 10 0 6 14 10 30 10 17 0 30 5 30 10 0 6 40
10 100 10 60 0 100 4 100 10 0 6 14 10 30 10 17 0 30 -4 30 -10 0 -18 35 -11
50 10 12 17 26 20 82 20 39 0 68 4 68 10 0 6 32 10 75 10 43 0 75 4 75 10 0 6
11 10 25 10 14 0 25 5 25 10 0 6 18 10 40 10 22 0 40 5 40 10 0 6 48 10 125
10 l125 0 0 -30 c0 -23 -4 -30 -20 -30 -11 0 -20 -4 -20 -10 0 -5 -11 -10 -25
-10 -14 0 -25 -4 -25 -10 0 -5 -20 -10 -45 -10 -25 0 -45 -4 -45 -10 0 -6 -30
-10 -70 -10 -40 0 -70 -4 -70 -10 0 -5 -25 -10 -55 -10 -30 0 -55 -4 -55 -10
0 -5 -22 -10 -50 -10 -27 0 -50 -4 -50 -10 0 -6 -28 -10 -63 -10 -51 0 -65 -4
-77 -20 -12 -17 -26 -20 -97 -20 -49 0 -83 -4 -83 -10 0 -5 -9 -10 -20 -10
-11 0 -20 -4 -20 -10 0 -5 -16 -10 -35 -10 -19 0 -35 -4 -35 -10 0 -5 -18 -10
-40 -10 -22 0 -40 -4 -40 -10 0 -5 -11 -10 -25 -10 -14 0 -25 -4 -25 -10 0 -6
-55 -10 -145 -10 -90 0 -145 -4 -145 -10 0 -6 -37 -10 -90 -10 -53 0 -90 -4
-90 -10 0 -5 -9 -10 -20 -10 -11 0 -20 -4 -20 -10 0 -5 -22 -10 -50 -10 -27 0
-50 -4 -50 -10 0 -5 -13 -10 -28 -10 -16 0 -34 -8 -42 -20 -8 -11 -20 -20 -27
-20 -7 0 -13 -4 -13 -10 0 -5 -18 -10 -40 -10 -22 0 -40 -4 -40 -10 0 -6 -31
-10 -74 -10 l-74 0 -7 43 c-4 23 -21 65 -38 92 -37 59 -41 127 -10 185 19 36
127 186 147 205 6 6 19 22 29 37 9 15 31 35 48 44 56 28 148 132 154 172 4 21
10 48 15 62 5 14 11 118 14 231 4 188 3 208 -14 236 -34 56 -99 52 -131 -7
-28 -55 -65 -140 -84 -199 -22 -68 -88 -167 -123 -185 -15 -8 -40 -28 -56 -45
-27 -29 -35 -31 -96 -31 -92 0 -111 26 -124 166 -3 40 -16 82 -36 121 -22 44
-32 77 -34 124 -4 67 -13 99 -26 99 -4 0 -25 18 -47 39 -41 41 -134 101 -158
101 -7 0 -31 -19 -53 -42 -110 -118 -109 -116 -57 -203 32 -52 36 -66 34 -124
-3 -177 30 -469 62 -548 30 -73 41 -93 49 -93 5 0 11 -8 14 -18 4 -10 16 -28
27 -41 11 -12 34 -47 50 -77 45 -86 38 -143 -26 -229 -13 -16 -31 -55 -41 -85
-11 -30 -22 -56 -26 -58 -5 -2 -8 -12 -8 -22 0 -39 -32 -105 -68 -139 -22 -21
-46 -57 -56 -86 -36 -99 -55 -135 -75 -135 -44 0 -53 27 -65 185 -4 51 -14 87
-37 132 -30 59 -31 66 -24 135 14 130 9 182 -21 230 -15 23 -35 74 -45 113
-27 107 -69 135 -200 135 l-58 0 -20 44 c-25 59 -77 86 -175 93 -59 4 -76 1
-102 -15 -52 -33 -51 -123 1 -164 15 -12 36 -41 46 -66 30 -69 57 -101 107
-125 56 -26 73 -56 77 -140 19 -339 33 -442 90 -656 30 -114 30 -111 5 -111
-11 0 -20 -4 -20 -10 0 -16 -76 -90 -93 -90 -10 0 -17 -4 -17 -10 0 -5 -6 -10
-13 -10 -7 0 -22 -8 -33 -17 -47 -42 -57 -43 -304 -43 -175 0 -240 -3 -240
-12 0 -8 -62 -10 -242 -5 -202 5 -245 9 -254 22 -6 8 -16 15 -22 15 -23 0 -30
70 -8 92 7 8 20 27 29 43 16 32 91 105 107 105 6 0 10 5 10 10 0 6 7 10 15 10
8 0 15 4 15 9 0 5 7 17 17 26 14 14 14 22 5 49 -7 18 -12 47 -12 64 0 27 -4
32 -24 32 -14 0 -28 5 -31 10 -8 13 -85 13 -85 0 0 -5 -19 -14 -42 -21 -24 -6
-51 -15 -60 -20 -24 -12 -105 -11 -113 1 -8 14 -62 13 -71 -1 -4 -7 -22 -9
-44 -6 -21 3 -47 -1 -61 -9 -13 -7 -40 -13 -59 -14 -36 0 -84 -24 -119 -59
-11 -11 -38 -28 -58 -36 -21 -9 -58 -35 -83 -59 -25 -24 -62 -53 -82 -65 -21
-12 -47 -36 -59 -52 -30 -42 -64 -57 -165 -69 -49 -6 -108 -15 -132 -21 -23
-5 -54 -6 -67 -3 -28 7 -115 -24 -178 -63 -64 -40 -88 -45 -215 -49 l-123 -3
-11 25 c-9 19 -9 30 -1 44 7 10 9 21 6 24 -11 10 -123 7 -123 -4 0 -5 -6 -10
-14 -10 -8 0 -16 -6 -19 -12 -3 -10 -54 -12 -221 -10 -191 3 -220 1 -236 -13
-14 -13 -48 -18 -153 -22 -130 -6 -135 -5 -146 16 -9 16 -21 21 -51 21 -22 0
-40 5 -40 10 0 6 -57 10 -150 10 -93 0 -150 -4 -150 -10 0 -5 -13 -10 -30 -10
-16 0 -30 -4 -30 -10 0 -5 -9 -10 -19 -10 -11 0 -23 -4 -26 -10 -3 -5 -19 -10
-36 -10 -16 0 -29 -4 -29 -10 0 -5 -11 -10 -25 -10 -14 0 -25 -4 -25 -10 0 -5
-6 -10 -14 -10 -8 0 -16 -3 -18 -7 -7 -18 -93 -53 -128 -53 -22 0 -42 -4 -45
-10 -3 -5 -17 -10 -30 -10 -15 0 -26 -7 -30 -20 -3 -11 -10 -20 -16 -20 -8 0
-34 -18 -63 -46 -6 -5 -26 -17 -43 -25 -19 -8 -33 -21 -33 -31 0 -10 -4 -18
-9 -18 -5 0 -12 -16 -16 -36 -3 -20 -13 -43 -20 -51 -8 -8 -19 -33 -25 -56 -6
-23 -17 -57 -25 -75 -8 -18 -15 -50 -15 -72 0 -46 -18 -90 -37 -90 -8 0 -13
-12 -13 -30 0 -20 -5 -30 -15 -30 -8 0 -19 -16 -25 -38 -13 -41 -44 -62 -92
-62 -15 0 -28 -4 -28 -10 0 -6 -36 -10 -89 -10 -50 0 -93 -4 -96 -10 -3 -5
-15 -10 -26 -10 -10 0 -19 -3 -19 -7 0 -11 -50 -33 -72 -33 -10 0 -18 -5 -18
-10 0 -14 -75 -90 -89 -90 -6 0 -11 -4 -11 -10 0 -5 -7 -10 -15 -10 -8 0 -15
-4 -15 -10 0 -5 -11 -10 -25 -10 -14 0 -30 -9 -37 -20 -7 -11 -23 -20 -36 -20
-13 0 -35 -9 -49 -20 -34 -27 -63 -26 -63 1 0 20 -4 21 -42 16 -34 -5 -44 -2
-58 16 -15 18 -30 22 -91 23 -41 2 -87 7 -102 13 -16 6 -46 11 -68 11 -21 0
-39 5 -39 10 0 6 -18 10 -39 10 -22 0 -41 4 -43 10 -1 5 -30 17 -62 25 -36 9
-68 26 -82 40 -14 15 -34 25 -51 25 -17 0 -34 8 -43 20 -8 11 -24 20 -35 20
-12 0 -25 4 -30 9 -23 23 -122 38 -217 33 -54 -2 -98 -8 -98 -12 0 -17 -99
-22 -385 -20 -382 2 -435 6 -435 31 0 15 -7 19 -39 19 -22 0 -43 5 -46 10 -3
6 -17 10 -31 10 -13 0 -29 9 -36 20 -7 11 -18 20 -25 20 -7 0 -13 4 -13 9 0
11 -84 51 -109 51 -11 0 -21 9 -24 21 -6 21 -9 21 -159 15 -84 -3 -177 -9
-205 -12 -38 -4 -56 -2 -67 8 -32 32 -27 118 9 154 9 9 19 29 22 45 4 21 11
29 26 29 19 0 20 4 13 129 l-7 128 33 16 c18 8 45 19 61 22 15 4 30 11 33 16
3 5 23 9 45 9 21 0 39 5 39 10 0 6 9 10 20 10 11 0 20 5 20 10 0 6 6 10 13 10
7 0 19 9 27 20 9 13 26 20 46 20 19 0 34 6 37 14 3 8 22 18 42 22 20 3 42 15
48 25 7 11 23 19 39 19 19 0 28 5 28 16 0 18 23 44 39 44 6 0 11 5 11 10 0 6
6 10 13 10 6 0 24 10 39 23 14 12 36 30 47 40 12 9 30 17 41 17 10 0 22 5 25
10 3 6 17 10 30 10 13 0 27 5 30 10 9 15 72 12 89 -5 17 -18 46 -20 46 -4 0
13 47 59 60 59 5 0 12 9 15 20 3 11 12 20 20 20 8 0 17 9 20 20 4 12 15 20 27
20 11 0 26 7 33 16 6 9 32 18 61 22 30 3 55 12 65 24 10 11 30 18 53 18 29 0
36 4 36 20 0 15 7 20 28 20 16 0 34 8 42 20 8 11 20 20 27 20 7 0 17 9 23 20
6 11 15 20 21 20 6 0 25 13 42 29 18 17 46 42 63 58 29 26 111 114 174 189 14
16 40 50 57 75 49 70 104 115 166 133 100 29 207 136 262 261 14 33 31 69 37
80 6 10 17 44 24 75 38 162 89 319 120 368 19 29 34 59 34 68 0 28 -27 44 -74
44 -25 0 -46 5 -46 10 0 6 -33 10 -80 10 -47 0 -80 4 -80 10 0 6 -9 10 -20 10
-16 0 -20 7 -20 30 0 17 -5 30 -11 30 -13 0 -49 38 -49 52 0 4 -18 8 -40 8
-22 0 -40 5 -40 10 0 6 -11 10 -25 10 -14 0 -25 -4 -25 -10 0 -6 -39 -10 -98
-10 -86 0 -99 -2 -112 -20 -12 -17 -26 -20 -98 -20 -88 0 -112 10 -112 47 0
12 12 23 34 31 39 14 59 40 77 100 23 78 161 198 323 282 66 33 131 70 147 80
15 11 31 20 37 20 5 0 27 14 48 31 22 17 62 42 89 56 28 14 57 34 66 44 9 11
20 19 24 19 4 0 44 31 89 68 49 41 127 93 196 129 96 50 126 61 183 67 54 5
85 16 140 47 73 40 117 79 117 103 0 7 16 43 35 80 32 62 34 71 28 129 -3 34
-12 74 -19 88 -13 25 -69 74 -109 94 -25 13 -31 57 -10 75 9 7 55 16 110 19
71 5 99 11 112 24 16 16 -11 17 -561 17 -640 0 -588 6 -529 -59 33 -37 38 -70
13 -96 -32 -34 -92 -46 -225 -43 -136 2 -271 -13 -322 -37 -44 -21 -65 -16
-74 18 -9 34 -2 57 17 57 8 0 14 5 14 10 0 6 9 10 19 10 11 0 23 5 26 10 3 6
37 10 76 10 39 0 69 4 69 10 0 6 8 10 18 10 28 0 42 21 42 62 l0 38 -260 0
-261 0 -34 -35 c-19 -19 -35 -39 -35 -45 0 -17 -26 -40 -44 -40 -9 0 -16 -8
-16 -20 0 -11 -6 -20 -14 -20 -8 0 -18 -9 -21 -20 -3 -11 -11 -20 -17 -20 -11
0 -30 -20 -58 -59 -10 -14 -25 -21 -47 -21 -22 0 -37 -7 -45 -20 -7 -11 -23
-20 -35 -20 -13 0 -23 -4 -23 -8 0 -21 -37 -51 -57 -46 -11 3 -27 -1 -36 -10
-8 -9 -19 -16 -24 -16 -5 0 -15 -9 -23 -20 -8 -11 -20 -20 -27 -20 -7 0 -13
-4 -13 -10 0 -5 -7 -10 -15 -10 -8 0 -15 -4 -15 -10 0 -6 -71 -10 -193 -10
-181 0 -193 1 -207 20 -9 13 -26 20 -47 20 -18 0 -33 5 -33 10 0 6 -33 10 -79
10 l-78 0 -7 -46 c-3 -26 -6 -61 -6 -79 0 -18 -8 -42 -19 -53 -25 -29 -106
-30 -156 -2 -20 11 -44 20 -55 20 -11 0 -20 5 -20 10 0 6 -53 10 -138 10 -126
0 -139 -2 -152 -20 -8 -11 -20 -20 -27 -20 -7 0 -13 -4 -13 -10 0 -5 -11 -10
-24 -10 -17 0 -27 -9 -36 -30 -7 -16 -19 -30 -26 -30 -8 0 -14 -4 -14 -10 0
-6 -51 -10 -134 -10 -126 0 -135 -1 -141 -20 -4 -14 -15 -20 -36 -20 -16 0
-29 -4 -29 -10 0 -5 -20 -10 -45 -10 -25 0 -45 5 -45 10 0 6 -18 10 -39 10
-22 0 -43 5 -46 10 -3 6 -30 10 -60 10 -30 0 -57 5 -60 10 -3 6 -21 10 -40 10
-19 0 -37 5 -40 10 -3 6 -21 10 -40 10 -25 0 -35 5 -40 20 -3 11 -15 20 -25
20 -10 0 -22 9 -25 20 -3 11 -13 20 -21 20 -28 0 -44 27 -44 74 0 25 5 46 10
46 6 0 10 7 10 16 0 22 25 44 50 44 12 0 35 14 50 30 15 17 34 30 42 30 7 0
20 9 28 20 8 11 20 20 27 20 6 0 15 9 18 20 3 11 15 20 26 20 10 0 19 5 19 10
0 6 9 10 20 10 11 0 20 5 20 10 0 6 15 10 34 10 19 0 38 5 41 10 3 6 19 10 36
10 32 0 65 15 90 43 9 9 26 17 38 17 11 0 21 4 21 8 0 13 36 52 47 52 6 0 13
14 17 30 3 17 12 30 20 30 12 0 26 20 26 36 0 2 -299 4 -665 4 l-665 0 0 -415z
m16296 -1635 c31 -16 60 -45 110 -113 37 -51 86 -109 108 -130 46 -44 139
-107 157 -107 21 0 93 -66 111 -101 9 -19 28 -68 43 -109 15 -41 33 -91 40
-110 8 -19 28 -71 45 -115 33 -85 60 -125 128 -192 95 -92 176 -131 347 -164
107 -22 162 -94 159 -209 -2 -42 -11 -74 -43 -138 -22 -45 -46 -103 -52 -130
-22 -88 -60 -137 -144 -187 -77 -46 -105 -56 -177 -66 -38 -4 -81 -15 -98 -24
-39 -20 -90 -70 -90 -89 0 -8 -5 -16 -12 -18 -6 -2 -13 -29 -16 -60 -5 -64 10
-104 65 -167 69 -81 168 -110 247 -71 44 23 46 23 65 5 11 -9 27 -41 35 -70
21 -69 45 -98 106 -124 132 -57 385 -27 593 69 84 39 168 60 237 60 75 0 130
-10 130 -24 0 -6 -13 -28 -30 -47 -29 -36 -31 -37 -107 -38 -79 -2 -161 -20
-223 -51 -19 -9 -56 -22 -82 -29 -26 -6 -76 -26 -110 -45 -35 -18 -92 -41
-128 -50 -102 -25 -345 -65 -452 -75 -54 -5 -102 -12 -108 -16 -6 -4 -63 -13
-127 -20 -113 -14 -208 -37 -248 -61 -11 -6 -36 -17 -55 -23 -91 -30 -135
-101 -205 -336 -15 -49 -47 -129 -72 -177 -84 -163 -180 -270 -371 -411 -115
-85 -135 -101 -257 -215 -44 -41 -98 -86 -120 -101 -49 -32 -166 -120 -180
-136 -24 -28 -108 -85 -125 -85 -11 0 -23 7 -28 17 -12 20 7 103 35 158 28 52
190 234 255 286 54 43 203 119 232 119 28 0 71 27 104 64 17 20 33 36 35 36 5
0 187 110 201 121 6 5 23 18 37 28 28 21 162 217 162 237 0 7 3 11 7 9 4 -2
15 22 25 55 15 49 16 64 5 89 -23 56 -70 53 -164 -11 -95 -65 -120 -72 -177
-54 -71 24 -114 20 -187 -15 -122 -60 -231 -32 -200 51 23 63 85 100 213 130
111 26 188 59 294 126 47 30 104 60 126 66 53 14 100 33 159 64 35 19 66 27
115 29 101 5 149 29 175 89 39 89 67 204 65 266 -2 51 -10 60 -69 76 -14 3
-50 21 -80 39 -30 19 -68 36 -85 40 -16 3 -40 14 -53 24 -35 26 -22 78 40 154
48 60 49 63 46 121 -3 56 -5 61 -30 70 -30 11 -62 -2 -128 -50 l-34 -25 -19
48 c-26 67 -49 88 -129 119 -81 31 -162 89 -238 170 -161 172 -210 276 -176
373 22 60 20 112 -5 165 -23 46 -21 72 6 83 26 9 62 -16 81 -59 20 -44 86
-108 112 -108 37 0 59 -27 65 -82 6 -45 13 -59 47 -91 29 -28 44 -53 55 -95
25 -90 42 -120 77 -138 18 -9 43 -25 55 -36 32 -29 132 -22 168 12 14 13 25
29 25 35 0 6 13 29 29 51 27 37 29 46 35 174 l6 135 -40 85 c-22 47 -40 95
-40 107 0 28 -53 107 -88 131 -32 22 -147 78 -181 87 -13 4 -61 44 -107 90
-46 45 -98 92 -116 105 -46 31 -98 103 -109 148 -11 49 -4 221 9 234 6 6 34
22 64 37 30 15 62 41 76 61 21 32 72 69 96 70 5 0 29 -9 52 -20z m5143 -456
c51 -30 91 -102 91 -162 0 -17 17 -41 54 -76 l53 -52 -5 -95 -5 -96 36 -40
c29 -31 37 -50 41 -91 9 -90 42 -132 104 -132 35 0 44 -11 60 -66 14 -47 43
-65 102 -62 39 1 77 -19 125 -65 29 -28 33 -29 96 -23 48 4 70 2 85 -8 17 -13
17 -16 4 -29 -8 -8 -63 -41 -123 -72 -104 -55 -108 -56 -132 -41 -14 9 -25 21
-25 25 0 5 -12 23 -26 40 -24 29 -30 31 -97 31 -79 0 -93 7 -140 72 -17 24
-40 41 -63 47 -19 5 -50 23 -70 40 -19 17 -45 31 -57 32 -108 3 -185 17 -222
42 -22 15 -55 30 -74 33 -30 6 -37 3 -89 -54 -38 -40 -69 -63 -93 -70 -47 -13
-143 -88 -163 -129 -10 -19 -16 -57 -16 -99 0 -68 0 -69 47 -116 l48 -49 -3
-75 c-2 -55 1 -80 13 -96 24 -36 18 -72 -19 -114 -19 -21 -49 -69 -67 -106
-33 -68 -46 -79 -127 -109 -31 -11 -50 -33 -102 -115 -21 -34 -6 -52 66 -78
82 -30 100 -44 164 -128 33 -44 75 -84 104 -103 49 -30 51 -30 191 -31 121 0
147 -3 171 -18 28 -19 98 -40 285 -87 30 -7 37 -14 37 -34 0 -57 96 -170 195
-228 24 -14 74 -35 112 -47 39 -12 113 -41 165 -65 115 -52 165 -69 250 -85
75 -15 72 -14 208 -93 77 -45 108 -69 123 -97 12 -20 34 -45 50 -54 30 -18 89
-76 89 -88 0 -29 -129 -49 -305 -48 -66 1 -140 1 -165 1 -62 -1 -167 -20 -215
-38 -22 -9 -94 -34 -160 -57 -99 -34 -135 -53 -204 -105 -95 -70 -161 -107
-161 -90 0 12 -56 92 -115 164 -94 115 -203 205 -246 205 -7 0 -20 6 -28 13
-9 8 -45 24 -81 36 -36 13 -105 47 -155 76 -93 55 -214 95 -291 95 -38 0 -130
14 -194 31 -69 17 -125 63 -182 150 -30 46 -59 95 -63 109 -31 97 -155 280
-191 280 -6 0 -18 8 -28 18 -18 21 -81 37 -193 51 -71 9 -117 27 -238 96 -77
44 -121 49 -244 31 -101 -15 -102 -15 -178 9 -41 14 -88 25 -102 25 -15 0 -50
11 -77 25 -61 30 -156 127 -148 150 7 18 36 35 59 35 9 0 44 13 78 29 44 20
86 31 142 35 44 4 105 12 136 18 46 8 67 7 112 -6 30 -9 82 -16 114 -16 32 0
86 -7 118 -16 87 -24 145 -31 185 -22 19 5 46 11 59 14 75 16 180 105 201 170
15 45 8 162 -13 219 -58 155 -67 188 -74 276 -7 78 -5 102 9 141 20 54 26 224
9 278 -18 56 -13 111 15 170 43 93 101 138 224 173 30 9 75 30 100 46 25 17
61 42 81 55 37 25 147 134 175 174 27 39 84 60 176 66 64 4 103 13 158 37 66
28 83 31 169 30 53 -1 109 3 126 7 38 11 116 -2 154 -24z m-7522 -306 c3 -15
11 -28 19 -28 7 0 16 -9 19 -20 3 -11 13 -20 21 -20 8 0 14 -4 14 -10 0 -6 33
-10 80 -10 47 0 80 -4 80 -10 0 -5 20 -10 45 -10 25 0 45 -4 45 -10 0 -5 11
-10 25 -10 14 0 25 -4 25 -10 0 -5 23 -10 50 -10 28 0 50 -4 50 -10 0 -5 12
-10 26 -10 25 0 64 -32 64 -52 0 -4 11 -8 25 -8 14 0 25 -4 25 -10 0 -5 17
-10 38 -10 24 0 46 -7 60 -20 12 -11 26 -20 32 -20 5 0 10 -4 10 -9 0 -5 21
-11 48 -14 71 -8 112 -18 112 -28 0 -5 20 -9 45 -9 53 0 76 -11 126 -62 24
-25 47 -38 63 -38 14 0 26 -4 26 -10 0 -5 22 -10 49 -10 41 0 51 -4 56 -20 3
-11 15 -20 25 -20 10 0 22 -9 25 -20 5 -15 15 -20 40 -20 25 0 35 -5 40 -20 4
-13 15 -20 32 -20 25 0 40 -13 73 -59 8 -12 19 -21 26 -21 6 0 19 -18 29 -40
16 -35 25 -42 51 -39 3 0 14 -9 23 -20 10 -12 23 -21 30 -21 6 0 11 -4 11 -10
0 -5 7 -10 15 -10 8 0 15 -4 15 -10 0 -5 5 -10 11 -10 16 0 39 -26 39 -44 0
-10 9 -16 25 -16 14 0 25 -4 25 -10 0 -5 6 -10 13 -10 7 0 19 -9 27 -20 8 -12
26 -20 42 -20 15 0 28 -4 28 -10 0 -5 7 -10 16 -10 20 0 44 -24 44 -44 0 -9 8
-16 19 -16 11 0 22 -8 25 -18 4 -11 18 -25 31 -32 30 -16 32 -39 5 -70 -11
-13 -20 -27 -20 -32 0 -4 -15 -8 -33 -8 -31 0 -34 -3 -45 -42 -20 -81 -44
-138 -55 -131 -6 4 -8 -3 -4 -18 6 -22 3 -25 -23 -27 -17 -1 -30 3 -30 8 0 6
-4 8 -10 5 -17 -11 -76 43 -104 95 -25 45 -61 80 -110 105 -11 6 -31 31 -45
56 -38 68 -86 120 -145 159 -29 18 -63 49 -76 67 -13 19 -35 40 -49 48 -14 7
-35 23 -46 35 -27 30 -128 77 -194 90 -84 17 -123 31 -157 57 -35 26 -95 35
-134 21 -30 -11 -70 -52 -70 -71 0 -8 -13 -13 -35 -14 -28 -1 -35 3 -35 18 0
14 -7 19 -28 19 -16 0 -34 8 -42 20 -8 11 -19 20 -24 20 -9 0 -46 39 -46 49 0
3 -13 12 -30 19 -16 7 -32 22 -35 33 -4 13 -15 19 -36 19 -16 0 -29 3 -29 8 0
12 -52 32 -82 32 -15 0 -28 5 -28 10 0 6 -7 10 -15 10 -8 0 -15 5 -15 10 0 6
-16 10 -35 10 -19 0 -35 5 -35 10 0 6 -5 10 -11 10 -13 0 -49 38 -49 52 0 4
-12 8 -26 8 -16 0 -37 12 -54 30 -15 17 -32 30 -37 30 -15 0 -63 25 -63 33 0
4 -9 7 -19 7 -11 0 -23 5 -26 10 -3 6 -19 10 -35 10 -20 0 -31 6 -35 20 -4 13
-15 20 -31 20 -13 0 -24 5 -24 10 0 6 -20 10 -44 10 -25 0 -48 5 -51 10 -3 6
-24 10 -46 10 -21 0 -39 -4 -39 -10 0 -5 -22 -10 -50 -10 -27 0 -50 -4 -50
-10 0 -5 -12 -10 -26 -10 -17 0 -28 -6 -31 -20 -4 -17 -14 -20 -57 -20 -40 0
-55 -4 -66 -20 -12 -17 -26 -20 -91 -20 -61 0 -78 3 -83 16 -8 22 17 44 51 44
17 0 33 8 41 20 7 11 19 20 27 20 8 0 15 5 15 10 0 6 7 10 15 10 8 0 15 5 15
10 0 6 10 10 23 10 12 1 40 9 62 20 22 11 57 19 77 20 53 0 88 16 88 40 0 15
7 20 29 20 21 0 32 6 36 20 3 11 15 20 25 20 11 0 35 9 55 20 23 13 55 20 93
21 31 0 66 4 77 9 11 5 48 9 83 8 61 -1 63 -2 69 -30z m-2124 -291 c9 -11 17
-24 17 -29 0 -4 15 -8 33 -8 46 0 86 -21 94 -48 3 -15 11 -21 20 -18 8 4 13 1
11 -5 -9 -28 -232 -119 -290 -119 -27 0 -99 -31 -129 -57 -19 -16 -106 -43
-113 -35 -10 9 -7 18 12 40 9 11 28 35 42 52 14 17 42 50 62 72 21 23 41 51
44 63 4 11 31 43 60 71 46 45 57 50 86 46 18 -3 41 -14 51 -25z m9902 -757
c45 -39 109 -50 137 -22 17 17 46 2 59 -31 26 -66 69 -94 116 -76 20 7 30 6
40 -4 23 -23 -32 -54 -106 -60 -73 -6 -102 -26 -127 -94 -15 -38 -37 -54 -40
-27 -1 14 -32 77 -47 96 -7 9 -32 24 -55 34 -49 19 -62 38 -62 89 0 19 -7 52
-15 72 -17 41 -18 46 -7 39 4 -2 14 -1 22 4 19 12 60 2 85 -20z m-21395 -435
c30 -6 41 -15 63 -54 66 -119 178 -226 296 -283 61 -29 206 -36 320 -14 l83
16 53 -30 c64 -37 101 -38 163 -5 62 33 120 33 178 -1 35 -21 51 -25 83 -19
27 4 49 2 69 -9 42 -21 89 -79 97 -118 12 -57 57 -147 76 -153 11 -4 19 -10
19 -15 0 -24 125 -69 195 -70 38 0 159 40 201 66 24 16 69 19 146 9 38 -5 73
-3 103 5 44 12 46 12 99 -23 32 -21 69 -58 93 -94 22 -32 62 -75 89 -95 56
-43 59 -48 42 -71 -10 -12 -40 -19 -118 -26 -97 -9 -145 -19 -195 -41 -58 -26
-122 -34 -261 -35 -159 -1 -216 4 -434 36 -277 40 -577 49 -840 24 -183 -17
-599 -25 -673 -12 l-47 8 6 97 c6 89 4 103 -21 167 -14 39 -40 115 -57 170
-16 55 -43 131 -60 169 -66 152 -58 274 24 356 24 23 52 46 63 51 20 8 77 6
145 -6z m13856 -45 c95 -24 171 -25 239 -4 54 16 168 17 199 1 31 -15 124 -34
206 -42 92 -8 257 17 314 47 33 18 43 19 76 9 21 -6 57 -27 80 -46 23 -19 46
-35 51 -35 14 0 49 -38 49 -54 0 -14 -80 -119 -110 -144 -18 -15 -158 -10
-205 8 -48 18 -241 23 -388 11 -119 -11 -145 -10 -185 2 -117 38 -161 46 -242
44 -65 -1 -93 3 -119 17 -51 27 -126 31 -218 11 -76 -16 -82 -16 -116 0 -20 9
-45 31 -56 48 l-20 31 34 31 c24 23 50 35 97 45 34 7 68 16 73 20 33 25 144
25 241 0z m-1356 -276 c41 -8 133 -17 205 -18 142 -4 181 -10 189 -32 20 -52
-74 -90 -247 -100 -51 -3 -113 -14 -145 -26 -31 -11 -91 -26 -132 -34 -41 -8
-104 -23 -139 -35 -85 -27 -142 -29 -226 -7 -38 10 -90 18 -115 18 -33 0 -67
11 -120 38 -41 20 -75 42 -77 47 -5 15 85 61 152 78 33 8 90 29 126 46 36 16
94 34 130 40 82 12 303 4 399 -15z m-8412 -584 c39 -1 46 -15 28 -61 -10 -24
-19 -64 -21 -90 -4 -63 -9 -69 -55 -69 -50 0 -88 32 -120 100 l-25 53 24 16
c40 27 125 61 139 56 8 -3 21 -5 30 -5z m13308 -512 c51 -9 64 -15 64 -30 0
-14 8 -18 38 -18 26 0 41 -6 50 -20 8 -13 23 -20 42 -20 23 0 30 -4 30 -20 0
-16 7 -20 31 -20 18 0 39 -8 48 -18 20 -24 65 -35 88 -23 31 16 148 39 151 30
2 -5 19 -9 37 -9 19 0 37 -4 40 -10 3 -5 21 -10 40 -10 25 0 35 -5 40 -20 6
-18 15 -20 82 -20 73 0 134 11 180 32 27 13 90 4 113 -17 9 -8 28 -15 43 -15
17 0 28 -7 32 -20 6 -20 35 -28 35 -10 0 6 14 10 30 10 17 0 30 -4 30 -10 0
-5 13 -10 30 -10 24 0 31 -5 36 -27 4 -15 13 -34 21 -41 7 -7 13 -22 13 -33 0
-14 7 -19 25 -19 19 0 26 -7 31 -27 8 -30 26 -53 43 -53 6 0 11 -4 11 -10 0
-5 8 -10 19 -10 10 0 21 -8 23 -18 4 -14 -3 -22 -27 -31 -40 -14 -60 -56 -56
-119 4 -82 51 -144 131 -171 47 -16 67 -34 122 -111 74 -104 122 -130 244
-130 40 0 75 -4 79 -9 3 -5 -8 -19 -24 -30 -16 -11 -37 -37 -46 -58 -20 -41
-38 -63 -53 -63 -18 0 -122 102 -115 113 3 5 1 7 -4 4 -6 -4 -19 3 -29 14 -10
11 -41 37 -69 57 -27 20 -52 39 -55 42 -3 3 -9 6 -15 6 -5 1 -24 4 -42 7 -60
11 -119 -67 -99 -131 4 -10 20 -32 36 -48 16 -16 30 -37 30 -46 0 -30 50 -59
95 -57 74 4 103 0 109 -18 10 -26 -21 -50 -114 -83 -118 -43 -166 -94 -158
-171 2 -25 11 -38 35 -52 31 -18 32 -18 72 2 41 22 71 27 71 13 0 -4 -22 -30
-49 -56 -27 -27 -52 -59 -55 -71 -7 -28 -133 -95 -178 -95 -18 0 -49 9 -68 21
-37 22 -109 97 -110 114 -1 19 -47 63 -91 87 -29 16 -50 38 -64 66 -12 23 -37
58 -56 78 l-34 35 3 90 c2 78 0 91 -18 109 -30 30 -66 25 -101 -12 -17 -18
-37 -46 -45 -61 -17 -32 -37 -31 -42 1 -2 12 -9 22 -15 22 -7 0 -19 10 -27 21
-8 12 -20 27 -26 33 -6 6 -14 23 -17 37 -4 14 -15 35 -25 47 -10 11 -27 39
-37 62 -10 22 -24 40 -32 40 -7 0 -13 4 -13 9 0 12 -84 51 -110 51 -11 0 -20
5 -20 10 0 6 -33 10 -80 10 -47 0 -80 4 -80 10 0 6 -18 10 -40 10 -22 0 -40 4
-40 8 0 12 -85 32 -139 32 -45 0 -130 32 -139 53 -2 4 -10 7 -18 7 -8 0 -14 4
-14 8 0 5 -18 18 -39 30 -22 13 -43 31 -46 42 -4 11 -15 20 -25 20 -10 0 -21
8 -25 19 -5 18 -15 21 -136 49 -25 6 -99 14 -165 18 -65 4 -123 10 -129 14 -5
4 -27 13 -47 19 -21 7 -38 18 -38 25 0 17 -59 36 -113 36 -26 0 -47 5 -47 10
0 6 -5 10 -11 10 -6 0 -17 7 -25 15 -8 8 -22 18 -30 23 -11 6 -15 28 -16 89 0
45 3 86 6 92 4 6 23 13 42 17 19 4 41 15 47 25 7 11 23 19 39 19 24 0 28 4 28
30 0 33 26 50 79 50 15 0 31 4 37 9 5 5 59 12 119 15 129 6 193 15 201 27 3 5
50 9 105 9 59 0 99 4 99 10 0 6 12 10 26 10 15 0 34 8 43 18 34 40 89 48 187
30z m5322 -394 c20 -21 35 -135 21 -171 -5 -14 -12 -60 -15 -102 -11 -143 -34
-181 -123 -207 -126 -36 -173 -59 -239 -118 -79 -70 -113 -86 -187 -86 -58 0
-115 -21 -115 -43 0 -8 -21 -13 -62 -14 -35 -1 -79 -3 -98 -5 -47 -4 -50 19
-11 79 23 35 31 58 31 92 0 53 -30 111 -58 111 -22 0 -122 -49 -122 -60 0 -4
-14 -13 -30 -20 -17 -7 -45 -34 -62 -59 -18 -25 -38 -51 -46 -57 -23 -17 -61
-5 -68 23 -16 61 23 130 104 185 50 34 78 58 67 58 -18 0 37 67 82 101 28 21
61 52 74 70 12 17 41 40 65 50 40 18 46 18 116 3 73 -16 74 -16 134 9 53 22
70 25 135 20 64 -5 83 -2 139 20 36 14 75 28 87 32 12 3 32 18 45 33 58 68
105 87 136 56z m-15408 -3375 c86 -2 140 -14 140 -31 0 -5 7 -8 15 -8 8 0 15
-4 15 -10 0 -5 11 -10 24 -10 13 0 29 -7 36 -15 7 -8 16 -12 21 -9 5 3 14 -7
19 -21 12 -31 34 -55 50 -55 6 0 22 -11 35 -25 14 -13 41 -31 60 -40 19 -10
37 -25 40 -36 4 -12 16 -19 30 -19 13 0 25 -5 27 -12 3 -7 35 -12 94 -12 l89
-1 0 -120 c0 -83 4 -128 14 -145 7 -14 46 -56 86 -95 71 -70 85 -97 59 -122
-36 -36 -112 7 -245 138 -53 52 -107 95 -143 113 -56 27 -62 28 -148 22 l-90
-7 2 38 c2 21 2 57 1 81 -1 37 -4 42 -24 42 -12 0 -29 9 -37 20 -12 16 -26 20
-72 20 -31 0 -69 5 -85 11 -38 15 -171 15 -185 1 -7 -7 -32 -12 -56 -12 -51 0
-175 -21 -182 -30 -7 -10 -57 -21 -118 -27 -45 -4 -56 -2 -71 16 -10 12 -23
21 -30 21 -6 0 -11 5 -11 10 0 6 -6 10 -13 10 -7 0 -19 9 -27 20 -10 13 -26
20 -49 20 -36 0 -67 26 -77 67 -9 36 39 73 95 73 17 0 31 5 31 10 0 6 13 10
29 10 16 0 37 8 47 17 12 12 19 14 21 6 3 -9 15 -8 45 3 22 8 59 14 81 14 25
0 44 6 52 16 6 9 32 18 58 21 26 3 50 10 53 14 3 5 14 9 25 9 10 0 19 4 19 10
0 8 118 19 147 14 6 -2 53 -4 103 -5z m10333 -22 c16 -10 33 -31 38 -44 14
-37 -5 -55 -55 -51 -34 3 -44 9 -67 43 -15 22 -30 50 -34 62 -6 22 -4 23 42
16 26 -3 61 -15 76 -26z m-10375 -869 c19 -19 39 -21 187 -23 77 0 150 -4 162
-8 37 -13 54 -66 47 -144 -6 -61 -4 -71 16 -97 13 -15 43 -36 67 -47 51 -22
61 -40 39 -74 -21 -32 -70 -62 -168 -104 -42 -18 -94 -48 -115 -65 -55 -46
-114 -69 -160 -63 -21 3 -70 10 -109 15 -73 10 -83 13 -117 41 -43 35 -57 57
-88 135 -27 65 -45 93 -93 140 -33 33 -54 62 -48 64 7 2 12 10 12 18 0 20 45
64 65 64 8 0 15 5 15 10 0 6 7 10 15 10 8 0 15 5 15 10 0 6 11 10 24 10 16 0
27 7 31 20 3 11 12 20 20 20 8 0 17 9 20 20 4 13 15 20 31 20 13 0 24 5 24 10
0 25 87 39 108 18z m-524 -430 c3 -68 9 -144 12 -169 l6 -46 -62 -1 c-76 -1
-168 -20 -196 -41 -12 -9 -32 -23 -44 -31 -12 -8 -51 -43 -88 -78 -46 -43 -95
-78 -156 -108 -49 -24 -95 -44 -102 -44 -16 0 -126 -49 -144 -65 -8 -7 -53
-32 -100 -55 -47 -24 -92 -49 -100 -57 -39 -34 -105 -85 -124 -95 -29 -14 -76
-59 -76 -72 0 -6 -18 -31 -40 -56 -54 -60 -66 -97 -45 -147 26 -61 31 -164 11
-214 -10 -23 -22 -72 -27 -108 -5 -36 -12 -81 -15 -98 -4 -18 -4 -43 -1 -56 8
-29 56 -57 100 -57 39 0 61 -19 51 -44 -7 -19 -88 -61 -147 -77 -68 -18 -180
-78 -250 -133 -133 -104 -169 -112 -379 -92 -71 7 -96 6 -139 -9 -30 -9 -81
-18 -114 -20 -127 -8 -258 -35 -332 -70 -68 -33 -121 -43 -157 -29 -42 16 1
123 57 140 12 3 40 21 62 38 22 17 58 38 80 45 22 8 56 26 75 42 32 25 44 27
145 32 87 4 124 10 178 31 37 14 86 26 108 26 47 0 66 9 134 60 34 26 76 45
130 60 171 47 239 87 264 152 10 28 5 88 -8 88 -4 0 -22 14 -40 32 -30 30 -32
36 -28 85 5 56 -1 69 -45 96 -49 31 -31 75 41 98 61 20 103 79 109 154 4 51 2
59 -22 84 -16 17 -52 36 -86 46 -69 21 -100 46 -100 81 0 64 70 115 191 139
56 11 116 33 181 66 122 61 182 76 336 83 99 5 135 11 190 32 90 35 184 84
317 163 61 36 123 73 139 82 17 9 31 20 33 26 4 12 -31 53 -45 53 -15 0 -25
36 -17 60 4 14 15 20 33 20 16 0 34 8 42 20 10 14 26 20 52 20 21 0 38 5 38
10 0 6 7 10 15 10 8 0 15 5 15 10 0 6 17 10 39 10 l39 0 6 -122z m803 -2223
c11 -12 13 -22 6 -43 -20 -56 24 -122 80 -122 32 0 57 -73 34 -96 -10 -11 -9
-50 5 -114 6 -31 8 -65 5 -74 -6 -16 -9 -16 -22 -2 -8 8 -15 18 -15 23 0 4
-12 19 -25 32 -14 13 -25 27 -25 32 0 5 -6 9 -14 9 -8 0 -22 7 -30 16 -22 21
-118 54 -160 54 -38 0 -146 -21 -218 -43 -25 -8 -58 -12 -72 -10 -22 5 -26 11
-26 39 0 19 5 34 11 34 6 0 24 14 39 30 15 17 33 30 39 30 6 0 11 5 11 10 0 6
7 10 15 10 8 0 15 5 15 10 0 6 7 10 15 10 10 0 15 10 15 30 l0 30 80 0 c73 0
80 2 80 20 0 16 -7 20 -30 20 -23 0 -30 4 -30 20 0 16 7 20 30 20 17 0 30 5
30 10 0 6 23 10 50 10 28 0 50 5 50 10 0 15 40 12 57 -5z m-3082 -263 c-4 -28
-46 -123 -76 -169 -7 -13 -21 -23 -29 -23 -19 0 -67 101 -74 156 l-6 41 77 2
c42 1 83 6 92 11 9 5 17 10 18 10 1 0 0 -13 -2 -28z m-315 -29 c0 -7 -5 -13
-11 -13 -5 0 -8 -4 -5 -9 3 -5 -1 -21 -8 -37 -8 -16 -20 -57 -27 -92 -11 -51
-11 -71 0 -110 13 -45 31 -120 53 -229 10 -47 9 -54 -15 -96 -15 -25 -37 -54
-50 -64 -30 -25 -80 -90 -105 -138 -11 -22 -33 -53 -48 -70 -15 -16 -41 -52
-59 -80 -18 -27 -46 -61 -62 -75 -15 -14 -43 -42 -61 -63 -47 -55 -69 -34 -35
34 24 48 28 124 9 155 -12 18 -25 24 -51 24 -67 0 -99 -24 -191 -145 -47 -63
-57 -70 -119 -91 -27 -9 -79 -34 -114 -55 -87 -52 -122 -62 -200 -57 -85 6
-127 25 -123 56 2 12 -4 29 -12 38 -23 22 -20 30 25 76 37 38 48 43 108 50 36
4 67 12 69 18 2 5 10 10 18 10 8 0 14 5 14 10 0 6 15 10 33 10 25 0 40 8 66
39 28 32 43 41 81 46 34 5 48 12 55 28 7 15 21 23 43 25 19 2 49 12 68 23 24
13 54 19 99 19 52 0 65 3 65 16 0 8 7 22 15 30 26 27 10 114 -22 114 -7 0 -13
9 -13 20 0 17 -7 20 -42 20 -69 0 -124 22 -163 64 -19 21 -35 42 -35 47 0 5
-9 9 -19 9 -11 0 -23 5 -26 10 -3 6 -21 10 -40 10 -19 0 -37 5 -40 10 -3 6
-17 10 -30 10 -13 0 -25 5 -27 11 -2 6 -25 12 -51 13 -70 3 -90 24 -81 84 9
64 33 104 69 114 17 5 78 11 137 13 66 4 128 13 165 25 32 11 77 20 101 20 23
0 42 4 42 9 0 8 55 25 118 35 19 3 48 12 65 20 18 8 57 17 87 20 102 11 145
18 150 26 17 24 130 35 130 13z m10810 -111 c0 -14 -36 -52 -49 -52 -15 0 -14
33 1 48 14 14 48 16 48 4z m-92 -53 c2 -11 -6 -19 -24 -23 -34 -9 -51 6 -33
28 17 20 53 16 57 -5z m-10359 -610 c30 -4 60 -1 89 8 23 9 45 13 48 10 2 -2
-9 -19 -26 -37 -16 -18 -30 -36 -30 -41 0 -5 -16 -31 -35 -58 -29 -40 -42 -50
-75 -55 -44 -7 -48 -5 -110 58 -40 41 -44 64 -14 97 17 19 83 39 99 30 5 -2
29 -8 54 -12z"/>
<path d="M26660 14986 c0 -22 -67 -76 -134 -107 -34 -16 -66 -29 -72 -29 -6 0
-21 -11 -34 -25 -21 -23 -22 -27 -10 -50 14 -26 117 -95 141 -95 8 0 41 14 73
30 32 17 66 30 75 30 9 0 32 10 51 22 53 32 121 47 273 59 148 12 184 8 204
-20 7 -10 35 -26 64 -35 139 -46 329 72 329 204 l0 30 -480 0 c-404 0 -480 -2
-480 -14z"/>
<path d="M28700 14985 c0 -8 4 -15 9 -15 5 0 13 -9 16 -20 5 -16 15 -20 46
-20 34 0 39 -3 39 -22 0 -42 21 -98 35 -98 8 0 15 -4 15 -10 0 -5 9 -10 19
-10 11 0 23 -9 26 -20 10 -32 34 -50 66 -50 19 0 29 -5 29 -15 0 -8 8 -15 19
-15 11 0 23 -11 30 -28 7 -17 26 -34 51 -45 22 -9 40 -24 40 -32 0 -8 7 -15
16 -15 23 0 44 -25 44 -54 0 -14 4 -26 9 -26 5 0 13 -9 16 -20 4 -14 15 -20
36 -20 16 0 29 -4 29 -10 0 -5 16 -10 35 -10 19 0 35 -4 35 -10 0 -5 7 -10 16
-10 9 0 25 -10 35 -22 11 -11 19 -16 19 -10 0 7 15 12 35 12 19 0 35 -4 35
-10 0 -5 25 -10 55 -10 48 0 55 -2 55 -20 0 -15 7 -20 24 -20 14 0 31 -8 38
-19 9 -13 32 -21 75 -26 48 -5 65 -12 80 -31 10 -13 23 -24 30 -24 7 0 13 -4
13 -10 0 -5 14 -10 30 -10 17 0 30 -4 30 -9 0 -7 51 -31 66 -31 2 0 4 187 4
415 l0 415 -650 0 c-571 0 -650 -2 -650 -15z"/>
<path d="M22476 14336 c-9 -45 -3 -54 20 -31 11 11 13 19 7 23 -6 4 -13 16
-15 27 -3 14 -6 8 -12 -19z"/>
<path d="M28411 13866 c12 -10 99 -16 99 -7 0 7 -22 11 -52 11 -28 0 -49 -2
-47 -4z"/>
<path d="M29729 13171 c-50 -10 -97 -42 -156 -103 -81 -87 -104 -134 -106
-221 -1 -66 3 -82 32 -141 19 -36 53 -88 77 -116 49 -58 55 -87 22 -117 -30
-27 -40 -30 -203 -49 -219 -25 -329 -6 -465 80 -141 90 -198 91 -350 9 -255
-139 -317 -157 -483 -146 -133 8 -218 -12 -572 -134 -88 -31 -191 -62 -230
-69 -38 -7 -97 -19 -130 -26 -33 -7 -94 -12 -135 -13 -63 0 -80 4 -108 23 -37
27 -62 69 -62 107 0 26 -18 35 -25 13 -2 -7 -6 -34 -10 -60 -4 -33 -11 -48
-21 -48 -15 0 -44 -23 -44 -34 0 -3 11 -6 25 -6 31 0 34 -29 5 -50 -11 -8 -20
-22 -20 -32 0 -10 -4 -18 -9 -18 -5 0 -13 -10 -17 -22 -12 -37 -4 -229 12
-273 21 -62 19 -85 -11 -85 -18 0 -25 -5 -25 -20 0 -19 7 -20 169 -20 126 0
171 -3 175 -12 5 -10 7 -10 12 0 3 6 23 12 45 12 32 0 39 3 39 20 0 13 7 20
20 20 11 0 20 -4 20 -10 0 -6 37 -10 90 -10 53 0 90 -4 90 -10 0 -6 26 -10 59
-10 38 0 61 -5 65 -12 5 -10 7 -10 12 0 7 15 164 17 164 2 0 -5 14 -10 30 -10
17 0 30 -4 30 -10 0 -6 33 -10 80 -10 47 0 80 -4 80 -10 0 -5 20 -10 44 -10
36 0 46 -4 51 -20 3 -11 15 -20 26 -20 10 0 19 -4 19 -10 0 -5 5 -10 11 -10 6
0 24 -13 39 -30 15 -16 37 -30 49 -30 12 0 21 -4 21 -10 0 -5 9 -10 20 -10 11
0 20 -4 20 -10 0 -5 5 -10 11 -10 13 0 49 -38 49 -52 0 -4 14 -8 30 -8 23 0
30 -4 30 -20 0 -17 7 -20 50 -20 28 0 50 -4 50 -10 0 -5 14 -10 30 -10 27 0
30 -3 30 -30 0 -29 1 -30 50 -30 28 0 50 -4 50 -10 0 -5 14 -10 30 -10 23 0
30 4 30 20 0 16 -7 20 -30 20 -23 0 -30 4 -30 20 0 18 7 20 60 20 33 0 60 -4
60 -10 0 -5 23 -10 50 -10 28 0 50 5 50 10 0 6 14 10 30 10 17 0 30 5 30 10 0
6 32 10 75 10 l76 0 6 -30 c5 -28 8 -30 54 -30 42 0 49 -3 49 -20 0 -13 -7
-20 -20 -20 -11 0 -20 -4 -20 -10 0 -5 9 -10 19 -10 11 0 23 -9 26 -20 3 -11
10 -20 14 -20 5 0 14 -13 21 -30 7 -16 16 -30 20 -30 4 0 13 -13 20 -30 10
-25 18 -30 46 -30 27 0 34 -4 34 -20 0 -14 7 -20 24 -20 23 0 36 -16 36 -46 0
-9 -11 -14 -30 -14 -16 0 -30 -4 -30 -10 0 -5 23 -10 50 -10 28 0 50 -4 50
-10 0 -5 14 -10 30 -10 27 0 30 3 30 30 0 23 4 30 20 30 11 0 20 -4 20 -10 0
-5 9 -10 20 -10 11 0 20 5 20 10 0 6 7 10 15 10 8 0 15 5 15 10 0 6 5 10 11
10 30 0 39 30 39 124 0 87 2 96 19 96 13 0 20 9 25 30 3 17 12 30 20 30 17 0
26 22 26 66 0 23 5 34 14 34 8 0 18 9 21 20 3 11 12 20 20 20 8 0 17 9 20 20
10 32 53 27 61 -7 4 -16 16 -45 26 -67 13 -25 17 -47 13 -65 -6 -22 -3 -21 19
12 32 47 34 106 6 172 -23 55 -26 130 -5 165 8 14 18 33 21 43 5 13 17 17 50
17 l44 0 0 251 c0 225 -2 251 -16 245 -9 -3 -53 -9 -98 -12 -70 -6 -88 -4
-114 12 -112 66 -17 241 160 295 l68 21 0 353 0 352 -52 7 c-66 7 -171 6 -219
-3z"/>
<path d="M2630 7850 c0 -5 -16 -10 -35 -10 -28 0 -35 -4 -35 -20 0 -18 -7 -20
-80 -20 -73 0 -80 2 -80 20 0 17 -7 20 -48 20 -36 0 -51 -5 -62 -20 -8 -11
-20 -20 -27 -20 -7 0 -13 -4 -13 -10 0 -5 -16 -10 -35 -10 -19 0 -35 -4 -35
-10 0 -5 -11 -10 -24 -10 -16 0 -27 -7 -31 -20 -4 -14 -15 -20 -36 -20 -32 0
-79 -38 -79 -65 0 -11 -10 -15 -35 -15 l-35 0 0 50 c0 28 -4 50 -10 50 -5 0
-10 -22 -10 -50 l0 -50 -80 0 c-47 0 -80 -4 -80 -10 0 -5 -9 -10 -20 -10 -11
0 -20 -4 -20 -10 0 -5 -9 -10 -20 -10 -11 0 -20 -4 -20 -10 0 -5 9 -10 20 -10
13 0 20 -7 20 -20 0 -15 -7 -20 -25 -20 -14 0 -25 -4 -25 -10 0 -5 -16 -10
-35 -10 -28 0 -35 -4 -35 -20 0 -16 -7 -20 -30 -20 -16 0 -30 -4 -30 -10 0 -5
-7 -10 -15 -10 -8 0 -15 -4 -15 -10 0 -5 -11 -10 -24 -10 -17 0 -27 -9 -36
-30 -11 -28 -16 -30 -61 -30 -27 0 -49 -4 -49 -10 0 -5 -13 -10 -30 -10 -16 0
-30 5 -30 10 0 6 -18 10 -40 10 -22 0 -40 -4 -40 -10 0 -5 -18 -10 -40 -10
-33 0 -40 -3 -40 -20 0 -18 -7 -20 -55 -20 -30 0 -55 -4 -55 -10 0 -5 -11 -10
-25 -10 -14 0 -25 5 -25 10 0 6 -33 10 -80 10 -47 0 -80 4 -80 10 0 6 -9 10
-20 10 -11 0 -20 5 -20 10 0 6 -18 10 -40 10 -22 0 -40 5 -40 10 0 6 -10 10
-21 10 -21 0 -59 34 -59 52 0 4 -13 8 -29 8 -21 0 -32 6 -36 20 -4 13 -15 20
-31 20 -17 0 -24 5 -24 20 0 15 -7 20 -25 20 -18 0 -26 7 -31 27 -5 17 -3 28
4 31 31 10 6 22 -48 22 -53 0 -60 -2 -60 -20 0 -11 -5 -20 -10 -20 -17 0 -60
-47 -60 -65 0 -8 5 -15 10 -15 14 0 13 -210 -2 -268 -6 -26 -25 -60 -42 -78
-52 -55 -56 -62 -56 -99 0 -24 -5 -35 -15 -35 -8 0 -17 -10 -19 -22 -3 -13 -7
-155 -8 -317 -2 -225 -6 -295 -15 -299 -7 -2 -13 -9 -13 -15 0 -8 4 -7 12 1
17 17 69 15 145 -5 77 -21 104 -50 111 -122 6 -63 -16 -111 -67 -147 -38 -27
-57 -51 -47 -61 2 -2 41 -6 87 -9 122 -6 194 -23 238 -55 l39 -28 5 27 c18
108 144 422 169 422 4 0 8 6 8 14 0 40 156 211 240 265 28 17 211 163 249 198
24 22 183 103 202 103 23 0 146 64 218 113 44 30 108 65 143 77 146 50 193 83
372 257 73 70 158 146 189 168 33 24 62 54 72 75 9 19 35 56 58 81 97 106 121
139 102 139 -3 0 -5 -4 -5 -10z"/>
<path d="M29870 6436 c0 -41 -3 -81 -6 -90 -4 -11 -1 -16 10 -16 11 0 16 9 16
30 0 17 5 30 10 30 16 0 12 89 -4 106 -8 8 -17 14 -20 14 -3 0 -6 -33 -6 -74z"/>
<path d="M28810 5165 c0 -11 -12 -15 -46 -15 -26 0 -65 -5 -87 -12 -32 -10
-41 -10 -45 0 -5 17 -62 -45 -62 -68 0 -10 -9 -20 -19 -23 -13 -3 -22 -17 -26
-41 -4 -21 -13 -36 -21 -36 -9 0 -14 -11 -14 -30 0 -23 -4 -30 -20 -30 -11 0
-20 -4 -20 -9 0 -22 -79 -91 -104 -91 -21 0 -26 -5 -26 -25 0 -18 -5 -25 -20
-25 -13 0 -20 7 -20 20 0 11 -4 20 -10 20 -5 0 -11 10 -11 23 -1 12 -6 -3 -10
-33 -4 -30 -14 -83 -20 -118 -11 -56 -11 -66 4 -90 16 -26 18 -27 104 -24 78
2 92 5 129 30 22 16 53 32 68 36 30 7 56 28 56 44 0 6 4 12 8 14 4 2 25 36 46
76 20 40 43 81 51 90 7 9 26 32 41 51 16 18 43 40 61 47 40 17 211 19 285 3
47 -10 61 -20 129 -90 41 -44 81 -79 87 -79 7 0 12 14 12 34 0 54 -11 96 -26
96 -8 0 -14 7 -14 16 0 9 -17 32 -37 50 -29 27 -44 34 -72 32 -20 -1 -60 -1
-89 0 -50 2 -53 4 -58 32 -5 25 -11 30 -35 30 -26 0 -29 4 -29 30 0 23 -5 30
-19 30 -11 0 -23 5 -26 10 -3 6 -17 10 -29 10 -13 0 -29 7 -36 15 -7 8 -16 15
-21 15 -5 0 -9 -7 -9 -15z"/>
<path d="M27973 5055 c-7 -8 -12 -36 -12 -62 1 -26 4 -39 6 -29 3 10 14 33 24
50 10 17 19 37 19 44 0 16 -22 15 -37 -3z"/>
<path d="M24843 4805 c-25 -28 -28 -35 -14 -35 10 0 24 15 34 35 9 19 15 35
14 35 -2 0 -17 -16 -34 -35z"/>
<path d="M24773 4738 c-8 -13 -13 -17 -100 -68 -57 -34 -137 -62 -228 -80 -33
-6 -68 -16 -77 -21 -10 -5 -28 -9 -40 -9 -60 0 -209 -64 -373 -160 -27 -16
-70 -37 -95 -46 -25 -9 -53 -20 -63 -25 -9 -5 -43 -19 -75 -31 -118 -44 -155
-84 -189 -206 -14 -48 -28 -89 -32 -92 -17 -11 -41 -78 -52 -145 -6 -38 -20
-89 -32 -112 -23 -48 -17 -67 12 -35 10 12 23 22 30 22 6 0 11 5 11 10 0 6 9
10 20 10 11 0 20 5 20 10 0 6 27 10 60 10 33 0 60 4 60 10 0 6 9 10 20 10 11
0 20 5 20 10 0 6 11 10 24 10 15 0 26 7 29 20 3 13 14 20 30 20 18 0 28 8 37
30 10 25 18 30 46 30 19 0 34 5 34 10 0 6 7 10 15 10 8 0 15 9 15 20 0 17 7
20 39 20 30 0 40 4 44 20 3 14 14 20 31 20 14 0 26 4 26 8 0 14 36 52 49 52
17 0 41 26 41 44 0 11 9 16 30 16 17 0 30 4 30 8 0 13 36 52 46 52 5 0 16 9
24 20 8 11 22 20 32 20 10 0 18 7 18 16 0 25 26 44 62 44 22 0 39 7 48 20 8
12 26 20 42 20 15 0 28 5 28 10 0 6 6 10 14 10 8 0 18 9 21 20 3 11 13 20 21
20 8 0 14 4 14 10 0 5 11 20 24 33 31 32 46 60 46 91 0 21 5 26 24 26 17 0 27
9 36 30 7 17 16 30 20 30 4 0 15 18 25 40 10 23 27 50 37 62 17 20 24 38 13
38 -2 0 -8 -6 -12 -12z"/>
<path d="M29980 4450 c0 -5 -9 -10 -20 -10 -11 0 -20 -4 -20 -8 0 -9 -55 -24
-145 -41 -33 -6 -61 -15 -63 -21 -2 -5 -8 -10 -13 -10 -9 0 -80 -44 -106 -65
-7 -5 -19 -16 -27 -22 -8 -7 -19 -13 -23 -13 -4 0 -19 -9 -33 -20 -14 -11 -33
-20 -43 -20 -9 0 -25 -4 -35 -9 -35 -19 -90 -41 -101 -41 -7 0 -23 -11 -36
-24 -15 -15 -39 -26 -60 -28 l-36 -3 40 -41 c71 -71 203 -124 311 -124 61 0
158 22 193 44 25 16 134 36 195 36 l42 0 0 215 c0 137 -4 215 -10 215 -5 0
-10 -4 -10 -10z"/>
<path d="M29959 3188 c-60 -122 -104 -158 -187 -158 -34 0 -45 7 -112 76 -93
96 -131 114 -221 103 -92 -11 -139 -33 -174 -80 -16 -22 -49 -59 -73 -81 -24
-23 -57 -62 -73 -89 -34 -54 -66 -78 -106 -80 -17 -1 -21 -3 -10 -6 9 -2 17
-9 17 -14 0 -5 9 -9 20 -9 15 0 20 -7 20 -26 0 -39 34 -94 59 -94 6 0 12 -19
12 -42 1 -24 4 -33 6 -20 4 18 11 22 42 22 l37 0 14 -80 c12 -73 16 -80 37
-80 16 0 23 -6 23 -20 0 -13 7 -20 20 -20 16 0 20 -7 20 -30 0 -23 -4 -30 -20
-30 -13 0 -20 -7 -20 -20 0 -11 4 -20 8 -20 4 0 14 9 22 20 11 16 26 20 67 20
52 0 53 0 53 -31 0 -27 2 -29 15 -15 8 8 15 22 15 30 0 9 4 16 9 16 5 0 13 9
16 20 3 11 13 20 21 20 8 0 14 5 14 10 0 6 9 10 19 10 16 0 18 5 14 40 -4 25
-2 40 5 40 6 0 14 9 17 20 5 16 15 20 46 20 21 0 39 5 39 10 0 6 12 10 26 10
29 0 54 21 54 44 0 10 9 16 23 16 12 0 29 9 37 20 8 11 20 20 27 20 7 0 13 5
13 10 0 6 14 10 30 10 23 0 30 4 30 20 0 17 7 20 45 20 l45 0 0 230 c0 127 -2
230 -5 230 -3 0 -19 -28 -36 -62z"/>
<path d="M20734 2783 c-7 -2 -30 -21 -52 -43 -85 -80 -101 -88 -202 -101 -118
-15 -272 -16 -325 -1 -22 6 -66 18 -99 27 -55 15 -62 15 -120 -1 -36 -11 -107
-19 -173 -21 -101 -4 -114 -2 -131 15 -20 20 -21 20 -90 1 -89 -24 -198 -79
-256 -130 -39 -34 -49 -52 -71 -120 -14 -45 -25 -104 -25 -135 0 -30 -7 -71
-15 -91 -12 -29 -13 -38 -3 -45 25 -16 84 -28 138 -28 30 0 86 -7 125 -15 38
-8 80 -15 92 -15 32 0 111 -76 123 -119 26 -92 6 -192 -47 -240 -88 -79 -97
-83 -187 -88 -64 -4 -91 -2 -115 10 l-31 15 0 -94 c0 -81 -4 -101 -27 -148
-14 -30 -38 -60 -51 -68 -16 -8 -60 -13 -121 -13 -91 0 -98 1 -123 26 -15 15
-34 43 -42 62 -15 37 -66 97 -83 97 -5 0 -18 8 -29 18 -10 10 -40 28 -66 40
-27 12 -48 27 -48 32 0 6 -6 10 -13 10 -8 0 -20 11 -27 25 l-13 25 -32 -20
c-18 -11 -44 -20 -59 -20 -15 0 -43 -7 -63 -15 -58 -24 -63 -21 -63 39 0 70
-15 86 -81 86 -27 0 -49 5 -49 10 0 6 -11 10 -25 10 -14 0 -45 9 -67 20 -23
11 -48 20 -55 20 -7 0 -13 5 -13 10 0 6 -33 10 -79 10 -44 0 -83 5 -86 10 -10
16 -43 12 -73 -9 -15 -11 -49 -22 -77 -26 l-50 -7 36 -16 c20 -9 42 -25 49
-36 8 -12 17 -70 21 -131 5 -60 11 -145 15 -188 6 -71 5 -80 -14 -98 -17 -15
-36 -19 -96 -19 -41 0 -78 5 -81 10 -3 6 -16 10 -29 10 -12 0 -26 4 -32 9 -5
5 -30 12 -56 15 -40 6 -48 5 -48 -9 0 -8 7 -18 15 -21 8 -4 15 -12 15 -20 0
-8 5 -14 10 -14 6 0 10 -7 10 -16 0 -33 31 -80 65 -98 19 -11 42 -30 51 -44
19 -29 43 -218 44 -339 l0 -83 175 0 c110 0 175 4 175 10 0 6 33 10 80 10 73
0 80 2 80 20 0 17 7 20 50 20 28 0 50 5 50 10 0 6 14 10 30 10 17 0 30 5 30
10 0 6 50 10 130 10 80 0 130 -4 130 -10 0 -6 28 -10 65 -10 37 0 65 -4 65
-10 0 -6 48 -10 125 -10 77 0 125 4 125 10 0 6 9 10 20 10 11 0 20 -4 20 -10
0 -6 27 -10 60 -10 33 0 60 4 60 10 0 6 -11 10 -25 10 -18 0 -25 5 -25 20 0
15 7 20 25 20 14 0 25 5 25 10 0 6 9 10 20 10 11 0 20 5 20 10 0 6 6 10 14 10
7 0 19 13 26 30 12 30 14 30 86 30 43 0 74 4 74 10 0 6 -9 10 -20 10 -15 0
-20 7 -20 26 0 14 6 32 13 39 31 35 37 45 37 60 0 12 14 15 75 15 43 0 75 4
75 10 0 15 77 12 84 -2 5 -10 7 -10 12 0 3 6 19 12 35 12 16 0 29 5 29 10 0 6
9 10 20 10 11 0 20 5 20 10 0 6 9 10 20 10 13 0 20 7 20 20 0 17 7 20 50 20
28 0 50 4 50 8 0 13 36 52 46 52 5 0 16 9 24 20 8 11 20 20 26 20 6 0 17 14
24 30 7 17 17 30 23 30 10 0 47 39 47 50 0 12 37 50 49 50 23 0 41 29 47 74 6
42 9 46 35 46 26 0 29 -3 29 -34 0 -66 -12 -126 -26 -126 -8 0 -14 -7 -14 -16
0 -16 118 82 180 150 61 68 73 77 190 154 153 100 226 131 310 132 36 0 81 5
100 10 19 6 107 10 195 9 88 -1 186 -2 217 -2 72 -1 175 48 219 105 63 79 45
197 -39 253 -20 13 -87 37 -147 53 -61 16 -129 39 -151 50 -54 27 -106 88
-174 201 -73 122 -115 164 -188 185 -59 18 -107 40 -177 80 -22 13 -45 22 -51
19z m-304 -1213 c0 -9 -96 -110 -105 -110 -3 0 -3 27 -2 60 l2 60 53 0 c28 0
52 -4 52 -10z"/>
<path d="M29905 2330 c-3 -11 -10 -20 -14 -20 -5 0 -14 -13 -21 -30 -8 -18
-20 -30 -31 -30 -11 0 -19 -4 -19 -10 0 -5 -7 -10 -15 -10 -8 0 -19 -16 -25
-40 -10 -36 -14 -40 -42 -40 -17 0 -38 -8 -47 -17 -27 -30 -59 -43 -101 -43
-22 0 -40 -4 -40 -10 0 -5 -22 -10 -50 -10 -49 0 -50 -1 -50 -30 l0 -30 -90 0
c-53 0 -90 4 -90 10 0 6 -30 10 -70 10 -40 0 -70 -4 -70 -10 0 -6 -37 -10 -90
-10 -53 0 -90 4 -90 10 0 6 -9 10 -20 10 -11 0 -20 -4 -20 -10 0 -6 -30 -10
-70 -10 -40 0 -70 -4 -70 -10 0 -5 -5 -10 -11 -10 -7 0 -19 -8 -28 -17 -28
-31 -59 -43 -111 -43 -27 0 -50 -4 -50 -10 0 -5 -7 -10 -15 -10 -8 0 -15 -9
-15 -20 0 -13 -7 -20 -20 -20 -11 0 -20 -4 -20 -10 0 -5 -18 -10 -40 -10 -22
0 -40 -4 -40 -10 0 -5 -9 -10 -20 -10 -11 0 -20 -4 -20 -10 0 -5 -11 -10 -25
-10 -14 0 -25 -4 -25 -10 0 -6 -27 -10 -60 -10 -33 0 -60 -4 -60 -10 0 -6 -40
-10 -100 -10 l-100 0 0 -30 c0 -24 -4 -30 -21 -30 -11 0 -38 -18 -59 -40 -21
-22 -45 -40 -53 -40 -17 0 -27 -21 -27 -56 0 -13 -6 -24 -13 -24 -22 0 -37
-64 -24 -105 6 -19 15 -35 21 -35 12 0 33 -53 46 -115 5 -28 8 -33 9 -15 1 35
19 50 57 50 24 0 34 -5 39 -20 4 -13 15 -20 31 -20 13 0 29 -9 36 -20 7 -11
17 -20 21 -20 31 0 49 -64 25 -88 -15 -15 -61 -15 -76 0 -9 9 -12 7 -12 -10 0
-20 -5 -22 -60 -22 -33 0 -60 -4 -60 -10 0 -5 -9 -10 -20 -10 -13 0 -20 -7
-20 -20 0 -16 -7 -20 -30 -20 -19 0 -30 -5 -30 -14 0 -8 -14 -18 -32 -22 -45
-9 -68 -39 -68 -86 0 -34 -3 -38 -25 -38 -24 0 -25 -2 -25 -70 0 -68 1 -70 25
-70 22 0 25 -4 25 -39 0 -29 7 -47 28 -69 27 -29 30 -30 122 -29 65 1 95 -2
98 -11 4 -14 72 -17 72 -3 0 4 50 14 110 21 61 8 110 17 110 22 0 4 15 8 34 8
19 0 38 5 41 10 3 6 33 10 66 10 44 0 61 4 65 15 13 32 300 11 312 -23 5 -16
-95 -25 -209 -20 -54 3 -99 1 -99 -4 0 -4 115 -8 255 -8 248 0 255 1 255 20 0
17 7 20 40 20 22 0 40 -4 40 -10 0 -5 18 -10 40 -10 22 0 40 5 40 10 0 6 27
10 60 10 33 0 60 4 60 10 0 6 23 10 50 10 49 0 50 1 50 30 0 23 4 30 20 30 18
0 40 14 75 47 8 7 39 13 70 13 50 0 60 -3 85 -30 15 -16 35 -30 44 -30 9 0 19
-15 26 -41 8 -30 15 -38 22 -31 8 8 18 6 37 -7 29 -20 76 -39 106 -43 78 -9
184 80 185 157 0 17 -21 94 -47 173 l-47 143 16 97 c9 54 29 135 45 182 21 66
27 104 27 170 1 79 -3 94 -48 205 -42 104 -48 127 -43 170 7 66 32 118 68 139
l29 17 0 125 0 124 -44 0 c-36 0 -46 -4 -51 -20z m-601 -786 c3 -9 6 -27 6
-40 0 -23 -3 -24 -58 -24 -49 0 -63 -4 -95 -31 -36 -30 -40 -31 -127 -28 -60
2 -94 -1 -102 -9 -16 -16 -51 -16 -44 1 3 6 9 19 12 28 4 12 21 16 72 17 37 1
68 6 70 12 2 5 23 10 47 10 24 0 47 5 50 10 3 6 15 10 26 10 10 0 19 5 19 10
0 6 6 10 14 10 7 0 19 6 26 14 6 8 24 17 38 19 15 2 30 5 33 6 4 0 10 -6 13
-15z m-701 -182 c15 -2 27 -11 27 -19 0 -21 -25 -43 -49 -43 -12 0 -21 -5 -21
-10 0 -6 -22 -9 -50 -8 -40 2 -53 -2 -70 -20 -36 -38 -53 -21 -29 30 12 27
127 88 149 80 8 -2 27 -7 43 -10z"/>
<path d="M28810 420 c0 -5 -10 -10 -23 -10 -12 0 -29 -9 -37 -20 -8 -11 -21
-20 -30 -20 -9 0 -22 -9 -30 -20 -8 -11 -20 -20 -27 -20 -8 0 -13 -12 -13 -30
0 -19 -5 -30 -14 -30 -10 0 -17 -16 -21 -47 -3 -27 -10 -65 -14 -85 -5 -20 -5
-56 0 -80 4 -24 8 -46 9 -50 0 -5 313 -8 695 -8 l695 0 0 204 0 204 -81 -35
c-73 -31 -89 -35 -150 -31 l-69 4 0 -28 c0 -25 -3 -28 -35 -28 -19 0 -35 5
-35 10 0 6 -40 10 -100 10 -60 0 -100 4 -100 10 0 6 -59 10 -158 10 -146 0
-159 1 -172 20 -8 11 -22 20 -32 20 -10 0 -18 5 -18 10 0 6 -9 10 -20 10 -11
0 -20 5 -20 10 0 6 -9 10 -20 10 -11 0 -20 5 -20 10 0 6 -33 10 -80 10 -47 0
-80 -4 -80 -10z"/>
<path d="M3760 60 c0 -5 -25 -10 -55 -10 -30 0 -55 -4 -55 -10 0 -5 -11 -10
-25 -10 -14 0 -25 -4 -25 -9 0 -5 -8 -12 -17 -14 -10 -3 64 -5 164 -6 158 -1
182 1 177 14 -4 10 -20 15 -50 15 -37 0 -44 3 -44 20 0 16 -7 20 -35 20 -19 0
-35 -4 -35 -10z"/>
</g>
</svg>
