<?xml version="1.0" standalone="no"?>
<!DOCTYPE svg PUBLIC "-//W3C//DTD SVG 20010904//EN"
 "http://www.w3.org/TR/2001/REC-SVG-20010904/DTD/svg10.dtd">
<svg version="1.0" xmlns="http://www.w3.org/2000/svg"
 width="3000.000000pt" height="1500.000000pt" viewBox="0 0 3000.000000 1500.000000"
 preserveAspectRatio="xMidYMid meet">

<g transform="translate(0.000000,1500.000000) scale(0.100000,-0.100000)"
fill="#000000" stroke="none">
<path d="M4460 14876 l0 -125 -31 -21 c-23 -17 -50 -23 -117 -28 -58 -3 -90
-9 -95 -18 -4 -8 -14 -14 -21 -14 -8 0 -27 -7 -42 -15 -16 -8 -55 -15 -86 -15
-80 0 -88 -11 -88 -119 l0 -88 98 -12 c53 -7 130 -14 170 -17 91 -7 92 -8 92
-188 l0 -133 25 5 c14 2 25 8 25 13 0 5 6 9 13 9 7 0 18 9 25 20 7 11 19 20
27 20 8 0 15 5 15 10 0 6 5 10 11 10 7 0 27 16 46 35 19 19 38 35 43 35 5 0
17 11 26 25 9 14 23 25 30 25 8 0 14 5 14 10 0 6 11 10 25 10 14 0 25 4 25 8
0 4 20 16 45 26 24 10 52 26 62 36 27 25 80 40 139 40 61 0 84 7 84 25 0 8 17
16 40 20 22 4 40 11 40 16 0 6 13 15 30 20 29 11 50 53 50 102 0 9 7 17 15 17
16 0 35 30 35 55 0 19 -58 75 -77 75 -7 0 -13 5 -13 10 0 6 -5 10 -11 10 -30
0 -39 30 -39 129 l0 101 -315 0 -315 0 0 -124z"/>
<path d="M14650 14922 c0 -95 -7 -106 -108 -174 -121 -81 -209 -177 -260 -282
-61 -123 -62 -142 -18 -185 20 -19 36 -39 36 -44 0 -14 68 -94 96 -111 22 -15
27 -15 54 -1 16 8 37 15 47 15 22 0 203 90 203 101 0 4 17 18 38 30 20 12 67
42 104 66 38 26 109 59 168 79 107 36 208 83 233 108 8 9 41 31 74 50 53 31
178 144 169 153 -6 6 -50 -16 -79 -39 -25 -20 -42 -23 -143 -26 -94 -3 -119
-1 -140 13 l-26 17 4 154 3 154 -227 0 -228 0 0 -78z"/>
<path d="M16250 14873 c0 -124 -12 -201 -39 -251 -7 -13 -45 -59 -86 -103 -40
-45 -83 -100 -95 -124 -12 -23 -63 -95 -114 -158 -102 -129 -161 -223 -177
-282 -6 -22 -22 -52 -35 -67 -13 -16 -21 -35 -18 -43 5 -12 15 -8 50 17 24 17
51 41 59 54 29 44 121 131 190 179 69 48 105 77 128 103 7 7 31 32 55 55 66
63 192 265 192 307 0 6 9 31 20 55 23 50 57 157 94 293 l25 92 -125 0 -124 0
0 -127z"/>
<path d="M26720 14945 c0 -48 -4 -60 -26 -80 -15 -14 -33 -25 -40 -25 -8 0
-14 -4 -14 -10 0 -15 15 -12 41 8 38 30 196 54 397 59 l183 6 44 -32 c48 -34
69 -38 91 -16 9 8 27 18 42 22 29 7 36 13 68 58 48 70 79 65 -376 65 l-410 0
0 -55z"/>
<path d="M9060 14849 l0 -28 164 -3 c156 -3 164 -2 149 15 -13 14 -33 17 -102
17 -47 1 -114 7 -148 14 l-63 14 0 -29z"/>
<path d="M9460 14611 l0 -99 93 -4 c147 -7 138 8 135 -234 l-3 -205 -30 -17
c-16 -9 -41 -27 -54 -39 l-26 -23 134 0 c108 0 138 -3 162 -17 l29 -17 0 -201
0 -202 -40 -74 c-23 -41 -55 -85 -73 -97 -29 -21 -29 -23 -7 -17 49 15 65 24
91 52 15 16 45 37 68 46 23 9 60 25 83 34 92 38 137 124 148 282 7 88 6 109
-7 123 -8 9 -57 40 -108 69 -56 32 -98 62 -104 76 -6 14 -11 85 -11 162 l0
138 30 38 c17 21 30 43 30 50 0 22 -45 52 -118 79 -71 25 -162 79 -162 94 0
10 -53 29 -105 38 -22 3 -51 13 -65 20 -14 7 -40 20 -57 29 l-33 16 0 -100z"/>
<path d="M3685 13629 l-20 -21 28 13 c15 7 27 16 27 21 0 13 -14 8 -35 -13z"/>
<path d="M20791 13593 c-20 -17 -20 -20 -6 -58 8 -22 14 -52 15 -67 0 -15 4
-37 9 -50 5 -13 12 -35 15 -49 3 -14 15 -36 26 -49 17 -20 20 -37 20 -135 0
-118 -4 -128 -60 -168 -14 -9 -23 -33 -30 -73 -15 -85 -26 -100 -94 -132 -34
-16 -74 -41 -91 -56 -16 -14 -55 -33 -87 -42 -68 -19 -120 -66 -188 -167 -14
-20 -30 -37 -36 -37 -7 0 -19 -11 -28 -25 -9 -14 -21 -25 -27 -25 -12 0 -39
-25 -39 -35 0 -4 -9 -14 -20 -23 -13 -11 -24 -39 -30 -77 -15 -84 -40 -167
-58 -187 -18 -22 -9 -23 21 -4 12 8 63 29 113 46 110 38 230 124 324 232 34
40 74 79 89 87 14 8 69 18 122 22 71 7 114 16 167 39 l70 30 249 2 249 3 37
-25 c45 -31 73 -80 83 -144 7 -50 22 -71 78 -109 25 -17 26 -21 26 -118 0
-105 5 -123 45 -163 17 -17 25 -36 25 -59 0 -85 41 -144 103 -149 39 -3 42 -5
58 -51 22 -61 42 -76 99 -77 47 0 104 -28 128 -61 11 -16 26 -19 91 -19 103 0
111 -8 111 -118 l0 -81 -107 -61 -108 -60 -107 0 -107 0 -16 31 c-31 59 -49
69 -124 69 -59 0 -74 4 -98 24 -16 13 -35 36 -42 50 -9 15 -32 32 -60 43 -25
10 -59 30 -77 45 -28 25 -43 29 -138 37 -59 5 -114 15 -122 22 -8 6 -16 10
-17 8 -2 -2 -13 -19 -26 -36 -14 -22 -36 -37 -64 -45 -60 -17 -177 -111 -177
-142 0 -8 18 -32 40 -52 l40 -37 0 -86 c1 -60 5 -92 15 -105 11 -14 15 -47 15
-119 l0 -99 -37 -45 c-21 -25 -51 -73 -68 -107 -24 -49 -38 -65 -70 -80 -104
-50 -113 -59 -69 -70 45 -12 96 -55 148 -126 27 -37 69 -79 92 -94 40 -25 50
-27 186 -29 133 -3 147 -5 195 -30 29 -15 62 -27 73 -27 11 0 37 -7 58 -16 95
-40 226 -34 373 17 90 31 314 24 339 -11 3 -4 41 -19 85 -33 95 -32 133 -26
191 28 20 19 40 35 43 35 3 0 30 25 59 55 30 30 58 55 63 55 5 0 9 5 9 10 0 6
7 10 15 10 8 0 19 8 24 18 10 19 71 33 205 47 71 8 126 36 126 63 0 13 36 22
91 22 56 0 136 23 209 59 46 23 73 29 163 34 108 7 197 23 197 36 0 8 138 53
220 71 57 13 118 40 141 62 8 7 32 23 54 35 49 27 52 36 24 62 -20 18 -35 21
-121 21 -91 0 -100 2 -119 24 -12 14 -35 30 -53 36 -93 35 -101 41 -123 91
-12 27 -25 49 -30 49 -11 0 -72 -58 -108 -104 -16 -21 -50 -51 -74 -68 -24
-17 -58 -45 -77 -63 -18 -18 -47 -35 -64 -39 -20 -4 -57 -31 -103 -76 l-72
-70 -122 1 -121 2 -46 -38 c-25 -20 -46 -41 -46 -45 0 -4 -12 -21 -27 -38 -16
-16 -35 -39 -43 -51 -13 -19 -24 -21 -101 -21 -57 0 -90 4 -97 13 -5 6 -20 44
-32 82 -42 133 -44 135 -95 135 -32 0 -51 -6 -65 -20 -11 -11 -25 -20 -30 -20
-6 0 -16 -11 -22 -25 -11 -24 -15 -25 -100 -25 l-88 0 0 103 c0 67 -4 107 -12
115 -7 7 -14 52 -16 107 -5 111 4 129 69 139 41 7 104 57 127 102 13 24 69 54
101 54 12 0 41 9 65 20 34 17 59 20 122 18 l78 -3 26 -51 c42 -85 55 -91 168
-86 45 2 53 11 66 74 5 21 15 30 46 39 27 8 40 18 42 33 2 17 -10 28 -67 56
-52 26 -72 42 -76 60 -4 14 -16 57 -28 95 -13 43 -22 105 -23 162 l-3 92 -45
45 c-38 39 -51 46 -85 46 -36 0 -45 -6 -98 -62 l-58 -63 -135 0 c-133 0 -134
0 -159 27 -14 15 -25 33 -25 40 0 17 -39 62 -67 77 -12 6 -46 16 -74 21 -68
13 -92 40 -109 121 -16 77 -35 119 -55 119 -8 0 -15 8 -15 18 0 10 -5 23 -11
29 -7 7 -10 47 -7 109 2 85 7 107 31 151 15 29 27 61 27 71 0 26 -30 112 -39
112 -4 0 -16 17 -27 38 -10 20 -26 42 -35 49 -9 7 -22 26 -29 43 -7 16 -15 30
-19 30 -11 0 -61 -97 -61 -118 0 -10 -9 -31 -21 -46 -20 -25 -24 -26 -127 -26
-122 1 -137 7 -181 68 -17 23 -36 42 -41 42 -6 0 -28 17 -49 38 -32 31 -42 52
-62 127 -28 106 -62 151 -149 195 -68 34 -134 104 -151 159 -7 23 -16 41 -21
41 -4 0 -8 6 -8 13 0 6 -14 20 -30 29 -22 13 -33 29 -42 65 -10 35 -28 62 -69
105 -32 32 -61 58 -67 58 -5 0 -19 -8 -31 -17z m900 -2449 c33 -40 115 -58
139 -29 17 20 46 4 65 -38 30 -63 39 -72 70 -71 17 0 40 4 52 8 35 11 40 -14
8 -41 -15 -13 -33 -22 -39 -20 -6 3 -35 1 -64 -4 -60 -9 -82 -29 -108 -96 -9
-24 -20 -43 -23 -43 -3 0 -16 21 -29 48 -31 66 -42 78 -90 98 -49 19 -62 38
-62 88 0 19 -5 47 -10 62 -6 15 -9 33 -6 41 8 19 80 17 97 -3z"/>
<path d="M24306 13539 c-3 -17 -6 -66 -6 -109 0 -43 -6 -95 -13 -116 -8 -25
-11 -55 -6 -84 12 -71 9 -232 -5 -270 -12 -34 -15 -35 -70 -38 -54 -3 -57 -4
-50 -25 18 -62 57 -120 139 -205 88 -92 135 -155 149 -200 27 -84 80 -120 228
-152 51 -12 98 -25 104 -31 19 -15 107 -29 254 -38 195 -12 254 -47 304 -178
23 -61 34 -77 71 -100 53 -35 65 -66 65 -174 0 -76 -13 -142 -49 -261 -6 -19
-3 -37 10 -65 27 -57 37 -65 129 -111 135 -66 125 -49 125 -220 0 -119 -3
-154 -17 -183 -38 -78 -38 -82 -5 -102 38 -24 108 -48 233 -81 82 -23 112 -36
165 -76 35 -26 68 -45 74 -42 5 4 39 17 75 29 113 40 312 54 466 32 82 -11
106 -24 194 -104 25 -23 74 -56 108 -73 62 -32 65 -32 124 -21 82 16 231 6
352 -25 84 -21 109 -24 172 -17 79 9 125 31 157 73 18 24 19 32 9 65 -11 36
-16 40 -87 66 -41 16 -75 32 -75 38 0 5 -6 9 -12 9 -28 -1 -125 59 -216 133
-54 42 -119 88 -147 101 -59 28 -164 46 -268 46 -61 0 -79 4 -103 22 -16 12
-31 25 -34 28 -19 22 -85 50 -138 59 -34 5 -67 13 -72 16 -14 9 -13 122 2 131
6 4 45 10 87 14 48 5 96 17 131 33 30 14 71 28 92 32 20 4 48 19 62 34 24 24
24 29 11 48 -18 25 -40 29 -220 43 -127 10 -215 29 -280 60 -11 5 -42 13 -70
18 l-50 8 0 80 c0 80 1 82 38 123 37 41 38 44 21 62 -13 15 -31 19 -79 19
l-63 0 -7 43 c-3 23 -9 78 -11 122 -5 78 -4 83 31 150 35 67 50 88 166 235 68
87 86 124 70 144 -11 13 -17 13 -44 1 -133 -57 -142 -59 -254 -63 -108 -4
-115 -3 -235 36 -68 22 -135 43 -149 46 -34 7 -133 -24 -224 -71 -115 -58
-261 -56 -454 7 -52 17 -133 37 -180 45 -258 42 -322 57 -370 81 -76 40 -126
87 -139 132 -16 53 -15 152 3 237 8 38 15 81 15 95 0 47 -47 179 -79 218 -31
40 -81 137 -81 159 0 7 -8 31 -17 53 -22 49 -48 53 -57 9z"/>
<path d="M11341 13356 c4 -28 8 -87 8 -131 1 -97 33 -287 60 -359 19 -53 73
-140 93 -152 5 -3 23 -34 39 -68 l29 -61 0 -213 c0 -228 -2 -240 -56 -305 -13
-16 -38 -76 -56 -134 -28 -90 -40 -114 -79 -157 -33 -37 -55 -76 -79 -138
l-33 -88 -179 0 -179 0 12 -22 c6 -13 32 -50 58 -83 l46 -60 4 -200 c3 -174 1
-204 -14 -231 -9 -18 -25 -35 -34 -38 -51 -18 -78 -47 -118 -127 -23 -46 -42
-90 -43 -96 0 -16 -23 -46 -77 -99 -33 -32 -60 -47 -130 -70 -87 -29 -91 -29
-324 -29 -219 0 -239 1 -258 19 -12 11 -21 26 -21 35 0 14 -23 16 -202 13
-196 -3 -204 -2 -220 18 -17 20 -17 18 -20 -62 l-3 -83 -33 -5 -32 -5 22 -32
c30 -41 57 -53 123 -53 48 0 60 -4 92 -33 76 -67 125 -94 185 -100 32 -3 62
-8 68 -12 6 -4 10 -50 10 -109 l0 -103 -63 -5 c-46 -4 -76 -13 -108 -33 -24
-15 -46 -31 -49 -36 -3 -4 -38 -19 -79 -33 -57 -20 -94 -26 -158 -26 -95 0
-155 -23 -228 -85 l-40 -35 70 0 c55 0 81 -6 119 -25 37 -19 65 -25 113 -25
58 0 99 -11 113 -30 3 -4 47 -12 99 -19 51 -6 106 -18 120 -26 51 -26 129
-105 152 -154 16 -32 32 -52 47 -56 16 -4 22 -13 22 -34 0 -69 13 -121 31
-126 18 -6 19 -20 19 -196 0 -207 0 -205 58 -175 42 22 89 76 114 131 18 41
22 68 22 155 1 58 -5 139 -12 180 -7 41 -15 180 -19 308 -5 203 -4 243 12 310
9 42 24 89 31 104 8 14 14 33 14 43 0 17 126 147 162 166 11 6 71 15 132 19
116 8 161 19 182 48 11 15 33 17 171 17 l158 0 54 -37 c30 -20 68 -40 85 -44
17 -3 36 -10 41 -14 6 -4 61 -20 122 -35 111 -27 114 -29 183 -91 39 -35 75
-64 80 -64 6 0 10 -9 10 -20 0 -11 7 -20 15 -20 8 0 15 -3 15 -8 0 -4 15 -12
33 -19 69 -24 173 -64 205 -79 l32 -15 0 -108 c0 -106 0 -108 -25 -119 -14 -7
-50 -12 -79 -12 -51 0 -116 -22 -116 -40 0 -5 -14 -32 -32 -59 -30 -50 -34
-76 -7 -48 16 15 100 56 179 85 68 26 112 31 365 42 191 9 242 14 365 41 30 6
159 13 285 16 226 4 231 3 293 -21 l62 -25 0 154 c0 85 4 156 9 160 5 3 12 18
16 34 3 16 15 37 26 47 10 9 19 22 19 29 0 6 16 29 36 51 l36 39 187 1 c201 1
338 11 347 25 3 5 17 9 32 9 15 0 44 9 65 20 47 25 144 40 271 40 84 0 104 -3
135 -22 20 -12 38 -24 41 -28 12 -13 81 -30 160 -39 47 -6 124 -15 172 -21 47
-6 102 -17 122 -25 49 -21 92 -19 145 7 42 20 61 22 226 23 99 0 213 -4 253
-9 l72 -9 0 122 c0 107 2 122 18 128 9 4 33 17 53 29 20 13 59 30 87 39 38 13
54 24 68 51 20 37 56 54 113 54 29 0 46 8 78 39 22 22 60 49 84 61 44 22 108
85 109 106 0 7 7 14 15 18 8 3 15 11 15 18 0 7 16 30 36 52 19 21 33 41 29 44
-3 3 -25 -4 -49 -16 -24 -12 -46 -22 -50 -22 -10 0 -160 -102 -164 -112 -2 -4
-15 -8 -30 -8 -14 0 -60 -16 -101 -37 -42 -20 -84 -40 -93 -45 -10 -4 -62 -8
-115 -8 -82 0 -102 4 -123 20 -14 11 -30 20 -35 20 -17 0 -89 81 -117 130 -17
30 -43 55 -77 75 -32 19 -56 42 -66 65 -9 19 -27 49 -41 65 l-24 30 0 -96 0
-96 -31 -7 c-17 -3 -62 -6 -100 -6 -67 0 -69 -1 -69 -26 0 -29 21 -54 44 -54
27 0 100 -32 136 -60 19 -15 50 -34 68 -44 l32 -17 0 -112 0 -112 -58 -62 -58
-63 -123 0 c-74 0 -152 6 -199 16 -88 19 -206 22 -372 10 -112 -7 -175 -2
-280 24 -25 6 -95 15 -156 19 -71 6 -122 15 -144 26 -29 15 -41 16 -83 6 -27
-6 -90 -11 -141 -11 -83 0 -97 3 -130 25 -20 14 -40 25 -44 25 -4 0 -18 9 -32
20 -32 25 -69 25 -148 0 -67 -21 -107 -46 -159 -98 -28 -28 -33 -39 -33 -81 0
-84 -42 -107 -224 -123 -70 -6 -144 -18 -176 -30 -30 -11 -82 -24 -115 -30
-33 -6 -97 -21 -141 -34 -68 -20 -104 -24 -217 -24 -89 0 -156 5 -194 15 -31
8 -78 15 -103 15 -29 0 -62 9 -92 25 -26 14 -55 25 -66 25 -35 0 -73 25 -90
61 -9 20 -29 45 -44 55 -25 17 -88 96 -88 111 0 13 -37 32 -62 33 -16 0 -28 5
-28 10 0 6 -10 10 -23 10 -13 0 -51 18 -85 40 -33 22 -66 40 -71 40 -6 0 -30
14 -54 30 -25 17 -50 30 -56 30 -6 0 -11 4 -11 9 0 5 -8 17 -17 27 -16 15 -18
39 -18 178 0 177 -1 171 71 266 24 32 44 63 44 69 0 5 6 14 13 18 6 4 23 28
36 53 26 47 108 140 124 140 5 0 31 11 58 24 26 14 85 37 129 52 44 14 83 30
86 35 3 5 12 9 20 9 16 0 30 10 80 56 27 26 34 40 34 70 0 22 4 56 9 77 l9 38
-31 -7 c-18 -3 -67 -19 -110 -35 -43 -16 -91 -29 -107 -29 -16 0 -68 -20 -116
-45 l-86 -45 -109 0 -109 0 0 85 c0 90 10 123 50 165 63 66 99 111 120 148 12
22 33 46 46 53 13 7 24 20 24 28 0 9 9 24 20 34 11 9 20 23 20 31 0 8 7 16 15
20 8 3 15 11 15 18 0 7 11 25 25 40 24 26 24 27 7 60 -9 18 -20 35 -24 36 -16
7 -9 246 9 298 16 48 25 63 91 146 18 22 37 48 42 57 4 9 21 23 37 31 15 8 52
39 81 70 55 57 57 60 89 90 50 50 59 83 73 260 14 178 -3 189 -58 37 -18 -48
-42 -106 -54 -129 -23 -42 -74 -98 -89 -98 -5 0 -26 -18 -48 -40 l-39 -40
-135 0 c-165 0 -163 -2 -183 137 -9 54 -22 105 -30 114 -7 8 -14 23 -14 32 0
9 -4 17 -10 17 -5 0 -10 15 -10 34 0 19 -7 41 -15 50 -8 8 -15 23 -15 33 0 35
-12 62 -34 77 -22 14 -22 14 -15 -38z"/>
<path d="M10741 12205 c0 -22 4 -60 8 -85 8 -43 9 -42 10 25 0 39 -4 77 -9 85
-7 11 -10 4 -9 -25z"/>
<path d="M10807 11835 c3 -16 10 -39 14 -50 l8 -20 0 20 c0 11 -6 34 -14 50
l-14 30 6 -30z"/>
<path d="M12190 11730 c-50 -26 -53 -29 -26 -29 17 -1 47 11 68 25 64 45 41
47 -42 4z"/>
<path d="M10832 11720 c0 -14 2 -19 5 -12 2 6 2 18 0 25 -3 6 -5 1 -5 -13z"/>
<path d="M12061 11684 c-53 -22 -30 -27 25 -5 27 11 40 20 29 20 -11 0 -35 -6
-54 -15z"/>
<path d="M19983 11630 c0 -25 2 -35 4 -22 2 12 2 32 0 45 -2 12 -4 2 -4 -23z"/>
<path d="M29958 11555 c-22 -29 -23 -64 -3 -101 10 -20 15 -59 15 -121 0 -82
-3 -96 -25 -129 -14 -20 -25 -43 -25 -50 0 -7 -11 -37 -24 -66 -13 -29 -39
-98 -56 -153 -40 -125 -49 -143 -72 -150 -10 -4 -42 -25 -70 -48 l-53 -42
-101 -3 c-95 -4 -106 -2 -178 28 -65 27 -79 30 -94 19 -46 -36 -84 -88 -101
-140 -6 -20 -22 -46 -35 -58 -24 -23 -26 -23 -218 -15 -193 7 -193 7 -228 35
-24 20 -46 29 -70 29 -20 0 -46 7 -58 16 -13 9 -25 14 -26 13 -34 -42 -17 -80
59 -135 30 -21 57 -47 61 -56 3 -10 9 -18 14 -18 5 0 11 -8 15 -17 3 -10 26
-40 50 -66 25 -27 45 -58 45 -70 0 -41 99 -120 160 -127 76 -10 144 30 221
128 29 37 60 72 68 78 9 7 27 22 40 33 34 30 59 34 167 29 106 -6 125 -15 192
-90 42 -46 46 -48 98 -48 70 0 87 -18 104 -103 9 -51 18 -70 36 -82 15 -10 24
-25 24 -42 0 -15 4 -40 10 -57 5 -17 19 -64 31 -103 13 -40 26 -73 30 -73 4 0
15 -7 23 -16 15 -14 16 67 16 890 0 953 1 941 -42 881z"/>
<path d="M14801 11378 c40 -38 124 -78 163 -78 15 0 49 -11 78 -25 76 -37 102
-31 56 12 -36 33 -194 93 -246 93 -13 0 -37 7 -55 16 l-32 16 36 -34z"/>
<path d="M0 11130 l0 -230 85 0 85 0 0 103 c1 56 5 121 9 145 9 43 8 43 -46
95 -30 29 -70 67 -88 85 -19 17 -36 32 -39 32 -3 0 -6 -103 -6 -230z"/>
<path d="M18560 10617 c0 -12 -7 -34 -16 -47 l-16 -25 21 24 c18 20 30 71 16
71 -3 0 -5 -10 -5 -23z"/>
<path d="M18453 10443 c-13 -8 -23 -20 -23 -25 0 -5 -17 -35 -39 -66 -26 -39
-43 -80 -54 -127 -8 -38 -22 -88 -31 -110 -8 -22 -15 -59 -16 -82 0 -54 19
-144 35 -163 6 -8 14 -22 17 -31 3 -8 25 -21 49 -28 69 -21 159 -108 159 -154
0 -6 20 -43 45 -82 65 -105 72 -107 282 -98 l172 8 -20 45 c-21 48 -53 70
-101 70 l-28 0 0 110 0 111 43 43 c23 24 54 66 68 92 24 47 25 55 21 187 l-4
139 -22 -23 c-18 -21 -22 -40 -27 -149 -4 -69 -7 -126 -8 -127 -18 -28 -39
-33 -136 -33 l-104 0 -6 58 c-15 123 -61 159 -210 167 -27 2 -56 4 -62 4 -10
1 -13 29 -13 107 0 91 3 112 21 140 23 38 23 39 -8 17z"/>
<path d="M4549 9554 c-9 -11 -23 -36 -33 -56 l-17 -38 -139 0 c-77 0 -140 -4
-140 -8 0 -13 55 -96 74 -111 9 -8 31 -32 49 -55 l32 -40 5 -146 5 -145 18 34
c9 19 20 52 23 73 4 21 10 38 15 38 5 0 9 7 9 15 0 8 6 15 14 15 16 0 51 68
61 120 4 19 15 46 25 60 32 47 41 90 30 149 -5 31 -11 69 -12 85 -3 27 -4 28
-19 10z"/>
<path d="M8510 9491 c-108 -20 -155 -38 -210 -81 -22 -17 -65 -37 -97 -46 -83
-21 -178 -71 -218 -115 -18 -21 -48 -66 -65 -100 -17 -34 -45 -78 -62 -98
l-32 -36 30 -3 c51 -6 54 -18 54 -238 l0 -201 138 -7 c75 -4 207 -11 292 -14
167 -8 176 -10 234 -72 16 -17 31 -29 33 -26 3 3 2 25 -1 50 -5 34 -12 47 -29
52 -12 4 -34 20 -50 35 -15 16 -30 29 -33 29 -11 0 -44 43 -44 57 0 7 -6 16
-13 19 -7 2 -26 26 -41 52 -15 27 -40 56 -55 66 -25 17 -60 62 -88 115 -9 15
-13 66 -13 145 0 122 0 123 29 148 15 14 39 29 52 33 13 4 29 11 34 15 6 5 33
11 60 15 28 4 61 14 74 22 41 26 111 95 111 109 0 8 5 14 10 14 6 0 10 6 10
13 0 8 9 24 20 37 11 13 20 25 20 27 0 6 -57 0 -150 -16z"/>
<path d="M19228 9427 c6 -7 34 -24 62 -37 l50 -24 21 23 c36 38 19 51 -67 51
-62 0 -74 -2 -66 -13z"/>
<path d="M23256 9391 c-4 -6 -19 -11 -34 -11 -15 0 -38 -9 -52 -20 -19 -15
-41 -20 -95 -20 -64 0 -72 -2 -90 -27 -36 -47 -69 -53 -303 -59 -275 -6 -354
-17 -451 -59 -42 -18 -91 -36 -110 -40 -59 -12 -139 -53 -196 -100 -31 -24
-68 -51 -83 -59 -15 -8 -34 -26 -42 -40 -7 -14 -18 -26 -24 -26 -12 -1 -46
-68 -46 -91 0 -21 -27 -93 -48 -130 -11 -19 -28 -50 -38 -69 -11 -19 -25 -40
-31 -48 -7 -7 -13 -18 -13 -23 0 -6 -7 -17 -15 -25 -8 -9 -15 -24 -15 -35 0
-10 -4 -19 -10 -19 -5 0 -12 -11 -16 -25 -3 -14 -17 -34 -30 -44 -13 -10 -24
-24 -24 -30 0 -6 -4 -11 -9 -11 -5 0 -13 -9 -16 -20 -3 -11 -12 -20 -18 -20
-12 0 -47 -69 -47 -91 0 -6 8 -23 18 -37 36 -53 52 -115 52 -206 0 -100 18
-144 70 -171 16 -8 35 -23 42 -32 14 -19 20 -23 108 -75 93 -54 170 -114 170
-133 0 -18 83 -115 98 -115 12 0 32 -46 32 -75 0 -19 5 -25 22 -25 14 0 45
-23 85 -65 61 -64 93 -87 163 -121 29 -14 60 -17 172 -15 87 1 138 -2 143 -8
3 -6 21 -11 40 -11 32 0 58 -8 112 -32 64 -30 198 -23 236 13 18 16 18 19 2
43 -11 17 -29 27 -53 31 -21 3 -48 12 -62 20 -23 13 -25 20 -28 97 -4 106 0
119 46 164 l37 37 -32 -19 c-18 -10 -45 -29 -60 -41 -15 -13 -36 -25 -47 -27
-12 -3 -46 -10 -78 -16 -31 -7 -125 -13 -210 -14 -125 -1 -170 3 -247 21 -127
30 -135 39 -139 164 -4 91 -2 98 18 109 21 11 134 9 278 -5 42 -5 62 -3 62 4
0 6 7 11 15 11 57 0 -58 80 -130 89 l-40 6 -3 83 c-2 45 1 97 6 115 8 28 6 36
-11 50 -39 32 -68 19 -127 -55 -22 -29 -57 -65 -77 -80 -33 -25 -45 -28 -115
-28 l-78 0 0 69 c0 66 1 70 42 116 23 26 65 63 93 81 73 49 85 59 85 78 0 9 5
16 10 16 6 0 10 7 10 15 0 8 5 15 11 15 13 0 8 52 -6 57 -6 2 -20 -5 -31 -16
-12 -10 -34 -26 -51 -34 -16 -9 -43 -35 -59 -59 -16 -24 -33 -46 -39 -50 -5
-4 -44 -8 -86 -8 -61 0 -78 3 -83 16 -10 25 -7 160 4 188 11 31 78 106 94 106
19 0 66 50 66 71 0 19 70 99 86 99 4 0 31 24 58 54 72 75 80 78 209 75 62 -2
119 1 127 6 8 6 67 12 132 15 64 3 122 11 130 17 7 5 39 18 71 28 31 10 57 23
57 29 0 14 46 59 77 75 12 6 50 11 85 11 70 0 104 -16 110 -53 3 -18 6 -14 17
18 7 22 28 54 45 71 51 52 76 85 76 100 0 8 4 14 9 14 5 0 12 11 15 25 4 14
23 42 42 62 58 60 69 80 53 100 -49 61 -87 95 -93 84z"/>
<path d="M19656 8801 c-4 -5 11 -20 31 -32 21 -13 41 -28 45 -33 4 -6 8 -57 8
-113 l0 -103 -134 0 c-165 0 -164 0 -259 82 -18 15 -45 32 -62 37 -37 11 -115
21 -115 14 0 -39 81 -113 124 -113 9 0 16 -3 16 -7 0 -5 13 -15 29 -25 16 -9
47 -42 68 -74 71 -108 111 -134 209 -134 112 0 114 -2 114 -77 0 -58 -3 -66
-30 -93 -16 -16 -30 -35 -30 -43 0 -7 -9 -23 -20 -35 -17 -18 -32 -22 -86 -22
-48 0 -70 4 -82 17 -16 16 -17 13 -22 -47 -5 -63 -5 -64 -50 -88 -24 -14 -63
-29 -85 -34 -49 -11 -100 -45 -114 -76 -10 -20 -9 -22 8 -12 11 5 47 10 80 10
l61 0 0 -68 c0 -64 -1 -68 -35 -97 -19 -17 -35 -33 -35 -37 0 -5 -9 -17 -20
-28 -11 -11 -20 -26 -20 -33 0 -7 -29 -27 -64 -45 -57 -29 -71 -32 -155 -32
-124 0 -163 21 -223 120 -25 41 -53 70 -67 70 -5 0 -16 6 -23 13 -7 6 -25 18
-40 26 -16 8 -30 25 -33 43 -4 16 -24 47 -45 69 -22 23 -43 59 -51 87 l-14 47
-5 -95 c-5 -86 -4 -99 18 -137 12 -23 29 -47 37 -53 11 -9 15 -36 15 -106 l0
-94 -40 0 c-30 0 -47 -7 -66 -25 -20 -20 -35 -25 -73 -25 -56 0 -90 -22 -115
-74 -16 -35 -13 -86 5 -86 5 0 9 -11 9 -25 0 -16 6 -25 15 -25 8 0 15 -9 15
-20 0 -28 25 -37 117 -42 45 -3 89 -10 97 -17 12 -10 19 -10 38 1 16 9 71 13
188 14 132 0 173 4 205 18 21 9 42 21 45 26 3 5 28 14 55 21 28 6 59 15 70 19
11 5 36 14 55 21 56 22 128 104 174 199 23 47 55 108 71 135 17 28 36 59 43
70 6 11 19 33 28 49 43 78 150 166 224 186 25 7 50 15 55 20 6 4 28 13 50 20
68 22 218 98 250 127 33 31 67 89 90 152 12 36 12 47 0 89 -8 26 -22 72 -30
103 -17 61 -68 147 -94 157 -49 19 -140 97 -186 158 -5 8 -44 27 -87 43 -42
15 -90 38 -106 50 -34 24 -38 25 -46 12z"/>
<path d="M3420 8774 c-19 -8 -37 -18 -40 -23 -3 -4 -14 -11 -25 -16 -15 -7 1
-11 58 -15 67 -4 82 -9 98 -29 10 -13 19 -31 19 -40 0 -9 7 -37 17 -63 l16
-46 96 -7 c64 -4 118 -3 159 5 86 17 326 9 367 -13 41 -21 105 -84 105 -102 0
-8 5 -15 10 -15 6 0 10 -4 10 -9 0 -5 16 -26 36 -46 26 -28 46 -39 77 -42 23
-3 50 -10 60 -15 14 -7 17 -4 17 17 0 46 -92 165 -140 180 -11 3 -20 11 -20
16 0 5 -7 9 -16 9 -9 0 -29 9 -45 21 -28 20 -29 24 -29 100 l0 79 -27 -6 c-16
-3 -44 -10 -63 -15 -40 -10 -537 -11 -562 -1 -9 4 -37 26 -62 50 -49 46 -63
49 -116 26z"/>
<path d="M13840 8629 c0 -32 10 -56 44 -107 46 -68 52 -89 76 -259 5 -39 10
-95 10 -123 0 -68 55 -229 94 -276 16 -21 53 -47 83 -60 l53 -24 0 -94 c0
-108 2 -106 -92 -106 -53 0 -66 -4 -108 -35 -71 -52 -110 -65 -224 -74 -93 -7
-109 -11 -152 -39 -26 -18 -52 -32 -58 -32 -38 0 -94 -27 -139 -67 -29 -26
-53 -49 -55 -53 -1 -3 17 -11 41 -17 38 -11 51 -9 96 7 41 16 76 20 179 20 70
0 132 -4 137 -8 6 -4 16 -19 22 -34 11 -24 19 -28 52 -28 22 0 52 -5 66 -12
23 -10 28 -10 36 4 6 10 28 19 57 23 93 13 115 24 150 72 19 25 36 52 39 59 4
11 38 14 167 14 213 -1 233 -9 311 -132 l34 -53 1 43 c0 106 -69 215 -159 247
-25 9 -59 22 -76 28 -33 12 -187 161 -200 192 -4 11 -11 72 -15 135 -8 142
-28 192 -108 270 -63 63 -145 186 -160 241 -15 57 -56 139 -69 139 -20 0 -95
107 -107 153 -10 41 -26 32 -26 -14z"/>
<path d="M8630 8430 c20 -13 63 -13 55 0 -3 6 -21 10 -38 10 -24 0 -28 -3 -17
-10z"/>
<path d="M26159 8351 c-50 -54 -73 -70 -109 -79 -43 -11 -148 -70 -194 -109
-44 -38 -95 -73 -104 -73 -6 0 -12 -3 -14 -8 -10 -23 -164 -99 -275 -136 -134
-45 -218 -81 -293 -127 -25 -15 -70 -35 -100 -45 -30 -9 -87 -27 -127 -40 -39
-13 -84 -24 -100 -25 -48 -1 -156 -33 -203 -61 -25 -15 -61 -34 -80 -42 -20
-8 -57 -35 -83 -60 -25 -25 -51 -46 -57 -46 -5 0 -10 -4 -10 -9 0 -5 -20 -15
-45 -22 -43 -13 -125 -76 -125 -97 0 -5 -7 -15 -15 -22 -8 -7 -15 -21 -15 -31
0 -16 4 -17 33 -7 17 5 48 17 67 26 19 8 51 19 70 23 201 46 343 87 392 114
14 8 38 15 52 15 37 0 115 29 161 59 80 54 108 62 207 59 l93 -3 3 -96 3 -95
-64 -47 c-82 -61 -167 -142 -167 -160 0 -22 28 -28 58 -13 15 8 72 55 127 105
83 76 229 181 251 181 3 0 20 7 37 14 65 30 156 58 282 87 72 16 146 36 165
45 99 47 133 54 255 54 96 0 134 -4 183 -21 34 -11 62 -25 62 -30 0 -5 5 -9
12 -9 14 0 59 -49 101 -110 50 -73 36 -69 243 -67 192 2 254 -6 299 -39 17
-13 20 -29 23 -113 l4 -99 -46 -56 c-25 -31 -46 -61 -46 -65 0 -5 13 -23 29
-40 37 -40 61 -32 121 38 34 40 54 54 94 65 60 18 112 60 121 98 4 15 18 39
31 53 22 24 28 25 126 25 57 0 108 -4 114 -8 16 -10 39 -59 54 -114 l13 -48
62 0 c89 0 108 19 123 130 7 46 17 89 22 94 6 6 10 17 10 26 0 39 32 50 141
50 87 0 107 -3 121 -17 27 -30 61 -53 125 -85 71 -35 77 -33 140 33 85 90 126
129 134 129 6 0 22 11 37 25 15 15 54 43 87 63 l60 37 145 3 145 4 37 -29 c21
-15 37 -32 38 -37 0 -12 92 -155 108 -168 10 -9 18 -6 35 11 21 20 22 30 22
189 0 156 1 170 24 211 26 50 37 63 68 79 27 15 199 16 208 2 3 -5 13 -10 22
-10 9 0 39 -14 67 -32 49 -31 55 -32 145 -31 51 1 95 4 97 6 3 2 3 117 2 255
l-3 252 -50 -25 c-27 -13 -57 -25 -65 -25 -8 0 -26 -9 -40 -20 -14 -11 -29
-20 -35 -20 -5 0 -74 -32 -152 -70 l-143 -71 -157 4 c-194 5 -270 19 -388 72
-16 7 -46 16 -65 20 -47 9 -139 45 -172 67 -14 10 -42 18 -61 18 -20 0 -39 5
-42 10 -7 12 -122 14 -127 3 -4 -10 -53 -33 -148 -69 -52 -20 -95 -46 -140
-85 -36 -31 -94 -69 -130 -84 -65 -29 -134 -76 -157 -106 -38 -51 -259 -77
-378 -44 -37 10 -78 27 -92 39 -28 23 -138 132 -189 187 -63 67 -110 107 -153
130 l-44 23 -112 -22 c-199 -39 -335 -29 -475 34 -19 9 -60 27 -90 41 -30 14
-62 29 -70 34 -8 5 -26 14 -40 20 -14 6 -32 15 -41 19 -11 6 -32 -10 -80 -59z"/>
<path d="M0 8178 c1 -101 10 -115 24 -36 4 21 25 60 47 88 l39 50 -55 0 -55 0
0 -102z"/>
<path d="M19208 8233 c-2 -10 7 -29 20 -42 13 -13 27 -34 32 -47 11 -29 37
-40 110 -46 30 -3 49 -3 43 -1 -7 3 -13 11 -13 18 0 7 -17 25 -37 41 -46 35
-71 55 -88 71 -7 7 -24 15 -38 18 -19 5 -26 3 -29 -12z"/>
<path d="M2365 8230 c3 -5 12 -10 19 -10 6 0 33 -21 59 -46 l47 -45 38 38 c75
78 79 73 -52 73 -76 0 -115 -4 -111 -10z"/>
<path d="M5727 6566 l-67 -32 25 -22 c14 -12 29 -22 35 -22 5 0 13 -7 17 -15
8 -14 61 -52 142 -102 48 -30 108 -30 149 1 l32 23 -88 6 c-48 3 -105 12 -127
20 l-40 14 -5 81 -5 80 -68 -32z"/>
<path d="M4445 6413 c-11 -26 -22 -52 -24 -58 -2 -5 5 -2 15 7 11 9 28 21 39
25 37 16 85 48 90 61 3 9 -10 12 -48 12 l-52 0 -20 -47z"/>
<path d="M17150 6351 c0 -5 7 -14 15 -21 8 -7 25 -30 36 -50 21 -37 42 -50 82
-50 17 0 17 1 3 16 -9 8 -16 19 -16 24 0 10 -99 90 -111 90 -5 0 -9 -4 -9 -9z"/>
<path d="M29990 6190 c-4 -21 -14 -26 -65 -37 -33 -7 -131 -12 -218 -13 -170
0 -193 -6 -249 -58 l-28 -25 23 -16 c12 -9 43 -26 70 -38 47 -22 51 -26 61
-74 7 -31 59 -51 97 -37 13 6 58 8 99 5 78 -4 123 -22 185 -75 l30 -25 3 107
c3 137 -1 318 -8 286z"/>
<path d="M17354 6182 c4 -6 13 -46 21 -89 18 -105 44 -160 96 -208 65 -58 191
-131 251 -145 29 -7 70 -20 91 -29 l37 -16 0 -71 0 -72 43 -7 c89 -15 120 -47
115 -118 l-3 -42 -69 -3 c-38 -2 -72 1 -75 6 -4 6 -33 6 -75 0 -38 -5 -151 -8
-253 -6 -149 2 -182 1 -178 -10 3 -8 5 -21 5 -30 0 -13 4 -11 16 6 15 21 21
22 169 22 135 0 161 -3 207 -22 43 -17 82 -22 208 -27 l155 -6 0 -162 c0 -186
-1 -188 -98 -236 -29 -14 -63 -37 -76 -51 -24 -26 -24 -26 -5 -48 10 -12 24
-28 29 -36 6 -7 21 -23 33 -35 81 -75 156 -155 170 -181 14 -25 18 -66 20
-216 4 -210 -2 -237 -65 -292 -78 -68 -109 -107 -127 -159 -33 -94 -86 -201
-118 -237 l-31 -36 7 -185 c5 -134 11 -192 23 -214 l15 -29 47 46 47 47 145
-3 144 -3 3 -139 c2 -110 0 -142 -12 -155 -8 -9 -25 -35 -38 -58 -13 -23 -44
-64 -68 -90 -89 -97 -124 -143 -106 -143 21 0 66 44 66 64 0 36 100 49 167 21
38 -16 39 -16 64 28 8 13 23 17 72 17 59 0 65 2 97 35 25 26 42 35 67 35 28 0
37 6 56 37 25 43 45 127 46 192 1 25 8 73 17 107 14 58 14 65 -1 88 -13 20
-17 54 -18 168 -2 131 0 147 21 185 30 56 28 69 -15 132 -36 52 -38 59 -41
148 l-4 93 35 33 c19 17 49 42 66 55 39 30 50 81 27 128 -10 23 -16 61 -16
108 0 70 2 76 36 117 33 40 35 46 30 93 -24 213 -17 291 30 353 34 44 40 84
19 117 -10 14 -23 26 -30 26 -26 0 -115 43 -115 56 0 8 -4 14 -9 14 -4 0 -29
18 -54 40 -25 22 -79 56 -119 74 -86 40 -132 80 -153 134 -13 32 -23 41 -49
46 -37 7 -71 41 -101 101 -45 89 -169 208 -230 221 -16 3 -41 16 -55 28 -14
13 -40 33 -58 46 -19 12 -44 32 -56 44 -122 115 -185 151 -284 161 -66 6 -103
31 -118 77 -7 23 -40 58 -55 58 -4 0 -15 3 -25 7 -12 4 -15 3 -10 -5z"/>
<path d="M0 6005 c0 -95 0 -95 25 -95 25 0 25 0 25 95 0 95 0 95 -25 95 -25 0
-25 0 -25 -95z"/>
<path d="M4060 5987 c-39 -26 -160 -68 -263 -91 -38 -9 -78 -21 -89 -27 -70
-38 -233 -66 -543 -93 -141 -13 -244 -40 -355 -93 -41 -20 -83 -40 -92 -45
-10 -4 -49 -17 -89 -28 -39 -10 -92 -32 -118 -47 -25 -15 -53 -31 -61 -34 -8
-4 -33 -37 -55 -75 -22 -38 -53 -84 -70 -103 l-29 -33 58 31 59 31 213 0 c212
0 213 0 220 23 4 12 9 24 13 27 3 3 19 24 34 47 36 53 110 101 217 142 96 37
196 85 219 105 9 7 34 19 56 26 22 7 45 17 52 22 6 5 47 18 90 29 65 15 115
19 295 19 282 0 258 22 258 -237 l0 -193 100 0 c55 0 100 3 100 6 0 4 -13 22
-30 41 -28 31 -30 39 -30 113 0 85 3 81 -67 95 -17 3 -36 12 -42 19 -6 7 -12
82 -13 179 l-3 167 -35 -23z"/>
<path d="M25724 5822 c-15 -2 -24 -13 -28 -33 -3 -17 -21 -47 -41 -67 -19 -20
-35 -42 -35 -48 0 -7 -9 -14 -20 -17 -15 -4 -20 -14 -20 -39 0 -36 -23 -89
-45 -101 -7 -4 -16 -24 -20 -45 -5 -30 -15 -43 -53 -67 -26 -16 -60 -37 -77
-45 -16 -8 -32 -17 -35 -21 -3 -4 -37 -8 -77 -11 -62 -3 -85 -10 -165 -51 -51
-26 -102 -47 -114 -47 -33 0 -86 -21 -117 -47 -16 -12 -34 -23 -42 -23 -7 0
-18 -7 -25 -14 -11 -15 -42 -27 -152 -61 -32 -10 -58 -22 -58 -26 0 -4 -11
-10 -25 -13 -14 -4 -25 -13 -25 -21 0 -10 -10 -15 -29 -15 -16 0 -34 -6 -40
-14 -13 -16 -119 -61 -196 -83 -27 -8 -102 -21 -165 -28 -140 -16 -177 -29
-288 -103 -48 -32 -120 -76 -160 -98 -41 -21 -87 -51 -104 -66 -28 -26 -36
-28 -120 -28 -104 0 -117 8 -118 73 0 79 -29 146 -85 202 -38 39 -58 68 -70
107 -21 66 -66 158 -77 158 -4 0 -25 15 -45 33 l-38 34 -90 -8 c-49 -5 -131
-12 -180 -17 -83 -7 -155 -32 -155 -53 0 -4 -19 -21 -42 -38 -39 -29 -48 -31
-121 -31 -44 0 -97 5 -118 11 -33 10 -42 9 -73 -11 -33 -20 -45 -21 -124 -16
-119 9 -152 15 -152 28 0 27 -34 36 -117 30 -45 -2 -116 1 -157 7 -73 12 -76
12 -118 -13 -24 -14 -77 -32 -118 -41 -52 -11 -83 -23 -99 -40 l-25 -24 38
-36 c21 -19 44 -35 51 -35 7 0 26 -10 42 -23 15 -13 51 -38 79 -55 50 -31 57
-33 155 -34 57 0 149 3 205 7 124 9 186 -3 249 -51 43 -33 45 -37 45 -85 0
-37 -7 -60 -26 -89 -18 -27 -26 -53 -26 -79 1 -42 19 -81 39 -81 16 0 56 63
72 112 7 20 28 50 47 65 19 15 41 34 49 41 7 6 25 12 38 12 66 0 208 79 291
162 75 75 82 78 163 78 l73 0 0 -84 c0 -83 0 -85 33 -111 78 -63 77 -62 77
-136 0 -45 -7 -87 -20 -121 -11 -29 -20 -66 -20 -81 0 -69 -22 -116 -79 -172
-31 -31 -78 -86 -106 -123 -27 -36 -64 -74 -81 -84 -17 -10 -71 -25 -120 -33
-139 -24 -143 -25 -179 -57 -33 -28 -75 -117 -75 -158 0 -53 111 -125 259
-170 81 -24 91 -36 91 -109 0 -72 -28 -103 -102 -109 -39 -3 -64 1 -86 12 -38
20 -55 13 -101 -39 -30 -35 -31 -39 -31 -128 0 -51 4 -97 8 -103 4 -6 22 -19
40 -28 30 -15 32 -20 32 -66 0 -45 -3 -50 -25 -56 -40 -10 -62 -51 -67 -125
-5 -86 -16 -99 -84 -99 -43 0 -56 4 -66 20 -11 17 -24 20 -78 20 l-66 0 -53
60 c-42 48 -62 63 -98 73 -32 8 -60 26 -92 58 -52 53 -125 89 -220 110 -59 13
-67 18 -101 64 -21 27 -47 58 -58 69 -49 43 -248 49 -282 8 -18 -22 -104 -48
-185 -57 -38 -4 -75 -15 -105 -33 -79 -47 -98 -52 -211 -52 -90 0 -109 3 -109
15 0 38 -78 25 -199 -33 -51 -24 -67 -27 -171 -27 -63 0 -139 5 -169 11 -49
10 -54 10 -58 -7 -3 -11 -12 -19 -21 -19 -9 0 -27 -11 -41 -24 -15 -13 -60
-38 -102 -55 -72 -30 -114 -62 -136 -105 -9 -17 -3 -23 46 -48 l56 -30 93 18
c112 20 274 15 339 -11 47 -19 111 -21 228 -8 74 8 84 12 136 53 44 35 64 60
89 113 36 77 45 81 148 75 47 -2 84 -12 123 -31 l55 -27 205 7 c203 6 454 -7
550 -28 25 -6 68 -26 94 -45 36 -25 59 -34 90 -34 54 0 65 -13 65 -77 0 -73
30 -154 89 -238 26 -38 64 -99 82 -135 32 -61 34 -71 34 -165 0 -73 -5 -112
-17 -143 -10 -23 -26 -61 -35 -84 -10 -24 -31 -58 -47 -76 -64 -73 -51 -187
29 -260 44 -40 45 -42 45 -104 0 -52 -5 -70 -27 -103 -14 -22 -29 -42 -33 -45
-3 -3 -17 -21 -30 -40 -13 -19 -29 -40 -35 -46 -5 -6 -21 -25 -35 -43 -33 -44
-171 -181 -182 -181 -4 0 -8 -6 -8 -14 0 -8 -8 -17 -19 -21 -26 -8 -141 -121
-141 -138 0 -8 -10 -17 -23 -21 -12 -3 -38 -30 -60 -62 -58 -88 -49 -114 36
-103 59 8 135 34 157 54 9 8 35 17 58 21 41 6 92 49 92 76 0 15 68 96 91 108
11 6 56 15 101 20 100 12 126 31 136 106 l7 49 61 3 c36 2 79 -3 104 -12 39
-13 45 -13 79 5 44 23 149 26 191 4 30 -15 70 -72 70 -99 0 -9 16 -47 35 -85
20 -39 35 -83 35 -103 0 -31 5 -37 48 -60 27 -15 73 -29 108 -33 l61 -7 16 35
c10 19 17 40 17 47 0 15 -41 92 -54 102 -5 3 -11 31 -14 62 -4 54 -3 56 37 96
22 22 41 49 41 60 0 11 -66 86 -163 183 l-162 164 -69 8 c-56 6 -77 13 -108
38 -34 27 -38 35 -38 74 0 24 8 58 17 76 12 23 17 57 18 122 l0 90 43 3 c52 4
66 -6 98 -70 26 -51 48 -68 87 -68 16 0 36 -13 55 -34 29 -34 31 -34 93 -29
42 4 74 14 97 30 19 12 45 23 58 23 40 0 64 33 64 90 0 27 7 67 16 89 8 22 14
50 12 63 -3 21 -10 24 -98 33 l-95 10 -3 54 c-4 62 12 102 70 174 40 51 48 90
28 141 -19 51 -45 66 -112 66 -58 0 -65 2 -100 37 -36 36 -38 36 -57 19 -11
-10 -28 -39 -37 -65 -9 -25 -27 -70 -41 -99 l-24 -52 -56 0 -55 0 5 68 c2 37
12 92 21 122 9 30 20 106 25 169 7 110 8 115 38 141 21 19 54 33 106 44 76 17
103 32 247 140 105 79 103 75 66 135 -41 65 -56 111 -56 175 0 118 27 167 174
320 42 43 76 85 76 92 0 8 5 14 10 14 6 0 10 13 10 28 0 15 4 32 8 38 10 10
37 100 47 154 4 19 20 55 35 80 15 25 36 79 45 120 12 57 24 84 50 113 18 20
36 37 40 37 3 0 13 7 21 15 9 8 27 18 42 21 15 4 50 17 77 30 28 12 63 26 79
30 33 8 90 38 166 86 30 19 66 39 80 43 14 4 37 16 52 26 14 11 31 19 37 19 6
0 38 9 71 21 33 11 102 30 153 41 169 36 192 43 235 67 23 14 42 28 42 31 0 4
19 20 43 36 23 16 50 39 60 51 10 12 26 25 37 28 11 4 20 12 20 18 0 23 134
119 225 162 81 39 235 85 281 85 10 0 44 7 75 16 44 12 67 27 101 62 24 25 73
75 110 111 72 72 91 104 132 226 16 44 39 108 52 142 36 92 27 144 -22 135z"/>
<path d="M28277 5741 c-16 -32 -29 -77 -33 -116 -4 -36 -13 -70 -20 -76 -8 -6
-14 -17 -14 -23 0 -7 -9 -22 -21 -35 -18 -19 -20 -30 -15 -84 3 -34 8 -105 12
-157 l6 -95 -43 -80 c-77 -144 -88 -171 -101 -240 -11 -55 -17 -69 -37 -76
-21 -8 -22 -13 -16 -47 4 -20 8 -95 9 -167 1 -151 13 -182 84 -224 23 -15 57
-47 77 -73 47 -63 85 -88 132 -88 26 0 53 -10 83 -30 40 -27 53 -30 123 -30
43 0 88 -5 99 -11 36 -20 101 -11 204 26 54 20 124 43 154 50 64 16 200 19
248 6 28 -8 38 -6 69 15 20 13 41 24 48 24 6 0 30 9 53 20 22 11 46 20 51 20
17 0 101 43 101 52 0 4 6 8 13 8 7 0 22 7 32 15 76 60 130 96 149 99 11 2 52
9 90 14 38 6 72 14 75 19 10 14 60 33 86 33 l25 0 0 209 0 209 -65 4 c-64 4
-65 4 -124 65 -49 49 -70 63 -110 73 -41 10 -54 9 -79 -4 -38 -19 -56 -63 -48
-118 3 -24 9 -85 12 -135 8 -113 3 -123 -70 -123 -58 0 -248 52 -254 69 -2 6
-12 11 -23 11 -10 0 -19 4 -19 9 0 5 -16 26 -35 47 -19 20 -35 40 -35 43 0 3
-9 12 -20 19 -74 46 -239 58 -299 21 -19 -11 -39 -26 -45 -32 -23 -24 -74
-103 -100 -157 -46 -94 -75 -129 -108 -130 -9 0 -38 -13 -65 -30 -45 -28 -57
-30 -179 -36 l-132 -7 -16 31 c-20 39 -21 141 -2 231 20 88 36 215 36 274 0
26 6 63 14 82 12 28 22 36 58 44 55 14 114 43 111 56 -1 6 -13 12 -25 13 -13
2 -27 10 -31 18 -4 8 -17 14 -27 14 -12 0 -22 9 -26 25 -11 44 6 245 34 403 7
39 6 57 -3 65 -6 7 -14 18 -16 26 -3 8 -17 -9 -32 -38z"/>
<path d="M1930 5228 c1 -48 3 -59 11 -45 5 9 15 17 21 17 6 0 19 7 28 15 8 8
49 19 90 26 41 6 79 15 85 20 5 5 18 9 30 9 11 0 27 5 35 10 10 6 -37 10 -142
10 l-158 0 0 -62z"/>
<path d="M8529 5274 c-32 -37 -39 -64 -39 -154 0 -87 10 -120 36 -120 4 0 25
-19 46 -42 l38 -42 0 -151 c0 -109 -4 -156 -13 -169 -12 -16 -29 -18 -170 -14
-107 2 -160 7 -169 16 -6 6 -18 12 -25 12 -14 0 -56 32 -82 64 -25 28 -37 40
-60 56 -11 8 -21 20 -21 27 0 19 -38 41 -63 36 -13 -3 -29 -13 -35 -24 -11
-17 -9 -19 10 -19 13 0 40 -5 61 -11 50 -14 67 -53 67 -153 0 -69 2 -77 28
-101 15 -14 36 -28 47 -31 52 -16 55 -26 55 -196 l0 -159 -27 -26 c-16 -14
-70 -45 -121 -69 -51 -24 -122 -64 -158 -89 -36 -24 -81 -47 -100 -51 -54 -10
-444 3 -490 16 -23 6 -52 22 -66 35 l-25 23 -6 -111 c-4 -62 -7 -131 -7 -153
l0 -42 38 9 c20 5 71 9 112 9 94 0 251 23 310 44 25 9 67 29 95 45 27 15 76
38 108 50 106 39 326 165 492 282 84 59 124 107 145 173 8 25 33 59 66 91 30
28 54 58 54 66 0 8 8 28 18 44 10 17 24 46 32 65 7 19 23 48 34 64 11 16 30
58 42 93 28 80 75 154 122 192 l37 30 -117 1 c-134 0 -152 8 -163 77 -11 62
-13 66 -59 115 -46 48 -47 52 -58 182 -3 27 -4 28 -19 10z"/>
<path d="M5403 5170 l-28 -40 -147 0 -148 0 0 -174 0 -174 38 11 c96 27 641
15 678 -15 7 -5 25 -9 40 -10 34 -1 143 18 177 31 27 10 87 59 87 71 0 4 -56
11 -125 15 -121 7 -129 8 -197 46 -39 21 -77 39 -84 39 -7 0 -15 4 -18 9 -3 4
-19 11 -35 14 -52 11 -61 29 -61 128 l0 89 -74 0 -75 0 -28 -40z"/>
<path d="M3681 4789 l-33 -39 36 0 c35 0 36 1 36 40 0 22 -1 40 -2 39 -2 0
-18 -18 -37 -40z"/>
<path d="M4990 3870 c0 -36 -5 -84 -10 -108 -8 -31 -7 -47 2 -62 12 -19 38
-28 38 -12 0 4 12 21 26 37 57 66 57 91 -6 157 l-49 53 -1 -65z"/>
<path d="M7192 3484 c-1 -6 -20 -30 -42 -55 -22 -24 -53 -63 -68 -87 -15 -23
-34 -44 -43 -47 -18 -6 -107 -179 -110 -215 -1 -14 -1 -124 -1 -245 2 -210 3
-218 19 -195 45 65 125 157 164 189 20 17 61 40 90 51 30 12 59 26 65 31 6 4
42 16 80 24 137 32 178 52 253 126 52 51 70 75 77 104 3 14 10 25 15 25 5 0 9
5 9 11 0 6 10 19 23 29 17 15 5 12 -53 -10 -71 -28 -83 -29 -228 -30 -161 0
-210 10 -228 48 -5 9 -11 71 -14 137 -4 66 -7 115 -8 109z"/>
<path d="M12512 2680 c-109 -9 -184 -42 -229 -98 -15 -20 -33 -40 -38 -46 -6
-6 -16 -23 -22 -38 -7 -15 -31 -41 -54 -58 -40 -29 -46 -30 -146 -30 l-103 0
0 -140 c0 -136 -1 -142 -27 -182 -16 -22 -53 -84 -84 -137 -64 -108 -146 -186
-208 -197 -86 -16 -147 -80 -172 -181 -21 -85 -68 -140 -140 -167 -25 -9 -56
-28 -69 -41 -23 -25 -25 -25 -198 -25 l-174 0 -29 30 -30 30 3 182 3 183 38
76 c20 42 37 82 37 88 0 6 4 11 10 11 5 0 13 12 16 28 4 15 12 34 19 42 6 8
23 36 38 63 l26 47 -79 0 -79 0 -3 63 c-3 62 -3 62 -21 -53 -10 -63 -24 -137
-32 -165 -7 -27 -16 -70 -20 -94 -4 -24 -16 -58 -26 -76 -11 -17 -46 -94 -79
-171 -80 -184 -91 -199 -165 -224 -73 -26 -146 -61 -160 -76 -5 -7 -53 -47
-105 -89 -52 -43 -98 -81 -102 -84 -4 -3 62 -5 147 -3 l155 3 0 98 c0 81 3
100 16 105 9 3 94 6 191 6 174 0 175 0 246 -32 40 -17 108 -37 153 -44 138
-23 210 -65 309 -181 81 -94 141 -132 283 -179 105 -35 116 -37 155 -25 23 6
76 16 117 21 123 14 211 54 371 168 36 26 110 80 166 120 55 39 106 72 112 72
25 0 88 40 127 82 81 83 93 98 99 118 6 19 3 20 -134 20 -156 0 -166 -3 -298
-83 -34 -21 -63 -37 -66 -37 -4 0 -32 -18 -63 -40 -32 -22 -64 -40 -73 -40 -9
0 -50 -18 -91 -40 -41 -22 -80 -40 -86 -40 -7 0 -39 -18 -72 -40 l-60 -40
-156 0 -156 0 0 156 c0 191 5 203 140 343 38 38 158 136 200 163 49 31 146
126 162 159 9 19 25 60 34 92 14 49 69 139 124 204 6 7 14 23 19 35 11 30 73
121 119 177 115 140 174 168 352 171 63 1 129 6 145 9 l30 8 -40 11 c-58 17
-167 22 -273 12z"/>
<path d="M11623 2568 c4 -13 13 -41 22 -61 14 -35 18 -37 61 -37 l45 0 -21 30
c-19 27 -62 64 -99 85 -11 6 -13 3 -8 -17z"/>
<path d="M6810 2423 c0 -8 -30 -44 -93 -114 -103 -115 -180 -219 -161 -219 11
0 79 34 91 46 7 7 16 14 20 16 18 7 76 92 104 151 16 34 36 74 44 89 8 14 15
29 15 32 0 9 -20 7 -20 -1z"/>
<path d="M17348 2225 c-3 -3 -45 -17 -93 -31 -98 -28 -114 -42 -145 -123 -25
-64 -92 -149 -126 -157 -17 -5 -25 -15 -30 -43 -4 -20 -12 -46 -18 -58 -13
-25 -91 -87 -123 -97 -12 -4 -52 -47 -88 -96 -82 -110 -203 -225 -307 -292
-64 -41 -84 -60 -103 -99 -30 -59 -73 -108 -120 -140 -20 -13 -56 -53 -80 -89
-25 -36 -52 -75 -61 -88 -15 -20 -16 -29 -6 -56 14 -39 15 -169 2 -250 -8 -51
-7 -65 12 -107 17 -41 20 -63 16 -139 -2 -49 -2 -90 0 -90 13 0 57 32 122 89
41 37 94 76 118 86 32 15 47 31 64 65 26 56 56 90 79 90 23 0 38 20 84 113
l40 82 53 3 52 3 0 -50 c0 -75 -42 -172 -97 -224 -24 -23 -64 -61 -88 -84 -25
-24 -47 -55 -50 -70 -11 -51 -40 -97 -97 -155 -59 -59 -113 -130 -142 -186
l-17 -32 196 0 195 0 0 38 c0 20 9 51 20 67 11 17 20 38 20 48 0 9 4 17 9 17
9 0 61 125 61 148 0 7 4 20 10 30 11 20 46 166 55 232 17 122 38 150 111 150
67 0 74 -11 74 -122 0 -81 -3 -96 -34 -209 -20 -70 -36 -213 -25 -217 5 -2 9
-10 9 -18 0 -8 5 -14 10 -14 6 0 10 6 10 14 0 8 7 16 15 19 8 4 25 28 39 54
13 26 33 56 45 67 11 10 26 35 32 54 7 20 23 47 36 61 28 32 43 79 43 146 0
28 9 84 20 125 12 48 20 108 20 166 0 84 2 94 31 139 17 28 34 67 37 87 l5 38
52 0 52 0 12 -42 c7 -22 16 -96 20 -162 8 -127 23 -176 60 -196 11 -5 49 -10
85 -10 60 0 67 2 96 32 24 26 29 39 24 58 -3 14 -9 60 -12 102 -8 85 -5 79
-49 102 -66 33 -82 62 -109 192 -2 12 -19 31 -38 42 -42 25 -74 84 -82 149 -3
27 -12 69 -20 95 -9 26 -14 73 -12 110 l3 63 58 3 c57 3 58 3 71 -30 18 -42
121 -169 150 -185 34 -18 175 -52 181 -43 3 4 0 22 -6 40 -7 19 -10 64 -6 111
5 77 4 80 -24 109 -16 16 -39 32 -51 36 -39 12 -48 30 -48 92 0 68 7 76 70 86
25 4 64 18 87 32 35 20 54 24 127 24 47 0 88 -4 91 -10 3 -5 38 -10 76 -10 56
0 83 -6 132 -29 108 -49 111 -50 138 -35 13 7 50 13 81 14 46 0 60 4 71 21 26
37 147 39 147 2 0 -9 9 -46 20 -83 16 -54 27 -73 60 -99 22 -18 55 -39 73 -47
94 -45 138 -83 161 -139 7 -17 27 -46 44 -64 24 -26 35 -32 54 -27 35 9 51 26
82 85 21 41 26 61 21 85 -4 17 -9 64 -12 104 l-5 72 77 0 c68 0 81 -3 107 -25
16 -14 38 -25 48 -25 18 0 119 79 153 120 12 14 17 31 13 45 -8 33 -70 93
-103 101 -15 3 -50 13 -78 21 -27 8 -93 17 -145 20 -82 4 -104 10 -165 40 -38
19 -90 54 -116 78 -25 23 -55 46 -66 49 -13 4 -81 -9 -169 -34 -81 -22 -153
-40 -161 -40 -7 0 -39 -9 -70 -20 -32 -11 -72 -20 -89 -20 -18 0 -65 -11 -106
-25 -56 -19 -94 -25 -161 -25 -79 0 -92 -3 -129 -27 -40 -27 -48 -28 -191 -32
-213 -5 -330 24 -402 99 -25 26 -30 40 -33 95 -4 59 -15 79 -34 60z"/>
<path d="M25588 2133 c-10 -11 -18 -49 -22 -100 -6 -70 -4 -87 12 -120 11 -21
31 -47 44 -59 12 -11 37 -38 53 -59 17 -21 35 -43 40 -49 24 -24 81 -113 94
-146 8 -19 16 -66 18 -104 5 -80 1 -86 -68 -86 -44 0 -50 4 -90 49 -24 27 -65
58 -90 69 -26 12 -59 38 -75 57 -62 78 -61 77 -146 70 -76 -6 -131 4 -191 37
-38 20 -121 39 -214 48 -84 9 -134 26 -153 52 -3 4 -43 15 -88 23 -90 17 -156
42 -187 71 -11 11 -32 25 -48 33 -25 13 -30 13 -55 -6 -15 -11 -28 -27 -30
-35 -5 -26 56 -95 127 -144 41 -29 78 -63 91 -85 26 -48 76 -76 164 -96 78
-17 96 -27 96 -53 0 -19 30 -50 50 -50 7 0 48 -18 91 -40 43 -22 90 -40 103
-40 24 0 95 -24 165 -57 25 -11 61 -15 128 -14 l93 2 0 -73 c0 -40 -4 -79 -9
-86 -4 -7 -51 -19 -108 -27 -107 -15 -172 -44 -232 -102 -43 -43 -66 -60 -129
-95 -31 -18 -61 -36 -67 -40 -5 -4 -35 -27 -65 -50 -30 -23 -56 -45 -58 -50
-2 -4 -8 -8 -14 -8 -6 0 -18 -8 -27 -18 -9 -10 -36 -33 -61 -52 -25 -19 -62
-50 -82 -68 -20 -19 -65 -51 -100 -71 -88 -51 -339 -225 -362 -249 -23 -26
-16 -37 41 -62 60 -27 84 -25 184 9 46 16 104 32 129 36 25 4 50 11 55 15 6 5
37 16 70 25 107 30 313 144 405 223 58 50 119 94 165 117 30 15 65 36 77 47
13 10 39 33 59 50 43 38 94 54 218 68 55 7 117 22 148 35 74 33 169 41 271 21
46 -9 92 -21 104 -27 31 -17 113 -3 186 32 54 25 74 29 150 29 126 0 162 -27
162 -119 0 -52 -3 -58 -35 -84 -39 -31 -45 -61 -16 -77 11 -5 52 -10 91 -10
69 0 73 -1 103 -35 17 -19 38 -35 47 -35 13 0 72 91 91 140 3 8 16 39 28 67
l24 53 58 0 57 0 7 -66 c13 -113 -10 -348 -37 -378 -15 -18 -8 -81 12 -106 15
-19 20 -41 20 -97 l0 -73 -48 0 c-47 0 -134 -37 -157 -66 -5 -7 -23 -20 -40
-29 -27 -14 5 -15 378 -15 225 0 407 3 405 8 -24 48 -32 62 -40 62 -4 0 -8 5
-8 10 0 6 -16 36 -35 66 -19 30 -40 76 -46 102 -18 75 -15 362 6 461 19 95 14
132 -31 202 -13 21 -24 45 -24 54 0 8 -4 15 -9 15 -28 0 -45 180 -29 326 13
123 5 161 -35 183 -12 6 -71 13 -132 14 -122 2 -148 12 -165 61 -12 35 -13
203 -1 210 4 3 11 28 15 55 4 28 12 56 19 63 15 15 37 94 37 132 0 36 -20 74
-42 79 -25 7 -85 -50 -129 -123 -46 -75 -47 -77 -108 -137 -30 -29 -64 -56
-75 -59 -12 -4 -35 -17 -52 -30 -17 -13 -35 -24 -40 -24 -14 0 -68 -61 -82
-93 -6 -15 -12 -54 -12 -87 0 -32 -5 -62 -10 -65 -19 -12 -284 -9 -327 4 -57
16 -101 79 -154 223 -32 87 -67 147 -102 174 -31 25 -85 52 -118 58 -26 6 -37
14 -147 114 -35 31 -76 65 -91 75 -27 16 -29 16 -43 0z"/>
<path d="M6445 1905 c-15 -24 -38 -53 -51 -62 l-24 -18 27 -33 c16 -18 40 -48
55 -65 l28 -32 0 128 c0 70 -2 127 -5 127 -2 0 -16 -20 -30 -45z"/>
<path d="M8128 1575 l-3 -210 -153 -3 c-158 -3 -169 0 -185 41 -3 9 -11 17
-17 17 -5 0 -10 5 -10 11 0 15 -22 35 -48 43 -12 4 -22 11 -22 16 0 17 -31 19
-77 5 -57 -17 -314 -20 -383 -4 -44 10 -110 37 -120 49 -3 3 -19 12 -37 19
-18 7 -53 33 -79 57 -25 24 -54 44 -63 44 -9 0 -22 5 -29 12 -8 8 -76 14 -210
18 -108 4 -198 6 -200 5 -2 -2 17 -14 41 -28 24 -15 57 -43 73 -64 68 -87 130
-124 257 -152 45 -10 100 -26 122 -36 28 -13 79 -20 170 -25 105 -6 138 -11
173 -29 25 -13 42 -28 42 -39 0 -16 11 -18 128 -14 70 1 149 7 175 13 26 5
130 9 230 9 142 0 188 -3 211 -15 54 -28 56 -25 56 98 0 127 9 168 45 217 l26
35 -23 3 c-32 5 -48 21 -48 46 0 11 -9 32 -20 46 l-19 25 -3 -210z"/>
<path d="M4960 1536 c0 -8 -13 -18 -28 -24 -20 -7 -32 -21 -41 -49 -12 -37
-17 -41 -63 -52 -27 -6 -92 -11 -145 -11 l-95 0 7 -37 c4 -21 9 -108 12 -193
5 -180 0 -198 -74 -279 -72 -78 -73 -79 -73 -96 0 -9 -7 -18 -15 -21 -8 -4
-15 -12 -15 -20 0 -8 -4 -14 -10 -14 -5 0 -10 -7 -10 -15 0 -8 -4 -15 -10 -15
-5 0 -10 -6 -10 -13 0 -7 -9 -19 -20 -27 -11 -8 -20 -20 -20 -27 0 -7 -4 -13
-8 -13 -4 0 -16 -15 -27 -32 -10 -18 -43 -58 -73 -88 l-55 -55 142 -3 c83 -1
141 -7 141 -12 0 -6 5 -10 11 -10 10 0 89 -33 120 -50 9 -5 32 -12 50 -15 70
-13 70 -14 67 -199 l-3 -166 308 0 307 0 0 45 c0 51 -9 65 -69 115 -13 11 -30
20 -36 20 -7 0 -18 7 -25 15 -7 8 -19 15 -27 15 -22 0 -68 51 -83 90 -7 19
-24 49 -37 67 -12 17 -23 36 -23 41 0 6 -6 12 -12 14 -10 4 -14 51 -16 181 -4
194 -3 197 62 231 28 14 25 15 -64 18 -75 2 -94 0 -98 -12 -3 -8 -21 -36 -39
-62 -30 -41 -39 -47 -83 -53 -53 -7 -56 -6 -116 55 -41 42 -47 95 -13 126 18
16 37 19 123 19 163 1 146 -13 146 119 0 94 4 122 21 161 18 40 22 75 27 197
3 81 2 148 -2 148 -3 0 -6 -6 -6 -14z"/>
<path d="M13823 1456 c-20 -25 -23 -40 -23 -127 0 -55 3 -99 8 -99 4 0 15 7
25 14 15 12 17 28 15 127 l-3 114 -22 -29z"/>
<path d="M9420 1365 c-33 -22 -45 -24 -175 -25 -77 0 -150 -3 -162 -6 -12 -3
-31 -25 -45 -52 -18 -35 -31 -48 -55 -54 -20 -5 -49 -28 -78 -62 -87 -100 -88
-100 -270 -106 l-160 -5 45 -32 c25 -17 68 -54 96 -81 29 -27 77 -61 107 -76
50 -23 67 -26 173 -26 124 0 231 21 241 47 3 7 14 13 24 13 11 0 43 12 71 26
41 21 71 27 151 32 l99 5 -6 30 c-3 16 -6 112 -6 213 0 101 -3 184 -7 183 -5
0 -24 -11 -43 -24z"/>
<path d="M9895 950 c-3 -5 -1 -10 4 -10 6 0 11 5 11 10 0 6 -2 10 -4 10 -3 0
-8 -4 -11 -10z"/>
<path d="M14292 934 c-30 -21 -52 -66 -52 -109 0 -33 -2 -35 -33 -35 -18 0
-42 -6 -53 -14 -11 -8 -40 -16 -64 -18 -48 -3 -43 5 -81 -138 -6 -25 -13 -51
-15 -57 -2 -9 -26 -13 -72 -13 -56 0 -75 -4 -97 -22 -22 -17 -45 -23 -113 -26
-83 -5 -85 -4 -109 24 -24 28 -25 33 -21 149 2 67 10 131 17 145 10 21 10 22
-1 10 -49 -57 -141 -188 -163 -231 -16 -29 -15 -32 14 -76 17 -25 38 -68 47
-97 23 -68 39 -91 83 -117 20 -12 45 -30 56 -40 18 -16 33 -17 113 -12 90 6
94 7 108 35 13 26 19 28 71 28 48 0 61 4 85 27 l28 27 185 0 c155 1 187 -2
195 -14 5 -8 10 -61 10 -117 0 -100 1 -103 24 -109 14 -3 32 -14 42 -25 9 -10
22 -19 29 -19 20 0 45 -35 45 -63 l0 -27 345 0 345 0 0 33 c0 23 8 41 28 59
56 52 174 98 251 98 59 0 121 31 168 85 44 51 123 152 123 158 0 7 -116 -28
-194 -58 -56 -21 -83 -25 -140 -23 l-71 3 -3 65 -3 65 75 88 c83 96 101 125
111 179 l7 35 -118 5 c-113 4 -120 3 -144 -19 -14 -13 -30 -23 -37 -23 -7 0
-38 -26 -70 -58 -58 -58 -64 -65 -117 -137 -34 -46 -157 -175 -168 -175 -4 0
-19 -11 -34 -25 -15 -14 -34 -25 -43 -25 -9 0 -25 -6 -36 -14 -38 -26 -133
-46 -218 -46 -118 0 -117 -1 -117 78 0 55 4 71 27 101 47 64 58 71 114 71 60
0 100 24 124 74 9 19 36 54 61 80 24 25 44 50 44 54 0 5 11 19 25 32 37 35 29
62 -19 72 -33 7 -43 5 -61 -12 -12 -11 -25 -20 -31 -20 -44 0 -84 -24 -108
-64 -24 -40 -44 -54 -104 -71 -12 -4 -34 -17 -47 -31 -13 -13 -35 -24 -48 -24
-14 0 -27 -7 -31 -15 -4 -11 -22 -15 -70 -15 -54 0 -67 3 -76 19 -14 27 -12
94 5 176 16 75 20 175 7 175 -4 0 -18 -7 -30 -16z"/>
</g>
</svg>
