<?xml version="1.0" standalone="no"?>
<!DOCTYPE svg PUBLIC "-//W3C//DTD SVG 20010904//EN"
 "http://www.w3.org/TR/2001/REC-SVG-20010904/DTD/svg10.dtd">
<svg version="1.0" xmlns="http://www.w3.org/2000/svg"
 width="3000.000000pt" height="1500.000000pt" viewBox="0 0 3000.000000 1500.000000"
 preserveAspectRatio="xMidYMid meet">

<g transform="translate(0.000000,1500.000000) scale(0.100000,-0.100000)"
fill="#000000" stroke="none">
<path d="M1360 14966 c0 -19 -7 -41 -15 -50 -8 -8 -15 -22 -15 -30 0 -9 -7
-16 -16 -16 -19 0 -50 -33 -59 -61 -5 -16 -17 -19 -76 -19 -56 0 -69 -3 -69
-16 0 -23 -25 -44 -52 -44 -13 0 -30 -9 -38 -20 -11 -15 -26 -20 -61 -20 -42
0 -48 -3 -59 -30 -7 -16 -18 -30 -26 -30 -7 0 -16 -9 -19 -20 -4 -13 -15 -20
-31 -20 -13 0 -24 -4 -24 -8 0 -24 -39 -52 -74 -52 -35 0 -36 -1 -36 -40 0
-26 5 -40 13 -40 7 0 19 -9 27 -20 8 -11 20 -20 27 -20 6 0 15 -9 18 -20 3
-11 13 -20 21 -20 8 0 14 -4 14 -10 0 -5 23 -10 50 -10 28 0 50 -4 50 -10 0
-5 9 -10 20 -10 11 0 20 -4 20 -10 0 -6 30 -10 70 -10 40 0 70 -4 70 -10 0 -5
13 -10 29 -10 16 0 32 -6 35 -12 5 -10 7 -10 12 0 3 6 19 12 35 12 16 0 29 5
29 10 0 6 14 10 30 10 17 0 30 5 30 10 0 6 42 10 105 10 63 0 105 4 105 10 0
6 9 10 20 10 15 0 22 9 27 30 3 17 12 30 19 30 8 0 14 5 14 10 0 6 13 10 29
10 21 0 32 6 36 20 6 19 15 20 206 20 192 0 199 -1 199 -20 0 -18 7 -20 56
-20 77 0 84 10 84 114 l0 86 130 0 c123 0 130 -1 130 -20 0 -15 7 -20 25 -20
14 0 25 -4 25 -10 0 -6 69 -10 186 -10 l186 0 38 40 c29 30 46 40 70 40 33 0
80 37 80 65 0 10 10 15 30 15 17 0 30 5 30 10 0 6 7 10 15 10 8 0 15 5 15 10
0 6 11 10 24 10 17 0 27 9 36 30 7 17 19 30 27 30 19 0 43 25 43 44 0 9 7 16
15 16 8 0 15 9 15 20 0 16 7 20 30 20 23 0 30 5 30 19 0 11 7 27 16 35 14 15
-77 16 -1005 16 l-1021 0 0 -34z"/>
<path d="M4010 14936 c0 -42 -4 -66 -12 -69 -18 -8 213 -8 240 -1 25 7 29 36
7 54 -8 7 -15 28 -15 46 l0 34 -110 0 -110 0 0 -64z"/>
<path d="M5500 14965 c0 -43 -22 -57 -108 -64 l-62 -6 24 -29 c32 -36 40 -89
34 -234 -5 -109 -19 -172 -40 -172 -4 0 -8 -9 -8 -20 0 -38 -31 -77 -85 -106
-42 -22 -70 -39 -75 -45 -8 -9 -96 -29 -130 -29 -16 0 -38 -4 -48 -9 -9 -5
-32 -15 -49 -21 -18 -7 -33 -16 -33 -21 0 -5 -7 -9 -16 -9 -18 0 -97 -41 -102
-52 -2 -5 -10 -8 -17 -8 -8 0 -19 -8 -24 -19 -6 -10 -22 -22 -36 -25 -14 -4
-25 -11 -25 -17 0 -11 -25 -39 -34 -39 -4 0 -20 -13 -38 -30 -17 -16 -37 -30
-44 -30 -8 0 -14 -4 -14 -10 0 -5 -7 -10 -15 -10 -8 0 -15 -4 -15 -10 0 -5 -9
-10 -20 -10 -11 0 -20 -3 -20 -8 0 -4 -13 -13 -28 -20 -16 -6 -38 -21 -50 -32
-12 -11 -24 -20 -27 -20 -3 0 -14 -9 -25 -20 -11 -11 -29 -20 -40 -20 -11 0
-20 -4 -20 -10 0 -5 -7 -10 -15 -10 -8 0 -15 -4 -15 -10 0 -5 -11 -10 -23 -10
-13 0 -32 -9 -42 -20 -10 -11 -26 -20 -37 -20 -10 0 -18 -4 -18 -10 0 -5 -7
-10 -15 -10 -25 0 -85 -33 -85 -47 0 -7 -4 -13 -10 -13 -5 0 -25 -15 -43 -32
-19 -18 -51 -46 -71 -62 -20 -15 -36 -37 -36 -47 0 -11 -6 -22 -14 -25 -8 -3
-17 -16 -20 -29 -3 -13 -9 -30 -12 -39 -9 -22 22 -21 35 2 8 15 31 17 204 21
l194 3 6 -31 c4 -18 13 -31 22 -31 8 0 15 -4 15 -10 0 -5 9 -10 20 -10 16 0
20 -7 20 -30 0 -25 4 -30 25 -30 14 0 25 -4 25 -10 0 -6 38 -10 94 -10 86 0
94 -2 99 -20 5 -20 7 -19 50 10 91 61 179 171 252 313 37 72 76 145 87 160 12
16 23 56 28 93 8 65 23 92 65 124 52 38 109 98 133 139 14 25 63 103 108 172
45 69 97 154 116 188 48 90 87 132 184 197 56 37 96 73 116 103 44 65 78 100
118 121 19 11 55 40 79 65 l45 45 -247 0 -247 0 0 -35z"/>
<path d="M7210 14974 c0 -14 -8 -38 -19 -52 -37 -53 -45 -93 -27 -136 10 -24
16 -67 16 -115 -1 -62 -6 -88 -29 -141 l-29 -64 31 -23 c17 -13 35 -23 40 -23
5 0 29 -21 53 -46 25 -25 51 -43 58 -41 8 3 41 26 75 52 66 50 104 65 167 65
61 0 102 -18 120 -52 8 -16 31 -47 50 -68 33 -36 35 -42 32 -97 l-3 -58 -37
-6 c-21 -3 -58 -22 -84 -42 -44 -35 -52 -37 -117 -37 -68 0 -71 -1 -125 -45
-60 -50 -66 -52 -167 -58 -77 -6 -175 -41 -236 -85 -89 -65 -168 -135 -174
-152 -9 -28 13 -56 70 -87 27 -15 55 -30 60 -35 6 -4 34 -28 63 -52 73 -60
184 -115 257 -126 33 -5 82 -16 109 -25 27 -8 60 -15 72 -15 13 0 48 -9 79
-21 47 -17 59 -27 71 -57 9 -21 27 -58 40 -85 18 -35 24 -63 24 -112 0 -71 -3
-75 -72 -89 -15 -4 -42 -19 -60 -35 -25 -21 -48 -30 -91 -35 -103 -11 -190
-49 -273 -117 -71 -58 -79 -62 -137 -66 -34 -2 -91 2 -127 9 -40 8 -84 11
-115 7 -91 -13 -229 -10 -283 6 -44 13 -58 24 -93 71 -28 39 -54 61 -85 74
-53 23 -59 41 -50 159 l7 88 -37 48 c-38 50 -54 91 -54 138 0 32 -25 86 -49
105 -35 27 -92 52 -121 52 -38 0 -134 -49 -177 -90 -18 -16 -48 -58 -68 -93
-20 -34 -70 -96 -110 -137 -54 -54 -87 -100 -121 -165 -37 -71 -65 -108 -133
-175 -130 -128 -182 -219 -166 -292 11 -49 60 -95 121 -115 48 -15 65 -15 161
-4 60 7 165 17 234 21 72 4 136 13 150 21 13 7 46 27 74 44 41 25 64 31 135
36 59 4 104 15 147 33 44 18 89 28 151 32 108 8 127 0 216 -93 l62 -66 80 2
c43 0 130 4 192 7 l112 7 0 -64 0 -64 -52 -31 c-29 -17 -88 -48 -130 -69 l-78
-38 -147 5 c-155 5 -294 -2 -428 -22 -62 -9 -109 -9 -206 0 -110 11 -135 10
-210 -5 -72 -15 -117 -17 -321 -11 -219 6 -243 5 -313 -14 -105 -28 -177 -71
-215 -127 -16 -26 -30 -55 -30 -65 0 -11 24 -45 54 -76 65 -70 76 -100 76
-216 0 -80 4 -98 30 -154 16 -34 41 -78 55 -96 14 -19 36 -66 49 -105 28 -86
41 -101 120 -142 67 -35 117 -67 128 -84 4 -5 8 -34 8 -64 l0 -54 -88 5 c-48
3 -101 12 -117 20 -17 9 -73 19 -125 23 -52 4 -111 13 -130 21 -19 8 -73 54
-120 102 -47 48 -140 140 -205 204 -66 64 -140 140 -164 168 -56 66 -97 92
-196 127 -76 27 -89 28 -255 28 -149 1 -187 4 -255 23 -85 23 -155 29 -155 12
0 -5 -9 -10 -20 -10 -11 0 -20 -4 -20 -10 0 -5 -9 -10 -20 -10 -13 0 -20 -7
-20 -20 0 -18 -7 -20 -59 -20 -57 0 -59 -1 -64 -30 -6 -30 -7 -30 -77 -30 -50
0 -70 -4 -70 -13 0 -18 -35 -45 -67 -53 -16 -4 -39 -20 -52 -36 -16 -18 -33
-28 -51 -28 -15 0 -41 -7 -56 -15 -16 -8 -45 -15 -64 -15 -50 0 -80 -10 -80
-26 0 -9 -11 -14 -29 -14 -16 0 -31 -6 -34 -15 -3 -8 -26 -23 -51 -35 -40 -18
-47 -25 -52 -59 -6 -37 -9 -39 -48 -45 -25 -4 -48 -15 -56 -26 -8 -11 -22 -20
-32 -20 -10 0 -18 -4 -18 -10 0 -5 -15 -10 -34 -10 -23 0 -42 -9 -64 -30 -18
-16 -39 -30 -47 -30 -8 0 -15 -9 -15 -20 0 -18 -7 -20 -80 -20 -44 0 -80 -4
-80 -9 0 -5 -12 -11 -27 -13 l-28 -3 -3 -147 c-2 -109 -6 -148 -15 -148 -6 0
-20 -14 -29 -30 -9 -17 -24 -30 -33 -30 -11 0 -15 -11 -15 -40 0 -29 4 -40 15
-40 8 0 15 5 15 10 0 7 60 10 172 8 167 -3 173 -4 176 -24 3 -19 11 -22 88
-27 69 -5 89 -10 104 -27 9 -11 27 -20 39 -20 14 0 21 -6 21 -20 0 -15 7 -20
29 -20 17 0 33 -4 36 -10 3 -5 24 -10 46 -10 25 0 47 -7 60 -19 25 -23 102
-31 306 -31 98 0 154 -4 159 -11 7 -12 123 -2 138 12 6 5 27 9 48 9 21 0 38 5
38 10 0 6 33 10 80 10 47 0 80 4 80 10 0 6 26 10 59 10 33 0 63 -4 66 -10 3
-5 17 -10 30 -10 13 0 27 -4 30 -10 3 -5 25 -10 49 -10 45 0 66 -13 66 -42 0
-15 9 -18 60 -18 l60 0 0 -35 0 -35 74 0 c53 0 77 -4 86 -15 7 -8 27 -15 45
-15 19 0 35 -4 37 -10 5 -14 122 -30 129 -18 4 6 35 9 75 6 55 -3 75 -8 97
-28 15 -13 27 -30 27 -37 0 -22 58 -16 65 7 4 13 15 20 31 20 13 0 24 5 24 10
0 6 9 10 20 10 11 0 20 5 20 10 0 6 9 10 20 10 11 0 20 5 20 10 0 6 9 10 19
10 11 0 23 9 26 20 3 11 13 20 21 20 8 0 17 13 21 30 5 26 10 30 40 30 26 0
42 8 63 30 27 29 30 30 124 30 57 0 96 4 96 10 0 6 27 10 60 10 33 0 60 4 60
10 0 6 7 10 15 10 15 0 20 14 30 93 5 36 10 47 24 47 23 0 41 40 41 95 0 24 5
45 10 47 6 2 13 28 16 58 9 88 13 100 34 100 16 0 20 7 20 34 0 43 9 66 24 66
6 0 18 9 26 20 8 11 21 20 30 20 9 0 22 9 30 20 8 11 22 20 31 20 19 0 29 20
29 56 0 22 3 24 55 24 30 0 55 5 55 10 0 6 22 10 48 10 36 0 51 5 62 20 8 11
25 20 37 20 13 0 23 5 23 10 0 6 9 10 20 10 13 0 20 7 20 20 0 18 7 20 55 20
30 0 55 5 55 10 0 6 11 10 25 10 14 0 25 5 25 10 0 6 83 10 230 10 202 0 230
-2 230 -16 0 -8 6 -22 14 -30 16 -16 86 -19 86 -4 0 6 38 10 95 10 88 0 95 1
95 20 0 18 7 20 75 20 l75 0 0 -40 c0 -38 2 -40 30 -40 23 0 30 4 30 20 0 18
7 20 80 20 73 0 80 2 80 20 0 16 7 20 30 20 17 0 30 5 30 10 0 6 35 10 84 10
75 0 85 2 91 19 3 12 25 26 53 36 26 9 70 27 97 40 35 17 72 25 123 27 88 4
112 23 122 95 4 26 9 54 11 62 2 8 -8 21 -23 30 -26 15 -33 14 -140 -22 -124
-41 -234 -51 -257 -23 -17 21 -10 127 9 136 85 40 89 44 114 96 37 77 62 88
200 81 61 -3 125 -11 142 -17 17 -8 42 -10 58 -6 39 10 111 86 176 183 65 100
88 113 195 113 42 0 118 5 169 11 126 16 201 6 238 -32 28 -27 29 -32 26 -106
l-3 -78 -46 -5 c-51 -6 -119 -38 -119 -56 0 -6 21 -22 47 -35 25 -13 63 -41
84 -61 22 -23 46 -38 60 -38 13 0 37 -7 53 -15 33 -18 246 -22 246 -5 0 6 11
10 25 10 14 0 25 5 25 10 0 6 50 10 130 10 l130 0 0 -130 c0 -112 -2 -130 -16
-130 -8 0 -33 -18 -54 -40 -21 -22 -44 -40 -50 -40 -20 0 -40 -27 -40 -54 0
-13 -7 -32 -16 -40 -14 -14 -14 -18 0 -31 10 -11 37 -15 95 -15 47 0 81 -4 81
-10 0 -6 33 -10 80 -10 l80 0 0 -30 c0 -27 3 -30 30 -30 28 0 30 2 30 40 l0
40 258 0 c246 0 258 1 272 20 8 11 20 20 27 20 7 0 13 5 13 10 0 6 9 10 20 10
11 0 20 5 20 10 0 6 7 10 15 10 20 0 65 44 65 64 0 8 7 22 16 30 14 15 14 21
-2 73 -30 101 -55 272 -68 468 -14 210 -29 267 -75 273 -37 6 -86 37 -89 58
-2 10 -12 43 -24 72 -14 37 -26 52 -39 52 -31 0 -49 61 -49 164 0 50 4 96 8
103 4 6 34 19 66 28 47 14 79 16 150 11 50 -4 95 -11 101 -17 5 -5 21 -9 35
-9 18 0 29 -8 37 -27 7 -16 22 -43 33 -60 19 -33 21 -33 95 -33 91 0 164 -30
165 -67 0 -13 5 -23 10 -23 6 0 10 -19 10 -42 0 -30 10 -60 32 -98 32 -55 33
-56 34 -202 2 -143 3 -149 28 -179 24 -28 26 -38 26 -132 1 -92 2 -100 15 -83
8 11 15 30 15 41 0 12 11 35 25 51 14 16 25 32 25 36 0 4 9 10 20 13 11 3 20
13 20 21 0 8 4 14 9 14 8 0 45 108 58 170 3 19 17 46 30 60 13 13 23 31 23 39
0 8 7 22 16 32 15 16 15 20 0 41 -9 12 -16 32 -16 43 0 12 -11 32 -25 45 -14
13 -25 29 -25 35 0 6 -8 20 -18 31 -31 32 -84 174 -94 249 -5 39 -11 123 -14
188 -4 64 -8 117 -10 117 -10 0 -203 -69 -261 -94 -43 -18 -80 -26 -120 -26
-34 0 -92 -10 -138 -25 -60 -19 -112 -26 -210 -31 -71 -3 -148 -11 -170 -19
-90 -30 -178 -44 -320 -50 -170 -7 -189 -2 -218 55 -14 28 -17 54 -15 128 2
57 -1 92 -7 92 -5 0 -28 -14 -49 -30 -22 -17 -50 -30 -62 -30 -33 0 -54 -10
-54 -26 0 -8 -6 -14 -14 -14 -8 0 -17 -9 -21 -20 -11 -34 -62 -68 -113 -75
-79 -10 -139 -26 -179 -46 -27 -14 -58 -19 -113 -19 -93 0 -140 13 -174 46
-24 25 -26 33 -26 120 l0 93 41 43 c23 24 53 61 67 83 33 52 59 73 107 85 78
21 165 74 165 100 0 6 10 10 23 10 12 0 37 9 55 20 18 11 38 20 46 20 7 0 34
16 58 35 25 19 70 46 101 60 62 30 89 55 117 109 17 34 17 37 2 31 -40 -17
-161 -17 -211 -1 -27 9 -75 16 -106 16 -66 0 -106 18 -123 55 -14 31 -16 206
-3 253 5 18 22 42 37 55 15 12 57 50 93 85 36 34 73 67 81 72 11 7 -1 10 -40
10 -71 0 -190 28 -213 50 -39 36 -34 162 9 225 13 20 24 37 24 39 0 1 -21 -1
-47 -5 -59 -10 -193 -10 -253 -1 -85 14 -138 -8 -220 -88 -22 -22 -35 -26
-124 -30 l-98 -5 -19 -62 c-20 -64 -63 -113 -98 -113 -10 0 -26 -9 -36 -20
-10 -12 -34 -30 -53 -42 -19 -11 -60 -48 -92 -81 l-58 -59 -87 3 c-114 5 -125
17 -125 131 0 72 3 86 34 141 18 34 41 85 50 114 10 28 28 62 42 76 l24 25
-25 6 c-35 9 -55 59 -55 135 0 75 15 87 118 100 41 5 86 18 105 30 28 17 51
21 116 21 45 0 90 -4 100 -10 20 -10 131 38 208 91 26 18 55 29 75 29 19 0 43
7 54 15 17 13 -71 14 -743 15 l-763 0 0 -26z"/>
<path d="M9513 14979 c15 -12 38 -42 51 -68 32 -61 88 -94 213 -126 31 -8 80
-33 118 -60 36 -25 91 -55 123 -66 31 -11 69 -25 84 -31 32 -14 75 -79 84
-125 6 -32 8 -33 53 -33 26 0 81 -11 121 -25 40 -14 80 -25 87 -25 8 0 41 23
74 50 49 41 67 50 99 50 57 0 188 -19 244 -36 27 -8 66 -14 85 -14 35 0 84
-13 166 -44 28 -11 80 -15 173 -16 l132 0 93 -44 c50 -24 108 -47 127 -51 19
-4 62 -19 95 -32 106 -45 155 -54 211 -39 27 7 67 22 89 34 73 37 179 117 191
142 44 92 46 107 55 292 7 144 13 199 28 238 l19 50 -1421 0 -1422 -1 28 -20z"/>
<path d="M16657 14963 c-7 -57 -28 -155 -37 -178 -5 -11 -18 -56 -30 -100 -11
-44 -25 -88 -31 -98 -5 -10 -14 -37 -19 -60 -10 -49 -42 -140 -52 -147 -3 -3
-22 -37 -42 -77 -20 -40 -42 -76 -49 -80 -6 -4 -19 -21 -27 -36 -15 -29 -177
-197 -190 -197 -4 0 -27 -16 -51 -35 -24 -19 -47 -35 -51 -35 -11 0 -88 -80
-88 -91 0 -5 -7 -9 -15 -9 -8 0 -15 -5 -15 -11 0 -15 -71 -81 -137 -127 -27
-19 -44 -22 -132 -22 -87 0 -103 3 -118 19 -37 41 -45 53 -52 79 -7 25 -12 27
-62 29 -72 4 -125 -25 -177 -96 -22 -29 -75 -82 -117 -117 -123 -102 -358
-204 -472 -204 -45 0 -138 -21 -172 -39 -11 -6 -46 -20 -78 -31 -32 -10 -83
-28 -113 -39 -46 -17 -80 -20 -198 -21 -168 0 -188 6 -256 81 -35 38 -46 60
-52 97 -5 37 -16 56 -48 88 -55 55 -96 66 -183 48 -71 -14 -110 -28 -208 -75
-84 -40 -166 -59 -256 -59 -101 0 -167 -23 -281 -98 -122 -80 -184 -96 -333
-89 -95 5 -180 23 -261 54 -10 4 -14 -32 -17 -179 -5 -204 -12 -250 -51 -308
l-26 -40 115 0 c70 0 115 4 115 10 0 6 11 10 25 10 14 0 25 5 25 10 0 6 28 10
65 10 37 0 65 4 65 10 0 6 30 10 70 10 40 0 70 4 70 10 0 6 14 10 30 10 17 0
30 5 30 10 0 6 18 10 40 10 22 0 40 5 40 10 0 6 58 10 155 10 97 0 155 4 155
10 0 6 47 10 120 10 73 0 120 4 120 10 0 6 25 10 55 10 30 0 55 5 55 10 0 6
11 10 25 10 14 0 25 5 25 10 0 6 20 10 45 10 25 0 45 5 45 10 0 6 32 10 75 10
46 0 75 -4 75 -11 0 -6 14 -9 33 -7 24 2 33 8 35 26 3 18 10 22 38 22 30 0 34
3 34 25 0 16 6 25 15 25 8 0 15 5 15 10 0 6 16 10 35 10 28 0 35 4 35 20 0 18
7 20 65 20 37 0 65 4 65 10 0 15 107 13 113 -2 4 -10 6 -10 6 0 1 8 20 12 61
12 53 0 60 2 60 20 0 15 7 20 24 20 14 0 28 5 31 10 3 6 17 10 31 10 13 0 24
5 24 10 0 6 18 10 40 10 22 0 40 5 40 10 0 6 18 10 40 10 33 0 40 3 40 20 0
17 7 20 45 20 25 0 45 5 45 10 0 6 35 10 85 10 50 0 85 4 85 10 0 6 14 10 30
10 17 0 30 5 30 10 0 6 47 10 120 10 73 0 120 -4 120 -10 0 -5 18 -10 40 -10
22 0 40 5 40 10 0 6 73 10 200 10 127 0 200 -4 200 -10 0 -5 14 -10 30 -10 17
0 30 -4 30 -10 0 -6 30 -10 70 -10 40 0 70 -4 70 -10 0 -6 27 -10 60 -10 53 0
60 -2 60 -20 0 -18 7 -20 70 -20 40 0 70 -4 70 -10 0 -6 93 -10 260 -10 167 0
260 4 260 10 0 6 14 10 30 10 23 0 30 4 30 20 0 16 7 20 35 20 19 0 35 5 35
10 0 6 11 10 25 10 14 0 25 5 25 10 0 6 14 10 30 10 17 0 30 5 30 10 0 6 14
10 30 10 17 0 30 5 30 10 0 6 5 10 10 10 18 0 56 44 64 73 5 20 13 27 30 27
23 0 46 33 46 65 0 8 8 15 18 15 18 0 42 37 42 65 0 8 9 15 20 15 16 0 20 7
20 30 0 21 5 30 16 30 19 0 50 33 59 61 4 11 12 19 18 19 7 0 17 12 24 26 12
25 11 26 -15 21 -15 -2 -60 -16 -99 -31 -56 -20 -92 -26 -155 -26 -69 0 -95
-5 -153 -30 -38 -17 -77 -30 -86 -30 -10 0 -55 -9 -101 -20 -58 -13 -115 -19
-188 -18 -84 1 -116 -3 -160 -20 -30 -11 -82 -28 -115 -37 -33 -9 -87 -28
-120 -42 -33 -14 -90 -29 -127 -34 -37 -5 -86 -18 -107 -29 -45 -23 -149 -28
-169 -8 -7 7 -12 37 -12 68 0 46 4 60 23 76 36 32 68 49 135 73 97 33 170 74
242 136 60 52 108 75 155 75 33 0 112 27 158 54 59 35 181 63 307 71 146 9
164 13 205 49 l37 31 -20 25 c-21 27 -80 60 -141 79 -62 20 -71 36 -71 118 l0
74 98 -5 c297 -15 353 -22 442 -60 58 -24 101 -36 135 -36 28 0 84 -9 125 -20
58 -15 84 -17 117 -10 92 21 198 63 241 96 25 19 51 34 60 34 23 0 135 57 162
83 48 45 78 58 147 64 100 8 113 -1 113 -80 0 -55 -23 -153 -43 -184 -4 -6
-31 -24 -60 -41 -60 -34 -137 -100 -168 -144 l-22 -30 24 -49 c12 -27 25 -48
28 -47 93 45 158 89 189 127 73 90 199 207 277 258 91 59 127 87 205 158 160
147 143 136 218 133 l67 -3 3 -88 c2 -76 -1 -96 -21 -141 -30 -65 -84 -126
-140 -160 -55 -32 -83 -64 -142 -160 -59 -96 -107 -144 -181 -182 -36 -18 -85
-58 -133 -108 -145 -150 -173 -177 -224 -217 -98 -76 -159 -143 -193 -211 -26
-52 -31 -68 -19 -68 8 0 15 5 15 10 0 6 18 10 39 10 31 0 41 4 46 20 5 16 15
20 56 20 27 0 49 5 49 10 0 6 14 10 30 10 23 0 30 4 30 20 0 18 7 20 58 20 46
0 60 4 70 20 7 11 19 20 27 20 8 0 15 5 15 10 0 6 7 10 15 10 8 0 15 5 15 10
0 6 11 10 25 10 14 0 25 5 25 10 0 6 14 10 30 10 26 0 31 5 37 30 5 29 8 30
59 30 30 0 54 5 54 10 0 6 38 10 93 10 81 0 94 2 107 20 11 15 26 20 62 20 36
0 48 4 48 15 0 19 31 55 47 55 7 0 13 7 13 15 0 11 12 15 45 15 25 0 45 5 45
10 0 6 15 10 34 10 26 0 36 5 41 20 6 19 15 20 161 20 l154 0 0 -30 0 -30 79
0 c78 0 79 0 91 -30 10 -24 19 -30 41 -30 22 0 29 -5 29 -19 0 -17 6 -18 85
-13 74 4 85 3 85 -12 0 -10 8 -16 23 -16 12 0 29 -9 37 -20 12 -17 26 -20 87
-20 61 0 73 3 73 16 0 15 11 16 92 12 54 -4 94 -10 96 -17 2 -6 26 -11 53 -11
38 0 49 -4 49 -16 0 -8 7 -22 15 -30 13 -14 15 -8 15 51 0 62 2 68 36 102 45
44 82 55 210 60 82 3 103 1 113 -11 8 -9 18 -16 23 -16 5 0 23 -13 40 -30 16
-16 33 -30 37 -30 4 0 14 -14 23 -32 l15 -32 36 49 c20 28 64 111 98 185 117
258 202 425 252 500 105 156 149 196 322 291 44 24 145 92 223 152 155 116
211 149 312 183 l65 22 -2866 1 -2867 1 -5 -37z"/>
<path d="M22690 14966 c0 -18 10 -55 21 -81 17 -38 20 -61 16 -105 -6 -68 -25
-107 -87 -180 -84 -99 -110 -146 -110 -198 0 -26 -7 -72 -15 -102 -8 -30 -15
-56 -15 -57 0 -2 92 -3 204 -3 172 0 205 2 210 15 3 9 19 15 41 15 22 0 38 6
41 15 5 12 29 15 125 15 73 0 119 -4 119 -10 0 -6 33 -10 80 -10 44 0 80 -4
80 -9 0 -5 48 -8 107 -7 77 1 107 -2 110 -11 6 -16 183 -18 183 -3 0 6 25 10
55 10 51 0 55 2 55 24 0 25 16 36 52 36 12 0 38 18 59 40 l38 40 123 0 c112 0
125 2 138 20 8 11 21 20 28 20 20 0 92 79 92 101 0 16 7 19 44 19 28 0 46 5
49 14 3 9 29 17 66 21 34 4 61 11 61 15 0 13 74 21 233 26 81 3 147 10 147 15
0 5 61 9 140 9 87 0 140 -4 140 -10 0 -5 15 -10 34 -10 25 0 35 5 39 19 4 16
18 20 102 26 116 9 258 1 263 -14 2 -6 20 -11 41 -11 20 0 42 -5 47 -10 6 -6
42 -13 80 -16 44 -4 73 -12 81 -22 8 -9 35 -17 69 -20 34 -3 58 -10 61 -18 6
-17 173 -20 173 -4 0 6 72 10 195 10 123 0 195 -4 195 -10 0 -5 14 -10 30 -10
17 0 30 -4 30 -10 0 -5 20 -10 45 -10 25 0 45 -4 45 -9 0 -5 17 -16 38 -24 21
-8 47 -27 57 -41 11 -14 27 -26 37 -26 27 0 48 -11 48 -26 0 -8 10 -14 25 -14
14 0 25 -4 25 -8 0 -10 81 -32 119 -32 46 0 80 -17 98 -48 16 -27 54 -52 80
-52 7 0 13 -4 13 -10 0 -5 20 -10 45 -10 25 0 45 -4 45 -8 0 -18 37 -51 63
-57 19 -5 27 -14 27 -30 0 -19 7 -23 53 -29 28 -3 73 -6 99 -6 28 0 53 -6 62
-15 8 -8 31 -15 51 -15 20 0 43 -7 51 -15 9 -8 25 -15 37 -15 12 0 35 -7 51
-15 15 -8 37 -15 47 -15 11 0 19 -4 19 -9 0 -9 12 -12 132 -29 37 -6 81 -17
99 -26 18 -9 49 -16 71 -16 35 0 38 -2 38 -29 0 -28 1 -28 73 -35 39 -3 98
-11 129 -17 79 -16 166 1 313 61 135 54 202 67 264 50 67 -18 108 -63 127
-140 20 -80 56 -153 86 -174 50 -35 132 -5 198 74 25 29 60 68 79 87 l34 35
71 -7 c98 -10 146 -9 159 4 6 6 24 11 39 11 23 0 28 -4 28 -24 0 -14 5 -28 10
-31 7 -4 10 63 10 194 l0 201 -40 0 c-33 0 -40 3 -40 20 0 11 -7 20 -15 20 -8
0 -29 14 -47 30 -22 21 -41 30 -64 30 -19 0 -34 5 -34 10 0 6 -6 10 -13 10 -7
0 -23 9 -35 20 -14 14 -35 20 -65 20 -36 0 -46 4 -50 20 -4 16 -14 20 -44 20
-54 0 -113 18 -113 35 0 9 -15 17 -40 21 -22 4 -40 10 -40 15 0 5 -6 9 -13 9
-7 0 -19 9 -27 20 -9 12 -26 20 -43 20 -26 0 -29 3 -25 25 5 21 1 25 -27 31
-21 4 -36 14 -44 30 -15 34 -15 34 18 34 24 0 41 14 41 36 0 2 -17 4 -38 4
-26 0 -41 -6 -50 -20 -7 -11 -18 -20 -25 -20 -7 0 -19 9 -27 20 -8 11 -22 20
-32 20 -10 0 -18 7 -18 15 0 20 -44 65 -64 65 -8 0 -18 9 -21 20 -3 11 -12 20
-20 20 -8 0 -17 9 -20 20 -3 11 -12 20 -19 20 -8 0 -19 14 -26 30 -7 17 -16
30 -20 30 -14 0 -20 32 -9 46 6 8 22 14 36 14 18 0 24 5 21 18 -3 16 -43 17
-636 20 l-632 2 0 -39 c0 -51 -23 -105 -60 -138 -113 -101 -296 -118 -378 -36
-23 23 -27 24 -131 18 -146 -9 -258 -31 -302 -61 -19 -13 -42 -24 -51 -24 -9
0 -39 -12 -66 -26 -81 -42 -117 -42 -185 0 -70 42 -86 61 -87 102 0 39 15 52
120 101 47 22 98 54 114 72 l30 31 -1977 0 -1977 0 0 -34z"/>
<path d="M3898 14843 c7 -3 16 -2 19 1 4 3 -2 6 -13 5 -11 0 -14 -3 -6 -6z"/>
<path d="M25490 14040 c0 -6 -27 -10 -60 -10 -33 0 -60 -4 -60 -10 0 -5 -9
-10 -20 -10 -11 0 -20 -4 -20 -10 0 -5 -25 -10 -56 -10 -49 0 -59 -4 -84 -30
-17 -18 -38 -30 -54 -30 -14 0 -26 -4 -26 -10 0 -5 -7 -10 -16 -10 -8 0 -33
-18 -54 -40 -33 -35 -44 -40 -82 -40 -32 0 -47 -5 -58 -20 -8 -11 -22 -20 -32
-20 -10 0 -18 -4 -18 -10 0 -5 -9 -10 -20 -10 -11 0 -20 -4 -20 -10 0 -6 -27
-10 -60 -10 -33 0 -60 -4 -60 -10 0 -6 -43 -10 -109 -10 l-109 0 -12 -30 c-8
-18 -20 -30 -31 -30 -23 0 -23 -1 0 -53 11 -23 25 -61 31 -85 12 -46 26 -72
75 -143 54 -77 68 -124 73 -248 3 -67 -1 -150 -8 -197 -19 -130 0 -162 137
-233 62 -32 73 -35 268 -66 61 -9 157 -31 215 -47 58 -16 141 -38 185 -47 76
-17 81 -17 129 0 27 10 54 23 60 29 5 5 16 10 23 10 8 0 26 8 40 18 42 27 111
41 203 41 88 1 151 -12 255 -50 33 -12 89 -24 125 -26 66 -5 82 -1 207 53 18
8 65 14 110 14 65 0 83 -3 96 -18 22 -24 22 -94 1 -157 -15 -44 -84 -142 -141
-202 -13 -13 -23 -26 -23 -30 0 -3 -13 -22 -28 -42 -15 -20 -34 -49 -42 -66
-8 -16 -23 -42 -33 -57 -14 -21 -16 -32 -7 -47 5 -11 10 -36 10 -55 l0 -36 69
0 c61 0 72 -3 85 -22 32 -46 15 -160 -30 -206 -8 -7 -19 -22 -24 -32 -9 -17
-5 -21 32 -30 24 -7 79 -23 123 -36 55 -17 133 -30 245 -40 91 -8 174 -19 186
-25 28 -14 54 -61 54 -96 0 -75 -48 -153 -94 -153 -13 0 -58 -13 -99 -30 -55
-22 -92 -30 -136 -30 -34 0 -61 -4 -61 -10 0 -5 12 -10 27 -10 50 0 143 -24
143 -36 0 -7 16 -25 36 -40 33 -25 47 -28 154 -35 120 -8 181 -19 237 -45 31
-14 113 -73 141 -101 58 -58 242 -163 328 -188 65 -18 97 -110 75 -215 -10
-50 -16 -58 -57 -84 -35 -22 -64 -31 -122 -37 -161 -17 -265 -8 -390 32 -43
14 -139 14 -175 0 -48 -19 -152 -14 -192 9 -20 11 -49 20 -65 20 -19 0 -30 5
-30 14 0 17 -122 120 -169 143 -27 13 -68 18 -161 21 -115 3 -131 1 -200 -23
-215 -76 -229 -74 -387 41 -12 9 -64 27 -115 40 -229 59 -298 97 -298 164 0
26 -21 26 -40 0 -10 -14 -26 -20 -52 -20 -21 0 -38 -4 -38 -10 0 -5 -13 -10
-30 -10 -27 0 -30 -3 -30 -30 l0 -30 -100 0 c-60 0 -100 -4 -100 -10 0 -5 -22
-10 -50 -10 -27 0 -50 -4 -50 -10 0 -5 -16 -10 -35 -10 -19 0 -35 -4 -35 -8 0
-22 -39 -52 -69 -52 -28 0 -31 -3 -31 -30 0 -28 -3 -30 -35 -30 -32 0 -35 -2
-35 -30 0 -26 4 -30 28 -30 16 0 34 -8 42 -20 12 -17 26 -20 92 -20 45 0 78
-4 78 -10 0 -5 23 -10 50 -10 28 0 50 -4 50 -10 0 -5 23 -10 50 -10 28 0 50
-4 50 -10 0 -5 23 -10 50 -10 43 0 50 -3 50 -20 0 -11 4 -20 9 -20 5 0 14 -14
21 -31 7 -17 20 -38 29 -47 12 -12 17 -42 20 -129 3 -109 2 -113 -18 -113 -12
0 -21 -4 -21 -8 0 -14 -36 -52 -49 -52 -6 0 -11 -4 -11 -10 0 -6 -27 -10 -60
-10 -33 0 -60 -4 -60 -10 0 -6 -37 -10 -90 -10 -53 0 -90 -4 -90 -10 0 -6 -43
-10 -110 -10 -103 0 -110 -1 -110 -20 0 -11 -7 -20 -15 -20 -8 0 -15 -4 -15
-10 0 -5 -7 -10 -15 -10 -8 0 -15 -4 -15 -10 0 -6 -40 -10 -100 -10 -60 0
-100 -4 -100 -10 0 -6 -41 -10 -103 -10 l-103 0 -17 -35 c-9 -20 -17 -40 -17
-46 0 -19 28 -39 54 -39 19 0 26 -5 26 -20 0 -16 7 -20 30 -20 17 0 30 5 30
10 0 6 33 10 80 10 47 0 80 4 80 10 0 6 41 10 104 10 96 0 105 2 111 20 6 17
15 20 75 20 60 0 69 -3 75 -20 6 -18 15 -20 89 -20 l83 0 27 38 c15 22 30 59
34 83 14 83 82 102 362 98 165 -3 254 18 414 97 42 20 65 24 147 24 60 0 112
-6 139 -15 35 -12 56 -13 136 -3 88 11 102 10 192 -11 161 -38 179 -41 235
-41 110 0 226 -56 308 -150 29 -32 64 -64 78 -70 15 -5 77 -9 141 -8 100 3
123 0 177 -21 86 -32 183 -122 228 -210 57 -114 117 -151 240 -150 44 0 105 5
135 10 113 18 167 21 187 10 12 -6 61 -14 110 -17 79 -6 93 -10 144 -44 31
-20 89 -48 128 -60 66 -22 76 -23 163 -12 93 12 140 7 186 -17 12 -6 22 -15
22 -19 1 -16 87 -101 120 -117 33 -17 39 -17 125 -1 123 24 132 29 140 82 3
24 10 44 16 44 5 0 9 9 9 19 0 11 7 26 15 35 8 8 15 31 15 52 0 42 18 102 38
122 6 7 12 31 12 53 0 39 0 39 38 39 42 0 35 -11 89 120 9 22 20 40 24 40 5 0
22 14 37 30 16 17 39 30 51 30 24 0 26 10 10 60 -16 54 -39 162 -39 190 -1 14
-9 41 -18 60 -16 33 -20 35 -82 41 -62 6 -67 8 -110 56 -57 63 -86 81 -131 84
-50 4 -110 -38 -166 -113 -13 -18 -46 -56 -74 -85 -59 -60 -100 -73 -229 -73
-120 0 -220 51 -235 119 -7 34 -28 64 -77 112 -16 15 -28 30 -28 33 0 15 -60
77 -118 121 -24 18 -45 45 -52 67 -15 43 -8 133 12 175 12 26 18 28 83 31 61
3 72 0 87 -18 11 -13 35 -24 66 -29 27 -4 64 -18 82 -31 29 -20 46 -24 124
-25 50 -1 102 -5 116 -9 36 -10 80 31 80 74 0 16 8 38 18 48 9 9 26 28 37 42
45 57 73 70 149 70 40 0 76 -4 81 -9 23 -20 150 -62 172 -56 13 3 47 23 76 45
28 22 64 46 79 52 14 7 29 21 31 33 33 134 69 238 87 255 4 3 14 29 23 58 9
30 25 64 36 78 18 22 18 28 5 72 -27 90 -34 102 -64 102 -16 0 -31 6 -33 13
-3 6 -6 2 -6 -10 -1 -19 -7 -23 -31 -23 -23 0 -30 -4 -30 -20 0 -11 -6 -38
-12 -60 -12 -38 -15 -40 -51 -40 l-39 0 6 -45 c3 -25 9 -65 12 -90 4 -30 2
-45 -5 -45 -6 0 -11 -13 -11 -30 0 -21 -5 -30 -16 -30 -27 0 -44 -27 -44 -68
0 -65 -6 -72 -61 -72 -27 0 -49 5 -49 10 0 6 -27 10 -60 10 -33 0 -60 4 -60
10 0 6 -16 10 -35 10 -25 0 -35 4 -35 15 0 9 -10 26 -23 39 -12 12 -31 41 -41
64 -11 23 -23 42 -28 42 -4 0 -8 7 -8 16 0 20 -24 44 -44 44 -9 0 -16 5 -16
10 0 6 -5 10 -11 10 -16 0 -39 26 -39 44 0 13 -12 16 -55 16 -30 0 -55 5 -55
10 0 6 -13 10 -30 10 -16 0 -30 -4 -30 -10 0 -6 -40 -10 -100 -10 -60 0 -100
4 -100 10 0 6 -18 10 -40 10 -22 0 -40 -4 -40 -10 0 -6 -42 -10 -105 -10 -63
0 -105 4 -105 10 0 6 -20 10 -45 10 -43 0 -45 1 -45 30 0 17 -5 30 -11 30 -6
0 -24 14 -39 30 -15 17 -35 30 -44 30 -9 0 -16 5 -16 10 0 6 -9 10 -20 10 -11
0 -20 5 -20 10 0 6 -7 10 -16 10 -9 0 -29 14 -44 30 -22 24 -36 30 -69 30 -34
0 -41 3 -41 20 0 17 -7 20 -50 20 -27 0 -50 5 -50 10 0 6 -22 10 -50 10 -27 0
-50 5 -50 10 0 6 -11 10 -25 10 -14 0 -25 5 -25 10 0 6 -72 10 -195 10 -123 0
-195 4 -195 10 0 6 -27 10 -60 10 -33 0 -60 -4 -60 -10 0 -6 -67 -10 -180 -10
-173 0 -180 1 -180 20 0 11 -7 20 -15 20 -8 0 -15 5 -15 10 0 6 -6 10 -13 10
-17 0 -37 42 -37 75 0 14 -4 25 -10 25 -6 0 -10 40 -10 100 0 82 3 100 15 100
8 0 15 9 15 20 0 11 4 20 9 20 5 0 13 9 16 20 3 11 12 20 20 20 15 0 25 22 25
56 0 13 5 24 10 24 6 0 4 10 -4 23 -19 28 -30 98 -22 132 4 15 26 48 50 73 24
26 51 65 60 86 10 23 50 72 95 115 68 66 80 83 90 128 7 28 19 60 26 70 27 34
18 78 -20 112 -20 17 -40 31 -45 31 -29 0 -104 100 -156 205 -61 127 -116 195
-203 255 -120 81 -191 197 -191 312 0 45 6 72 20 96 l20 32 -55 0 c-30 0 -55
5 -55 10 0 6 -11 10 -24 10 -17 0 -27 9 -36 30 -7 17 -19 30 -26 30 -8 0 -14
5 -14 10 0 6 -9 10 -20 10 -11 0 -20 5 -20 10 0 6 -9 10 -20 10 -13 0 -20 7
-20 20 0 18 -7 20 -60 20 -33 0 -60 4 -60 10 0 6 -32 10 -75 10 -68 0 -75 2
-75 20 0 19 -7 20 -235 20 -150 0 -235 4 -235 10 0 6 -16 10 -35 10 -19 0 -35
-4 -35 -10z"/>
<path d="M11874 13498 c-10 -6 -48 -27 -84 -48 -38 -23 -85 -42 -115 -46 -27
-4 -67 -18 -88 -31 -34 -21 -36 -26 -26 -46 7 -12 15 -24 20 -27 4 -3 15 -55
25 -115 23 -149 45 -173 107 -115 18 16 37 30 44 30 6 0 15 9 18 20 3 11 13
20 21 20 8 0 18 8 21 18 4 9 10 19 14 22 12 8 49 80 49 94 0 8 7 27 15 42 8
16 15 39 15 51 0 12 4 24 9 27 5 3 12 18 16 33 3 15 11 31 17 34 29 18 -46 53
-78 37z"/>
<path d="M690 13100 c0 -5 -13 -10 -29 -10 -22 0 -31 -6 -41 -30 -11 -26 -18
-30 -51 -30 -22 0 -39 -4 -39 -10 0 -5 -25 -10 -55 -10 -48 0 -55 -2 -55 -20
0 -11 -7 -20 -15 -20 -8 0 -15 -4 -15 -10 0 -5 -18 -10 -40 -10 -22 0 -40 -4
-40 -10 0 -5 -12 -10 -26 -10 -16 0 -37 -12 -54 -30 -15 -16 -34 -30 -42 -30
-8 0 -26 -24 -40 -54 -25 -50 -26 -60 -21 -150 3 -53 10 -96 15 -96 5 0 64 29
131 64 167 88 234 109 392 121 113 9 228 44 325 100 41 23 98 50 125 60 92 32
105 37 105 46 0 5 -7 9 -15 9 -8 0 -15 -4 -15 -10 0 -6 -43 -10 -110 -10 -67
0 -110 -4 -110 -10 0 -6 -45 -10 -115 -10 -70 0 -115 4 -115 10 0 6 -7 10 -15
10 -12 0 -15 16 -15 80 0 47 -4 80 -10 80 -5 0 -10 -4 -10 -10z"/>
<path d="M11942 12550 c-6 -14 -22 -37 -36 -52 -14 -15 -26 -30 -26 -33 0 -3
-13 -24 -30 -47 -32 -44 -38 -73 -17 -81 13 -5 46 -118 48 -162 0 -11 3 -14 6
-7 2 6 20 12 39 12 19 0 34 5 34 10 0 6 18 10 41 10 33 0 47 6 69 30 15 17 35
30 44 30 9 0 16 5 16 10 0 6 28 10 63 10 51 0 65 4 77 20 13 18 26 20 122 20
65 0 108 4 108 10 0 6 50 10 130 10 80 0 130 4 130 10 0 6 16 10 35 10 19 0
35 5 35 10 0 6 28 10 65 10 58 0 65 2 65 20 0 19 7 20 100 20 60 0 100 4 100
10 0 6 7 10 15 10 8 0 15 6 15 14 0 25 -12 46 -26 46 -8 0 -14 5 -14 10 0 6
-7 10 -15 10 -10 0 -15 -10 -15 -30 l0 -30 -70 0 c-40 0 -70 -4 -70 -10 0 -6
-27 -10 -60 -10 -33 0 -60 -4 -60 -10 0 -6 -37 -10 -90 -10 -53 0 -90 -4 -90
-10 0 -5 -13 -10 -30 -10 -16 0 -30 -4 -30 -10 0 -6 -80 -10 -220 -10 -140 0
-220 4 -220 10 0 6 -27 10 -61 10 -51 0 -65 4 -80 22 -11 11 -19 25 -19 30 0
4 -5 8 -11 8 -21 0 -43 33 -49 74 -6 40 -7 40 -18 16z"/>
<path d="M13640 12550 c0 -5 9 -10 20 -10 11 0 20 5 20 10 0 6 -9 10 -20 10
-11 0 -20 -4 -20 -10z"/>
<path d="M13423 12513 c15 -2 37 -2 50 0 12 2 0 4 -28 4 -27 0 -38 -2 -22 -4z"/>
<path d="M13325 12490 c-3 -5 1 -10 9 -10 9 0 16 5 16 10 0 6 -4 10 -9 10 -6
0 -13 -4 -16 -10z"/>
<path d="M13841 12209 c-1 -25 -5 -27 -66 -34 -36 -3 -65 -11 -65 -16 0 -5
-24 -9 -54 -9 -83 0 -112 -9 -127 -39 -22 -43 -52 -71 -79 -73 -14 -1 22 -5
80 -9 58 -4 129 -10 158 -14 51 -7 52 -8 52 -40 0 -32 1 -33 52 -37 39 -4 57
-12 74 -31 15 -18 34 -27 60 -29 36 -3 39 -6 42 -35 3 -30 6 -33 36 -33 34 0
86 -20 86 -32 0 -5 9 -8 20 -8 11 0 20 -4 20 -10 0 -5 7 -10 15 -10 8 0 30 -9
50 -20 20 -11 49 -20 65 -20 17 0 30 -4 30 -10 0 -5 18 -10 39 -10 31 0 41 -4
46 -20 8 -26 44 -60 63 -60 8 0 27 -13 42 -30 15 -16 33 -30 39 -30 6 0 11 -4
11 -10 0 -21 55 -9 83 18 28 26 32 27 137 26 95 -1 111 -3 135 -22 15 -12 33
-22 41 -22 7 0 14 -5 16 -10 2 -6 35 -15 73 -21 39 -6 87 -20 107 -30 21 -11
44 -19 51 -19 8 0 33 -18 56 -40 22 -22 45 -40 51 -40 5 0 29 -21 52 -46 23
-25 67 -63 99 -85 50 -35 92 -86 128 -156 6 -11 34 -38 63 -59 69 -50 72 -54
93 -94 31 -62 75 -100 75 -65 0 8 6 15 14 15 10 0 23 27 37 75 l23 75 43 0
c49 0 56 17 23 50 -11 11 -27 20 -35 20 -8 0 -15 7 -15 15 0 31 -72 85 -113
85 -12 0 -29 9 -37 20 -8 11 -22 20 -32 20 -9 0 -20 5 -23 10 -3 6 -15 10 -26
10 -14 0 -19 7 -19 30 0 18 -5 30 -13 30 -8 0 -22 9 -32 20 -10 11 -22 20 -28
20 -5 0 -22 14 -37 30 -17 18 -38 30 -53 30 -21 0 -26 6 -29 28 -2 19 -9 28
-25 30 -12 2 -26 15 -33 33 -10 22 -19 29 -41 29 -19 0 -30 6 -34 20 -4 14
-15 20 -36 20 -18 0 -29 5 -29 13 0 22 -34 47 -63 47 -15 0 -27 5 -27 10 0 6
-11 10 -25 10 -14 0 -25 4 -25 9 0 5 -20 12 -45 16 -30 4 -54 15 -70 33 -14
15 -33 35 -42 45 -9 9 -27 17 -40 17 -13 0 -23 5 -23 10 0 6 -22 10 -50 10
-27 0 -50 3 -50 8 0 15 -56 32 -107 32 -46 0 -53 3 -53 20 0 18 -7 20 -55 20
-30 0 -55 5 -55 10 0 6 -9 10 -20 10 -15 0 -22 9 -27 31 -7 37 -33 49 -109 49
-30 0 -54 5 -54 10 0 6 -9 10 -20 10 -11 0 -46 9 -77 20 -37 13 -83 20 -130
20 -39 0 -75 5 -78 10 -3 6 -17 10 -29 10 -17 0 -27 9 -36 30 -7 17 -20 30
-29 30 -16 0 -46 46 -54 85 -4 15 -5 14 -6 -6z"/>
<path d="M13365 12020 c-16 -7 -13 -9 18 -9 20 -1 37 4 37 9 0 12 -27 12 -55
0z"/>
<path d="M13270 11997 c-19 -6 -37 -14 -40 -18 -3 -4 -16 -9 -30 -10 -19 -3
-26 -11 -28 -31 -3 -25 0 -28 27 -28 17 0 31 5 31 10 0 6 12 10 28 10 57 0 72
10 72 46 0 37 -4 38 -60 21z"/>
<path d="M11868 11913 c-16 -2 -28 -9 -28 -14 0 -5 -14 -9 -31 -9 -24 0 -45
-12 -83 -47 -58 -54 -105 -123 -84 -123 18 0 216 76 233 90 7 6 32 16 56 23
42 12 65 37 35 37 -10 0 -16 9 -16 25 0 26 -11 29 -82 18z"/>
<path d="M21660 11062 c0 -19 28 -43 65 -58 25 -9 50 -24 54 -32 8 -14 11 -14
26 1 9 9 24 17 34 17 14 0 17 6 14 25 -3 13 -10 29 -17 34 -10 8 -176 21 -176
13z"/>
<path d="M3850 9560 c0 -6 -53 -10 -140 -10 -133 0 -140 -1 -140 -20 0 -18 -7
-20 -88 -20 -76 0 -89 -3 -102 -20 -8 -11 -20 -20 -27 -20 -7 0 -13 -4 -13
-10 0 -5 -11 -10 -25 -10 -14 0 -25 -4 -25 -10 0 -5 -9 -10 -20 -10 -11 0 -20
-4 -20 -10 0 -5 -13 -10 -29 -10 -22 0 -31 -6 -41 -30 -12 -29 -15 -30 -71
-30 -33 0 -59 -4 -59 -10 0 -5 -22 -10 -48 -10 -36 0 -51 -5 -62 -20 -11 -15
-26 -20 -62 -20 -26 0 -48 -4 -48 -10 0 -6 -57 -10 -150 -10 -93 0 -150 -4
-150 -10 0 -5 -9 -10 -20 -10 -11 0 -20 -4 -20 -10 0 -6 -33 -10 -80 -10 -73
0 -80 -2 -80 -20 0 -18 -7 -20 -80 -20 -47 0 -80 -4 -80 -10 0 -6 -93 -10
-260 -10 -253 0 -260 -1 -260 -20 0 -18 -7 -20 -60 -20 -33 0 -60 -4 -60 -10
0 -6 -27 -10 -60 -10 -33 0 -60 -4 -60 -10 0 -5 -18 -10 -40 -10 -22 0 -40 -4
-40 -10 0 -6 -77 -10 -210 -10 -203 0 -210 -1 -210 -20 0 -18 -7 -20 -85 -20
-78 0 -88 -2 -110 -25 -14 -13 -25 -27 -25 -30 0 -3 18 -5 39 -5 30 0 41 -5
46 -19 9 -28 40 -61 59 -61 9 0 16 -8 16 -20 0 -13 7 -20 20 -20 11 0 20 -4
20 -10 0 -5 18 -10 40 -10 22 0 40 -4 40 -10 0 -5 25 -10 55 -10 l55 0 0 -105
c0 -87 -3 -105 -15 -105 -13 0 -15 -22 -15 -135 0 -113 2 -135 15 -135 20 0
22 -132 2 -152 -22 -22 -37 -55 -37 -82 0 -24 -4 -26 -40 -26 -22 0 -40 -4
-40 -10 0 -5 -9 -10 -20 -10 -11 0 -20 -4 -20 -10 0 -5 -13 -10 -30 -10 -16 0
-30 -4 -30 -10 0 -6 -43 -10 -109 -10 l-109 0 -11 -27 c-6 -16 -15 -50 -20
-77 -5 -27 -13 -51 -18 -55 -17 -10 -33 -48 -33 -75 0 -24 -3 -26 -50 -26 -27
0 -50 -4 -50 -10 0 -6 -30 -10 -70 -10 l-70 0 0 -40 c0 -30 -4 -40 -16 -40
-20 0 -44 -24 -44 -44 0 -12 -10 -16 -39 -16 -31 0 -41 -4 -46 -20 -3 -11 -13
-20 -21 -20 -8 0 -14 -4 -14 -10 0 -5 -6 -10 -13 -10 -7 0 -19 -9 -27 -20 -10
-14 -26 -20 -52 -20 l-38 0 0 -565 0 -566 37 26 c21 14 43 25 49 25 18 0 24
101 24 381 l0 259 25 0 c22 0 25 4 25 40 0 41 26 80 54 80 20 0 46 147 46 263
0 90 1 97 20 97 11 0 20 5 20 10 0 6 37 10 90 10 53 0 90 -4 90 -10 0 -5 11
-10 25 -10 21 0 25 -5 25 -30 0 -28 3 -30 36 -30 42 0 64 -19 64 -54 0 -24 4
-26 40 -26 22 0 40 -4 40 -10 0 -5 9 -10 20 -10 12 0 20 -7 20 -16 0 -34 26
-44 114 -44 51 0 86 4 86 10 0 6 27 10 60 10 53 0 60 2 60 20 0 19 7 20 114
20 68 0 116 4 118 10 2 6 30 15 63 21 51 9 63 15 77 40 9 16 24 29 33 29 21 0
45 24 45 44 0 12 11 16 49 16 27 0 51 4 53 10 2 5 38 15 81 22 42 7 77 16 77
20 0 5 16 8 35 8 19 0 35 5 35 10 0 6 18 10 40 10 22 0 40 5 40 10 0 6 11 10
25 10 18 0 25 5 25 20 0 11 4 20 9 20 5 0 13 9 16 20 5 16 15 20 56 20 27 0
49 5 49 10 0 6 7 10 15 10 8 0 15 5 15 10 0 6 8 10 18 10 10 0 24 9 32 20 8
11 20 20 28 20 18 0 42 25 42 44 0 9 8 16 19 16 14 0 3 16 -43 61 -64 62 -135
109 -165 109 -33 1 -136 41 -159 62 -13 13 -33 38 -45 58 -36 59 -38 60 -150
60 -102 0 -106 1 -136 29 -30 29 -31 31 -31 123 1 142 22 159 204 166 112 4
135 1 230 -28 18 -6 36 -5 49 2 11 5 90 15 176 20 132 8 167 7 226 -7 129 -30
121 -30 164 4 29 23 53 59 91 136 56 115 122 195 180 218 19 8 66 20 103 27
56 10 76 19 110 51 42 39 134 89 163 89 8 0 29 8 47 17 26 14 61 17 187 17
102 1 167 -3 191 -12 20 -7 65 -38 100 -68 l64 -56 65 5 c69 5 178 45 212 77
l21 19 -57 58 c-36 36 -71 86 -94 133 -36 74 -37 77 -40 213 l-4 137 -44 0
c-24 0 -44 -4 -44 -10z"/>
<path d="M5510 9519 c-19 -6 -57 -17 -84 -25 -76 -22 -258 -19 -323 6 -48 18
-68 19 -200 14 l-148 -7 3 -80 c5 -119 -12 -227 -44 -274 l-26 -38 28 -3 c16
-2 30 1 32 7 2 6 24 11 48 11 24 0 44 5 44 10 0 6 35 10 85 10 50 0 85 4 85
10 0 6 33 10 80 10 47 0 80 -4 80 -10 0 -6 43 -10 109 -10 101 0 110 2 116 20
5 16 15 20 46 20 21 0 39 5 39 10 0 6 16 10 35 10 19 0 35 5 35 10 0 6 18 10
40 10 22 0 40 5 40 10 0 6 73 10 200 10 193 0 200 1 200 20 0 19 7 20 214 20
l214 0 5 29 c3 16 9 39 12 52 l6 24 -143 -3 c-79 -2 -198 -5 -265 -8 l-122 -6
-68 38 c-37 20 -75 43 -83 49 -27 22 -143 57 -200 61 -30 2 -71 -1 -90 -7z"/>
<path d="M17522 9230 l-32 -30 -125 0 c-69 0 -125 -3 -125 -7 0 -22 -62 -33
-176 -33 -93 0 -123 -3 -127 -13 -3 -8 -26 -20 -52 -27 -28 -8 -61 -27 -81
-47 -18 -18 -37 -33 -41 -33 -5 0 -14 -9 -21 -20 -7 -11 -21 -20 -33 -20 -25
0 -60 -31 -41 -38 7 -2 12 -22 12 -51 0 -40 4 -50 25 -61 13 -7 27 -21 31 -32
4 -15 16 -18 75 -18 56 0 69 -3 69 -16 0 -20 24 -44 44 -44 9 0 16 -4 16 -10
0 -6 44 -10 112 -10 116 0 268 -18 268 -32 0 -4 18 -8 39 -8 31 0 41 -4 46
-20 5 -15 15 -20 41 -20 33 0 34 -1 34 -40 0 -33 3 -40 20 -40 11 0 20 -4 20
-10 0 -5 7 -10 15 -10 19 0 55 -31 55 -47 0 -10 26 -13 104 -13 60 0 106 -4
108 -10 3 -11 107 -40 143 -40 16 0 25 -6 25 -15 0 -12 15 -15 75 -15 41 0 75
-4 75 -9 0 -5 16 -12 36 -16 20 -3 47 -17 61 -31 13 -13 33 -24 43 -24 15 0
20 -7 20 -27 0 -19 11 -37 35 -58 24 -20 35 -38 35 -57 0 -40 20 -78 42 -78
10 0 18 4 18 9 0 5 12 23 26 40 25 30 28 31 114 31 60 0 91 -4 97 -12 4 -7 10
-59 13 -116 5 -95 8 -104 33 -128 15 -14 38 -47 52 -74 20 -39 35 -54 72 -72
36 -18 58 -38 91 -88 24 -36 62 -77 83 -93 l39 -27 55 31 c30 17 55 34 55 38
0 4 -14 18 -31 30 l-31 23 4 99 c4 114 17 139 89 176 38 20 41 24 23 29 -11 3
-29 20 -39 37 -10 18 -31 47 -48 66 -28 33 -29 35 -25 133 3 97 4 101 33 124
24 19 42 24 90 24 l60 1 -23 19 c-13 11 -41 25 -62 31 -47 14 -81 43 -106 89
-15 28 -19 57 -19 140 0 94 2 108 23 138 21 29 22 33 8 48 -9 8 -16 20 -16 25
0 5 -16 9 -35 9 -33 0 -35 2 -35 35 0 42 -42 95 -75 95 -11 0 -25 4 -30 9 -6
6 -30 11 -55 13 -38 3 -45 6 -48 26 -3 23 -6 23 -70 18 -184 -15 -355 -18
-362 -6 -11 17 -76 41 -127 47 -46 5 -103 -14 -103 -34 0 -9 -20 -13 -65 -13
l-65 0 0 30 0 30 -65 0 c-58 0 -65 2 -65 20 0 11 -7 20 -15 20 -9 0 -18 7 -21
15 -4 8 -15 15 -25 15 -14 0 -21 9 -25 30 l-6 30 -113 0 c-111 0 -112 0 -143
-30z"/>
<path d="M12760 9130 c0 -5 -9 -10 -20 -10 -11 0 -20 -7 -20 -15 0 -17 -43
-65 -58 -65 -6 0 -13 -7 -16 -16 -8 -22 -8 -24 7 -24 7 0 47 -33 89 -73 94
-90 158 -124 261 -137 46 -6 107 -22 150 -41 40 -17 106 -45 147 -63 43 -18
106 -57 145 -89 43 -35 89 -63 119 -72 83 -25 86 -24 86 44 0 32 -7 78 -15
101 -8 23 -15 54 -15 67 0 29 -45 109 -65 117 -8 3 -19 23 -25 45 -10 39 -13
41 -50 41 -33 0 -40 3 -40 20 0 16 -7 20 -35 20 -19 0 -35 5 -35 10 0 6 -11
10 -25 10 -14 0 -25 5 -25 10 0 6 -32 10 -75 10 -43 0 -75 4 -75 10 0 6 -20
10 -45 10 -38 0 -45 3 -45 20 0 18 -7 20 -60 20 -33 0 -60 4 -60 10 0 6 -9 10
-20 10 -11 0 -20 5 -20 10 0 6 -16 10 -35 10 -19 0 -35 5 -35 10 0 6 -20 10
-45 10 -25 0 -45 -4 -45 -10z"/>
<path d="M10577 8949 c-12 -102 -40 -163 -107 -232 -44 -45 -50 -49 -108 -54
l-62 -6 0 -41 c0 -43 -24 -86 -70 -126 -19 -17 -38 -20 -114 -20 -104 0 -129
11 -152 66 -20 48 -17 185 6 304 24 122 25 140 5 140 -8 0 -15 -4 -15 -10 0
-5 -18 -10 -40 -10 -22 0 -40 -4 -40 -10 0 -5 -18 -10 -40 -10 -22 0 -40 -4
-40 -10 0 -6 -50 -10 -130 -10 -80 0 -130 4 -130 10 0 6 -22 10 -50 10 -27 0
-50 5 -50 10 0 6 -43 10 -110 10 -67 0 -110 -4 -110 -10 0 -6 -33 -10 -80 -10
-72 0 -80 -2 -80 -19 0 -29 -54 -81 -84 -81 -14 0 -26 -4 -26 -8 0 -20 -39
-52 -64 -52 -22 0 -26 -4 -26 -30 0 -16 -4 -30 -10 -30 -5 0 -10 -9 -10 -20 0
-11 5 -20 10 -20 6 0 10 -13 10 -29 0 -23 6 -31 33 -42 17 -7 37 -18 43 -24 6
-5 23 -19 37 -30 15 -11 27 -25 27 -32 0 -7 15 -23 33 -36 27 -21 48 -26 136
-32 59 -4 118 -14 137 -22 31 -15 33 -20 39 -82 5 -50 19 -91 56 -167 27 -56
49 -110 49 -120 0 -22 56 -141 68 -146 5 -2 15 -15 23 -29 8 -15 25 -46 38
-70 20 -36 26 -62 29 -142 7 -156 -11 -177 -149 -177 -63 0 -87 4 -107 19 -15
10 -37 22 -49 25 -22 7 -23 5 -23 -67 0 -117 -11 -197 -26 -197 -8 0 -14 -4
-14 -10 0 -5 -9 -10 -19 -10 -21 0 -31 -19 -31 -60 0 -16 -7 -30 -15 -34 -13
-5 -15 -44 -15 -266 0 -167 -4 -260 -10 -260 -5 0 -10 -12 -10 -26 0 -14 -7
-32 -15 -40 -8 -9 -18 -27 -21 -42 -3 -15 -7 -37 -10 -49 -2 -13 -9 -23 -15
-23 -14 0 -32 -20 -46 -52 -11 -24 -19 -28 -53 -28 -35 0 -40 -3 -46 -27 -4
-16 -15 -39 -26 -52 -10 -13 -18 -31 -18 -41 0 -9 -11 -38 -25 -64 -14 -26
-25 -58 -25 -72 0 -17 -6 -24 -19 -24 -19 0 -31 -19 -31 -48 0 -9 14 -24 32
-32 21 -10 35 -27 44 -55 15 -44 19 -201 5 -209 -4 -3 -11 -23 -15 -44 -3 -22
-13 -45 -21 -52 -8 -7 -15 -19 -15 -26 0 -8 -4 -14 -10 -14 -5 0 -10 -9 -10
-20 0 -11 -4 -20 -9 -20 -14 0 -29 -84 -35 -187 -4 -77 -2 -93 10 -93 8 0 14
-3 14 -8 0 -4 14 -23 31 -41 36 -40 49 -70 49 -117 0 -38 14 -44 32 -14 8 12
24 20 40 20 41 0 114 65 125 110 3 14 19 38 35 55 17 16 43 52 59 80 27 47 29
57 29 158 0 75 4 117 14 135 45 84 54 119 58 222 5 110 17 148 58 185 19 18
36 20 137 20 110 0 116 -1 135 -25 11 -14 29 -36 41 -50 20 -23 22 -36 21
-140 -1 -98 -4 -121 -22 -155 -12 -21 -22 -47 -22 -57 0 -10 -4 -18 -10 -18
-6 0 -10 -35 -10 -86 0 -115 -26 -272 -56 -340 -13 -30 -24 -61 -24 -70 0 -8
-11 -27 -25 -42 -14 -15 -33 -44 -42 -64 -9 -21 -22 -38 -29 -38 -6 0 -21 -12
-33 -27 -28 -37 -91 -143 -91 -154 0 -11 -104 -118 -129 -134 -64 -39 -81 -56
-122 -119 -38 -59 -69 -123 -69 -144 0 -2 11 -1 26 2 34 9 100 58 141 105 45
53 86 77 158 91 91 18 126 37 174 94 51 60 73 110 113 261 31 118 62 181 104
214 22 17 41 21 108 21 51 0 87 -5 94 -12 7 -7 12 -43 12 -90 0 -78 0 -79 -40
-122 -22 -24 -40 -47 -40 -51 0 -4 21 -4 48 -1 26 4 90 9 143 12 80 5 102 3
130 -11 46 -24 49 -30 49 -103 l0 -62 -50 -36 c-47 -33 -56 -54 -26 -54 27 0
46 -36 46 -89 0 -42 5 -57 25 -76 26 -27 66 -33 82 -12 6 6 18 46 28 87 36
156 65 229 103 258 29 23 164 154 229 223 10 11 47 41 83 67 76 55 134 136
175 242 15 39 38 84 52 100 23 28 29 30 96 30 56 0 78 5 97 20 19 15 41 20 91
20 78 0 79 -1 79 -94 0 -60 -2 -65 -54 -134 -31 -41 -62 -96 -75 -132 -11 -34
-36 -86 -55 -115 -32 -48 -149 -154 -236 -215 -73 -51 -110 -108 -121 -187 -4
-29 -17 -66 -28 -82 -12 -16 -28 -56 -36 -88 -15 -57 -14 -64 6 -129 61 -201
184 -320 363 -353 90 -16 134 -14 242 15 55 15 122 30 149 34 110 16 319 73
388 105 150 70 327 180 352 219 22 34 161 149 255 213 72 49 140 122 140 150
0 27 -46 37 -103 24 -63 -15 -245 -26 -281 -17 -35 9 -71 50 -86 100 -29 99
-96 154 -166 134 -19 -5 -97 -10 -173 -11 -128 -2 -142 0 -168 19 -23 17 -29
30 -31 71 -4 64 10 98 50 124 29 18 44 20 118 15 47 -3 94 -8 105 -11 14 -4
34 4 64 27 24 18 64 48 90 67 l46 33 98 -6 97 -6 45 41 c24 22 54 62 66 87 33
70 77 121 135 158 43 28 63 34 106 34 51 0 80 12 117 48 9 8 34 12 75 10 l61
-3 3 -65 c2 -47 -3 -80 -18 -124 -18 -47 -20 -63 -11 -83 16 -34 14 -168 -2
-181 -7 -6 -35 -16 -62 -22 -76 -16 -101 -29 -114 -57 -10 -22 -8 -28 23 -59
19 -19 41 -34 50 -34 29 0 77 -37 105 -82 39 -61 119 -101 213 -106 70 -4 146
14 309 74 54 20 82 24 145 22 l79 -3 0 -84 0 -84 -36 -19 c-19 -10 -73 -23
-120 -28 -87 -11 -132 -22 -186 -47 -26 -12 -33 -23 -43 -66 -7 -29 -20 -63
-29 -77 -33 -47 -33 -49 1 -66 25 -13 43 -15 87 -8 31 4 104 8 162 8 134 1
139 -2 139 -95 0 -66 -1 -69 -31 -84 -24 -13 -54 -15 -147 -12 -97 3 -140 10
-252 42 -171 47 -188 50 -252 35 -96 -24 -179 -84 -308 -226 -63 -69 -119
-109 -170 -119 -57 -12 -88 -32 -160 -106 -51 -51 -75 -69 -95 -69 -41 0 -87
-26 -113 -64 -18 -26 -33 -36 -62 -41 -21 -4 -47 -14 -58 -23 -16 -15 -17 -21
-6 -48 12 -29 69 -87 127 -129 15 -11 35 -40 44 -65 9 -25 25 -55 36 -67 27
-31 139 -103 159 -103 34 0 48 -29 48 -96 0 -53 -6 -75 -35 -131 -47 -92 -49
-93 -106 -93 -40 0 -60 6 -92 29 -23 16 -58 32 -79 35 -50 9 -97 60 -164 176
-101 177 -104 178 -320 190 -221 11 -230 14 -484 178 -85 56 -315 170 -365
183 -45 11 -60 25 -158 143 -57 69 -76 75 -231 80 l-135 5 -36 -44 c-20 -25
-55 -53 -78 -63 -36 -16 -49 -31 -89 -104 -49 -89 -103 -149 -178 -196 -25
-16 -62 -47 -83 -68 l-39 -39 41 -3 c29 -2 41 -8 41 -18 0 -26 27 -44 64 -44
20 0 36 -4 36 -10 0 -5 13 -10 28 -10 16 0 34 -8 42 -20 10 -14 26 -20 52 -20
21 0 38 -4 38 -10 0 -5 18 -10 40 -10 22 0 40 -4 40 -10 0 -6 30 -10 70 -10
40 0 70 4 70 10 0 6 30 10 70 10 40 0 70 -4 70 -10 0 -5 15 -10 34 -10 26 0
36 5 41 20 6 18 15 20 103 20 86 0 99 -2 112 -20 8 -11 20 -20 27 -20 7 0 15
-12 18 -27 3 -16 10 -42 15 -59 6 -17 10 -72 10 -122 0 -73 -3 -92 -14 -92 -8
0 -18 -9 -21 -20 -5 -17 -15 -20 -66 -20 -57 0 -59 -1 -59 -26 0 -40 -22 -54
-84 -54 -31 0 -56 -4 -56 -10 0 -5 -9 -10 -20 -10 -11 0 -20 -4 -20 -10 0 -5
-13 -10 -30 -10 -16 0 -30 -4 -30 -10 0 -5 -13 -10 -30 -10 -16 0 -30 -4 -30
-10 0 -5 -9 -10 -20 -10 -11 0 -20 -4 -20 -10 0 -5 -13 -10 -30 -10 -16 0 -30
-4 -30 -10 0 -6 -29 -10 -68 -10 -56 0 -70 -3 -82 -20 -8 -11 -22 -20 -32 -20
-10 0 -18 -4 -18 -10 0 -5 -7 -10 -15 -10 -8 0 -15 -4 -15 -10 0 -5 -7 -10
-15 -10 -8 0 -15 -4 -15 -10 0 -5 -7 -10 -15 -10 -8 0 -15 -4 -15 -10 0 -5 -7
-10 -15 -10 -8 0 -15 -4 -15 -10 0 -5 -7 -10 -16 -10 -20 0 -44 -24 -44 -44 0
-10 -9 -16 -24 -16 -16 0 -27 -7 -31 -20 -3 -11 -15 -20 -26 -20 -12 0 -19 -7
-19 -20 0 -16 -7 -20 -30 -20 -16 0 -30 -4 -30 -10 0 -5 -12 -10 -26 -10 -16
0 -37 -12 -54 -30 -23 -25 -36 -30 -74 -30 -25 0 -46 -4 -46 -10 0 -6 -30 -10
-70 -10 -40 0 -70 -4 -70 -10 0 -5 -9 -10 -20 -10 -11 0 -20 -4 -20 -10 0 -5
-9 -10 -20 -10 -11 0 -20 -4 -20 -10 0 -5 -7 -10 -16 -10 -19 0 -50 -33 -59
-61 -4 -11 -16 -19 -28 -19 -13 0 -29 -9 -37 -20 -9 -13 -26 -20 -47 -20 -18
0 -33 -4 -33 -10 0 -6 -37 -10 -90 -10 -53 0 -90 -4 -90 -10 0 -6 -33 -10 -80
-10 -47 0 -80 -4 -80 -10 0 -5 -9 -10 -20 -10 -11 0 -20 -4 -20 -10 0 -5 -9
-10 -20 -10 -13 0 -20 -7 -20 -20 0 -17 -7 -20 -50 -20 -27 0 -50 -4 -50 -10
0 -5 -22 -10 -48 -10 -36 0 -51 -5 -62 -20 -10 -14 -26 -20 -52 -20 l-38 0 0
-43 c0 -49 22 -77 58 -77 23 0 62 -32 62 -52 0 -6 7 -4 18 5 10 10 26 17 35
17 9 0 17 4 17 9 0 4 11 20 25 35 14 15 25 34 25 42 0 31 61 54 146 54 75 0
82 -2 103 -26 22 -26 23 -33 18 -133 -3 -69 -11 -122 -24 -152 -22 -56 -90
-130 -166 -182 -31 -22 -73 -59 -94 -84 -21 -25 -46 -52 -55 -61 -23 -21 -24
-82 -3 -82 8 0 15 -4 15 -10 0 -5 7 -10 15 -10 8 0 15 -5 15 -11 0 -7 14 -26
32 -43 28 -27 40 -30 90 -31 49 0 60 4 73 23 9 12 22 22 29 22 8 0 21 11 30
25 28 43 76 83 106 90 19 4 32 16 41 37 7 17 25 44 41 60 l27 28 156 0 c97 0
155 4 155 10 0 6 7 10 15 10 8 0 37 13 65 30 28 16 53 30 56 30 14 0 94 74 94
86 0 8 3 14 8 14 14 0 32 81 38 173 8 133 41 227 80 227 7 0 14 4 16 8 2 5 29
23 61 40 52 29 67 32 142 32 111 0 119 -10 111 -137 -3 -48 -9 -158 -14 -243
-8 -147 -23 -220 -52 -255 -5 -7 -26 -42 -45 -79 -36 -70 -81 -136 -102 -149
-30 -19 -46 -174 -20 -195 9 -8 20 -7 40 3 33 17 147 129 147 144 0 6 5 11 11
11 6 0 24 14 39 30 15 17 31 30 35 30 13 0 75 55 75 67 0 7 10 18 23 24 22 12
89 63 116 87 18 17 53 30 115 44 30 6 61 21 77 37 24 25 79 117 79 133 0 5 16
42 35 84 19 41 35 80 35 86 0 5 9 21 20 35 11 14 20 37 20 52 1 14 8 44 16 66
15 38 39 153 63 294 23 140 73 190 186 190 79 -1 129 -19 133 -48 2 -13 11
-25 20 -28 10 -2 26 -22 36 -43 16 -33 22 -38 34 -28 9 8 56 14 116 16 l102 4
27 -39 c25 -36 27 -47 27 -134 0 -76 -4 -100 -20 -127 -11 -18 -20 -40 -20
-50 0 -10 -10 -24 -21 -32 -12 -8 -44 -62 -72 -120 -28 -58 -54 -106 -59 -108
-4 -2 -8 -10 -8 -18 0 -8 -3 -14 -8 -14 -7 0 -17 -15 -41 -66 -69 -147 -70
-154 -46 -174 13 -10 18 -9 33 6 20 22 97 64 117 64 8 0 22 14 32 30 9 17 21
30 25 30 4 0 13 19 19 42 26 92 35 116 59 146 14 18 29 32 33 32 5 0 20 9 34
20 14 11 36 20 49 20 13 0 39 10 57 23 49 33 127 114 127 132 0 8 4 15 9 15 5
0 12 11 15 25 4 14 11 25 16 25 5 0 21 23 35 50 l25 50 -88 0 c-102 0 -135 16
-147 73 -4 17 -16 44 -27 60 -18 25 -24 27 -92 27 -65 0 -75 3 -94 25 -12 13
-24 35 -28 49 -5 21 -13 24 -61 28 -32 3 -59 11 -64 19 -5 8 -8 57 -7 109 3
89 5 98 30 123 26 26 32 27 125 27 73 0 112 5 153 20 41 15 80 20 152 20 54 0
100 -4 103 -10 3 -6 26 -10 50 -10 24 0 47 -4 50 -10 3 -5 15 -10 26 -10 10 0
19 -4 19 -10 0 -5 6 -10 13 -10 8 0 22 -9 32 -20 10 -11 24 -20 31 -20 7 0 28
-21 46 -47 17 -27 38 -54 44 -60 16 -17 34 -16 34 0 0 8 11 24 25 37 13 12 39
46 56 74 46 73 114 105 252 120 109 12 513 13 587 2 107 -16 110 -17 110 -34
0 -10 9 -25 20 -35 11 -9 20 -23 20 -31 0 -26 59 -66 98 -66 52 0 98 -30 106
-70 9 -50 7 -140 -4 -140 -5 0 -10 -6 -10 -12 0 -7 -12 -21 -26 -32 -23 -16
-40 -18 -139 -14 -68 2 -119 9 -128 16 -11 9 -22 10 -42 2 -16 -6 -74 -10
-129 -9 -89 2 -106 0 -141 -21 -22 -12 -42 -25 -45 -29 -3 -3 -17 -12 -32 -20
-14 -7 -29 -24 -33 -38 -3 -13 -13 -27 -22 -30 -25 -10 -45 -33 -77 -88 -16
-28 -35 -54 -43 -58 -7 -4 -13 -18 -13 -30 0 -12 -11 -31 -25 -41 -13 -10 -32
-38 -41 -62 -9 -24 -22 -44 -28 -44 -17 0 -66 -94 -66 -125 0 -38 -41 -109
-90 -155 -23 -22 -46 -40 -50 -40 -5 0 -10 -4 -12 -8 -1 -5 -25 -23 -51 -41
-26 -18 -66 -50 -89 -72 -23 -21 -46 -39 -52 -39 -12 0 -69 -60 -63 -66 1 -2
25 8 52 21 28 13 58 25 68 25 9 0 17 3 17 8 0 4 19 16 41 27 23 10 44 25 46
32 3 7 11 13 17 13 7 0 30 13 52 30 21 16 44 30 49 30 12 0 98 42 105 51 11
15 90 29 163 29 71 0 77 2 77 21 0 24 22 49 44 49 9 0 16 8 16 20 0 11 4 20 9
20 5 0 14 14 21 30 7 17 17 30 22 30 16 0 38 28 38 48 0 36 12 52 36 52 13 0
24 4 24 8 0 5 8 19 19 30 17 20 28 22 150 22 81 0 131 -4 131 -10 0 -5 16 -10
35 -10 19 0 35 5 35 10 0 6 12 10 26 10 29 0 54 21 54 44 0 9 8 16 20 16 11 0
20 5 20 10 0 6 20 10 45 10 38 0 45 3 45 20 0 15 7 20 25 20 14 0 25 5 25 10
0 6 20 10 44 10 25 0 47 4 50 9 11 18 140 72 233 97 54 14 121 32 148 40 28 8
73 14 100 14 81 0 95 7 95 46 0 24 5 34 15 34 9 0 15 9 15 24 0 37 -10 56 -31
56 -10 0 -19 5 -19 10 0 6 -49 10 -127 10 -121 0 -233 16 -233 32 0 5 -24 8
-54 8 -30 0 -58 5 -61 10 -3 6 -17 10 -31 10 -17 0 -24 5 -24 20 0 17 -7 20
-50 20 -48 0 -51 1 -56 30 -4 17 -11 30 -17 30 -18 0 -47 43 -47 72 0 24 -4
28 -30 28 l-30 0 -2 93 c-3 108 -7 310 -9 452 -1 55 4 138 10 184 10 72 16 88
42 112 16 15 29 32 29 39 0 16 26 40 44 40 9 0 16 5 16 10 0 6 22 10 49 10 27
0 65 7 84 15 20 8 59 15 87 15 36 0 52 4 56 15 4 8 19 15 34 15 16 0 32 5 35
10 4 6 58 10 129 10 68 0 126 4 132 10 16 16 391 17 438 1 33 -11 40 -11 53 2
12 11 12 19 4 35 -17 32 -14 124 6 152 9 13 22 51 29 84 7 34 15 70 19 82 10
32 -32 74 -89 88 -42 11 -54 10 -104 -8 -46 -16 -89 -21 -227 -24 -177 -4
-229 4 -275 38 -23 17 -25 26 -28 117 -4 97 -3 99 24 127 48 47 97 64 244 86
93 14 161 33 201 57 30 17 99 103 99 123 0 5 22 31 48 57 47 47 97 75 155 88
44 9 100 67 121 124 10 28 28 63 39 78 17 21 24 48 30 113 10 117 7 301 -5
325 -37 71 -84 87 -255 86 -106 -1 -127 2 -155 19 -57 35 -129 27 -260 -26
-173 -71 -311 -73 -348 -5 -16 30 -13 163 4 187 8 12 39 37 69 58 29 20 70 59
91 87 41 56 57 64 141 74 51 7 64 13 104 52 25 25 67 55 92 68 25 13 65 47 89
74 33 40 48 51 71 51 61 0 124 54 160 138 10 24 38 61 63 83 27 24 50 58 61
87 10 26 34 67 55 92 52 63 60 82 53 123 -5 32 -9 36 -43 42 -41 7 -86 49
-112 105 -9 19 -28 44 -42 54 -15 10 -26 25 -26 32 0 8 -4 14 -10 14 -5 0 -10
5 -10 11 0 6 -10 24 -22 39 -13 15 -29 37 -37 48 -24 34 -46 33 -77 -5 -52
-62 -65 -70 -116 -77 -28 -4 -78 -22 -113 -42 -56 -30 -71 -34 -137 -34 -40 0
-102 7 -138 16 -127 30 -208 38 -224 22 -20 -20 -60 -103 -81 -168 -24 -75
-48 -106 -112 -147 -66 -42 -139 -115 -173 -173 -57 -96 -108 -133 -254 -185
-28 -10 -70 -37 -94 -59 l-45 -41 -95 -4 c-71 -2 -97 0 -103 10 -5 8 -9 44 -9
80 0 75 3 80 88 149 55 44 82 84 82 120 0 29 32 88 69 128 42 45 40 72 -9 116
-22 20 -45 36 -51 36 -7 0 -28 -10 -48 -22 -29 -19 -52 -23 -120 -25 -82 -1
-85 -2 -150 -47 -102 -69 -136 -79 -281 -80 -176 -1 -188 10 -220 201 -21 126
-62 180 -180 235 -66 31 -179 58 -214 51 -17 -3 -70 -23 -117 -44 -48 -20
-122 -48 -165 -62 -155 -47 -363 -233 -512 -457 -77 -116 -134 -239 -147 -318
-5 -34 -20 -57 -66 -107 -48 -51 -159 -219 -159 -241 0 -11 -65 -101 -99 -137
-57 -61 -218 -146 -299 -159 -64 -10 -217 -6 -229 6 -3 3 -8 38 -11 78 l-4 73
52 65 c29 36 61 83 71 104 17 39 17 41 -2 68 -20 27 -24 28 -105 28 -116 0
-124 5 -124 83 1 82 24 131 97 204 57 58 75 72 163 135 53 38 45 31 153 136
63 62 102 111 146 186 95 160 113 207 122 316 13 152 -21 290 -86 350 -61 55
-75 172 -30 245 13 22 25 46 25 53 0 8 17 41 37 74 33 54 45 64 108 94 39 18
93 55 122 83 65 62 92 76 181 95 39 8 99 27 134 43 61 27 208 111 218 124 15
18 254 131 305 144 80 19 244 35 365 35 86 0 103 3 146 26 45 24 56 26 135 21
61 -3 93 0 110 9 16 9 61 13 131 14 104 0 108 1 124 26 15 22 16 32 6 75 -16
70 -15 188 3 238 12 36 12 41 0 41 -8 0 -15 -4 -15 -10 0 -5 -22 -10 -50 -10
-43 0 -50 -3 -50 -20 0 -20 -7 -20 -280 -20 -273 0 -280 0 -280 20 0 19 -7 20
-115 20 -70 0 -115 4 -115 10 0 6 -11 10 -25 10 -14 0 -25 5 -25 10 0 6 -25
10 -55 10 -30 0 -55 5 -55 10 0 6 -25 10 -55 10 -30 0 -55 -4 -55 -10 0 -5
-22 -10 -50 -10 -27 0 -50 -4 -50 -10 0 -5 -22 -10 -50 -10 -27 0 -50 -4 -50
-10 0 -6 -37 -10 -90 -10 -53 0 -90 4 -90 10 0 6 -27 10 -60 10 -33 0 -60 4
-60 10 0 6 -13 10 -30 10 -16 0 -30 5 -30 10 0 6 -27 10 -60 10 -33 0 -60 4
-60 10 0 6 -8 10 -19 10 -15 0 -19 -10 -24 -51z"/>
<path d="M26359 8888 c6 -7 22 -28 37 -45 l26 -33 104 0 104 0 0 -54 c0 -61 6
-66 93 -66 26 0 47 -4 47 -10 0 -5 9 -10 19 -10 11 0 23 -4 26 -10 3 -5 29
-10 56 -10 36 0 56 -6 71 -20 17 -16 36 -20 85 -20 35 0 63 -4 63 -8 0 -11 82
-32 124 -32 25 0 35 -5 39 -20 3 -14 14 -20 31 -20 21 0 26 -5 26 -25 0 -50
29 -63 149 -71 61 -4 111 -11 111 -15 0 -5 14 -9 30 -9 17 0 30 -4 30 -10 0
-5 11 -10 25 -10 74 0 -39 160 -148 210 -30 15 -69 46 -105 87 -65 74 -139
119 -232 140 -39 9 -162 18 -305 24 -232 8 -326 17 -410 38 -59 15 -108 14
-96 -1z"/>
<path d="M14304 8610 c-5 -5 -46 -10 -91 -12 l-81 -3 25 -61 c23 -59 26 -62
71 -74 26 -7 52 -13 59 -15 33 -10 65 87 49 149 -7 27 -16 32 -32 16z"/>
<path d="M4685 8323 c0 -131 -3 -154 -23 -205 -13 -31 -36 -71 -52 -88 -27
-29 -31 -30 -114 -30 -81 0 -89 2 -111 26 -14 15 -25 31 -25 37 0 6 -11 25
-26 44 -21 28 -31 33 -65 33 -36 0 -39 -2 -25 -15 8 -8 23 -15 34 -15 23 0 32
-18 32 -66 0 -31 3 -34 30 -34 l30 0 0 -130 c0 -71 -4 -130 -8 -130 -9 0 -42
-107 -42 -138 0 -12 -5 -22 -11 -22 -15 0 -39 -26 -39 -43 0 -18 -34 -57 -49
-57 -7 0 -11 -19 -11 -50 0 -42 -3 -50 -18 -50 -21 0 -52 -57 -52 -95 0 -14
-4 -25 -9 -25 -5 0 -11 -13 -14 -30 -5 -21 -12 -30 -27 -30 -17 0 -20 -6 -20
-50 l0 -50 -76 0 c-99 0 -104 -5 -104 -114 0 -85 0 -86 -25 -86 -14 0 -25 -4
-25 -8 0 -13 -36 -52 -47 -52 -6 0 -16 -14 -23 -30 -7 -17 -25 -44 -40 -60
-23 -25 -36 -30 -74 -30 -25 0 -46 -4 -46 -10 0 -5 -9 -10 -20 -10 -11 0 -20
-4 -20 -10 0 -5 -9 -10 -20 -10 -18 0 -20 -7 -20 -57 l0 -58 155 -1 c143 -2
155 -1 160 17 4 10 10 19 14 19 5 0 23 14 41 31 33 32 34 32 178 41 141 9 146
10 171 37 36 39 127 64 211 59 76 -4 114 -26 131 -76 6 -18 14 -30 19 -27 4 3
18 50 30 105 13 55 26 100 30 100 4 0 13 20 19 44 14 58 58 123 90 134 29 11
63 41 101 90 14 17 30 32 35 32 6 0 21 9 35 20 14 11 32 20 40 20 8 0 33 17
55 38 23 20 64 48 92 62 48 23 52 28 63 78 14 64 54 108 157 171 40 25 75 51
78 59 8 21 -36 53 -65 48 -174 -29 -268 -64 -333 -125 -25 -22 -39 -26 -107
-29 -60 -3 -87 0 -112 13 -24 13 -54 17 -109 16 -87 -2 -113 6 -153 45 -28 28
-28 30 -24 124 4 82 9 103 35 155 17 33 49 77 70 97 21 21 67 66 103 100 69
66 90 103 140 240 44 120 45 118 -50 118 -73 0 -80 2 -80 20 0 16 -7 20 -32
20 l-33 0 0 -147z"/>
<path d="M2705 8039 c-22 -11 -65 -71 -65 -91 0 -7 23 11 50 40 61 65 64 75
15 51z"/>
<path d="M15036 7972 c-4 -3 -40 -9 -81 -13 -63 -5 -81 -11 -127 -42 -29 -20
-67 -39 -85 -43 -17 -3 -41 -16 -53 -29 l-21 -23 50 -31 c28 -17 71 -36 96
-42 28 -7 70 -31 108 -61 34 -28 78 -61 98 -73 20 -13 48 -43 62 -67 24 -41
53 -67 139 -123 117 -76 176 -130 228 -207 21 -32 55 -79 75 -105 20 -27 60
-81 90 -122 85 -118 172 -209 244 -256 68 -45 76 -49 176 -85 81 -30 241 -108
286 -139 101 -71 228 -172 251 -199 14 -17 38 -51 54 -76 l29 -45 108 -1 c64
0 107 -4 107 -10 0 -5 14 -10 30 -10 17 0 30 -4 30 -10 0 -5 9 -10 20 -10 11
0 20 -4 20 -10 0 -5 9 -10 20 -10 11 0 20 -4 20 -10 0 -5 25 -10 55 -10 55 0
73 13 35 25 -28 9 -79 63 -96 102 -9 20 -14 67 -14 127 0 86 2 98 24 123 24
27 27 28 128 27 142 -1 184 -21 273 -131 15 -18 58 -49 96 -69 38 -20 69 -41
69 -46 0 -5 11 -19 25 -32 30 -28 75 -25 75 5 0 17 8 19 60 19 33 0 60 -4 60
-9 0 -15 108 -1 190 24 41 13 111 29 155 36 44 8 88 20 98 29 32 26 47 65 40
104 l-6 36 -57 0 c-32 0 -60 -4 -62 -9 -1 -5 -66 -12 -144 -16 l-141 -7 -6 36
c-3 19 -14 63 -24 96 l-17 60 -53 0 -53 0 0 130 0 130 25 0 c22 0 25 5 25 33
0 41 9 54 43 62 19 5 27 13 27 30 0 21 5 22 98 28 53 4 132 7 176 7 70 0 77 2
71 18 -35 84 -47 274 -23 354 15 51 68 98 111 98 18 0 43 7 57 15 14 8 35 19
48 24 26 12 27 18 6 71 -13 31 -21 40 -40 40 -13 0 -24 5 -24 10 0 6 -4 10
-10 10 -5 0 -10 -22 -10 -50 l0 -50 -50 0 c-27 0 -50 -4 -50 -9 0 -11 -34 -23
-90 -30 -40 -5 -45 -9 -48 -33 -2 -20 -10 -28 -33 -33 -41 -9 -222 5 -231 18
-9 15 -231 14 -236 -1 -2 -8 -30 -12 -79 -12 -76 0 -103 -11 -103 -43 0 -8
-12 -18 -26 -21 -35 -9 -274 5 -274 15 0 5 -18 9 -40 9 -22 0 -40 -4 -40 -10
0 -6 -27 -10 -60 -10 -33 0 -60 -4 -60 -10 0 -6 -27 -10 -60 -10 -33 0 -60 4
-60 10 0 5 -42 8 -102 7 -100 -2 -103 -1 -106 21 -2 12 -10 22 -18 22 -8 0
-14 5 -14 10 0 6 -20 10 -45 10 -38 0 -45 3 -45 20 0 18 -7 20 -60 20 -47 0
-60 3 -60 15 0 11 -11 15 -35 15 -22 0 -38 6 -41 15 -5 11 -21 15 -60 15 -47
0 -54 2 -54 20 0 17 -7 20 -39 20 -22 0 -43 5 -46 10 -3 6 -33 10 -65 10 -33
0 -60 5 -62 11 -2 6 -35 13 -73 16 -57 4 -74 10 -91 29 -12 13 -33 24 -46 24
-14 0 -40 3 -57 6 -27 6 -31 10 -31 40 0 31 -3 34 -30 34 -20 0 -38 9 -52 25
-12 14 -30 25 -40 25 -10 0 -18 7 -18 15 0 12 -19 15 -110 15 -67 0 -110 4
-110 10 0 6 -33 10 -79 10 -71 0 -80 2 -86 20 -7 22 -39 43 -49 32z"/>
<path d="M2430 7776 c0 -32 26 -40 55 -18 42 30 39 42 -10 42 -41 0 -45 -2
-45 -24z"/>
<path d="M29950 7460 c0 -5 4 -10 8 -10 12 0 22 -255 15 -388 -4 -80 -10 -112
-19 -112 -7 0 -15 -19 -19 -42 -4 -24 -16 -87 -26 -141 -10 -54 -19 -107 -19
-118 0 -10 -4 -19 -10 -19 -5 0 -13 -12 -16 -27 -4 -15 -12 -33 -18 -40 -6 -7
-17 -19 -23 -27 -16 -18 -18 -166 -3 -166 6 0 10 -26 10 -59 l0 -59 33 8 c17
4 45 13 60 19 16 6 39 11 53 11 l24 0 0 590 0 590 -25 0 c-14 0 -25 -4 -25
-10z"/>
<path d="M21720 7310 c-14 -16 -31 -30 -37 -30 -7 0 -13 -4 -13 -10 0 -5 -7
-10 -15 -10 -10 0 -15 -10 -15 -30 0 -21 -5 -30 -16 -30 -21 0 -53 -36 -61
-69 -3 -14 -14 -33 -23 -41 -9 -8 -20 -27 -24 -42 -3 -16 -13 -28 -21 -28 -10
0 -15 -10 -15 -30 0 -26 -4 -30 -28 -30 -16 0 -34 -8 -42 -20 -12 -17 -26 -20
-92 -20 -77 0 -78 0 -78 -26 0 -33 -21 -54 -54 -54 -19 0 -26 -5 -26 -20 0
-16 -7 -20 -30 -20 -16 0 -30 -4 -30 -9 0 -11 -55 -71 -65 -71 -15 0 -35 -30
-35 -54 0 -24 -3 -26 -50 -26 -27 0 -50 -4 -50 -10 0 -5 -22 -10 -50 -10 -27
0 -50 -4 -50 -10 0 -5 -7 -10 -15 -10 -8 0 -15 -4 -15 -10 0 -5 -11 -10 -25
-10 -14 0 -25 -4 -25 -10 0 -5 -7 -10 -15 -10 -8 0 -15 -4 -15 -10 0 -5 -14
-10 -31 -10 -22 0 -40 -9 -59 -30 -28 -30 -29 -30 -134 -30 -88 0 -106 3 -106
15 0 11 -13 15 -53 15 -54 0 -87 21 -87 55 0 11 -12 15 -50 15 -43 0 -50 3
-50 20 0 16 -7 20 -38 20 -26 0 -42 -6 -52 -20 -8 -11 -25 -20 -38 -20 -14 0
-36 -13 -52 -30 -15 -16 -35 -30 -44 -30 -9 0 -16 -7 -16 -15 0 -20 -45 -65
-65 -65 -8 0 -15 -4 -15 -10 0 -5 -13 -10 -30 -10 -16 0 -30 -4 -30 -10 0 -6
-61 -10 -164 -10 -99 0 -167 4 -171 10 -3 6 -24 10 -46 10 -37 0 -39 2 -39 30
0 29 -2 30 -46 30 -38 0 -51 -5 -74 -30 -15 -16 -34 -30 -42 -30 -33 0 -51
-98 -24 -126 8 -8 26 -14 40 -14 14 0 26 -4 26 -10 0 -5 9 -10 20 -10 11 0 20
-4 20 -10 0 -5 18 -10 40 -10 22 0 40 5 40 10 0 6 60 10 160 10 153 0 160 1
160 20 0 19 7 20 140 20 87 0 140 -4 140 -10 0 -5 7 -10 15 -10 8 0 15 -9 15
-20 0 -13 7 -20 18 -20 15 0 22 -13 32 -57 7 -32 19 -70 26 -85 8 -15 14 -38
14 -52 0 -13 5 -26 12 -28 7 -3 13 -38 16 -96 5 -110 -1 -142 -28 -142 -11 0
-20 -4 -20 -10 0 -5 -11 -10 -25 -10 -22 0 -24 -4 -27 -57 l-3 -58 -42 -3
c-30 -2 -43 -8 -43 -18 0 -18 -24 -44 -40 -44 -17 0 -40 -26 -40 -44 0 -12
-10 -16 -40 -16 -33 0 -40 -3 -40 -20 0 -16 -7 -20 -30 -20 -16 0 -30 -3 -30
-7 0 -12 -51 -33 -77 -33 -13 0 -23 -4 -23 -10 0 -6 -55 -10 -145 -10 -90 0
-145 4 -145 10 0 6 -9 10 -20 10 -11 0 -20 5 -20 10 0 6 -53 10 -140 10 l-140
0 0 30 c0 30 -1 30 -53 30 -41 0 -56 4 -67 20 -12 16 -26 20 -77 20 -53 0 -63
3 -68 20 -5 17 -15 20 -66 20 -33 0 -59 -4 -59 -10 0 -5 -22 -10 -50 -10 -27
0 -50 -2 -50 -5 0 -3 9 -23 20 -45 11 -22 20 -44 20 -50 0 -26 129 -120 165
-120 8 0 15 -4 15 -10 0 -5 7 -10 15 -10 8 0 24 -9 35 -20 11 -11 27 -20 35
-20 8 0 15 -9 15 -20 0 -11 7 -20 15 -20 8 0 15 -4 15 -10 0 -5 6 -10 13 -10
8 0 22 -9 32 -20 10 -11 26 -20 36 -20 10 0 21 -4 24 -10 3 -5 15 -10 25 -10
32 0 60 -68 60 -147 0 -80 -17 -148 -55 -220 -25 -48 -26 -55 -16 -103 6 -28
11 -98 11 -156 0 -93 -3 -109 -22 -137 -13 -17 -28 -36 -34 -42 -9 -7 -8 -20
5 -47 l16 -38 69 66 c92 88 183 146 286 179 47 15 96 31 109 36 13 6 59 13
101 16 69 5 82 3 114 -16 20 -13 50 -42 66 -66 40 -58 55 -165 47 -335 -5
-107 -10 -137 -36 -208 -27 -71 -31 -96 -31 -178 0 -52 -4 -103 -9 -112 -7
-12 -2 -32 14 -67 26 -55 32 -135 14 -198 -6 -24 -7 -43 -1 -50 5 -7 17 -42
26 -80 9 -37 26 -77 38 -89 30 -30 147 -69 169 -57 21 11 172 12 183 2 30 -30
166 -28 191 2 5 7 35 21 65 31 43 15 90 19 217 21 141 2 167 5 202 23 26 14
75 25 143 32 78 8 107 15 119 29 9 11 39 26 68 35 28 10 51 21 51 25 0 5 31
17 69 29 37 11 86 32 107 48 34 23 49 27 109 27 56 0 76 -4 101 -22 21 -15 35
-19 45 -12 7 5 48 9 90 9 62 0 85 -5 125 -25 51 -27 131 -42 159 -32 13 6 12
12 -11 46 -37 57 -145 112 -233 119 -71 5 -150 38 -174 72 -24 34 -95 58 -197
65 -52 4 -101 12 -107 17 -8 6 -13 33 -13 64 0 52 1 55 40 79 26 16 48 42 62
73 18 36 31 50 58 59 55 19 133 15 217 -11 112 -35 131 -36 198 -20 84 22 99
32 198 128 133 129 274 206 418 230 24 4 56 24 93 56 31 27 74 55 96 61 37 11
48 22 105 98 5 7 39 42 74 76 l64 62 -13 45 c-14 48 -14 48 -61 6 -10 -10 -23
-18 -28 -18 -5 0 -11 -6 -14 -14 -6 -15 -92 -66 -113 -66 -7 0 -29 -9 -49 -20
-20 -11 -45 -20 -55 -20 -46 0 -112 -58 -130 -114 -7 -22 -17 -45 -22 -50 -5
-6 -18 -26 -28 -43 l-20 -33 -90 0 c-71 0 -94 4 -111 18 -34 29 -49 78 -49
168 0 51 -4 84 -10 84 -6 0 -37 -13 -70 -30 -48 -24 -72 -30 -123 -30 -56 0
-69 4 -102 30 -30 24 -48 30 -84 30 -53 0 -101 25 -128 67 -24 40 -75 88 -109
106 -16 8 -38 24 -48 36 -11 12 -26 21 -35 21 -18 1 -59 34 -84 70 -24 35 -24
181 1 211 42 53 52 59 97 59 25 0 45 5 45 10 0 6 8 10 18 10 22 0 72 22 72 33
0 4 7 7 15 7 8 0 15 5 15 10 0 14 201 13 237 -1 27 -10 161 -15 170 -5 12 11
-52 108 -98 150 -64 57 -124 88 -204 105 -125 27 -156 41 -210 97 -21 22 -44
34 -73 38 -23 3 -60 9 -82 12 l-41 6 3 66 3 67 79 7 c62 6 99 17 180 53 55 26
117 51 136 57 52 15 121 3 209 -37 77 -34 82 -35 204 -35 69 0 150 -5 179 -11
59 -13 187 -78 285 -145 35 -24 71 -44 80 -44 8 0 28 14 43 30 29 31 34 44 65
153 11 41 26 66 51 90 20 17 49 57 65 88 33 67 75 102 189 159 98 49 166 70
230 70 45 0 110 30 110 50 0 6 -27 10 -64 10 -75 0 -170 16 -174 30 -2 6 -17
10 -33 10 -16 0 -29 5 -29 10 0 7 -32 9 -98 4 -83 -6 -100 -4 -114 10 -9 9
-24 16 -33 16 -9 0 -18 12 -21 30 -6 28 -9 30 -55 30 -27 0 -49 5 -49 10 0 6
-27 10 -61 10 -46 0 -66 4 -78 18 -9 9 -28 23 -43 30 -17 7 -28 19 -28 30 0
24 -37 72 -55 72 -24 0 -28 34 -33 263 l-4 227 31 0 c17 0 31 5 31 10 0 6 -31
10 -72 10 -66 0 -137 15 -154 33 -4 4 -16 7 -26 7 -29 0 -88 42 -143 102 -56
61 -186 138 -232 138 -18 0 -37 -11 -53 -30z"/>
<path d="M26515 6461 c-3 -5 -18 -12 -34 -16 -16 -3 -31 -14 -34 -24 -3 -14
-18 -21 -56 -26 -28 -4 -53 -11 -57 -16 -3 -5 -14 -9 -25 -9 -14 0 -19 -7 -19
-30 0 -29 -1 -30 -48 -30 -36 0 -51 -5 -62 -20 -8 -11 -22 -20 -32 -20 -10 0
-18 -4 -18 -10 0 -5 -15 -10 -34 -10 -19 0 -38 -4 -41 -10 -3 -5 -17 -10 -30
-10 -13 0 -27 -4 -30 -10 -3 -5 -34 -10 -68 -10 -74 0 -82 -5 -92 -47 -3 -18
-10 -33 -15 -33 -5 0 -10 -10 -12 -22 -2 -13 -15 -29 -31 -36 -15 -8 -35 -29
-44 -48 -12 -24 -23 -34 -40 -34 -19 0 -23 -5 -23 -30 l0 -30 78 0 c110 0 117
-9 117 -155 0 -95 -4 -121 -29 -190 -15 -44 -32 -84 -36 -90 -4 -5 -15 -38
-24 -73 -16 -64 -63 -144 -100 -172 -23 -18 -73 -69 -135 -138 -38 -42 -51
-50 -100 -60 -146 -28 -257 -55 -265 -63 -6 -5 -18 -9 -28 -9 -10 0 -35 -11
-56 -24 -20 -14 -49 -28 -63 -31 -26 -6 -44 -21 -162 -130 -82 -76 -109 -99
-141 -120 -14 -10 -26 -26 -26 -36 0 -11 -4 -19 -10 -19 -5 0 -10 -13 -10 -30
0 -16 -4 -30 -10 -30 -5 0 -10 -12 -10 -26 0 -23 -20 -54 -35 -54 -12 0 -35
-29 -35 -44 0 -9 -8 -16 -19 -16 -11 0 -23 -9 -26 -20 -3 -11 -14 -20 -23 -20
-10 0 -24 -9 -32 -20 -8 -11 -22 -20 -32 -20 -10 0 -18 -4 -18 -10 0 -5 -22
-10 -50 -10 -49 0 -50 -1 -50 -30 0 -25 -4 -30 -24 -30 -16 0 -27 -7 -31 -20
-3 -11 -15 -20 -26 -20 -10 0 -19 -4 -19 -10 0 -5 -7 -10 -16 -10 -26 0 -44
-26 -44 -64 0 -33 -2 -36 -29 -36 -21 0 -32 -6 -36 -20 -3 -11 -14 -20 -24
-20 -11 0 -24 -12 -31 -30 -12 -29 -15 -30 -72 -30 -61 0 -88 -14 -88 -44 0
-9 -8 -16 -20 -16 -11 0 -20 -4 -20 -10 0 -5 -13 -10 -30 -10 -26 0 -30 -4
-30 -26 0 -32 -21 -54 -53 -54 -18 0 -28 -8 -37 -30 -11 -28 -16 -30 -61 -30
-27 0 -49 -4 -49 -10 0 -5 -22 -10 -50 -10 -27 0 -50 -4 -50 -10 0 -5 -13 -10
-29 -10 -25 0 -31 -6 -41 -35 -6 -19 -15 -35 -20 -35 -4 0 -10 -13 -13 -28 -4
-17 -37 -60 -84 -109 -44 -44 -96 -106 -117 -138 l-38 -57 23 -51 c13 -28 31
-57 38 -65 9 -8 17 -41 19 -74 3 -41 9 -61 20 -65 22 -9 192 16 301 43 145 37
218 62 301 101 145 68 119 65 755 83 187 6 367 14 400 19 133 21 212 34 255
41 56 10 206 68 309 120 74 36 131 87 131 113 -1 22 -40 92 -80 142 -58 72
-90 141 -90 193 0 60 35 95 126 127 75 26 142 31 342 26 123 -2 167 10 286 78
49 28 105 52 140 59 132 27 480 5 606 -38 30 -10 103 -24 161 -31 149 -16 191
-6 273 72 34 31 75 61 92 64 56 13 79 26 100 58 31 46 94 168 94 181 0 20 50
66 88 82 68 28 82 49 82 123 0 90 23 215 54 291 14 35 26 68 26 73 0 5 16 35
35 67 34 56 43 93 27 116 -19 28 -142 22 -142 -8 0 -4 -7 -8 -16 -8 -9 0 -22
-7 -29 -16 -6 -9 -32 -18 -58 -21 -26 -3 -50 -10 -53 -14 -3 -5 -14 -9 -24 -9
-12 0 -20 -8 -22 -22 -2 -15 -11 -24 -25 -26 -15 -2 -23 -10 -23 -22 0 -35
-12 -49 -46 -56 -28 -5 -34 -11 -34 -30 0 -19 -7 -26 -30 -30 -16 -4 -30 -10
-30 -15 0 -5 -18 -9 -39 -9 -25 0 -41 -5 -45 -15 -4 -12 -24 -15 -88 -15 -71
0 -86 3 -101 20 -9 11 -26 20 -36 20 -11 0 -23 5 -26 10 -3 6 -17 10 -31 10
-15 0 -24 6 -24 15 0 8 -11 38 -25 67 -18 37 -25 68 -25 109 0 52 -2 58 -22
61 -19 2 -24 12 -31 53 -12 69 1 215 19 222 9 3 14 21 14 55 0 59 23 108 50
108 15 0 20 7 20 25 0 20 5 25 25 25 23 0 25 3 25 50 0 28 4 50 9 50 5 0 12
24 15 54 8 62 -15 126 -45 126 -21 0 -37 47 -46 133 l-6 57 -37 0 c-21 0 -51
7 -66 15 -16 8 -36 15 -44 15 -9 0 -22 9 -30 20 -8 11 -22 20 -31 20 -8 0 -22
11 -29 25 -7 14 -26 27 -44 31 -17 3 -42 19 -55 35 -13 16 -29 29 -36 29 -7 0
-15 9 -18 20 -5 18 -14 20 -110 20 -58 0 -108 -4 -112 -9z"/>
<path d="M28680 6070 c-8 -11 -18 -20 -23 -20 -14 0 -37 -27 -37 -43 0 -9 -4
-17 -10 -19 -12 -4 -14 -114 -5 -234 6 -76 5 -96 -10 -124 -20 -39 -39 -60
-54 -60 -6 0 -13 -10 -15 -22 -20 -97 -38 -178 -47 -205 -5 -18 -7 -58 -4 -90
5 -48 3 -64 -14 -90 -19 -30 -67 -53 -112 -53 -9 0 -27 -8 -40 -19 -24 -19
-30 -50 -45 -253 -6 -76 -5 -88 9 -88 9 0 18 -10 20 -22 3 -14 5 -9 6 15 1 34
3 37 32 37 23 0 40 10 69 40 21 22 43 40 49 40 6 0 11 18 11 40 0 39 1 40 35
40 34 0 35 1 35 38 0 44 8 58 35 63 13 3 21 14 23 32 3 26 6 27 61 27 31 0 62
5 68 11 6 6 46 13 90 16 65 5 82 3 95 -11 9 -9 30 -16 47 -16 29 0 31 -2 31
-36 0 -27 5 -37 20 -41 13 -3 20 -14 20 -28 0 -20 7 -24 60 -33 61 -11 130
-38 130 -52 0 -4 16 -24 35 -44 19 -21 35 -43 35 -50 0 -21 152 -76 220 -80
28 -1 28 -4 15 180 -13 173 25 214 182 196 94 -11 137 -34 192 -102 28 -34 37
-40 71 -40 l40 0 0 374 0 374 -27 5 c-16 4 -42 20 -60 36 -68 65 -97 75 -215
73 -129 -3 -149 2 -320 87 -30 15 -38 16 -42 5 -4 -11 -35 -14 -141 -14 -83 0
-135 -4 -135 -10 0 -5 -5 -10 -11 -10 -16 0 -39 -26 -39 -44 0 -10 -9 -16 -25
-16 -14 0 -25 -4 -25 -10 0 -6 -33 -10 -80 -10 -47 0 -80 4 -80 10 0 6 -9 10
-20 10 -19 0 -20 7 -20 130 l0 130 -33 0 c-21 0 -38 -7 -47 -20z"/>
<path d="M25560 5865 c0 -19 -4 -35 -9 -35 -5 0 -11 -12 -14 -27 l-5 -28 24
30 c13 17 33 45 44 63 l19 32 -29 0 c-28 0 -30 -3 -30 -35z"/>
<path d="M25515 5751 c-3 -12 -11 -21 -16 -21 -5 0 -9 -10 -9 -22 1 -19 5 -16
21 15 11 22 18 41 16 44 -3 2 -8 -5 -12 -16z"/>
<path d="M0 5325 l0 -335 25 0 c16 0 25 6 25 16 0 8 27 50 60 94 68 90 79 124
80 255 1 84 9 152 25 201 6 18 2 22 -32 27 -21 4 -69 23 -107 42 -39 19 -71
35 -73 35 -2 0 -3 -151 -3 -335z"/>
<path d="M25439 5623 c-13 -16 -12 -17 4 -4 9 7 17 15 17 17 0 8 -8 3 -21 -13z"/>
<path d="M7410 5480 c0 -5 -9 -10 -20 -10 -11 0 -20 -4 -20 -10 0 -5 -13 -10
-30 -10 -16 0 -30 -4 -30 -10 0 -5 -13 -10 -30 -10 -16 0 -30 -4 -30 -10 0 -5
-22 -10 -50 -10 -27 0 -50 -4 -50 -10 0 -6 -33 -10 -80 -10 -73 0 -80 -2 -80
-20 0 -17 -7 -20 -50 -20 -27 0 -50 -4 -50 -10 0 -5 -7 -10 -15 -10 -8 0 -15
-9 -15 -20 0 -17 7 -20 45 -20 43 0 45 -1 45 -30 0 -28 2 -30 39 -30 33 0 40
-4 51 -30 12 -28 50 -44 50 -20 0 6 14 10 30 10 17 0 30 5 30 10 0 6 18 10 40
10 22 0 40 5 40 10 0 6 26 10 59 10 38 0 61 4 63 12 6 16 431 15 436 -1 2 -6
10 -11 18 -11 8 0 14 -4 14 -10 0 -5 9 -10 21 -10 36 0 49 -24 49 -89 l0 -61
96 0 c88 0 100 -2 152 -31 31 -17 69 -40 84 -51 l29 -20 -3 114 -3 113 -91 3
c-91 3 -92 3 -104 32 -7 17 -19 30 -27 30 -19 0 -43 25 -43 44 0 12 -10 16
-36 16 -40 0 -64 18 -64 48 0 34 -11 52 -31 52 -10 0 -19 5 -19 10 0 6 -18 10
-40 10 -22 0 -40 5 -40 10 0 6 -10 10 -23 10 -12 0 -29 9 -37 20 -13 18 -26
20 -147 20 -82 0 -133 -4 -133 -10z"/>
<path d="M7472 4598 c-7 -7 -12 -17 -12 -22 0 -6 -11 -24 -25 -40 -14 -16 -25
-33 -25 -38 0 -4 -9 -8 -20 -8 -11 0 -20 -4 -20 -10 0 -5 -9 -10 -20 -10 -11
0 -20 -4 -20 -10 0 -5 -7 -10 -15 -10 -8 0 -15 -4 -15 -10 0 -5 -7 -10 -15
-10 -24 0 -18 -18 22 -61 20 -21 49 -69 65 -106 15 -37 32 -71 38 -77 5 -5 10
-18 10 -28 0 -10 3 -18 8 -18 4 0 19 -11 34 -25 35 -32 58 -41 136 -49 58 -7
66 -5 115 24 29 17 70 44 92 60 22 16 45 29 51 30 6 0 44 16 85 37 58 28 70
37 54 42 -62 18 -85 64 -85 164 0 59 -4 80 -19 98 -19 23 -23 24 -156 21 -123
-3 -141 -1 -181 18 -24 12 -44 28 -44 36 0 17 -22 18 -38 2z"/>
<path d="M15370 4402 c0 -4 -7 -17 -15 -27 -8 -11 -40 -58 -71 -105 -31 -47
-69 -97 -84 -112 -35 -33 -47 -54 -59 -107 l-9 -41 44 0 c24 0 44 5 44 10 0 6
20 10 44 10 36 0 46 4 51 20 5 16 15 20 56 20 27 0 49 5 49 10 0 6 28 10 65
10 37 0 65 4 65 10 0 6 26 10 59 10 56 0 59 1 71 30 7 17 16 30 20 30 6 0 30
44 30 55 0 3 -22 5 -50 5 -49 0 -50 1 -50 30 0 18 -5 30 -13 30 -7 0 -19 9
-27 20 -8 11 -19 20 -24 20 -10 0 -46 39 -46 52 0 4 -11 8 -25 8 -14 0 -25 5
-25 10 0 6 -22 10 -50 10 -27 0 -50 -4 -50 -8z"/>
<path d="M6942 4250 c-12 -11 -33 -20 -47 -20 -14 0 -25 -4 -25 -9 0 -6 -15
-12 -32 -14 -30 -4 -31 -5 -10 -12 12 -4 22 -14 22 -21 0 -9 11 -14 28 -14 15
0 44 -3 65 -6 l37 -7 0 62 c0 33 -4 61 -8 61 -5 0 -18 -9 -30 -20z"/>
<path d="M26137 3249 c-54 -13 -91 -34 -177 -98 -41 -31 -108 -79 -149 -106
-176 -119 -226 -137 -368 -134 -62 2 -106 -2 -120 -9 -12 -7 -57 -12 -100 -12
-71 0 -84 -3 -127 -30 -26 -17 -70 -35 -98 -41 -35 -8 -64 -23 -92 -49 -48
-43 -77 -60 -104 -60 -11 0 -49 -13 -84 -30 -34 -16 -73 -30 -85 -30 -13 0
-37 -9 -55 -20 -18 -11 -51 -25 -73 -31 -50 -13 -85 -35 -85 -53 0 -26 49 -73
82 -80 18 -4 50 -18 70 -31 26 -17 51 -25 82 -25 41 0 48 -4 83 -47 38 -46 89
-75 218 -124 68 -26 105 -61 105 -102 0 -50 -12 -60 -61 -55 -24 3 -73 13
-109 23 -56 15 -75 16 -138 6 -77 -12 -146 -42 -201 -88 l-33 -28 56 -43 c60
-44 154 -82 205 -82 17 0 47 -10 68 -22 72 -41 88 -46 170 -52 96 -7 273 -57
273 -76 0 -3 44 -6 98 -5 108 0 132 -9 174 -70 14 -21 41 -42 70 -54 27 -11
48 -25 48 -30 0 -6 6 -11 13 -11 6 0 23 -17 37 -37 19 -28 26 -32 28 -19 2 9
-3 32 -12 51 -9 18 -16 37 -16 42 0 11 -89 125 -131 168 -50 51 -70 79 -85
115 -30 71 -14 297 23 325 42 32 162 5 209 -47 77 -84 144 -136 193 -149 28
-7 51 -16 51 -21 0 -4 7 -8 15 -8 18 0 105 -84 105 -102 0 -8 9 -31 19 -52 11
-21 23 -52 27 -69 8 -40 63 -151 76 -156 6 -2 20 -13 31 -24 16 -16 42 -23
112 -30 49 -6 103 -7 118 -3 24 6 27 11 27 45 0 85 12 130 44 163 34 37 136
108 154 108 19 0 117 103 153 160 18 30 38 60 44 66 6 7 23 25 36 42 36 42 60
52 122 52 43 0 60 -5 83 -25 27 -23 29 -29 29 -103 0 -77 -10 -122 -46 -217
-37 -99 -48 -235 -17 -235 5 0 16 -6 24 -14 19 -19 93 -31 107 -17 15 15 106
14 137 -2 14 -7 33 -29 43 -49 16 -33 17 -50 7 -207 -12 -192 -11 -200 54
-326 20 -38 36 -75 36 -82 0 -7 5 -13 11 -13 15 0 6 -180 -14 -265 -28 -115
-17 -294 23 -370 32 -63 72 -128 85 -142 7 -6 19 -32 26 -57 l13 -46 514 0
515 0 -7 31 c-3 17 -6 35 -6 40 0 5 -8 9 -18 9 -31 0 -42 42 -35 125 l6 75 33
0 c24 0 34 5 39 20 3 11 12 20 18 20 7 0 19 9 27 20 8 11 20 20 27 20 7 0 13
5 13 10 0 6 35 10 85 10 50 0 85 -4 85 -10 0 -5 7 -10 15 -10 8 0 15 -4 15
-10 0 -5 11 -10 25 -10 14 0 25 -4 25 -10 0 -5 7 -10 15 -10 8 0 15 -4 15 -10
0 -6 77 -10 210 -10 133 0 210 -4 210 -10 0 -6 50 -10 130 -10 80 0 130 4 130
10 0 6 18 10 40 10 22 0 40 5 40 10 0 6 16 10 35 10 29 0 35 4 35 21 0 16 -4
19 -17 14 -33 -14 -150 -17 -187 -5 -45 14 -92 53 -111 91 -21 39 -18 116 4
164 24 51 79 108 97 101 17 -7 17 -4 2 29 -6 14 -17 25 -25 25 -7 0 -13 8 -13
18 0 31 -34 62 -69 62 -17 0 -31 5 -31 10 0 6 -27 10 -60 10 -33 0 -60 -4 -60
-10 0 -6 -27 -10 -60 -10 l-60 0 0 -40 0 -40 -45 0 c-25 0 -45 -4 -45 -10 0
-5 -25 -10 -55 -10 -30 0 -55 -4 -55 -10 0 -5 -9 -10 -20 -10 -11 0 -20 5 -20
10 0 6 -22 10 -49 10 -30 0 -52 5 -55 13 -5 10 -7 10 -12 0 -7 -16 -234 -19
-234 -3 0 6 -102 10 -285 10 -278 0 -285 0 -285 -20 0 -17 -7 -20 -40 -20 -22
0 -40 -4 -40 -10 0 -5 9 -10 20 -10 13 0 20 -7 20 -20 0 -17 -7 -20 -50 -20
-27 0 -50 -4 -50 -10 0 -5 -22 -10 -50 -10 -27 0 -50 5 -50 10 0 6 -18 10 -40
10 -22 0 -40 5 -40 10 0 6 -14 10 -31 10 -31 0 -59 19 -59 40 0 18 -27 40 -49
40 -20 0 -21 6 -21 84 0 93 5 116 26 116 8 0 14 4 14 8 0 16 37 52 54 52 9 0
16 5 16 10 0 6 7 10 15 10 8 0 15 9 15 20 0 17 7 20 50 20 28 0 50 5 50 10 0
6 18 10 40 10 22 0 40 5 40 10 0 6 18 10 40 10 22 0 40 5 40 10 0 6 15 10 34
10 22 0 36 6 40 16 10 27 7 224 -4 224 -5 0 -10 -9 -10 -20 0 -11 -4 -20 -10
-20 -5 0 -10 -9 -10 -20 0 -16 -7 -20 -30 -20 -16 0 -30 5 -30 10 0 6 -11 10
-25 10 -18 0 -25 5 -25 20 0 11 -6 20 -14 20 -8 0 -18 9 -21 20 -7 21 -55 29
-55 10 0 -5 -7 -10 -15 -10 -8 0 -15 5 -15 10 0 6 -11 10 -24 10 -20 0 -24 6
-29 40 -3 22 -3 58 0 80 4 31 10 40 25 40 11 0 33 14 48 30 15 17 36 30 45 30
27 0 45 26 45 64 l0 36 123 0 c111 0 124 2 137 20 12 16 26 20 78 20 58 0 67
3 92 30 30 32 45 37 54 18 5 -10 7 -10 12 0 3 6 10 12 16 12 15 0 38 27 38 44
0 12 10 16 35 16 l35 0 0 -50 c0 -27 5 -50 10 -50 6 0 10 27 10 60 l0 60 40 0
c22 0 40 5 40 10 0 6 9 10 20 10 11 0 20 5 20 10 0 6 9 10 20 10 11 0 20 5 20
10 0 6 23 10 50 10 28 0 50 5 50 10 0 6 113 10 320 10 l320 0 -6 30 c-6 27 -4
30 20 30 14 0 26 5 26 10 0 6 20 10 45 10 25 0 45 5 45 10 0 6 9 10 20 10 11
0 20 5 20 10 0 6 11 10 25 10 14 0 25 5 25 10 0 6 7 10 15 10 8 0 15 5 15 10
0 6 6 10 14 10 7 0 19 14 26 30 7 17 18 30 26 30 7 0 16 9 19 20 6 20 45 29
45 10 0 -5 18 -10 40 -10 l40 0 0 330 0 330 -30 0 c-27 0 -30 -3 -30 -30 0
-23 -5 -30 -19 -30 -11 0 -23 -9 -26 -20 -3 -11 -11 -20 -17 -20 -5 0 -23 -13
-38 -30 -15 -17 -35 -30 -44 -30 -11 0 -16 -9 -16 -30 0 -29 -2 -30 -43 -30
-31 0 -46 -5 -57 -20 -12 -16 -26 -20 -77 -20 l-63 0 0 -60 c0 -45 -3 -60 -14
-60 -8 0 -18 -9 -21 -20 -3 -11 -13 -20 -21 -20 -8 0 -14 -4 -14 -10 0 -5 -24
-10 -54 -10 -46 0 -56 3 -61 20 -3 11 -15 20 -26 20 -10 0 -19 5 -19 10 0 6
-11 10 -25 10 -23 0 -25 4 -25 40 0 62 -21 120 -44 120 -18 0 -56 35 -56 52 0
4 -7 8 -15 8 -8 0 -15 5 -15 10 0 6 -6 10 -14 10 -8 0 -18 9 -21 20 -3 11 -10
20 -15 20 -4 0 -11 18 -15 40 -6 33 -11 40 -29 40 -35 0 -173 -38 -266 -74
-47 -18 -110 -36 -140 -40 -167 -19 -322 59 -515 261 -38 40 -78 73 -89 73
-10 0 -42 -24 -70 -53 -37 -39 -64 -57 -98 -66 -26 -7 -64 -28 -84 -46 -38
-34 -70 -45 -134 -45 -21 0 -78 -13 -127 -28 -48 -16 -114 -37 -147 -47 -32
-10 -88 -38 -125 -63 -36 -25 -85 -58 -107 -74 -29 -19 -54 -28 -83 -28 l-41
0 0 51 c0 37 6 60 25 87 14 20 25 45 25 55 0 10 -11 43 -25 73 -32 70 -32 114
1 169 25 44 25 45 8 75 -10 16 -26 32 -34 35 -9 3 -46 -10 -81 -29 -65 -33
-66 -33 -245 -41 -204 -8 -214 -6 -300 63 -95 75 -170 100 -247 81z"/>
<path d="M430 3100 c0 -5 -22 -10 -50 -10 -27 0 -50 -4 -50 -10 0 -5 -9 -10
-20 -10 -11 0 -20 -4 -20 -10 0 -5 -7 -10 -15 -10 -25 0 -65 -46 -65 -75 0
-19 -5 -25 -21 -25 -20 0 -59 -33 -59 -50 0 -4 -8 -17 -19 -28 -14 -17 -30
-22 -65 -22 l-46 0 0 -220 0 -220 30 0 c17 0 30 5 30 10 0 6 32 10 75 10 43 0
75 -4 75 -10 0 -5 11 -10 25 -10 14 0 25 -4 25 -8 0 -24 39 -52 74 -52 20 0
36 -4 36 -10 0 -5 14 -10 30 -10 17 0 30 -4 30 -10 0 -5 14 -10 30 -10 17 0
30 -4 30 -10 0 -5 17 -10 38 -10 26 0 42 -6 52 -20 11 -15 26 -20 62 -20 37 0
48 -4 48 -16 0 -31 27 -44 92 -44 52 0 66 -4 78 -20 11 -16 26 -20 70 -20 44
0 59 -4 70 -20 10 -14 26 -20 52 -20 21 0 38 -4 38 -10 0 -5 17 -10 38 -10 26
0 42 -6 52 -20 11 -16 26 -20 70 -20 44 0 59 -4 70 -20 8 -12 26 -20 42 -20
15 0 28 -4 28 -10 0 -6 28 -10 65 -10 l65 0 0 30 c0 28 -3 30 -35 30 -19 0
-35 5 -35 10 0 6 -7 10 -15 10 -8 0 -15 9 -15 20 0 15 -7 20 -28 20 -16 0 -34
8 -42 20 -11 16 -26 20 -67 20 -46 0 -53 3 -53 20 0 13 -7 20 -20 20 -16 0
-20 7 -20 30 l0 30 -60 0 c-33 0 -60 4 -60 10 0 6 -6 10 -13 10 -7 0 -19 9
-27 20 -8 11 -22 20 -32 20 -10 0 -18 7 -18 16 0 24 -26 44 -58 44 -23 0 -32
6 -42 30 -7 17 -20 30 -29 30 -9 0 -23 9 -31 20 -11 15 -26 20 -57 20 -32 0
-43 4 -43 16 0 18 -24 44 -41 44 -13 0 -49 38 -49 52 0 4 -10 8 -23 8 -12 0
-29 9 -37 20 -8 11 -22 20 -32 20 -16 0 -18 12 -18 130 0 123 1 130 20 130 17
0 20 7 20 40 0 22 4 40 9 40 17 0 23 69 7 85 -8 8 -18 24 -21 35 -5 17 -15 20
-66 20 -33 0 -59 -4 -59 -10z"/>
<path d="M7660 1950 c-8 -11 -25 -20 -38 -20 -33 0 -52 -23 -52 -64 0 -33 -2
-36 -29 -36 -21 0 -32 -6 -36 -20 -3 -11 -13 -20 -21 -20 -8 0 -14 -4 -14 -10
0 -5 -13 -10 -30 -10 -28 0 -30 -3 -30 -35 0 -19 4 -35 8 -35 4 0 48 9 98 20
152 33 293 23 372 -28 21 -14 22 -13 22 14 0 38 -9 49 -42 58 -53 12 -68 41
-68 128 l0 78 -63 0 c-51 0 -65 -4 -77 -20z"/>
<path d="M4540 1801 c0 -36 3 -40 28 -43 25 -3 28 -7 34 -58 3 -30 11 -56 17
-58 6 -2 11 -12 11 -22 0 -18 30 -32 48 -21 10 6 44 78 56 119 7 21 5 22 -49
22 -67 0 -85 14 -85 64 0 33 -2 36 -30 36 -28 0 -30 -2 -30 -39z"/>
<path d="M5320 1780 c0 -18 -7 -20 -68 -20 l-69 0 -6 -117 c-4 -65 -11 -134
-17 -154 -6 -20 -15 -117 -20 -215 -5 -99 -13 -191 -16 -206 -7 -30 0 -33 44
-22 12 4 22 13 22 20 0 21 193 20 210 -1 9 -10 11 -43 8 -109 -4 -87 -6 -97
-30 -119 -15 -14 -36 -47 -48 -74 -13 -31 -32 -56 -48 -64 -15 -8 -31 -20 -35
-26 -4 -7 -14 -13 -21 -13 -19 0 -54 -42 -39 -47 7 -3 15 -20 19 -39 3 -19 10
-37 15 -40 5 -3 20 -30 34 -59 26 -58 79 -104 166 -147 70 -34 79 -58 79 -204
l0 -124 295 0 c237 0 295 3 295 13 0 7 9 31 19 53 11 22 22 57 26 79 25 142
97 256 169 269 42 8 86 57 86 95 0 56 -20 88 -82 133 -34 23 -83 62 -109 85
-63 54 -73 59 -142 68 -55 6 -63 11 -135 77 -91 83 -162 131 -246 165 -65 27
-116 59 -116 73 0 10 40 25 55 21 5 -1 28 -4 51 -6 39 -3 107 -33 185 -81 20
-13 62 -30 92 -39 52 -15 59 -15 104 1 57 20 139 20 185 1 41 -17 86 -61 117
-114 25 -43 66 -73 101 -73 22 0 160 -65 170 -80 3 -4 59 -29 125 -56 154 -61
207 -66 295 -29 78 33 88 35 170 45 66 7 100 20 166 65 70 47 176 29 227 -39
41 -52 78 -69 131 -58 97 21 137 -47 62 -106 -14 -10 -37 -45 -53 -78 -24 -50
-33 -60 -62 -65 -45 -9 -78 -35 -129 -103 -24 -31 -60 -65 -80 -75 -21 -10
-46 -29 -57 -41 -11 -12 -51 -40 -90 -63 -84 -48 -142 -92 -156 -118 -10 -19
38 -19 2581 -19 1629 0 2590 4 2590 9 0 41 -176 231 -272 294 -137 89 -251
157 -271 161 -12 3 -51 12 -87 20 -49 12 -131 16 -330 17 -273 1 -311 -3 -416
-42 -49 -19 -70 -21 -145 -16 -75 6 -95 4 -134 -13 -65 -28 -163 -27 -199 1
-14 11 -26 29 -26 40 0 10 -4 19 -10 19 -5 0 -10 7 -10 15 0 11 -12 15 -45 15
-25 0 -45 5 -45 10 0 6 -42 10 -106 10 -134 0 -222 24 -277 75 -21 19 -41 35
-44 35 -3 0 -24 12 -47 28 -22 15 -53 33 -68 41 -16 8 -28 18 -28 22 0 5 -14
16 -31 25 -23 11 -67 17 -160 19 -71 2 -129 0 -129 -4 0 -5 -18 -11 -40 -15
-21 -3 -56 -17 -76 -31 -20 -14 -44 -25 -53 -25 -10 0 -22 -5 -27 -10 -6 -6
-42 -13 -80 -17 -38 -3 -82 -12 -98 -20 -19 -10 -58 -14 -120 -13 -50 0 -131
-2 -180 -6 -77 -5 -93 -4 -125 14 -20 11 -49 23 -65 26 -40 10 -133 73 -174
118 -19 21 -40 38 -47 38 -7 0 -23 11 -36 25 -13 13 -30 25 -36 25 -7 0 -13
12 -13 28 0 35 -32 71 -69 78 -22 5 -31 14 -40 43 -16 54 -35 66 -141 92 -105
25 -171 27 -380 11 -134 -10 -209 -31 -210 -58 0 -23 -77 -54 -133 -54 -88 0
-105 12 -112 79 -4 31 -8 61 -10 67 -7 24 -98 44 -202 44 -57 0 -111 4 -121 9
-46 25 -122 50 -167 56 -57 7 -68 11 -147 50 -41 20 -71 45 -108 91 -38 47
-60 65 -84 69 -23 5 -45 22 -79 65 -26 31 -47 62 -47 68 0 5 -8 13 -17 16 -10
4 -38 17 -63 31 -33 18 -61 24 -107 24 -35 1 -63 5 -63 11 0 6 -112 10 -315
10 l-315 0 0 40 c0 33 -3 40 -20 40 -13 0 -20 -7 -20 -20z"/>
<path d="M21850 1642 c-41 -35 -106 -88 -143 -118 -101 -83 -200 -187 -264
-281 -78 -114 -89 -137 -119 -255 l-27 -101 23 -46 c30 -62 37 -138 16 -179
-24 -46 -20 -62 15 -69 18 -3 40 -19 56 -39 30 -40 43 -42 77 -11 36 33 37 59
3 68 -57 16 -60 23 -53 139 7 113 28 167 81 208 14 11 25 22 25 25 0 7 80 84
142 137 90 77 197 183 226 225 15 22 32 45 38 50 5 6 27 31 48 58 41 51 41 75
4 111 -17 16 -51 80 -68 127 -4 12 -22 1 -80 -49z"/>
<path d="M4340 1650 c0 -5 -18 -10 -40 -10 -22 0 -40 -4 -40 -10 0 -6 -30 -10
-70 -10 -40 0 -70 -4 -70 -10 0 -5 -9 -10 -20 -10 -11 0 -20 -4 -20 -10 0 -5
-9 -10 -20 -10 -11 0 -20 -4 -20 -10 0 -6 -27 -10 -60 -10 -33 0 -60 -4 -60
-10 0 -5 -9 -10 -20 -10 -11 0 -20 -4 -20 -10 0 -5 -20 -10 -45 -10 -25 0 -45
-4 -45 -10 0 -6 -35 -10 -85 -10 -50 0 -85 -4 -85 -10 0 -6 -36 -10 -88 -10
l-88 0 -22 -45 c-26 -55 -26 -47 -3 -73 14 -17 30 -22 64 -22 37 0 47 -4 52
-20 5 -16 15 -20 56 -20 27 0 49 -4 49 -10 0 -5 18 -10 40 -10 29 0 40 -4 40
-15 0 -9 11 -27 24 -40 14 -13 27 -34 31 -45 6 -18 15 -20 76 -20 l69 0 0 -70
c0 -40 -4 -70 -10 -70 -6 0 -10 -30 -10 -70 l0 -70 -50 0 c-27 0 -50 -4 -50
-10 0 -5 -9 -10 -20 -10 -11 0 -20 -4 -20 -10 0 -5 -13 -10 -30 -10 -16 0 -30
-4 -30 -10 0 -5 -9 -10 -20 -10 -11 0 -20 -4 -20 -10 0 -5 -13 -10 -30 -10
-16 0 -30 -4 -30 -10 0 -5 -9 -10 -20 -10 -16 0 -20 -7 -20 -30 l0 -30 -80 0
c-73 0 -80 -2 -80 -20 0 -17 -7 -20 -40 -20 -22 0 -40 -4 -40 -10 0 -5 -7 -10
-15 -10 -8 0 -15 -4 -15 -10 0 -5 -11 -20 -25 -34 -17 -17 -25 -36 -25 -60 0
-33 2 -35 50 -45 90 -19 180 -7 180 25 0 9 11 14 29 14 16 0 36 7 45 15 8 8
17 15 21 15 4 0 13 7 21 15 9 8 27 15 41 15 45 0 133 64 133 97 0 18 60 93 74
93 7 0 18 9 26 20 12 17 26 20 96 20 78 0 81 -1 94 -27 8 -16 16 -49 19 -75
l6 -47 33 28 c17 16 32 34 32 40 0 6 7 11 15 11 8 0 15 8 15 18 0 11 9 29 20
42 11 13 20 26 20 29 0 3 16 24 35 45 19 22 35 48 35 58 0 10 7 21 15 24 8 4
15 12 15 20 0 8 4 14 9 14 5 0 11 10 13 22 2 15 13 25 34 31 50 14 74 100 46
167 -36 89 -51 275 -28 354 20 69 21 66 -14 66 -16 0 -30 -4 -30 -10z"/>
<path d="M29193 1605 c-7 -8 -13 -21 -13 -29 0 -8 -13 -17 -30 -21 -16 -4 -30
-13 -30 -21 0 -10 -13 -14 -50 -14 -27 0 -50 -4 -50 -10 0 -5 -13 -10 -30 -10
-16 0 -30 5 -30 10 0 6 -26 10 -59 10 l-58 0 -13 -60 c-7 -33 -17 -60 -21 -60
-5 0 -9 -4 -9 -9 0 -18 183 -37 265 -26 38 4 55 11 55 21 0 10 13 14 44 14 31
0 46 5 50 16 5 13 16 15 51 12 25 -3 45 -2 45 3 0 5 7 9 15 9 29 0 65 47 65
85 0 24 -4 35 -15 35 -8 0 -15 4 -15 8 0 5 -8 19 -19 30 -15 18 -29 22 -77 22
-38 -1 -63 -6 -71 -15z"/>
<path d="M20253 1565 c-7 -8 -13 -19 -13 -25 0 -6 -7 -18 -15 -26 -8 -9 -18
-27 -22 -42 -7 -28 -25 -52 -41 -52 -5 0 -17 -18 -27 -40 -12 -26 -25 -40 -37
-40 -10 0 -18 -7 -18 -15 0 -33 -23 -65 -47 -65 -28 0 -53 -21 -53 -44 0 -10
-9 -16 -25 -16 -14 0 -25 -4 -25 -10 0 -5 -7 -10 -15 -10 -8 0 -15 -4 -15 -10
0 -6 -26 -10 -58 -10 -46 0 -60 -4 -72 -20 -8 -11 -22 -20 -32 -20 -10 0 -18
-4 -18 -10 0 -5 -22 -10 -50 -10 -27 0 -50 -4 -50 -10 0 -6 -30 -10 -70 -10
-40 0 -70 4 -70 10 0 6 -4 10 -10 10 -5 0 -10 -13 -10 -30 0 -16 -4 -30 -9
-30 -5 0 -13 -9 -16 -20 -3 -11 -13 -20 -21 -20 -8 0 -14 -9 -14 -20 0 -12 -7
-20 -16 -20 -19 0 -50 -33 -59 -61 -4 -11 -16 -19 -27 -19 -20 0 -58 -34 -58
-52 0 -4 -22 -8 -49 -8 -46 0 -49 -2 -54 -30 l-6 -30 -206 0 c-130 0 -205 4
-205 10 0 6 -11 10 -25 10 -14 0 -25 5 -25 10 0 6 -13 10 -30 10 -16 0 -30 5
-30 10 0 6 -16 10 -35 10 -19 0 -35 -4 -35 -10 0 -5 -22 -10 -50 -10 -43 0
-50 -3 -50 -20 0 -18 -7 -20 -68 -20 -56 0 -70 -3 -82 -20 -12 -16 -26 -20
-72 -20 -32 0 -58 -4 -58 -10 0 -6 -77 -10 -210 -10 l-210 0 -17 -27 c-41 -64
-42 -65 -212 -57 -169 8 -173 9 -204 73 -12 23 -17 60 -17 114 0 69 -2 78 -15
67 -11 -9 -15 -35 -15 -104 0 -54 -7 -116 -16 -151 -9 -33 -20 -100 -24 -150
-6 -85 -9 -94 -48 -149 -23 -33 -42 -65 -42 -71 0 -7 -12 -25 -27 -41 -27 -29
-68 -94 -79 -126 -12 -33 -205 -39 -225 -7 -5 8 -9 46 -10 84 -1 39 -4 59 -6
45 -3 -14 -9 -29 -14 -34 -5 -6 -9 -18 -9 -27 0 -9 -13 -43 -30 -74 -16 -31
-30 -59 -30 -61 0 -2 2236 -4 4969 -4 l4970 0 3 22 c2 18 13 25 46 33 25 6 61
27 90 53 26 23 55 42 65 42 9 0 17 4 17 9 0 5 29 12 65 16 l64 7 -19 36 c-29
53 -27 170 5 297 14 57 24 126 24 160 -1 33 -3 52 -6 43 -2 -10 -9 -18 -14
-18 -5 0 -9 -9 -9 -20 0 -24 -41 -110 -52 -110 -4 0 -8 -9 -8 -19 0 -32 -51
-61 -109 -61 -53 0 -101 16 -101 34 0 24 -46 40 -117 41 -54 0 -76 5 -92 19
-43 39 -39 155 9 206 l28 30 -25 20 c-33 26 -63 34 -76 21 -6 -6 -21 -11 -34
-11 -13 0 -23 -4 -23 -10 0 -5 -9 -10 -19 -10 -11 0 -23 -4 -26 -10 -3 -6 -17
-10 -30 -10 -13 0 -27 -4 -30 -10 -7 -12 -205 -14 -205 -2 0 23 -212 44 -225
22 -3 -5 -17 -10 -31 -10 -13 0 -24 -4 -24 -9 0 -8 -20 -12 -130 -26 -69 -8
-150 -27 -156 -37 -3 -4 -14 -8 -25 -8 -10 0 -19 -4 -19 -10 0 -5 -5 -10 -11
-10 -6 0 -27 -17 -48 -37 -41 -42 -73 -63 -96 -63 -8 0 -15 -4 -15 -8 0 -5
-12 -15 -27 -23 -14 -8 -38 -25 -53 -39 -51 -47 -82 -70 -95 -70 -7 0 -15 -6
-18 -14 -9 -24 -261 -166 -294 -166 -7 0 -21 -4 -31 -9 -29 -14 -84 -32 -147
-47 -67 -16 -157 -46 -165 -54 -3 -3 -35 -12 -72 -19 -52 -10 -78 -10 -125 -1
-100 21 -151 45 -160 78 -16 64 23 172 63 172 6 0 14 6 17 13 2 7 22 21 43 32
22 11 55 33 74 48 19 15 40 32 47 37 7 6 19 10 28 10 8 0 15 4 15 8 0 5 12 15
28 23 15 8 33 22 40 31 7 10 23 18 35 18 12 0 28 9 35 20 7 11 17 20 22 20 9
0 36 22 106 88 19 17 40 32 47 32 7 0 18 9 25 20 7 11 19 20 26 20 8 0 17 8
21 18 3 11 15 24 28 29 12 6 37 24 55 39 36 31 63 48 105 66 15 7 27 16 27 20
0 4 5 8 11 8 14 0 89 58 107 82 7 10 19 18 27 18 7 0 20 6 27 14 29 29 82 47
158 56 136 15 165 51 36 42 -57 -3 -81 -1 -99 11 -26 17 -85 38 -204 73 -45
13 -97 33 -115 44 -18 11 -42 20 -54 20 -11 0 -29 8 -40 18 -11 10 -41 22 -67
25 -26 4 -61 14 -78 22 -28 15 -35 15 -80 0 -27 -9 -71 -31 -97 -49 -70 -46
-95 -54 -215 -61 -60 -3 -144 -12 -188 -21 -186 -35 -434 -132 -524 -204 -112
-90 -166 -109 -333 -117 -86 -4 -120 -9 -113 -16 7 -7 11 -60 11 -129 0 -115
-1 -119 -27 -149 l-28 -31 -95 5 c-126 7 -188 19 -228 42 l-33 20 -73 -77
c-81 -87 -120 -108 -199 -108 -61 0 -113 -15 -142 -40 -11 -10 -52 -34 -91
-53 -64 -32 -112 -45 -229 -63 -42 -6 -53 -16 -196 -171 -107 -116 -194 -147
-390 -141 -105 3 -121 6 -174 33 -69 35 -114 88 -145 172 -12 32 -33 71 -48
86 -34 35 -98 72 -140 80 -29 6 -38 1 -100 -58 -73 -69 -103 -85 -157 -85 -45
0 -77 13 -109 45 -28 28 -32 40 -41 130 -14 142 -69 188 -238 198 -191 12
-280 41 -318 105 -18 32 -21 48 -17 127 4 80 8 97 41 160 72 137 134 205 427
473 l45 41 -90 0 c-65 0 -93 -4 -102 -14z"/>
<path d="M15182 1545 c-16 -34 -15 -35 8 -35 19 0 70 40 70 55 0 3 -15 5 -33
5 -26 0 -36 -6 -45 -25z"/>
<path d="M14930 1460 c0 -5 7 -10 15 -10 8 0 15 5 15 10 0 6 -7 10 -15 10 -8
0 -15 -4 -15 -10z"/>
<path d="M14284 1430 c-30 -19 -31 -24 -37 -102 -4 -59 -10 -84 -21 -90 -9 -5
-16 -18 -16 -29 0 -11 -10 -23 -23 -28 -24 -9 -56 -41 -41 -41 20 0 114 61
114 74 0 23 47 46 95 46 33 0 45 4 45 15 0 10 10 15 28 15 16 0 34 8 42 20 8
11 20 20 27 20 7 0 13 5 13 10 0 6 20 10 45 10 25 0 45 5 45 10 0 6 42 10 105
10 63 0 105 4 105 10 0 6 12 10 26 10 29 0 54 21 54 44 0 14 -33 16 -287 16
-270 0 -290 -2 -319 -20z"/>
<path d="M28440 1390 c0 -5 -5 -10 -10 -10 -24 0 -90 -88 -90 -120 0 -16 26
-40 44 -40 8 0 18 -4 21 -10 3 -5 22 -10 41 -10 27 0 34 4 34 20 0 17 7 20 51
20 40 0 56 5 70 21 20 23 49 20 49 -6 0 -8 5 -15 10 -15 6 0 10 33 10 80 l0
80 -115 0 c-70 0 -115 -4 -115 -10z"/>
<path d="M14003 1053 c-18 -8 -57 -36 -87 -62 -30 -25 -72 -60 -93 -77 -70
-57 -160 -266 -124 -288 6 -4 23 2 37 13 21 17 41 21 94 21 l68 0 7 48 c3 26
13 57 21 69 8 12 14 43 14 68 0 56 23 103 54 111 30 7 48 42 44 82 l-3 31 -32
-16z"/>
<path d="M15410 1040 c0 -5 -22 -10 -48 -10 -36 0 -51 -5 -62 -20 -8 -11 -22
-20 -32 -20 -10 0 -18 -4 -18 -10 0 -6 -43 -10 -108 -10 l-109 0 5 -104 c6
-145 1 -164 -71 -252 -86 -105 -98 -126 -47 -79 25 22 46 43 48 47 2 3 14 18
28 33 14 15 37 45 51 66 14 22 30 39 34 39 5 0 9 5 9 11 0 19 123 128 175 155
11 6 29 15 40 21 40 21 93 33 146 33 65 0 94 14 121 58 l20 32 -61 0 c-34 0
-61 4 -61 10 0 6 -13 10 -30 10 -16 0 -30 -4 -30 -10z"/>
<path d="M14502 917 c-7 -18 -12 -41 -12 -51 0 -9 -12 -40 -26 -68 -23 -44
-23 -50 -7 -43 10 4 38 15 63 24 36 13 48 25 66 61 13 25 26 60 29 78 l7 32
-54 0 c-52 0 -54 -1 -66 -33z"/>
<path d="M4720 852 c0 -5 10 -18 23 -30 21 -20 23 -20 45 -2 34 28 27 40 -23
40 -25 0 -45 -4 -45 -8z"/>
<path d="M2270 448 c-25 -5 -78 -12 -119 -15 -61 -4 -74 -9 -78 -24 -3 -11
-14 -19 -24 -19 -11 0 -19 -4 -19 -10 0 -5 -25 -10 -55 -10 -30 0 -55 -4 -55
-10 0 -5 -7 -10 -15 -10 -8 0 -15 -4 -15 -10 0 -5 -6 -10 -13 -10 -18 0 -37
-43 -37 -85 0 -19 -4 -35 -9 -35 -5 0 -17 -8 -27 -17 -13 -13 -38 -19 -95 -22
-68 -3 -80 0 -100 18 -23 22 -89 30 -89 11 0 -5 -7 -10 -15 -10 -8 0 -15 -9
-15 -20 0 -12 -7 -20 -16 -20 -21 0 -54 -38 -54 -62 0 -10 -4 -18 -10 -18 -5
0 -10 -16 -10 -35 l0 -35 1352 0 1352 0 -33 34 c-32 33 -32 34 -29 124 l3 90
-142 7 c-153 8 -261 1 -333 -21 -25 -8 -57 -14 -72 -14 -14 0 -73 -16 -129
-35 -98 -33 -111 -35 -237 -35 -148 0 -271 20 -314 51 -15 10 -34 19 -42 19
-8 0 -17 4 -20 9 -10 15 -90 48 -136 56 -72 11 -169 64 -228 122 -39 39 -72
50 -122 41z"/>
<path d="M14670 400 c0 -12 27 -12 55 0 16 7 13 9 -17 9 -21 1 -38 -3 -38 -9z"/>
</g>
</svg>
