<?xml version="1.0" standalone="no"?>
<!DOCTYPE svg PUBLIC "-//W3C//DTD SVG 20010904//EN"
 "http://www.w3.org/TR/2001/REC-SVG-20010904/DTD/svg10.dtd">
<svg version="1.0" xmlns="http://www.w3.org/2000/svg"
 width="1558.000000pt" height="574.000000pt" viewBox="0 0 1558.000000 574.000000"
 preserveAspectRatio="xMidYMid meet">

<g transform="translate(0.000000,574.000000) scale(0.100000,-0.100000)"
fill="#000000" stroke="none">
<path d="M10014 5211 c6 -8 -40 -26 -57 -22 -5 1 -5 -4 -1 -10 5 -8 2 -10 -8
-6 -9 3 -23 -2 -31 -11 -17 -19 -17 -18 -17 -67 0 -24 -5 -35 -15 -35 -21 0
-19 -17 6 -51 17 -24 28 -29 60 -29 36 0 39 -2 39 -27 0 -52 -10 -71 -32 -65
-14 3 -19 1 -14 -6 4 -7 1 -12 -8 -12 -12 0 -16 -11 -16 -43 0 -24 4 -47 9
-53 5 -5 7 -22 4 -39 l-4 -30 -74 3 c-66 3 -76 1 -97 -20 l-23 -23 55 -6 55
-6 -46 -1 c-36 -2 -51 -8 -73 -31 -22 -23 -26 -33 -20 -57 10 -36 7 -59 -14
-106 -14 -33 -20 -38 -48 -38 -28 0 -33 4 -36 27 -3 25 -8 28 -47 31 -37 3
-43 1 -38 -12 4 -9 2 -16 -4 -16 -6 0 -9 -7 -5 -15 4 -12 -4 -15 -39 -15 -41
0 -45 2 -45 24 0 25 -16 36 -56 36 -18 0 -24 -5 -24 -21 0 -11 -4 -17 -10 -14
-5 3 -10 2 -10 -4 0 -5 6 -12 13 -14 6 -3 -12 -6 -40 -6 -49 -1 -53 1 -53 23
0 25 -16 36 -56 36 -22 0 -31 -18 -25 -53 1 -4 -20 -7 -46 -5 -39 2 -49 7 -52
23 -4 25 -19 35 -53 35 -26 0 -34 -14 -30 -51 1 -4 -20 -6 -46 -5 -38 1 -47 5
-51 21 -4 25 -19 35 -53 35 -27 0 -35 -16 -29 -53 1 -4 -20 -7 -46 -5 -41 3
-48 6 -53 28 -5 20 -13 26 -43 28 -35 3 -37 2 -37 -27 0 -30 -2 -31 -44 -31
-40 0 -45 3 -55 30 -8 24 -16 30 -39 30 -25 0 -30 -5 -35 -30 -6 -28 -10 -30
-51 -30 -40 0 -45 3 -55 30 -8 24 -16 30 -40 30 -25 0 -30 -4 -33 -27 -3 -25
-7 -28 -48 -31 -42 -3 -46 -1 -57 28 -9 24 -17 30 -42 30 -28 0 -31 -3 -31
-30 0 -29 -1 -30 -49 -30 -47 0 -50 2 -53 28 -3 23 -8 27 -40 30 -36 3 -38 2
-38 -27 0 -30 -1 -31 -49 -31 -47 0 -50 2 -53 27 -2 23 -9 29 -40 34 -20 3
-37 3 -36 0 0 -3 0 -18 -1 -33 -1 -27 -3 -28 -56 -28 -30 0 -54 3 -54 8 6 37
-2 48 -31 44 -16 -2 -30 -10 -30 -18 0 -7 -9 -18 -20 -24 -11 -6 -20 -9 -20
-6 0 3 -14 1 -30 -4 -19 -5 -28 -5 -25 1 4 5 1 9 -4 9 -6 0 -11 9 -11 20 0 16
-7 20 -34 20 -28 0 -35 -4 -38 -22 -3 -20 -10 -23 -50 -26 -44 -3 -48 -1 -54
22 -5 21 -12 26 -39 26 -27 0 -34 -4 -37 -22 -3 -20 -10 -23 -50 -26 -47 -2
-53 2 -49 36 1 8 -12 12 -38 12 -33 0 -40 -3 -43 -22 -3 -20 -9 -23 -50 -23
-43 -1 -48 1 -48 22 0 20 -5 23 -40 23 -33 0 -40 -3 -40 -20 0 -21 -23 -29
-72 -27 -22 1 -28 6 -28 24 0 20 -5 23 -40 23 -36 0 -40 -2 -40 -25 0 -23 -3
-25 -50 -25 -47 0 -50 2 -50 25 0 23 -4 25 -40 25 -36 0 -40 -3 -40 -25 0 -23
-3 -24 -49 -22 -27 0 -49 4 -49 7 3 34 -4 40 -42 40 -36 0 -40 -2 -40 -25 0
-24 -3 -26 -45 -24 -38 2 -46 6 -51 26 -5 18 -13 23 -39 23 -27 0 -34 -5 -39
-25 -6 -23 -11 -26 -51 -24 -43 3 -49 8 -46 37 1 8 -12 12 -37 12 -34 0 -41
-4 -46 -25 -6 -23 -11 -26 -49 -24 -35 2 -43 6 -44 22 -2 24 -3 25 -28 27 -41
5 -53 -1 -59 -25 -6 -23 -11 -26 -49 -24 -35 2 -43 6 -44 22 -3 30 -18 40 -51
32 -21 -4 -32 -14 -36 -31 -6 -22 -11 -24 -50 -22 -25 2 -44 5 -44 8 3 39 -4
50 -29 50 -35 0 -48 -9 -58 -38 -5 -19 -13 -23 -38 -20 -27 3 -33 8 -36 33 -4
30 -4 30 -11 5 -7 -23 -8 -23 -9 -4 -2 45 -74 34 -85 -12 -5 -18 -13 -24 -34
-24 -38 1 -66 24 -59 50 4 14 0 20 -12 20 -31 0 -70 -25 -76 -47 -11 -47 -41
-18 -36 35 2 31 1 33 -18 22 -19 -10 -25 -24 -24 -57 1 -7 -3 -11 -7 -8 -5 3
-7 32 -5 65 4 62 -5 75 -34 48 -10 -10 -12 -10 -7 -1 5 9 -19 12 -101 11 -120
-1 -138 -8 -148 -62 -7 -35 -25 -76 -35 -76 -3 0 -7 12 -8 26 -4 47 -7 48 -87
31 -11 -2 -22 -15 -25 -28 -5 -19 -12 -24 -35 -24 -25 0 -31 5 -35 29 -3 16
-11 31 -19 34 -8 3 -11 1 -8 -4 3 -5 -13 -8 -35 -7 -36 1 -41 -2 -50 -29 -8
-24 -15 -29 -37 -26 -20 2 -27 10 -31 32 -3 16 -11 31 -19 34 -8 3 -11 1 -8
-4 3 -5 -13 -8 -35 -7 -36 1 -41 -2 -50 -29 -14 -39 -51 -36 -56 5 -3 22 -8
27 -20 23 -13 -5 -12 -3 2 9 15 11 16 15 5 15 -8 0 -20 -5 -27 -12 -9 -9 -12
-6 -12 17 0 16 -10 39 -22 52 -25 27 -7 32 20 5 28 -28 42 -16 42 37 0 75 -12
81 -161 79 -68 -1 -96 -3 -62 -5 43 -3 65 -9 75 -21 11 -15 11 -15 -2 -5 -9 7
-43 13 -75 15 l-60 3 -7 65 c-3 36 -11 78 -18 95 -8 21 -9 79 -4 199 5 125 4
167 -4 162 -8 -5 -10 -1 -6 8 5 13 -1 16 -29 16 -27 0 -37 -5 -42 -21 -4 -11
-4 -123 0 -249 4 -125 5 -240 1 -254 l-6 -25 -104 4 c-76 4 -106 2 -114 -7 -9
-12 -13 -31 -30 -156 -7 -53 -7 -53 -77 -95 -68 -41 -70 -44 -75 -87 -5 -41
-8 -45 -35 -50 -29 -5 -30 -8 -33 -60 -5 -78 3 -100 34 -100 27 0 27 0 20 -62
-4 -34 -10 -66 -13 -71 -9 -14 -211 -6 -217 9 -3 7 -24 14 -48 16 -34 2 -43 7
-42 21 3 30 -37 18 -49 -16 -6 -15 -23 -17 -166 -17 -96 0 -162 4 -166 10 -8
13 -109 13 -153 1 -20 -6 -32 -6 -32 0 0 16 -30 10 -47 -11 -17 -19 -30 -20
-509 -20 l-492 0 -31 25 c-29 25 -34 26 -171 24 -119 -1 -142 -4 -150 -17 -9
-16 -11 -16 -24 1 -12 16 -38 17 -342 15 -314 -3 -329 -4 -332 -22 -2 -10 3
-23 12 -28 25 -14 19 -28 -13 -28 -34 0 -41 -17 -41 -100 0 -87 10 -132 32
-138 12 -3 18 -14 18 -33 l0 -29 327 0 c288 0 329 2 345 16 16 16 18 16 24 0
5 -14 27 -16 162 -16 85 0 152 3 149 7 -4 3 7 15 23 25 28 17 62 18 515 18
464 0 485 -1 494 -19 10 -17 61 -36 61 -22 0 3 39 5 86 3 53 -2 91 1 97 7 7 7
68 11 164 11 l152 0 9 -32 c7 -28 13 -34 40 -36 l32 -3 0 -64 c0 -35 5 -67 11
-70 6 -4 42 -9 82 -11 39 -2 74 -9 77 -15 4 -6 20 -9 36 -7 27 3 29 6 28 40
-1 21 1 36 5 33 16 -9 -7 86 -24 105 -15 17 -16 23 -5 33 10 10 12 8 6 -8 -6
-16 -5 -18 6 -7 10 10 10 16 0 32 -11 18 -10 20 18 20 26 0 30 -3 30 -29 0
-16 6 -34 14 -40 17 -14 25 -49 39 -176 l12 -100 38 -18 c57 -28 204 -61 184
-41 -10 10 49 54 72 54 16 0 23 -8 27 -30 6 -25 11 -30 37 -30 20 0 39 10 59
30 38 40 74 40 83 0 9 -41 51 -41 97 0 18 17 42 30 54 30 17 0 24 -8 29 -30 9
-42 52 -42 95 0 41 40 76 40 85 0 6 -25 11 -30 36 -30 21 0 38 9 56 30 35 42
78 42 86 0 6 -26 11 -30 37 -30 22 0 39 9 57 30 34 41 80 42 85 3 2 -23 8 -29
36 -31 26 -3 37 3 58 27 35 42 81 44 86 4 3 -24 8 -28 41 -31 36 -3 44 5 38
41 -1 5 3 6 8 3 5 -4 12 -2 16 4 3 5 21 10 40 10 29 0 34 -4 37 -27 3 -24 8
-28 41 -31 36 -3 44 5 38 41 -1 5 3 6 8 3 5 -4 12 -2 16 4 3 5 22 10 41 10 31
0 34 -2 34 -30 0 -28 2 -30 40 -30 35 0 40 3 40 24 0 25 21 36 73 36 23 0 27
-4 27 -30 0 -27 3 -30 34 -30 31 0 53 19 48 42 -2 10 41 20 69 16 18 -2 25
-10 27 -30 3 -24 8 -28 37 -28 28 0 35 5 44 30 9 27 15 30 50 30 36 0 40 -3
46 -30 6 -26 11 -30 39 -30 26 0 34 5 43 30 10 26 16 30 51 30 37 0 41 -3 44
-27 3 -24 8 -28 41 -31 36 -3 41 1 36 34 -2 13 27 24 64 24 35 0 37 -2 37 -30
0 -28 2 -30 40 -30 36 0 40 3 40 24 0 27 16 36 66 36 31 0 34 -3 34 -30 0 -28
2 -30 39 -30 36 0 40 3 43 28 3 25 6 27 48 27 42 0 45 -2 48 -28 3 -25 7 -28
38 -25 19 2 34 5 33 8 -2 3 3 15 10 28 10 19 19 23 54 20 37 -3 42 -6 45 -30
3 -24 8 -28 35 -28 27 0 35 5 44 30 10 26 16 30 51 30 37 0 41 -3 47 -30 6
-26 11 -30 40 -30 29 0 34 4 37 28 3 25 7 27 50 30 44 3 47 2 50 -25 l3 -28
318 -3 317 -2 50 25 50 25 0 78 c0 43 4 82 9 88 5 5 11 18 14 29 3 11 5 -11 6
-48 1 -64 3 -71 35 -103 29 -29 41 -34 79 -34 33 0 53 -6 73 -23 l26 -23 -1
-250 c0 -137 -1 -262 -1 -279 0 -20 -3 -25 -9 -17 -13 21 -28 -6 -36 -65 -6
-45 -4 -53 14 -62 11 -6 28 -11 38 -11 44 -1 45 -7 33 -191 -31 -484 -142
-975 -320 -1421 -23 -59 -47 -106 -53 -105 -6 1 -12 -7 -14 -18 -3 -16 -2 -17
6 -5 16 23 13 5 -6 -34 -13 -29 -14 -39 -4 -65 11 -24 29 -37 104 -70 134 -58
217 -90 217 -85 0 3 7 -2 16 -10 14 -14 35 -21 57 -17 4 0 7 -4 7 -10 0 -5 5
-7 10 -4 6 3 10 2 10 -3 0 -12 56 -33 64 -25 3 4 6 1 6 -6 0 -7 5 -9 10 -6 6
3 10 2 10 -3 0 -6 14 -15 30 -21 17 -5 30 -8 30 -5 0 3 7 -2 16 -10 14 -14 35
-21 57 -17 4 0 7 -4 7 -10 0 -5 4 -8 9 -5 5 4 11 1 13 -4 2 -6 13 -12 26 -13
12 0 22 -5 22 -10 0 -4 5 -5 10 -2 6 3 10 2 10 -3 0 -12 56 -33 64 -25 3 4 6
2 6 -4 0 -11 89 -44 130 -48 14 -1 32 -6 41 -9 13 -6 21 3 35 41 9 26 21 53
25 59 14 18 135 334 179 464 96 290 175 610 224 905 21 129 33 231 62 520 l5
50 57 0 c46 0 70 -7 130 -38 139 -72 320 -95 475 -61 40 9 114 36 166 60 92
43 96 44 197 44 115 0 118 -2 130 -75 3 -20 12 -51 20 -70 8 -19 14 -45 14
-58 0 -13 5 -28 12 -35 7 -7 9 -12 5 -12 -4 0 -1 -16 7 -35 9 -20 15 -38 16
-40 0 -3 1 -7 1 -10 1 -3 3 -9 4 -15 1 -5 3 -11 5 -12 1 -2 4 -16 6 -32 3 -16
12 -42 20 -57 8 -16 14 -31 14 -34 0 -3 1 -7 1 -10 1 -3 3 -9 4 -15 1 -5 4
-12 5 -15 1 -3 3 -8 5 -12 1 -5 4 -15 7 -23 8 -21 58 -173 61 -185 1 -5 6 -16
10 -22 5 -7 5 -13 1 -13 -3 0 -2 -6 4 -13 6 -7 13 -24 16 -39 2 -14 11 -40 20
-57 9 -17 14 -31 10 -31 -4 0 -1 -7 6 -15 7 -8 9 -15 6 -15 -4 0 -1 -10 6 -22
7 -13 13 -26 14 -30 1 -5 3 -10 4 -13 1 -3 3 -9 4 -14 0 -5 4 -13 9 -17 15
-15 7 -68 -15 -91 l-22 -23 24 -32 c12 -17 16 -27 9 -23 -8 5 0 -5 16 -22 17
-17 48 -36 70 -42 77 -20 302 -35 510 -35 244 0 305 7 312 34 3 11 18 22 34
25 16 4 31 10 33 13 2 4 -6 46 -19 94 -13 48 -21 96 -18 107 3 12 2 29 -2 38
-5 10 -10 29 -12 43 -20 128 -168 563 -202 590 -3 3 -6 10 -6 15 0 18 -86 173
-111 200 -13 14 -23 29 -22 33 2 15 -68 101 -87 106 -10 3 -17 8 -13 11 3 3
-8 20 -24 37 -40 43 -56 76 -78 161 -38 151 -35 391 7 432 8 8 12 15 8 15 -3
0 2 11 11 25 24 36 82 70 127 74 5 1 7 22 5 48 l-3 48 65 8 c36 5 71 9 77 9 7
1 11 4 8 6 -3 3 -1 10 4 16 5 6 11 39 13 73 2 33 6 59 10 57 15 -9 28 37 28
95 l0 61 173 0 c94 0 182 3 195 6 21 6 22 4 22 -63 0 -38 3 -73 8 -77 4 -4 7
-13 7 -19 0 -9 59 -14 205 -17 149 -4 216 -10 246 -21 47 -18 116 -68 109 -79
-5 -9 53 -191 66 -204 5 -6 9 -29 9 -52 0 -34 4 -44 20 -49 11 -3 20 -11 20
-16 0 -5 64 -9 151 -9 128 0 154 -3 163 -16 24 -33 211 -27 191 6 -4 7 46 10
143 10 220 0 229 -4 374 -152 65 -66 115 -125 111 -131 -3 -5 -2 -7 4 -4 5 3
41 -26 79 -65 38 -40 60 -66 49 -58 -13 9 -12 5 5 -12 14 -14 29 -23 34 -20 5
3 6 0 3 -6 -4 -5 8 -23 25 -38 18 -15 32 -31 30 -36 -1 -5 9 -13 23 -18 14 -5
25 -12 25 -15 0 -4 -6 -3 -12 1 -9 5 -9 3 1 -9 7 -9 17 -15 21 -12 4 3 14 -3
21 -12 12 -14 12 -16 -1 -8 -8 4 -2 -6 14 -23 34 -36 49 -43 20 -10 -10 13 4
3 31 -22 28 -24 56 -52 63 -62 7 -10 18 -15 24 -12 6 4 8 2 4 -4 -3 -6 4 -18
16 -26 13 -9 72 -64 131 -123 l108 -108 277 0 c152 0 329 3 392 8 98 6 117 11
138 30 34 32 46 57 33 70 -21 21 -11 48 24 68 40 24 41 26 19 50 -20 22 -4 56
31 65 27 7 31 24 13 53 -15 24 -4 49 27 61 29 11 32 26 10 50 -20 22 -10 47
26 66 31 16 38 38 14 48 -25 9 -19 55 9 66 36 13 41 29 17 54 -25 27 -19 53
15 67 27 10 32 44 9 53 -25 9 -18 55 10 68 31 14 32 34 4 57 -18 15 -20 21
-10 39 6 12 20 26 31 32 26 14 26 36 0 50 -29 16 -26 58 5 70 14 5 25 16 25
24 0 7 -11 21 -25 30 -14 9 -25 25 -25 35 0 10 11 26 25 35 14 9 25 22 25 30
0 7 -11 18 -25 24 -37 17 -33 77 5 77 8 0 15 8 15 18 0 9 -3 16 -7 15 -8 -4
-48 47 -48 60 0 6 12 19 27 30 30 22 26 52 -6 52 -32 0 -40 49 -13 71 30 23
28 45 -5 61 -36 17 -40 44 -12 74 25 26 21 36 -23 58 -28 14 -35 48 -13 66 25
21 18 50 -15 61 -16 6 -31 16 -31 22 -1 7 -3 22 -4 34 -1 12 3 21 8 20 22 -4
17 34 -13 108 -18 42 -39 82 -47 90 -8 8 -11 15 -7 15 4 0 -3 11 -16 25 -13
14 -31 25 -41 25 -22 0 -35 20 -20 30 9 5 10 17 4 41 -16 60 -103 64 -103 4 0
-12 3 -25 7 -29 4 -3 8 -13 9 -20 1 -10 -12 -13 -55 -11 -71 3 -64 0 -84 34
-20 35 -94 67 -131 57 -56 -14 -108 -86 -119 -163 -2 -12 -5 -24 -8 -26 -6 -6
-1547 -18 -2197 -17 -471 0 -551 -2 -608 -16 -50 -13 -64 -20 -59 -32 5 -13 3
-13 -12 -1 -10 8 -22 20 -26 27 -7 10 -61 13 -245 12 -223 -2 -312 4 -312 19
0 16 -40 30 -67 22 -25 -7 -29 -6 -31 13 -1 16 1 18 8 6 6 -9 10 -10 10 -3 0
7 18 18 40 24 40 12 48 27 34 63 -5 13 -24 16 -98 17 -88 0 -90 2 -31 25 19 7
19 8 -4 12 -13 2 -26 12 -28 23 -3 10 -8 19 -12 19 -56 0 -391 10 -403 12 -10
1 -18 6 -18 11 0 4 -4 5 -10 2 -5 -3 -10 -1 -10 6 0 7 -3 9 -7 6 -3 -4 -12 1
-19 11 -7 9 -18 17 -26 17 -7 0 -13 5 -13 12 0 21 -19 31 -67 35 -45 3 -48 2
-49 -22 -1 -14 -1 -28 0 -32 0 -5 -15 -8 -34 -8 -39 0 -37 -7 -37 115 1 103
-9 138 -38 146 l-25 7 27 1 c26 1 27 3 23 51 -3 31 -1 50 6 50 6 0 9 18 7 43
-2 27 -7 41 -15 40 -7 -2 -13 2 -13 8 0 6 -8 8 -18 5 -20 -7 -22 -3 -25 59
l-2 40 43 3 c41 3 42 4 42 37 0 41 -26 60 -71 50 l-29 -7 0 54 c0 73 -8 98
-32 98 -10 0 -17 -4 -14 -9z m-74 -45 c0 -2 -8 -10 -17 -17 -16 -13 -17 -12
-4 4 13 16 21 21 21 13z m107 -233 c-3 -10 -5 -2 -5 17 0 19 2 27 5 18 2 -10
2 -26 0 -35z m23 -28 c0 -9 -6 -12 -16 -8 -13 5 -13 7 -2 14 17 11 18 11 18
-6z m7 -192 c-3 -10 -5 -4 -5 12 0 17 2 24 5 18 2 -7 2 -21 0 -30z m-10 -39
c-3 -3 -12 -4 -19 -1 -8 3 -5 6 6 6 11 1 17 -2 13 -5z m-6307 -73 c0 -13 -12
-20 -25 -14 -8 2 -11 11 -9 18 6 14 34 10 34 -4z m1101 -88 c13 -16 12 -17 -3
-4 -10 7 -18 15 -18 17 0 8 8 3 21 -13z m2761 -215 c-9 -9 -12 -7 -12 12 0 19
3 21 12 12 9 -9 9 -15 0 -24z m74 -15 c-2 -9 -8 -19 -14 -21 -16 -5 -15 25 1
31 6 3 13 6 14 6 1 1 0 -7 -1 -16z m6972 -15 c18 -18 14 -40 -12 -71 -28 -34
-54 -33 -75 4 -13 24 -13 29 2 53 19 28 63 36 85 14z m-3875 -45 c-7 -2 -21
-2 -30 0 -10 3 -4 5 12 5 17 0 24 -2 18 -5z m105 -10 c-10 -2 -26 -2 -35 0
-10 3 -2 5 17 5 19 0 27 -2 18 -5z m-112 -15 c3 -4 13 -4 22 -1 10 4 13 2 8
-5 -9 -14 -42 -16 -51 -2 -3 5 -13 6 -22 3 -11 -4 -14 -3 -9 5 7 12 40 11 52
0z m78 -6 c2 -4 -4 -8 -15 -8 -10 0 -19 4 -19 8 0 4 6 8 14 8 8 0 17 -4 20 -8z
m-371 -9 c-7 -2 -21 -2 -30 0 -10 3 -4 5 12 5 17 0 24 -2 18 -5z m-904 -45
c-1 -24 -3 -35 -6 -25 -5 21 -23 23 -23 2 0 -8 -4 -15 -10 -15 -5 0 -10 16
-10 35 0 19 5 35 10 35 6 0 10 -4 10 -10 0 -5 5 -10 10 -10 6 0 10 7 10 15 0
8 2 15 5 15 3 0 4 -19 4 -42z m41 2 c-11 -22 -23 -40 -25 -40 -3 0 -5 16 -5
35 0 19 5 35 11 35 5 0 7 -6 3 -12 -4 -7 2 -5 12 5 26 25 27 22 4 -23z m90 0
c0 -37 -1 -39 -19 -28 -18 11 -18 14 -5 40 19 38 24 35 24 -12z m39 -2 c-1
-39 -2 -41 -8 -13 -4 17 -5 36 -3 43 8 23 12 12 11 -30z m56 32 c3 -5 -2 -10
-11 -10 -16 0 -16 -1 1 -14 12 -8 16 -19 12 -30 -9 -23 -31 -15 -35 13 -6 40
16 68 33 41z m72 -4 c-14 -11 -15 -15 -5 -19 9 -4 10 -8 2 -14 -6 -4 -14 -15
-17 -23 -3 -8 -6 4 -6 28 -1 37 2 42 22 42 21 -1 21 -1 4 -14z m-2215 -41 c2
-21 -2 -30 -14 -33 -14 -3 -18 3 -18 31 0 58 26 60 32 2z m1312 4 c0 -29 -29
-33 -30 -4 -1 27 5 37 19 32 6 -2 11 -14 11 -28z m41 1 c0 -13 -6 -25 -12 -27
-9 -3 -13 6 -13 27 0 21 4 30 12 28 7 -3 13 -15 13 -28z m70 9 c9 -26 -10 -48
-26 -32 -12 12 -3 53 11 53 5 0 12 -9 15 -21z m34 -9 c-14 -38 -16 -38 -15 0
1 16 6 30 13 30 9 0 9 -8 2 -30z m43 23 c-10 -4 -10 -8 -2 -19 12 -14 6 -34
-11 -34 -5 0 -9 5 -9 11 0 5 5 7 10 4 6 -3 10 -1 10 4 0 6 -4 11 -10 11 -5 0
-10 7 -10 15 0 8 8 15 18 14 11 0 12 -2 4 -6z m48 -7 c0 -8 -5 -18 -11 -22 -8
-4 -7 -9 2 -15 11 -7 10 -9 -3 -9 -20 0 -24 15 -8 25 6 3 10 11 10 16 0 6 -4
7 -10 4 -5 -3 -10 -1 -10 4 0 6 7 11 15 11 8 0 15 -6 15 -14z m40 -16 c0 -31
-16 -41 -26 -15 -8 19 2 45 16 45 5 0 10 -13 10 -30z m40 -1 c0 -19 -4 -29
-12 -27 -12 4 -20 37 -12 50 11 18 24 6 24 -23z m-1560 11 c-5 -3 -5 -11 0
-20 15 -23 12 -27 -22 -28 -30 -1 -33 2 -34 27 -1 26 2 29 32 28 19 -1 30 -4
24 -7z m70 0 c0 -5 -4 -10 -10 -10 -5 0 -10 5 -10 10 0 6 5 10 10 10 6 0 10
-4 10 -10z m55 -20 c0 -16 -6 -26 -17 -28 -14 -3 -18 3 -18 28 0 25 4 31 18
28 11 -2 17 -12 17 -28z m55 19 c0 -5 -4 -8 -9 -4 -15 9 -24 -16 -11 -28 10
-9 11 -9 6 1 -4 6 -2 12 3 12 6 0 11 -7 11 -15 0 -8 -7 -15 -15 -15 -18 0 -30
24 -21 45 6 17 36 21 36 4z m84 -4 c-15 -11 -16 -14 -3 -15 8 0 21 6 29 13 12
10 12 9 2 -4 -6 -9 -8 -19 -4 -23 4 -4 -5 -5 -21 -1 -18 5 -27 3 -27 -5 0 -6
-4 -8 -10 -5 -5 3 -10 13 -10 21 0 8 4 13 9 10 5 -3 14 1 21 9 7 8 17 15 23
15 6 0 2 -7 -9 -15z m66 -9 c0 -2 -7 -7 -16 -10 -8 -3 -12 -2 -9 4 6 10 25 14
25 6z m1580 -17 c0 -6 -4 -7 -10 -4 -5 3 -10 11 -10 16 0 6 5 7 10 4 6 -3 10
-11 10 -16z m-1850 -9 c0 -5 -4 -10 -10 -10 -5 0 -10 5 -10 10 0 6 5 10 10 10
6 0 10 -4 10 -10z m280 6 c0 -2 -7 -7 -16 -10 -8 -3 -12 -2 -9 4 6 10 25 14
25 6z m3110 -250 c0 -26 -6 -18 -14 19 -5 22 -4 26 4 15 5 -8 10 -24 10 -34z
m413 12 c4 -10 8 -9 16 2 6 8 11 11 12 5 0 -5 2 -17 4 -26 2 -12 -5 -16 -26
-17 -24 -1 -29 3 -29 24 0 25 15 33 23 12z m-433 -18 c0 -5 -2 -10 -4 -10 -3
0 -8 5 -11 10 -3 6 -1 10 4 10 6 0 11 -4 11 -10z m260 0 c0 -5 -5 -10 -11 -10
-5 0 -7 5 -4 10 3 6 8 10 11 10 2 0 4 -4 4 -10z m127 -12 c-3 -8 -6 -5 -6 6
-1 11 2 17 5 13 3 -3 4 -12 1 -19z m-8517 -152 c0 -2 -8 -10 -17 -17 -16 -13
-17 -12 -4 4 13 16 21 21 21 13z m8130 -52 c0 -2 -7 -4 -15 -4 -8 0 -15 4 -15
10 0 5 7 7 15 4 8 -4 15 -8 15 -10z m-7078 -186 c-20 -20 -35 -23 -119 -27
-100 -3 -162 8 -183 34 -11 13 8 15 156 15 l168 0 -22 -22z m6191 -35 c-18 -2
-48 -2 -65 0 -18 2 -4 4 32 4 36 0 50 -2 33 -4z m-843 -23 c0 -11 5 -20 10
-20 6 0 10 9 10 20 0 22 15 27 26 8 5 -7 3 -8 -7 -3 -12 8 -12 6 -1 -8 19 -22
8 -35 -27 -33 -38 2 -47 11 -30 33 12 14 12 16 0 8 -10 -5 -12 -4 -7 3 11 19
26 14 26 -8z m115 -1 c10 -29 -8 -44 -32 -28 -18 11 -19 13 -4 30 21 23 28 23
36 -2z m45 14 c-1 -5 -7 -19 -14 -32 -13 -24 -13 -24 -12 8 1 17 6 31 14 31 6
0 12 -3 12 -7z m32 0 c-10 -4 -10 -8 -2 -19 12 -14 6 -34 -11 -34 -5 0 -9 5
-9 11 0 5 5 7 10 4 6 -3 10 -1 10 4 0 6 -4 11 -10 11 -5 0 -10 7 -10 15 0 8 8
15 18 14 11 0 12 -2 4 -6z m43 -3 c4 -6 2 -17 -5 -24 -8 -11 -8 -15 2 -19 8
-4 7 -6 -4 -6 -19 -1 -24 14 -8 24 6 3 10 11 10 16 0 6 -4 7 -10 4 -5 -3 -10
-1 -10 4 0 14 17 14 25 1z m45 -20 c0 -20 -5 -30 -15 -30 -15 0 -21 40 -8 53
14 15 23 6 23 -23z m40 -1 c0 -19 -4 -29 -12 -27 -12 4 -20 37 -12 50 11 18
24 6 24 -23z m417 -1 c-3 -7 -5 -2 -5 12 0 14 2 19 5 13 2 -7 2 -19 0 -25z
m-2212 -168 c8 0 15 5 15 10 0 6 11 10 25 10 14 0 25 -4 25 -10 0 -5 14 -10
30 -10 17 0 30 5 30 10 0 15 32 12 54 -5 16 -12 17 -15 4 -15 -9 0 -18 6 -21
13 -3 10 -9 10 -26 0 -25 -15 -81 -17 -81 -3 0 6 -7 10 -15 10 -8 0 -15 -4
-15 -10 0 -5 -11 -10 -25 -10 -25 0 -25 1 -23 83 l2 82 3 -77 c3 -60 7 -78 18
-78z m41 50 c9 0 14 10 14 30 0 28 3 30 36 30 27 0 37 -5 41 -20 3 -11 10 -17
17 -13 6 4 4 -2 -4 -13 -8 -10 -16 -21 -18 -24 -2 -3 -3 2 -2 10 5 32 -1 50
-15 50 -11 0 -15 -13 -17 -47 l-2 -48 -3 48 c-4 51 -23 66 -23 17 0 -25 -4
-30 -25 -30 -24 0 -25 2 -23 58 l2 57 3 -52 c3 -38 8 -53 19 -53z m164 56 c0
-2 -11 -6 -25 -8 -13 -3 -22 -1 -19 3 5 9 44 13 44 5z m-21 -32 c-10 -13 -10
-17 2 -25 11 -7 9 -9 -9 -9 -16 0 -21 4 -16 13 11 20 26 37 31 37 3 0 0 -7 -8
-16z m6146 -54 c0 -13 -43 -15 -317 -18 -261 -2 -318 0 -318 11 0 8 3 17 7 20
4 4 146 6 317 5 269 -3 311 -5 311 -18z m-4235 -65 l0 -45 -75 0 -75 0 0 40 0
39 63 4 c34 2 68 4 75 5 8 1 12 -13 12 -43z m140 35 c0 -5 -11 -10 -24 -10
-14 0 -28 5 -31 10 -4 6 7 10 24 10 17 0 31 -4 31 -10z m383 -27 c-7 -2 -21
-2 -30 0 -10 3 -4 5 12 5 17 0 24 -2 18 -5z m-823 -37 c0 -2 -9 -6 -20 -9 -11
-3 -18 -1 -14 4 5 9 34 13 34 5z m-24 -53 c-7 -7 -26 7 -26 19 0 6 6 6 15 -2
9 -7 13 -15 11 -17z m-1761 -173 c7 0 16 10 18 23 2 12 4 0 4 -28 0 -27 -2
-40 -4 -27 -5 27 -33 29 -33 2 0 -11 -4 -20 -10 -20 -12 0 -13 16 -3 61 6 28
8 30 11 12 2 -13 10 -23 17 -23z m74 24 c7 9 18 16 24 16 5 0 2 -9 -8 -20 -17
-18 -17 -21 -1 -45 9 -14 12 -25 6 -25 -6 0 -13 7 -16 15 -9 22 -22 18 -27 -7
-2 -13 -5 2 -5 32 0 33 2 47 7 37 6 -17 8 -17 20 -3z m105 -72 c-4 -4 -9 -1
-11 6 -3 6 -11 12 -19 12 -8 0 -14 4 -14 9 0 13 17 23 23 14 2 -5 2 -2 1 5 -2
6 0 20 3 30 5 12 10 5 16 -26 5 -24 5 -47 1 -50z m54 41 c-1 -37 -2 -41 -5
-15 -2 18 -9 30 -14 27 -13 -9 -11 9 3 23 18 18 18 16 16 -35z m67 2 c0 -33
-3 -40 -20 -40 -22 0 -30 24 -21 61 5 17 12 24 24 22 13 -2 17 -13 17 -43z
m100 35 c-3 -5 -13 -10 -21 -10 -20 0 -17 -20 4 -21 15 -1 15 -2 0 -6 -9 -2
-19 -14 -21 -26 -2 -12 -5 -1 -6 26 -1 44 1 47 25 47 14 0 23 -4 19 -10z
m1215 -37 c49 -55 70 -109 70 -179 0 -70 -19 -133 -55 -180 -26 -34 -33 -64
-15 -64 16 0 90 71 84 81 -3 5 0 9 6 9 23 0 64 113 70 193 3 42 3 77 -1 77 -3
0 -6 22 -8 49 l-2 49 42 -9 c86 -20 132 -60 159 -139 16 -48 16 -54 0 -113
-18 -64 -44 -120 -51 -112 -3 2 -24 -13 -48 -35 -31 -29 -41 -44 -37 -58 8
-25 -52 -80 -125 -115 -51 -24 -142 -46 -199 -48 -81 -3 -189 30 -260 80 -44
30 -59 48 -73 87 -10 27 -27 58 -37 69 -76 81 -61 252 28 327 17 14 28 29 25
32 -4 3 16 6 43 6 27 0 58 7 68 15 15 12 51 15 152 15 l132 0 32 -37z m-1610
-103 c0 -5 7 -7 15 -4 11 5 15 -1 15 -18 0 -21 -5 -25 -30 -25 -30 0 -49 25
-35 47 8 13 35 13 35 0z m47 -37 c-3 -10 -5 -2 -5 17 0 19 2 27 5 18 2 -10 2
-26 0 -35z m71 22 c2 -26 -12 -42 -23 -25 -3 5 0 10 7 10 10 0 10 2 -1 9 -7 5
-10 14 -7 20 12 18 22 13 24 -14z m50 0 c1 -13 -2 -26 -7 -29 -4 -3 -8 8 -9
24 -1 36 13 40 16 5z m29 5 c-3 -12 -1 -18 5 -14 6 4 9 1 7 -5 -7 -21 -24 -13
-27 14 -2 14 2 25 9 25 6 0 9 -8 6 -20z m223 -5 c0 -18 -4 -23 -15 -19 -17 7
-17 7 -9 28 9 24 24 19 24 -9z m28 0 c1 -14 -2 -25 -6 -25 -4 0 -9 11 -10 25
-1 14 2 25 6 25 4 0 9 -11 10 -25z m-178 -5 c0 -25 -20 -27 -21 -2 0 14 -2 14
-9 -3 -8 -19 -9 -19 -9 3 -1 16 5 22 19 22 13 0 20 -7 20 -20z m50 0 c0 -13
-7 -20 -20 -20 -13 0 -20 7 -20 20 0 13 7 20 20 20 13 0 20 -7 20 -20z m46 -5
c1 -12 -4 -22 -11 -22 -7 0 -12 10 -11 22 0 12 6 22 11 22 6 0 11 -10 11 -22z
m161 -407 c-2 -13 -4 -5 -4 17 -1 22 1 32 4 23 2 -10 2 -28 0 -40z m280 -50
c-2 -13 -4 -5 -4 17 -1 22 1 32 4 23 2 -10 2 -28 0 -40z m-290 -80 c-3 -8 -6
-5 -6 6 -1 11 2 17 5 13 3 -3 4 -12 1 -19z m280 -50 c-3 -7 -5 -2 -5 12 0 14
2 19 5 13 2 -7 2 -19 0 -25z"/>
<path d="M9790 4130 c0 -5 5 -10 10 -10 6 0 10 5 10 10 0 6 -4 10 -10 10 -5 0
-10 -4 -10 -10z"/>
<path d="M7652 4130 c0 -19 2 -27 5 -17 2 9 2 25 0 35 -3 9 -5 1 -5 -18z"/>
<path d="M8960 4120 c0 -5 5 -10 11 -10 5 0 7 5 4 10 -3 6 -8 10 -11 10 -2 0
-4 -4 -4 -10z"/>
<path d="M9070 4125 c0 -8 5 -15 10 -15 6 0 10 7 10 15 0 8 -4 15 -10 15 -5 0
-10 -7 -10 -15z"/>
<path d="M7701 4125 c-1 -14 5 -21 18 -21 11 0 17 5 14 13 -3 7 -9 11 -13 8
-5 -3 -11 1 -13 7 -3 7 -6 4 -6 -7z"/>
<path d="M9530 3374 c0 -8 5 -12 10 -9 6 3 10 10 10 16 0 5 -4 9 -10 9 -5 0
-10 -7 -10 -16z"/>
<path d="M9920 3173 c0 -24 17 -49 27 -40 4 5 1 12 -7 17 -16 10 -15 12 15 28
19 11 18 11 -7 12 -20 0 -28 -5 -28 -17z"/>
<path d="M9988 3183 c7 -3 16 -2 19 1 4 3 -2 6 -13 5 -11 0 -14 -3 -6 -6z"/>
<path d="M10041 3178 c0 -9 -4 -25 -7 -35 -5 -14 -4 -15 5 -7 7 7 11 22 8 35
-2 13 -5 16 -6 7z"/>
<path d="M9968 3163 c7 -3 16 -2 19 1 4 3 -2 6 -13 5 -11 0 -14 -3 -6 -6z"/>
<path d="M10010 3159 c0 -5 5 -7 10 -4 6 3 10 8 10 11 0 2 -4 4 -10 4 -5 0
-10 -5 -10 -11z"/>
<path d="M9988 3133 c7 -3 16 -2 19 1 4 3 -2 6 -13 5 -11 0 -14 -3 -6 -6z"/>
<path d="M8250 2930 c0 -5 5 -10 11 -10 5 0 7 5 4 10 -3 6 -8 10 -11 10 -2 0
-4 -4 -4 -10z"/>
<path d="M8250 2884 c0 -8 5 -12 10 -9 6 3 10 10 10 16 0 5 -4 9 -10 9 -5 0
-10 -7 -10 -16z"/>
<path d="M7950 2786 c0 -8 9 -14 19 -13 15 1 17 4 9 14 -14 17 -28 16 -28 -1z"/>
</g>
</svg>
